<?xml version="1.0" encoding="utf-8"?>
<!-- Generator: Adobe Illustrator 23.0.6, SVG Export Plug-In . SVG Version: 6.00 Build 0)  -->
<svg version="1.1" id="Calque_1" xmlns="http://www.w3.org/2000/svg" xmlns:xlink="http://www.w3.org/1999/xlink" x="0px" y="0px"
	 viewBox="0 0 2755.7 2435" style="enable-background:new 0 0 2755.7 2435;" xml:space="preserve">
<style type="text/css">
	.st0{fill:#0E151A;}
	.st1{fill:#21282C;}
	.st2{fill:#0F21BC;}
	.st3{fill:#86A4BE;}
	.st4{fill:#88A6BF;}
	.st5{fill:#4A57CC;}
	.st6{fill:#316490;}
	.st7{fill:#2F638E;}
	.st8{fill:#C0C2C3;}
	.st9{fill:#4D59CD;}
	.st10{fill:#FFFFFF;}
	.st11{fill:#1C2328;}
	.st12{fill:#0012B8;}
	.st13{fill:#2938C3;}
	.st14{fill:#131A1F;}
	.st15{fill:#616CD3;}
	.st16{fill:#10171C;}
	.st17{fill:#151C21;}
	.st18{fill:#557FA3;}
	.st19{fill:#1F5786;}
	.st20{fill:#3C6D96;}
	.st21{fill:#636FD3;}
	.st22{fill:#FEFEFE;}
	.st23{fill:#C8C9CA;}
	.st24{fill:#E4E5E6;}
	.st25{fill:#E7E8E8;}
</style>
<g>
	<path class="st0" d="M757.6,1050.6c-1.7-8.9-3.2-17.9-5.1-26.7c-2.7-12.8-8.8-7.1-14.6-2.6c-3.2-0.6-5.2-2.6-6.8-5.3
		c-2.2-7.3-7.2-12.3-13.6-16.2c-8-4.8-14.8-11.1-20.2-18.7c-4.6-6.4-10.3-13.9-3.7-21.4c5.9-6.6,13.3-2.9,19.8,1.1
		c5.7,3.7,9.8,9.9,15.8,12.1c45.9,17.4,50.8,58,55,98.2c7.2,69.1,4.2,138.4,4.5,207.7c0.4,98.6-6.2,197.1-4.3,295.7
		c-1.5,8.4-1.9,16.9-0.2,25.3c1,11.3,0.4,22.6,0.4,34c-0.2,144.6,7.3,289.1,3.8,433.7c-1.9,78.9-8.3,156.9-44.1,229.7
		c-15,30.6-10,39.4,21.8,53.5c34.6,15.3,71.6,21.7,108.8,24.4c84.3,6.1,168.5,14.8,253.3,13.4c28.7-0.5,57.2-2.3,85.7-5
		c34.3-3.3,43.6-13.2,49.2-47.6c4.4-27,9.2-53.9,19-79.6c8.5-22.3,24.6-34.1,48.4-35.6c31.4-2,62.5,0.8,93.6,5.8
		c24,3.9,37.7,17.3,45,39.7c9.3,28.7,15.4,58,18.6,87.8c1.8,16.5,10.7,25,25.1,29.7c14.7,4.8,29.8,7.6,45.1,7.9
		c118.7,2.4,237.1,0.1,354.9-16.1c29-4,57.9-9.8,83.3-26.1c18.9-12.1,22.3-18.1,12.4-37.7c-40.9-80.5-46.5-167.1-47-255
		c-0.2-34.5-3.1-69.1-2.9-103.6c0.3-61.9,2.1-123.8,5.8-185.6c1.2-20.7,1.2-41.3,1.2-61.9c0.2-56.7,0.5-113.3-0.1-170
		c-0.8-76.6-1.5-153.3-5.7-229.7c-3.8-68.2,3.8-135.7,3-203.6c0-3.3,0.9-6.6,1.6-9.8c3.9-12.8,2.9-26.5,6.4-39.3
		c2.5-32.3,13-59.2,46.5-71.8c9.2-3.4,16.4-11.2,24.7-16.6c4.5-2.9,9.7-5.9,14.6-1.7c5.7,4.9,3.2,11.2,0.2,16.3
		c-9.3,16.2-23.9,26.2-40.8,33.1c-6.1,3.9-14.9,3.5-18.4,11.6c-1.6,8.8-3.1,17.7-4.7,26.5c-11.8,42.3-10.2,85.9-10.2,128.9
		c0,155.9,3.9,311.8,3.6,467.7c-0.3,125.2-7.5,250.5-6.3,375.7c0.9,95.5,1.2,192.4,49.3,280.4c14,25.7,10.5,45.9-18.8,62.5
		c-49.9,28.2-103.7,34.6-158.9,39.4c-104.1,9.1-208.2,15.8-312.7,6.5c-17.4-1.5-34.2-5.5-49.8-13.4c-15.6-7.9-23.9-20-24.6-38
		c-1.1-32.2-8.8-63.2-19.2-93.5c-2.6-7.6-4.9-16.6-15.2-15.6c-34.2,3.2-67.5-6-101.4-7.2c-13.1-0.5-20.6,4.2-24.8,17.5
		c-8.6,27.4-17.8,55-17.8,83.7c0,31.1-16,46.1-42.9,54.2c-31.1,9.4-63.2,9.5-95.1,9.8c-117.4,1.1-234.4-2.7-350.1-25.6
		c-25.8-5.1-48.9-17.1-70.8-30.8c-14-8.7-19.7-24.7-12.8-38.7c77.8-157.5,53.9-325.9,51-491.2c-3.1-177.3-3.6-354.5,2.1-531.7
		c2.4-73.3-0.2-146.6-5.5-219.7C761.3,1064.7,759,1057.7,757.6,1050.6z"/>
	<path class="st0" d="M732.8,1015.6c1.7,1.9,3.4,3.8,5.1,5.7c-72.1,104.4-105.9,222.3-122,346.4c-3.7,28.6-0.7,57.1,3.6,85.5
		c0.7,4.6,2.8,9.5,2,13.8c-14.4,73.5,32,133.2,45.7,200.3c3.7,18.1,15.8,35.2,26.7,50.9c26.9,39,52,78.7,62.5,125.8
		c5.3,50.7,7.5,101.2-14.7,149.1c-10.7,23.1-21.4,46.8-52.6,48.1c-11.3,0.4-7,9.1-6.8,15c0.9,28.1,0.8,56.4-8.6,82.9
		c-17.5,49.2-54.4,73.4-106,77c-84.2,5.8-159.9-18.6-226.2-68.8c-58.7-44.4-110-97.2-147-161.6c-15.6-27.1-37.6-33.8-65.4-30.2
		c-45.9,6-74.1-10.4-91.6-54.6c-22.7-57.4-22.8-117.3-18.1-177.3c7.1-89.9,25.1-177.8,48.3-264.8c8.7-32.7,12.7-64-10.8-94.4
		c-16.1-20.8-14-45-2.5-69.8c51.2-110.1,107.2-217.2,179.8-315c2.3-3.1,5.3-6.7,5.6-10.3c7.6-77.4,52.2-136.1,101-190.7
		c51.9-58.2,110.2-110.4,182.2-143.8c14.3-6.6,30-10.2,45.1-15.1c6.9-2.6,13.9-3.3,21.1-1.4c27.9,10.4,52.9,27.4,81.3,36.5
		c5.1,2.9,12.6,5.4,10.2,12.5c-2.1,6.3-9.7,6.6-15.6,6.3c-25.5-1-48-11.4-68.7-24.8c-14.9-9.7-28.1-10.7-44.9-5.5
		c-27.6,8.5-49.9,25-72.3,41.7c-68.8,51.1-132.6,107.2-177.4,181.8c-15.8,29.8-34.6,58.3-38.9,92.9c-1.1,8.9-6.2,15.8-10.8,23.2
		c-41.2,66.5-86.5,130.5-120.4,201.4c-0.6,1.8-1.4,3.5-2.3,5.2c-1.7,3.3-3.6,6.6-5.3,9.9c-10.6,16.5-19.3,34-26,52.5
		c-1.7,3.5-3.4,7-5,10.6c-0.9,1.8-1.8,3.6-2.8,5.4c-2.9,5.3-5.1,10.9-8.2,16c-16.4,27.1-17.1,53.6,0.6,80.7
		c14.3,21.9,16,46.2,10.8,71.3c-14.6,69.7-33.7,138.5-43.6,209.3c-9.6,68.2-15,136.4-5.2,205c2.6,18.4,7.6,36.3,16.5,53
		c12.8,24,32.2,34.5,59,31.7c12-1.2,24-2,35.9-0.5c22.2,2.9,40.5,12.1,51.9,32.7c31.7,57.4,75.9,104.5,124.5,147.5
		c53.5,47.3,117,73.1,187.7,81.8c27.7,3.4,54.8-0.8,80.7-9.8c30.4-10.6,46.3-34.9,53-65.2c4.2-18.9,4.9-38.2,5.1-57.6
		c0.1-17.4-6.8-28.3-22.1-36.7c-34.5-19-68-39.7-93.7-70.5c-6.1-7.4-15.1-15-4.7-25.7c18.4-1.4,26.6,14.7,39.3,23
		c29.6,26.6,64.4,44.5,100.4,60.3c13.4,5.9,23.2-0.5,30.5-11.6c14.7-22.1,22.7-47,25.1-73c5.4-58.4-1.8-114.4-37.8-163.6
		c-7.8-10.7-14.4-22.4-22.4-33.1c-14.6-19.6-24.6-41.1-28.3-65.3c-5.1-33.8-19.6-63.3-40.2-90.2c-9.8-12.7-19-25.7-25.3-40.5
		c-2.1-5-3.1-10.5,0.5-15.3c4.1-5.5,9.6-3.6,14.4-1.1c11.7,6.3,11.9-1.3,12-9.4c0.2-13.4-2-26.6-4.5-39.6
		c-10.7-54.5-7.6-108.5,2.4-162.7c15.7-85.1,43.5-165.9,84.5-242.2c7.6-14.1,16.4-27.4,26.5-39.9
		C719.7,1020.8,723.7,1013.8,732.8,1015.6z"/>
	<path class="st0" d="M1994.2,1844c11.1-44,32.1-83.6,60.9-117.6c33.7-39.7,24.1-95.7,55.5-135c13.8-17.2,18.6-34.8,15.2-56.7
		c-5.1-33.3,3.9-66.1,6.9-99.2c7.5-82-14.1-159.7-38.1-236.7c-16-51.5-37.7-100.7-65.7-147c-3.2-4.9-1.4-8.1,3.5-10.1
		c12.3,0.3,16.3,10.5,21.2,18.8c41.2,70,67.8,145.6,85.5,224.6c14.9,66.8,19.9,133.9,6.4,201.7c-1.2,5.9-1.4,11.9-1.6,17.9
		c-0.7,22.5-0.7,22.5,20.7,21.4c2.7,1.9,4.1,4.7,4.8,7.9c1.1,14.7-7.5,25.5-15.7,35.7c-28.2,35-46.5,74.1-53.6,118.7
		c-3.4,21.5-16.3,39.1-28.8,56.5c-23.4,32.6-45.4,65.9-52.5,106.6c-7.9,46-8.3,91.4,9.7,135.5c14.8,36.1,28.4,41.4,62.9,24.2
		c35.3-17.6,68.1-39.2,97.6-65.5c7-6.2,13.8-13.5,24.3-6.3c4.5,17.5-8,26.9-18.5,36.3c-23.9,21.5-50.3,39.8-78.8,54.3
		c-19.5,10-26.1,23.3-25,44.6c1.3,25.3,0.6,50.5,11.6,74.3c12.1,26.3,32,42.1,59.9,47.9c46.2,9.5,91.4,4.3,135.9-9.9
		c67.4-21.5,120.9-63.1,168.1-114.4c29.5-32,54.7-66.9,77.7-103.7c16.2-25.9,43.5-35.2,71.5-29.7c43.7,8.4,68.1-13.1,81.4-53.9
		c16.7-51.4,15.6-103.9,11.5-156.4c-6.8-87.8-24.3-173.9-46.8-258.9c-3.8-14.1-6.5-28.5-7.4-43.3c-1.2-21.1,0.7-41.3,13.2-59.2
		c17.4-24.7,13.4-48.2,1.1-74.9c-48.8-105.5-107.2-205.4-170.7-302.4c-4.8-7.3-9.5-14.5-11.4-23.2c-14.7-66.6-52.5-120.4-96.5-170.1
		c-39-44-85.3-80.3-132.4-115.2c-20-14.8-42.2-25.4-64.9-34.9c-7.8-3.3-16.3-6.7-24.7-0.9c-24.1,14.1-47.6,29.4-76.5,31.8
		c-7.3-0.7-15.4,0.9-19.7-7.5c0.9-10.1,9.6-11.3,16.6-14.2c10.2-4.3,20.4-8.6,30.4-13.4c16.7-5.3,29.4-20.9,48.9-19.1
		c5.9,2.7,12.6,1.7,18.7,3.9c37.5,7,69.6,25.8,99.7,48.1c75,55.5,152.5,113.9,186.7,201.5c58.8,150.6,164.3,275.3,222.8,425.1
		c9.3,23.9,12.8,46.9-2.3,66.3c-25.6,33-19.7,66.5-10.6,102.1c27.2,105.3,49.5,211.4,48.8,320.9c-0.3,40.9-5.2,81-21.5,119.1
		c-18.3,42.6-45.6,57-91.7,50.7c-26-3.6-46.6,4.1-62.6,28.6c-67.2,103.1-148.5,190.1-273,223.5c-43,11.5-86.6,14.5-130.4,3.9
		c-46-11.1-70.2-42.9-80.9-86.8c-2.8-11.6-2.8-23.8-4.5-35.6c-3.2-22.4,5.5-42.6-30.1-58.1c-39.5-17.2-44.3-69.7-47-112.7
		C1988.5,1897.3,1992.6,1870.6,1994.2,1844z"/>
	<path class="st0" d="M2186.7,627.2c-7.5,0.1-15,0.1-22.5,0.2c-5-3.1-10.6-5.1-15-9.3c-3-2.9-7.9-5.1-10.2-0.8
		c-12.5,24.4-31.9,14.1-50,10.7c-4.6-1.5-9.3-2.4-14-3.5c-2.9-1.1-5.4-2.7-6.8-5.6c1.6-7.8,7.9-8,13.9-8.7c2.8-0.2,5.6,0.1,8.3,0.7
		c7.2,2.6,12.9,0.9,16.8-6c11.5-13.4,26.3-22.3,41.7-30.2c27.8-14.3,56.1-27.5,83.3-43c64-36.4,99.7-92.1,112.7-163.4
		c11.9-65.3,15.3-130.7,0.4-196.1c-0.9-3.9-1.4-7.9-2.5-11.7c-1.8-6.3-2.5-14.1-10-16c-8-2-11.3,5.4-15.3,10.4
		c-3.4,4.1-5.9,8.8-8.8,13.3c-1.1,1.6-2.1,3.2-3.1,4.9c-1.5,2.5-3,4.9-4.3,7.5c-12.9,33.8-30.4,64.8-54.5,92
		c-65.8,73.4-152.5,101.2-246.6,113.2c-24.4,3.1-49.1,4.4-73.4,8.5c-5.9,1-11.8,1.8-17.7,3.2c-38.9,9.3-41.7,14.3-28.2,51.1
		c5.9,13.9,14.8,26,23.2,38.4c4.4,6.4,9.8,12.5,7.7,21.3c-1.2,3-3.4,4.9-6.6,5.7c-11.6-0.3-16.9-9.2-22.7-17.1
		c-16.9-23.1-29.2-48.6-38.2-75.7c-0.9-5.2-2.1-10.4-2.7-15.7c-1.3-11.6,1.2-18.4,15.9-18.5c22.8-0.2,42.5-13.9,64.6-18.5
		c9.2-1.9,2.4-8.4-1.5-11.2c-10.9-7.7-22.4-14.4-35.5-17.9c-10.9-2.9-21.6-6.8-32.5-9.9c-71.4-20.3-122.1-67.2-166.2-124.6
		c-38.3-49.9-83.2-93.5-141.7-120.4c-15.2-7-30.6-12.9-46.9-16.7c-71.3-24.5-145.1-30.4-219.8-28.9c-7,0.1-16.3-1-19.1,7.2
		c-2.2,6.6,4.8,11.7,8.8,16.9c16.2,21.2,36.8,38,55.6,56.7c17.1,16.9,17.3,27.2,4.7,47.4c-9.9,9.4-21.1,15.3-35.2,13
		c-5.3-0.9-10.4-3.2-11.9-8.8c-1.7-6.3,3.2-9.2,7.9-11.7c7.5-3.5,16.6,1.2,23.7-4.4c8.4-9.4,1.9-15.5-4.8-21.5
		c-25.4-22.8-47.5-48.6-67.8-75.9c-15.7-21.2-11.5-35.3,14-36.8c171.2-9.8,328.7,18.6,442.6,164c14.4,18.3,26.7,45.6,45.3,51.3
		c21,6.5,32.7-26.3,51.3-38.5c24-15.8,47.5-32,75.5-39.8c10-2.8,20.5-2.7,27.8,5.7c7,8,1,16.6-2.1,24.3
		c-13,32.7-31.3,63.4-38.8,98.2c-1.8,8.2-9.6,19.8,1.9,24.7c11.9,5.1,23.7,14.5,39.2,6.5c54.9-28.4,55.9-28.1,60.2,33.7
		c1.2,17.6,6.9,19.8,23,17.7c73.7-9.7,145.9-22.1,207.7-68.9c40-30.3,68.4-68.5,88.6-113.7c9.3-20.8,18.6-41.5,35.5-57.3
		c17.9-16.7,39.5-13.1,45.1,10.3c27.6,116.2,32.1,231-33.4,337.9c-32.6,53.1-86.7,79.1-140.2,105.2c-9.2,4.5-26.2,6.5-25.2,15.8
		C2159.9,611.4,2171.1,623.2,2186.7,627.2z"/>
	<path class="st0" d="M1312.9,155c-4.8,7.3-12.1,8.8-20.1,8.6c-47.4-18.4-96.6-28.2-147.4-29.8c-126-10.2-248.6,4.5-366.8,50.4
		c-11.4,4.4-28.4,7-28.6,21.2c-0.2,14.6,17.5,15.9,28.5,20.9c26.1,11.9,52.5,23,75.8,40.1c23.7,17.4,25.4,27.5,9.7,51.7
		c-0.7,1.1-1.5,2.2-2.2,3.3c-23.8,39.6-24.2,48.6,32.5,59.2c8.1,0.6,11.1,5.8,12.4,13.1c4.8,27.2-30.7,96.1-56.1,108.4
		c-5-0.4-7.6-3.3-8.5-8c2.3-18,18.3-28.9,23.6-45.4c18.8-40.8,15.5-48.3-28.6-57.6c-33.2-7-67.4-7.6-101-12.9
		c-72.7-11.4-141.9-30.7-200-79.1c-13.4-11.1-24.5-24.5-37.8-35.6c-19.6-26.2-37.2-53.5-49-84.2c-4.6-11.9-10.8-22.8-19.1-32.5
		c-3.4-4-6.6-9.3-12.6-8.6c-7.3,0.9-9,7.7-10.1,13.3c-5.2,26.7-12.7,53.1-11.7,80.7c0.1,4,0.3,8-0.1,12
		c-2.7,49.6,3.2,98.4,15.5,146.2c14.4,56.1,49.1,97.9,96.9,129.4c13.3,8.8,27.6,16,41.9,23.2c22.5,11.4,47.4,19.6,66.8,35.3
		c22.2,17.9,44.4,27.1,72.4,20.4c4,1,7.6,2.6,9.3,6.7c-0.3,8.3-6.8,10.9-13,12.9c-17.7,5.6-35.9,8.7-54.6,7.2
		c-4.6-0.4-10.4-0.5-12.8-4.3c-11.9-19.4-20.3-7.9-28.9,2.8c-7-1.5-13.9-3-20.9-4.5c13.1-4.6,21.1-16.3,23-27.5
		c1.3-7.8-13.8-9.5-21.5-14c-8.1-4.6-16.7-8.3-25.2-12.1C438.2,518.5,385.9,435.6,376.5,321c-5-60.6-0.9-119.6,12.2-178.5
		c3.1-13.9,9.2-25.8,23.6-29.5c13.5-3.5,22.9,6.1,30.3,15.5c8.6,10.9,17.4,22.5,22.5,35.2c44.9,113.5,132,171.6,248.8,190.9
		c32.2,5.3,64.7,8.4,97.1,12.9c9.3,1.3,14.1-0.1,15.9-11.2c3-17.8,10.2-34.8,22.2-48.5c9.7-11.1,6.8-18.2-4-25.6
		c-27.1-18.6-57.5-30.7-87.2-44c-14.7-6.6-31.8-12.2-32.3-31.2c-0.5-19.9,16.4-27.7,31.9-34.3c115-49.1,235.5-65.1,359.6-59
		C1184.4,116.9,1250.8,125.9,1312.9,155z"/>
	<path class="st1" d="M2033.7,1043.4c-1.6,2.9-3.2,5.7-4.7,8.6c-12.6-6.7-11.2-29.6-31.5-27.6c0.1-8.4,7-11.7,12.1-16.5
		C2020.2,1018,2035.6,1024.8,2033.7,1043.4z"/>
	<path class="st2" d="M2033.7,1043.4c-8-11.8-16.1-23.6-24.1-35.4c19.9-4.6,34.6-16.2,44.5-33.9c1.2-2.1,1.1-4.9,1.6-7.3
		c-2.3-0.3-5.8-1.8-6.8-0.8c-27.2,26.1-74,35.7-72.8,85.8c-5.4,12.7-5,26.1-5.2,39.4c-11.5,189.2,5.5,378.3,1.7,567.5
		c-2.2,111.9-6.1,223.8-5.6,335.6c0.4,83-2.1,166.9,22.3,247.8c7.8,25.9,20.2,50.5,30.6,75.7c5.9,14.3,3.2,24.2-11,33.4
		c-44.4,28.8-94.9,33.7-145.2,38c-110.9,9.5-221.9,17.7-333.1,6.9c-30.4-2.9-54.3-13.7-52.2-51.3c0.6-10.4-2.3-21.2-4.8-31.5
		c-21.2-88.6-16.3-77.3-101.1-84.1c-77.9-6.2-80.2-0.9-96.2,77.3c-2.4,11.7-6.8,23.8-5.8,35.3c2.6,32-16.7,43.2-42.6,46.7
		c-84.9,11.6-170.1,8.1-255.2,1.5c-47.8-3.7-95.9-4.5-143.1-13.7c-17-3.3-33.9-7.3-50.3-12.4c-57.5-17.9-61.9-27.8-36.5-81.8
		c38.6-82.4,38.4-170.8,38.6-258.6c0.2-141.2-2-282.4-3.3-423.6c1.9-8.1,2.2-16.1-0.2-24.1c1.3-135.6,3-271.1,3.6-406.7
		c0.2-42.5-0.8-85.1-8.9-127.1c-5.2-26.8-12.6-51.3-44.1-60.1c-9-2.5-15.7-13.5-23.4-20.7c-11.9-17.3-6.6-30.3,15.8-39
		c11.9,2.7,18.7,12.1,26.4,20.4c57.8,62.3,79.1,138.6,85.5,221c5.4,70.5,6.1,141.2,3.4,211.7c-3.6,92.6-0.6,185.2-4.1,277.7
		c-4.7,124.5-10.4,249-6.4,373.4c2.2,67.6,0.2,134.3-9.6,201c-3.2,21.7-8.1,43.2-10.4,65.1c-2.9,27.2,5.3,37.1,32,39.6
		c70.3,6.6,140.9,9,211.3,10.5c41,0.9,82.5-1.2,123.8-2c17.4-0.3,27.4-8,31.4-24.5c2.8-11.7,5-23.4,5.9-35.4
		c2.2-30,17.2-52.6,41.5-69.5c15.5-10.8,32.8-17.8,50.6-23.6c32.4-10.5,65.3-19,98.8-24.7c54.9-9.3,86.2,11.1,101.6,64.6
		c6.3,21.9,8.6,44.4,12.8,66.7c3.9,20.7,15.8,32.8,36,38c14.3,3.7,28.7,6.7,43.3,7.4c79.1,3.9,158.3,8.2,237.2-3.7
		c13.2-2,26.4-4.1,39-8.7c12.8-4.7,22.9-13.8,21.8-28c-1.9-23-0.7-46.9-12.8-68.1c-1.3-4.8-0.4-9.5,1.1-14.1
		c-4-48.4-0.2-97.1-5.3-145.4c-3.5-32.9,1.4-65.3,3.9-97.6c3.8-48.5,1.5-97.1,6.2-145.5c10.9-110.8-8.5-220.2-17.7-330.1
		c-12.9-154-9.4-307.3,29-458.2c10.4-40.6,25.3-79.9,37.9-119.9c10.5-33.2,21.2-37.8,55.4-33.1c28.7,3.9,55.7,13.2,82.1,24.2
		c22.3,9.3,24.5,17.1,8.5,34.8c-8.2,9.1-8.7,16.9-3.3,26.9c3.8,7,7,14.4,9.5,21.9c0.5,2,1.1,4.1,2,6c1.1,2.7,1.8,5.6,2.4,8.5
		c0.7,1.6,1.2,3.3,1.7,5.1c0.9,3.2,1.6,6.4,2.6,9.6c0.6,1.4,1,2.9,1.4,4.4c0.9,2.8,1.7,5.7,2.6,8.5c0.5,1.3,1,2.7,1.4,4.1
		c0.9,2.7,1.7,5.4,2.6,8.1c0.5,1.3,1,2.7,1.4,4c0.9,2.7,1.7,5.4,2.6,8.1c0.5,1.3,1,2.7,1.4,4c0.9,2.7,1.7,5.4,2.7,8.1
		c0.6,1.3,1,2.7,1.4,4.1c0.9,2.8,1.8,5.6,2.8,8.3c0.6,1.4,1.1,2.8,1.5,4.3c1,2.9,1.9,5.8,2.9,8.8c0.5,1.5,0.9,3.1,1.3,4.6
		c0.8,4.1,1.7,8.1,3.4,11.9c0.7,1.7,1.3,3.4,1.8,5.2c1.8,4.7,3.6,9.3,4.9,14.1c15.8,67.2,32.3,134.2,38.8,203.1
		c2.4,25.2,3.7,50.5,1.2,75.5c-3.6,35.8-2.5,71.5-4.4,107.3c-0.1,1.2-0.2,2.3-0.3,3.4c-0.6,1-1.2,2-1.8,3c-0.6,0.2-1.3,0.4-1.9,0.5
		c-11,1.4-16.8,21.4-23.1,15.5c-6.2-5.8-4.5-22.8-2.4-34.2c18.5-100.5,7.6-198.7-24.3-294.6
		C2093.4,1154.3,2072.5,1094.5,2033.7,1043.4z"/>
	<path class="st2" d="M717.1,923.8c-5.7,11.9-21.2,20.5-12.3,37.2c-10.3-3.4-14.9-1.8-8.3,9.4c7.6,13,17.9,23.7,32.3,27.9
		c14,4.1,10.2,9.8,4,17.3c-60.4,70.9-87.8,157.1-111.2,244.7c-19.8,74.1-26.8,149.2-11.1,225.3c1.9,9,1.9,18.6,1.6,27.8
		c-0.2,8.4-2,16.7-3.2,25.1c-5.4-4.5-10.5-9.4-16.2-13.5c-2.8-2-6.7-2.6-10.1-3.9c0.5,3.8,0.3,7.8,1.6,11.2
		c1.6,4.3,3.8,8.6,6.5,12.3c33.2,43.3,58.3,89.9,67.1,145c3.9,24.4,23.8,42.7,37.7,62.9c49.7,72.1,61,149.3,30.1,231.4
		c-16.3,43.5-29.7,48.1-70.7,27c-29.5-15.2-58.8-31-82.5-55c7.7-6.9,15.1-1.6,22.2,1c12.5,4.6,24.6,10.4,38.1,11.2
		c16.2,1,23.4-5.2,25.2-21.3c1.2-11.3-0.4-22.5-2-33.8c-10.2-71.1-36.2-137.6-58.9-205.1c-8.3-24.6-17.3-49-25.2-73.7
		c-12.2-38.2-29.3-73.7-51.1-107.7c-35.5-55.2-60-116.1-74.9-179.9c-12.4-53.5,1.8-104.3,27.2-152.1c16-30,33.9-59,55.8-85
		c19.5-23.2,33.9-49.2,45.6-76.9c14.2-33.8,32.4-65.6,47-99.3c5-11.6,12.6-22,22.1-30.6c21.9-20,59.5-13.2,73.6,13.2
		C718.3,918.6,718.3,921.2,717.1,923.8z"/>
	<path class="st3" d="M1970.8,1091.1c-2.8-13.7-4.2-27.3,5.2-39.4C1974.2,1064.8,1972.5,1077.9,1970.8,1091.1z"/>
	<path class="st4" d="M777.7,1575.5c5.3,8,5.1,16,0.2,24.1C777.8,1591.6,777.8,1583.6,777.7,1575.5z"/>
	<path class="st5" d="M717.1,923.8c-32.5-40-63.8-37.6-87.7,8.6c-20.2,39-38.7,78.9-55.9,119.3c-21.2,49.7-60.9,86.7-88,132.6
		c-48.5,82.2-45.1,162.7-5.4,245.5c48.7,101.6,105.7,199.4,135.6,309.6c17.7,65.3,45,128.2,49.1,196.7c2.1,36.5-12.5,46.8-47.6,36
		c-15.1-4.7-29.9-10.7-44.8-16.1c-10.4-8.3-20.9-16.5-31.3-24.8c-12.7,3-5.8,11.1-3.4,16.5c12.8,28.8,20.4,59.1,27.4,89.6
		c6.3,27,2.3,52.8-12.6,76.8c-11.6,18.6-28,27.8-49.7,28c-21,0.2-41.2-4.9-60.4-12.2c-42.9-16.4-86.3-31.6-126.2-55.1
		c-24.2-14.3-40.9-33.4-48.8-60.5c-4.6-16-10.2-31.7-17.1-46.9c-12.9-28.6-34.3-48.7-62.2-62.3c-18.4-9-36-7.9-52.4,5.3
		c-4.7,3.7-9.3,7.5-14.4,10.8c-19.9,13-38,10.8-53-7.8c-16.6-20.5-24.5-44.6-21.2-70.8c12.9-103.9,28.4-207.2,66.7-305.7
		c18.3-46.9,30.4-95.2,20.1-146.4c-3.9-19.4-10.1-38.4-25.7-50.7c-28.4-22.3-35.8-48.1-19.4-80.5l-0.1,0.1c3-2.2,2.3-5.9,3.6-8.8
		c6.6-19.8,16.1-38.2,27.7-55.6c3.7-1.3,2.9-5.4,4.6-7.8l-0.1,0.1c50.8-61.7,97.8-126.2,143.2-191.9c22.3-32.4,39.3-67,26-108.5
		c-2.5-7.7-0.6-15.7,3.5-23c65.8-102.3,150.9-182.4,263.9-230.8c10.1-4.4,17.8-3,27.3,3.5c24.3,16.7,50.8,28.9,80.6,31.9
		c2.8,0.3,5.8-1.5,8.8-2.3c-2.8-2.4-5.5-4.8-8.3-7.3c-2-6.4,2.2-10.1,6.6-12.6c17-9.8,25.4-25.3,30.3-43.4
		c12.4-14.8,31.6-18.4,46.9-28.6c31.2-20.9,62.6-41.4,87.9-69.8c2.3-2.6,5.7-3.2,8.7-4.4c26.8-27.3,42.4-60.5,50.8-97.3
		c1.4-6.1,8.9-18.1-7.4-18.5c-0.4-11,8.2-8.9,11.2-5.1c8,10.2,7.7,1.6,10.5-3.1c7.6-13.2,16.1-25.6,11.1-42.6
		c-2.5-8.5,4-13.3,12.7-13.9c3.3-0.3,6.6-0.2,9.9-0.2c12.3-0.1,83.5,34.8,89.3,43.8c-3.5,8.8-11.3,12.8-18.9,17
		c-13.4,7.4-27.3,13.9-41.4,19.7c-4.7,2-13.7,3.7-12.6,7.4c1.5,4.9,9,0.7,13.6-0.2c19-3.7,37.1-2.8,54,7.5c14.5,8.8,29.7,9.6,46.1,6
		c37.1-8.2,73.5-18.7,110-29.2c160.5-46.3,322.6-48.9,486.3-20.6c50.5,8.7,101,17.6,150.1,32.6c9.7,3,19.1,6.2,23.9,16.3
		c14.1,33.4,27.6,67.1,55.3,92.4c18.5,5.2,26.9,22.7,41,33.4c25.3,19.2,53,34.6,79.1,52.6c1.2,1.6,2.2,3.3,3,5.1
		c0.3,0.9,0.6,1.9,0.9,2.8c5.4,23.2,18.1,33.4,43.3,34.8c10,0.6,19.7-2.5,29.5-2.5c7.7-0.1,17.9-3.4,19.9,9.5
		c-15.8,6.9-31.6,13.9-47.5,20.8c5.2,9.7,13,4.1,20,3.5c26.5-5.1,49.7-17.7,72.2-32c6.8-5.4,12.3-0.4,18.3,2
		c28.2,11.4,52.7,28.8,74.8,49c56.9,51.8,107,109.5,147.6,175.2c8.8,14.3,16.8,29.1,21.2,45.1c16.9,61.8,51.9,113.3,89.2,163.9
		c46.2,62.6,79.5,132.3,109.7,203.6c10.2,24.1,16.5,48.5,4.1,75.2c-7.7,16.6-2.6,35.2,2.7,52.8c12.6,41.4,33.9,79.5,42.7,122.4
		c17.7,86.2,34.2,172.3,31.6,261c-1,33.9-12.1,64-29.4,92.1c-12.4,20.1-23.1,20.5-39.4,4c-17.6-17.8-27.3-18.3-46.1-2.5
		c-6.7,5.6-12.6,11.9-17.7,18.9c-45.3,61.9-100.7,113-162.6,158.1c-41.9,30.6-80.8,65.3-126.6,90.5c-15.3,8.4-30.9,15.5-47.1,21.7
		c-19.2,7.3-38.1,5.2-56.4-2.6c-23.5-9.9-33.4-26.7-31.2-52.2c1.3-15.4,4.6-30.7,12-44.1c23.7-42.5,44.8-85.9,54.2-134.2
		c17.7-1.7,26.3-14.1,22.8-33.1c-5.3-28.7-39.5-49.1-67.3-40.2c-12.2,3.9-22.6,11.3-33.6,17.4c-22.5,12.4-30.6,8.6-34.9-17.2
		c-4.3-26.1-2.2-52.4,7.2-76.7c15.6-40.3,34-79.5,55-117.3c11.7-21,22.3-42.4,26.2-66.5c1.4-8.6,3.8-17.2,8.8-24.3
		c17.8-25.2,22.5-53.3,21-83.5c-1.2-23.2,0.8-46.5-2.2-69.8c-1.1-8.3-2-18.2,11.1-19c3.1,1.1,4.8,3.6,6,6.5
		c1.4,4.6,1.8,9.5,3.5,14.1c0.9,3.5,1.4,7.2,1.9,10.8c0.3,3.4,1.1,6.8,2,10.2c0.6,2.4,1.1,4.9,1.4,7.4c0.3,4,0.8,8,2.2,11.9
		c0.7,2.3,1.1,4.6,1.6,6.9c0.6,3.1,1.2,6.1,2.2,9c0.6,1.5,1,3,1.4,4.5c0.9,3.1,2,6.1,3.3,9c0.8,1.5,1.5,3,2.2,4.6
		c1.8,3.1,4.2,5.8,6.7,8.4c29.9,25.5,63.3,12.8,71.3-27.8c7-35.6,7.4-71.7,2.9-107.5c-16.5-131.2-53.2-256.7-104.7-378.4
		c-21.8-51.6-42.4-103.6-68.7-153.1c-1.4-2.6-2.3-5.4-3.7-8c0.2,2.7,1.4,5.1,1.7,7.8c8.9,96.1,35.7,190.1,34.8,287.4
		c-1.3,7-0.6,13.9,1.6,20.7c0.7,2.9,1.2,5.8,1.5,8.7c-0.4,5.9,1,11.5,2.7,17c0.9,3.8,1.5,7.6,1.6,11.5c-0.8,6,1.3,11.6,2.1,17.3
		c0.3,4.1-0.2,8-3.1,11.2c-11.9,2.1-14.3-7.6-17.4-15c-14.8-35.8-37.8-68.5-40.1-109.2c-0.7-12.7-10-22.9-17.2-33.1
		c-14.4-20.4-28-41.4-46.6-58.5c-6.9-12.8-14-25.5-20.5-38.5c-7.5-14.9,5.2-19.7,13.8-26.4c4.1-3.2,10.6-5.8,8.5-11.9
		c-1.2-3.3-6.8-5.7-10.9-7.3c-30.4-11.8-61.1-22.3-93.5-27.6c-19.4-3.2-31.4,1.4-38.1,21c-30.2,89.5-56.1,179.8-67.4,274.1
		c-8.6,72.3-9.3,144.7-7.2,217.1c2.5,83.6,13.3,166.6,21.7,249.8c6.6,66,6.2,132.6,0.7,199c-3.6,44.3-4.2,88.9-6.9,133.3
		c-4.3,71.1-1.6,141.9,3.6,212.8c0.5,6.9,2.8,14.8-4.2,20.5c-6.1,2.9-11.8,0.1-17.3-1.7c-37.4-12.3-75.5-18.3-115-16.9
		c-13.7,0.5-27.9,3.4-41.2-3c-6.3-7,0.4-10.2,4.8-11.3c13.8-3.5,14.7-13.6,14.5-24.8c0-3.3,0.2-6.7,0-10
		c-5.1-113.5,9.7-225.8,22.2-338.1c1.8-15.9,3.2-31.9,0.6-47.8c-2.9-18.4-15.2-22.8-30-11.5c-8.2,6.2-13.3,14.8-17.8,23.8
		c-35.9,71.3-71.5,142.8-107,214.3c-11.6,23.3-15.8,49.5-27.9,72.6c-1.5,2.8-3,6.7-0.2,9.3c3.9,3.6,7.5-0.2,10.5-2.2
		c13.9-9.3,26.1-20.7,39.2-30.8c14.7-11.4,22.6-8.8,23.3,8.9c1.5,40,9.3,79.2,12.6,119c1,11.3,3.9,20.7,13,27.7
		c2.3,12.3-8.1,11.4-14.7,13.3c-23.9,6.8-48.1,13-71.2,22.4c-1.1,0.9-2.6,1.4-3.8,2.1c0.5,0,1.1-0.3,1.8-0.8c3.4-2.1,6.7-4.2,10.7-5
		c63.4-22.9,128.9-31.4,195.9-27.6c28.4,1.6,56.3,8,83.2,17.7c4.6,1.6,8.5,3.7,10.2,8.6c5.8,2.9,12.6,2.6,12.9,13.4
		c0.3,17.8,4.9,35.4,6.7,53.2c2.2,21.2-8.9,35.6-28.5,39.9c-67.8,14.7-136.5,20.4-205.8,14c-28.5-2.6-57.1,1.1-85.6-4
		c-62.6-11.2-65-12.7-76.5-73.9c-1.2-6.5-2.2-13.1-3.3-19.6c-11.6-72.6-41.7-94.6-113.1-78.8c-44.6,9.9-90.3,17.5-130.1,42.8
		c-25.9,16.5-40.1,39.1-41,70.6c-1.7,53.6-11,61-63.6,62.3c-105,2.4-209.7-1.5-314.5-8.4c-35.8-2.4-46.9-17.1-39.8-54.4
		c13-69.3,24.5-139.2,21.4-209.6c-3.2-73.2-4.4-146.5-2.2-219.5c4.3-139.7,5.3-279.4,8.6-419.1c1.7-71.9,3.9-143.8,1.9-215.5
		c-2.3-85.3-8.9-170.7-61.9-243.4C752,958.4,737.4,938.4,717.1,923.8z"/>
	<path class="st2" d="M88.8,1259.4c-8.8,33.9,4.3,56.3,28.9,81.6c35.7,36.8,32.4,87.7,20.8,134.2c-14,56-35.4,110.1-50,166
		c-17.1,65.5-27,132.6-35,199.9c-3.3,27.7,3.2,52.7,23.7,73.3c12.8,12.9,25.8,12.4,39.4,2.9c53.5-37.1,121.1-20.5,137,45.1
		c22.5,92.5,88.8,126.1,166.4,152.5c15.7,5.3,31.3,11.4,47.3,15.6c65.3,17.2,107.4-25.3,91.1-92.1c-7.9-32.3-17.6-64.1-26.6-96.1
		c-2.4-8.5-5.1-16.9,9.3-10.8c-9,11.3,2.3,17,7.5,22.7c27.8,30.4,62.4,51.8,98.8,70.3c11.6,5.9,16.8,13.3,17.4,26
		c1.5,28.8,1.3,57.6-8.1,85c-17.7,51.6-59.6,66.3-109,67.3c-75.8,1.6-143-24.3-202.1-69.5c-59.6-45.7-109-101.1-145.8-167.6
		c-15.4-27.8-44.7-28.9-72.7-25.5c-39.5,4.8-61.3-6.7-76.5-44.1c-24.7-60.8-20.4-124.4-15.6-187.5c7-91.9,29.9-181.1,50.7-270.6
		c6.6-28.1,4-55-13.8-79.8C45.2,1320.2,72.5,1290.5,88.8,1259.4z"/>
	<path class="st2" d="M297.3,864c10.4,42.6,11.7,84.6-15.6,121.9c-47.2,64.7-88.3,134.1-144.8,191.7c-3.6,3.7-8.2,6.5-12.3,9.7
		c18.5-47.5,46.2-89.9,73.9-132.1c31.4-47.7,60.4-96,76.5-151.4C279.2,889.6,289.7,877.3,297.3,864z"/>
	<path class="st2" d="M709.3,604c2.7,29.8-21.8,40-39.8,55c-29.3-6.2-53.1-24.9-80.6-35.2c-5-14.3,9-19.3,15.7-25.1
		c3.8-3.3,16,3.4,14.5,16.5c-0.8,7.2,8,4.9,12.6,4.9c22.5-0.1,44.7-2.7,65.3-12.8C700.3,603.5,703.9,600.6,709.3,604z"/>
	<path class="st2" d="M124.7,1187.3c0.6,3.9-0.7,6.6-4.6,7.8C121.6,1192.5,123.2,1189.9,124.7,1187.3z"/>
	<path class="st2" d="M92.4,1250.7c-1.2,2.9-2.4,5.9-3.6,8.8C89.9,1256.6,91.2,1253.6,92.4,1250.7z"/>
	<path class="st2" d="M2217.1,1939.7c3.6,39.3-12.9,72.7-31.5,105.2c-10.3,18-20.4,35.8-24.8,56.3c-4.1,19-9.9,38.7,8.2,53.6
		c19.8,16.3,42.7,21.6,67.2,12.3c50.3-19,94-49.2,135.7-82.6c54.9-44,113.5-83.8,159.8-137.8c17.3-20.2,32.5-42.2,50.5-61.6
		c27.3-29.3,39.1-28.4,65.1,2.3c11,13,18.1,4,23.2-4.2c17.1-27.3,30.6-56.2,30.7-89.3c0.6-128.2-18.7-252.6-68.9-371.4
		c-12.3-29-16.4-57.4-1.9-88.5c9-19.4-4.2-40.3-12-59c-36.8-88.2-83.9-170.6-142.4-246.4c-18.1-23.4-32.7-49.3-40.5-77.4
		c-20.9-75.6-67.5-135.3-117.7-192.2c-39.1-44.4-81.7-85.9-135.5-113.4c-5.4-2.7-9.9-6.6-16.4-5.5c6.7-9.7,14.6-3.9,21.3-0.9
		c137.5,61.8,240.2,159.9,298.3,299.2c13.9,33.3,28.3,65.1,47.9,94.7c57.9,87.6,105.4,180.6,149.6,275.5c8.6,18.5,7.3,36.1-3.7,51.2
		c-24.9,34-20.8,70-11.4,106.9c28.1,110.6,51.9,221.9,49.1,337.1c-0.8,34.3-5.9,67.7-19.1,99.5c-15.1,36.5-38.5,49-77.5,42.2
		c-34.2-6-58.7,9-76.3,36.3c-70.5,109.3-156.9,199.1-292.5,223.8c-25.1,4.6-50.7,4.7-75.7,0.9c-66-10-94.2-53-92.4-135.9
		c0.5-21,6.2-33.8,26.7-45.1c39.2-21.5,81.2-41.6,102.6-85.2l1.1-1.5c0,0,1.9-0.1,1.9-0.1
		C2215.7,1938.5,2217.1,1939.7,2217.1,1939.7z"/>
	<path class="st2" d="M2212.7,1940.1c-9.9-3.2-14.4,4.9-20,10.1c-33.5,31.1-71.8,54.8-113.1,74.1c-20.3,9.4-36.1,5.5-46.7-15
		c-36.9-71.6-37.2-145,0.5-214.4c29.4-54.1,64.4-104.3,77.4-166.6c7.4-35.1,41-58.5,54.7-92c2-4,2.6-8,0-11.9l-0.9-1.6
		c3.2-11.1,14.5-11.2,22.2-16.2c3.8-0.9,6.8,0.2,8.5,3.9c0.5,1.6,0.6,3.2,0.4,4.8c-0.4,2.3-1.3,4.5-2.2,6.7
		c-0.5,1.4-1.1,2.7-1.7,4.1c-0.8,2-1.5,4-2.3,6c-0.4,1.3-0.9,2.7-1.5,3.9c-0.8,1.9-1.7,3.8-2.7,5.6c-0.6,1.2-1.3,2.4-2,3.6
		c-0.7,1.2-1.5,2.2-2.3,3.3c-0.4,0.5-0.8,1.1-1.2,1.6c-1.1,1.7-2.2,3.3-3.1,5.1c-0.6,1.2-1.2,2.4-1.8,3.6c-0.5,1.2-1.2,2.4-1.8,3.6
		c-0.6,1.2-1.2,2.4-1.9,3.6c-0.9,1.8-1.8,3.6-2.6,5.5c-0.5,1.3-1,2.5-1.5,3.8c-0.6,2-1.3,4-1.9,6c-0.4,1.4-0.8,2.8-1.3,4.1
		c-0.9,2.8-1.8,5.7-2.6,8.5c-0.3,1.5-0.8,3-1.3,4.5c-1.1,3-1.5,6.1-2.2,9.2c-0.3,1.6-0.7,3.1-1.2,4.7c-1.4,3.8-2.2,7.7-2.9,11.6
		c-0.3,1.6-0.7,3.2-1.2,4.7c-1,3.1-2,6.1-3,9.2c-0.4,1.6-0.9,3.1-1.5,4.6c-1.2,3-1.6,6.1-2.3,9.2c-0.3,1.6-0.7,3.1-1.2,4.6
		c-1,3-2,5.9-3,8.8c-0.4,1.5-1,2.9-1.6,4.3c-1.1,2.8-2.1,5.6-3,8.5c-0.4,1.4-0.9,2.8-1.4,4.2c-0.7,2.1-1.4,4.2-2.1,6.3
		c-0.4,1.4-0.9,2.8-1.4,4.2c-1,2.8-1.9,5.5-2.8,8.3c-0.4,1.4-0.9,2.8-1.4,4.2c-0.8,2.1-1.8,4.1-2.7,6.2c-0.5,1.4-1.2,2.8-1.8,4.1
		c-0.8,2.1-1.5,4.2-2.3,6.4c-0.4,1.5-0.9,2.9-1.4,4.3c-0.7,2.1-1.4,4.3-2.1,6.4c-0.4,1.4-0.9,2.8-1.5,4.2c-0.8,2-1.7,4-2.7,6
		c-0.5,1.3-1.2,2.6-1.8,3.9c-0.8,2-1.5,4-2.2,6c-0.4,1.4-0.9,2.7-1.4,4c-0.8,2-1.7,3.9-2.7,5.7c-0.6,1.2-1.3,2.5-1.9,3.6
		c-0.9,1.8-1.9,3.6-2.7,5.5c-0.5,1.3-1,2.5-1.5,3.7c-0.7,1.9-1.3,3.8-1.9,5.7c-0.4,1.3-0.8,2.6-1.3,3.8c-0.7,1.9-1.6,3.7-2.6,5.5
		c-0.6,1.2-1.2,2.4-1.9,3.5c-0.9,1.7-1.9,3.5-2.8,5.2c-0.5,1.2-1.1,2.4-1.8,3.5c-0.8,1.8-1.7,3.6-2.5,5.4c-0.4,1.3-0.9,2.5-1.4,3.8
		c-0.6,2-1.3,3.9-1.9,5.9c-0.4,1.4-0.9,2.7-1.4,4c-0.8,2-1.7,4-2.6,6c-0.5,1.4-1.1,2.7-1.7,4.1c-0.8,2.1-1.5,4.2-2.2,6.3
		c-0.4,1.5-0.9,2.9-1.4,4.3c-0.7,2.2-1.4,4.3-2.1,6.5c-0.4,1.5-0.9,2.9-1.4,4.4c-1,2.9-2,5.8-2.8,8.8c-0.4,1.5-0.8,3-1.3,4.5
		c-1.4,3.8-1.8,7.8-2.5,11.7c-0.2,1.6-0.6,3.2-1,4.8c-2,5.6-1.8,11.4-1.5,17.2c0.1,3.4,0,6.8,0,10.2c-0.1,4.4-0.6,8.8,0.7,13.1
		c0.5,1.4,0.9,3,1.4,4.4c0.6,1.3,1.1,2.7,1.6,4.1c0.6,1.3,1.2,2.6,1.8,3.9c1,1.8,2.1,3.7,3.4,5.3c1.1,0.9,2.2,1.9,3.4,2.7
		c1.4,0.6,2.7,1.3,4.2,1.8c0.8,0.2,1.6,0.4,2.3,0.6c8.8,0.5,17.5,0.4,26.2-0.5c7.6-0.2,15.2-0.2,22.8-0.1c7.4,0.8,14.9,1.5,22.2-0.9
		c1.7-0.5,3.5-0.9,5.2-1.2c5-1,10.3-0.5,15.2-2.2c1.5-0.5,3.1-1,4.7-1.4c3.1-0.9,6.2-1.6,9.2-2.7c1.5-0.6,3-1,4.5-1.4
		c3-0.9,6-1.8,9-2.8c1.5-0.5,3.1-0.8,4.7-1c3.3-0.4,6.5-0.1,9.6,1.1c1.5,0.8,2.6,1.9,3.5,3.3c0,0.8,0,1.6,0,2.5
		C2213.8,1939,2213.3,1939.5,2212.7,1940.1z"/>
	<path class="st2" d="M2121.2,647.8c-9.7-8-20-3-30.2-1.5c-22.4,3.3-44,2-60.9-15.6c-7.2-7.5-11.4-16.5-4.9-27
		c18.3-5,31.1,5.8,44.2,15.5c2.1,0.4,4.2,0.8,6.3,1.2c4.2,2,9.3,0.2,13.3,2.9c8.5,1.2,17,3.2,25.5,3.2c6.9,0,18.9,4.8,15.4-11.6
		c-0.6-2.7,9.2-11.3,12.1-10.4c10.8,3.3,16.4,13.5,22.1,22.8C2149.8,634.2,2135.5,641,2121.2,647.8z"/>
	<path class="st6" d="M2093.7,672.1c-7,0.9-15.9,12.5-20-3.5C2080.4,669.8,2087,670.9,2093.7,672.1z"/>
	<path class="st7" d="M2165.5,1524.2c6.4,4,3.4,7.9,0,11.9c-0.2-3.1-0.4-6.2-0.5-9.2C2164.8,1525.9,2164.9,1525,2165.5,1524.2z"/>
	<path class="st2" d="M1849.1,419.7c-59-24-121.5-33.7-183.7-43.2c-76.1-11.6-152.6-19.6-230.1-17.1c-106.6,3.4-208.9,28.1-310.6,57
		c-36.6,10.4-72.9,24.8-110.3-2.5c-13-9.5-32.4-0.5-48.5,3.7c-7.3,1.9-15.8,4.7-19.2-4.1c-3.9-10.3,6.2-11.2,12.6-13.8
		c27-11.1,54.9-20.6,77.7-39.9c5.8-14.4,20-18.9,31.5-26c44.3-27.1,87.5-55.7,124.6-92.6c32.9-32.7,30.1-58.2-8.9-83.9
		c-8.4-5.5-17.6-9.4-26.1-14.6c-5.7-3.5-14.6-4.9-13-15c47.5,0.9,93.8,8.9,138.3,25.8c3.8,1.4,14.6-0.7,9.3,10.2
		c-3.3,1.8-9,3.1-9.3,5.3c-0.7,5.2,5.1,4.9,8.5,5.4c12.6,1.7,23.3-3.4,33-10.9c8.4,5.3,9.4,14.2,10.2,22.8
		c1.3,14.6,1.1,29.3-1.8,43.8c-6.3,31.4-1.3,36.5,31.3,34c52.4-3.9,105-5.4,157.3-11c29.3-3.2,57.8-9.6,86-17.4
		c15.3-4.2,19.3-14.9,16-29.4c-3.1-13.2-9.7-24.7-17.5-35.7c-24.1-34.2-54.9-61.4-88.9-85.3c-7.5-5.3-19.1-8.7-16.2-22
		c78.2,18.2,136.4,67.3,182.2,128.9c53.6,72.1,118.5,123.4,207,142.8c3.9,0.8,7.7,2.3,11.2,4.2c14.4,7.8,35.5,13.5,35.8,30.5
		c0.1,8.4-24.3,6.5-37.1,11.1c-10,3.6-19.7,8-29.4,12.3c-3,1.3-5.5,4.8-8.5,5C1847.1,399.2,1847.1,398.9,1849.1,419.7z"/>
	<path class="st8" d="M2093.1,615.9c-2.2-0.3-4.4-0.5-6.5-0.8c-24.8-1.8-49.1-5.4-67-25.4c3.9-19.4,18.1-32.1,30.7-45.6
		c37.3-40.1,79.8-74.8,123.1-107.7c52.7-40.1,86.4-91.2,105-153.8c10.8-36.5,17.5-73.7,22.4-111.3c0.2-1.3-0.1-2.9,0.6-3.8
		c9.6-13,15.4-36,32.9-33.6c19.7,2.7,14.8,26.8,18.3,42.1c15.3,66.7,10,133.3-2.5,199.7c-13.6,72.5-52.6,126.8-116.7,162.7
		c-25.5,14.3-52,26.6-78.1,39.9c-17.1,8.8-34.1,17.8-45.9,33.8C2104.9,617.8,2099.7,619.5,2093.1,615.9z"/>
	<path class="st9" d="M1501.4,63.1c27.5,24.8,60.3,43.1,85,71.5c17.5,20.2,35.1,40.1,43.7,66.1c7.5,22.4,1.9,36.6-22.9,43.2
		c-61.5,16.3-124.4,21.3-187.4,23.3c-29,0.9-57.9,8.4-87.4,1.4c-12.5-3-15.9-7-11.4-18.7c10.8-28.3,10.7-57.2,4-86.4
		c12.2-15.3,7.7-28.1-5.9-39.6c-25.6-21.5-48.3-45.7-68.8-72.1c-8.4-10.8-6.5-16.5,7.5-17.4C1340.7,29.1,1422.5,33.3,1501.4,63.1z"
		/>
	<path class="st10" d="M2300.7,171.3c9,24.7-1.2,48.3-5.9,71.6c-17.1,84.3-55.3,154.4-127.6,206.6
		c-54.6,39.5-105.8,84.6-147.2,139.1c-4.7,3.4-9.1,1-13-1.1c-34.9-19.2-66.9-42.3-93.7-72c-2.3-2.6-2.8-5.9-3.6-9.1
		c-11.2-18-26.4-33.6-32.8-54.5c1.4-13.1,12.2-9.9,19.7-10.3c108.8-5.8,206.4-41.1,291.4-110c22.5-18.2,39.4-41.2,57.2-63.5
		c20.8-28.8,39-59.2,52.6-92.1C2298.8,174.3,2299.8,172.8,2300.7,171.3L2300.7,171.3z"/>
	<path class="st8" d="M2245.3,268c-13.2,36.9-41.5,60.9-71.6,83c-83.9,61.5-178,93.8-282,96.7c-5.2,0.1-10.8-0.9-14.7,4.1
		c-21.6-42.1-19.3-50.1,26.9-59.4c42.2-8.5,85.4-12,128.1-18.2C2114.7,362.3,2186.5,328.2,2245.3,268z"/>
	<path class="st5" d="M1789.4,220.8c22.1-21.9,48.9-36.2,77.2-47.9c5-2.1,13.3-2.9,16.8-0.1c5.6,4.4-0.8,10.8-2.9,15.8
		c-10.4,25.1-21.2,50-31.8,74.9c-6.8,6.9-15,5.6-22.1,1.9c-17.8-9.3-37.7-16.9-40.9-41l0.4-0.4
		C1786.5,222.4,1787.7,221.3,1789.4,220.8z"/>
	<path class="st2" d="M1785.7,224.5c16.3,20.6,34,38.8,63,39c-10.1,46.4-10.1,46.4-51.6,22.2c-2.9-1.7-5.7-3.4-8.5-5.2
		C1749.5,255.8,1749.4,253.9,1785.7,224.5z"/>
	<path class="st11" d="M1909.8,506.3c32.3,33.4,67.6,62.8,110.3,82.3c20.4,13.2,43.5,19.8,66.6,26.5c-5.7,1.4-11.5,2.7-17.2,4.1
		c-14.7-5.2-29.5-10.3-44.2-15.5c0,0,0,0,0,0c-1.2-1.3-2.6-2.4-4.2-3.3c-43.1-23.9-85.4-48.7-116.5-88.3
		C1906.2,510.1,1908,508.2,1909.8,506.3z"/>
	<path class="st12" d="M1941.2,327.7c0.2,8,6.4,15.7,0.8,23.9c-10.3-7.2-23.1-12.5-30-22.1c-4.8-6.5,8-9.1,13.4-13
		C1932.2,318,1936.9,322.6,1941.2,327.7z"/>
	<path class="st13" d="M1941.2,327.7c-7-1.3-14.2-2.3-15.8-11.1C1939.7,307.3,1943.4,313.4,1941.2,327.7z"/>
	<path class="st11" d="M2093.1,615.9c5.4-1.3,10.7-2.6,16.1-3.8C2106.1,622.5,2100.1,621.1,2093.1,615.9z"/>
	<path class="st11" d="M2089,623.3c-4.4-1-8.9-1.9-13.3-2.9C2080.5,619.6,2085.3,619.1,2089,623.3z"/>
	<path class="st2" d="M1789.4,220.8c-1.1,1.1-2.2,2.2-3.3,3.3C1787.1,223,1788.3,221.9,1789.4,220.8z"/>
	<path class="st8" d="M2300.7,171.3c-0.9,1.5-1.9,3.1-2.8,4.6C2298.9,174.4,2299.8,172.8,2300.7,171.3z"/>
	<path class="st10" d="M389,243.7c-3.3-35,6.6-68.4,13.3-101.9c3.6-18.1,15.3-20.3,28.1-5.9c19.4,21.7,26.3,50.2,40.6,74.7
		c9.6,16.6,20.2,32.6,30.4,48.8c54.4,72.3,125.7,119.6,213,142.8c45.7,12.1,92.5,19.4,138.6,29.8c9.9,2.2,23.1,3.4,16.3,20
		c-8,13.5-15.9,27-23.9,40.4c-5,20.3-21.9,30.9-36.3,42.9c-32.7,27-67.2,51.5-108.1,65c-5.4-0.5-10.6-1.9-15-5
		c-63.1-44-131.1-81.4-183.7-139.5c-41.4-45.7-77-94.7-100.2-152.4C394.2,284,394.2,263.4,389,243.7z"/>
	<path class="st9" d="M1145.1,127.6c16.5,9.7,33.8,18.4,49.5,29.4c35.4,24.8,37.1,53.8,6.9,84.5c-48.1,48.9-106.6,83.1-164.5,118.2
		c-25.7-5.1-49.5-13.9-69.9-31.4c-9.9-8.5-23.8-3.6-33.6-1.8c-9.8,1.8,4.2,13.7,1.9,19.6c-7.2,19.3-15.3,38.6-25.8,56.2
		c-2.7,4.6-3.9-4.7-4.5-8.2c-1.3-6.8,2-18.6-11.9-9.8c-1,4.8-1.9,9.9-8.7,6.5c-4.7-2.4-9.4-5.1-13.7-8.1c-10.1-7.2-29.2-4-31.9-16.3
		c-3.8-17,4.4-35.2,16.5-47.5c25-25.5,12-40.4-12.1-52.7c-27.2-14-55-26.7-82.4-40.1c-9.4-4.5-22.4-6.8-23.1-19.3
		c-0.8-13.9,12.9-17.6,22.7-22c90.6-40.7,186.7-56.3,285-60.1C1078.7,123.4,1112.1,122.6,1145.1,127.6z"/>
	<path class="st8" d="M389,243.7c17,59.3,42,114.4,79.7,163.9c62.4,81.8,146.6,136.3,232.8,188.4c-0.4,10-9.7,3.4-13.4,7.2
		c-27.2,9.6-47.6,1.8-71.1-16.1c-29.7-22.7-66.6-35.8-99.8-54.1c-67.6-37.1-106.6-94.7-119.5-170.2
		C390.9,323.5,385.9,283.9,389,243.7z"/>
	<path class="st8" d="M869.3,452c0.7-9.9-5.7-11-13.6-12.8c-74.4-17-151.8-23.8-220.7-59.9C580.6,350.8,529,318,501.3,259.4
		c79.1,86,183.6,109.6,293.7,119.2c22.6,2,44.8,5,66.5,12.2c21.3,7.1,31.9,17.5,18.3,40C875.8,437.6,872.8,444.9,869.3,452z"/>
	<path class="st1" d="M688.1,603.2c4.5-2.4,8.9-4.8,13.4-7.2c56.1-23.2,104.5-57.2,143.9-103.6c1.5,2.6,3,5.2,4.5,7.8
		c-36.5,48.6-88.2,76.8-140.6,103.8c-4.1,1.1-8.2,2.2-12.3,3.3C694,605.9,691.1,604.6,688.1,603.2z"/>
	<path class="st9" d="M2181,1543.1c-0.1-1.2,0-2.3,0.3-3.5c1.5-1.3,2.6-2.9,3.7-4.5c-0.1-1.2,0-2.3,0.3-3.5c2.4-2.1,1.5-5.8,3.9-7.9
		l0,0c2.3-2.2,1.6-5.8,3.9-8.1l0,0.1c2.2-4.4,5.3-9.1-3.9-7.8c-5.4,9.6-16.2,10-24.5,14.7c-9.7-27.6-5.3-56.5-2.3-83.8
		c8.3-76.7-4-150.8-19.8-225c-6.1-28.5-11.7-57.1-17.6-85.7c-3.3-3.5-0.1-9.1-3.9-12.4l0,0.1c-3.5-3.3-0.3-8.7-3.8-12
		c-0.2-1.3-0.3-2.5-0.2-3.8c-3.5-3.4-0.1-9-4-12.3l0,0.1c-3.5-3.3-0.2-8.9-4-12.1l0,0c-3.6-3.3-0.2-8.8-4-12l0,0
		c-3.6-3.3-0.2-8.9-4.1-12l0,0.1c-3.6-3.3-0.2-8.9-4-12.1l0,0c-3.6-3.3-0.2-8.9-4-12l0,0.1c-3.6-3.3-0.2-8.9-4.1-12l0.1,0.1
		c-2.2-2.2-1.4-5.9-3.8-8c-0.2-1.2-0.4-2.4-0.4-3.7c10.2-7.9,11.7,3.2,16.2,7.5c41.2,39.1,54.2,91.9,72.1,143
		c7.9,22.4,15.7,46.3,32,65.1c10.3,0.9,10.1,9.5,11,16.2c6.8,51.8,13.9,103.5,20.9,155.3c1,7.1,2.2,14.6-3.9,20.5
		c-8.2,1.5-8.8,7.6-7.4,13.7c7.4,33.6,1.9,67.6,3.3,101.3c0.3,6.5-0.3,13.7-3,19.4c-28.1,58.9-45.9,121.9-78.1,179.4
		c-25.2,45-48.9,93-35.4,149.1c3.6,15,7.7,13.4,18.1,7c27.6-17,54.4-37.3,89.5-14.8c27.6,17.7,36.1,48.1,18.4,74.8
		c-3.3,4.9-6,12.7-12.1,11.4c-3.8-0.8-6.1-8.6-9.1-13.3c-1.4-1.1-2.5-2.4-3.3-4l-0.8-0.7c-4-1.7-8-2.5-11.9,0.6
		c-1.2,0.3-2.4,0.4-3.6,0.3c-2.4,2.1-6.2,1.2-8.4,3.7l-1.8,0.2l-1.9,0c-3.4,3.4-9,0.1-12.3,3.9l0,0c-4.6,4.3-11.5-0.5-16.1,4
		l-1.8,0.2l-1.8-0.1c-7.6,4.7-16.9-1.2-24.4,3.9c-9.3,0-18.6,0-28,0c-10.1-5.6-21.8,1.5-31.9-4.1l-0.1-0.1c-1.4-1.2-2.7-2.5-3.9-3.8
		l0-0.1c-2.4-2.1-1.6-5.9-4.3-7.8l0.1,0.1c-1.1-1.5-2.4-2.9-3.8-4.2c-0.3-1.2-0.4-2.4-0.3-3.7c-4.1-4.8,0.6-11.7-3.9-16.4
		c0-4,0-8,0-12c4.9-6.1-0.6-14.2,3.9-20.4c-0.1-1.2-0.1-2.4,0.1-3.6c3.8-3.4,0.5-8.9,3.9-12.5c-0.1-1.2,0-2.4,0.2-3.6
		c2.6-2.3,1.7-6,3.8-8.5c-0.1-1.2,0-2.4,0.2-3.5c2.5-2.2,1.7-5.9,3.9-8.2l-0.1,0.1c4-3.1,0.6-8.8,4.2-12l0,0.1
		c2.6-2.2,1.8-6,3.9-8.4c-0.1-1.2,0.1-2.4,0.3-3.6c2.4-2.1,1.5-5.8,3.8-7.9l0,0c2.4-2.2,1.7-5.8,4-8.1l0,0.1c2.5-2.1,1.8-5.8,4-8.1
		l-0.1,0.1c2.7-2.2,1.9-6,4-8.4c-0.1-1.2,0-2.4,0.3-3.6c2.4-2.1,1.5-5.8,3.9-8l0,0c2.5-2.2,1.8-5.8,4-8.1l-0.1,0.1
		c2.7-2.2,1.9-6,4-8.4c-0.1-1.2,0-2.4,0.3-3.6c2.4-2.1,1.6-5.8,3.9-8l0,0.1c2.6-2.2,1.8-6,3.9-8.5c-0.1-1.2,0-2.4,0.3-3.5
		c2.4-2.2,1.6-5.8,3.8-8.1l-0.1,0.1c4-3.1,0.5-8.8,4.1-12l0,0c2.6-2.2,1.8-6,3.9-8.5c-0.1-1.2,0-2.4,0.2-3.5c2.5-2.2,1.6-6,3.8-8.4
		c-0.1-1.2,0-2.5,0.3-3.7c2.4-2.2,1.6-5.8,3.8-8.1l-0.1,0.1c4-3.2,0.6-8.8,4.1-12.1l-0.1,0.1c4-3.2,0.6-8.9,4-12.3
		c-0.1-1.2,0-2.5,0.2-3.7c3.6-3.2,0.3-8.7,3.9-12l0,0c3.8-3.3,0.5-8.9,3.9-12.4c-0.1-1.2-0.1-2.4,0.2-3.6c3.8-3.4,0.4-8.9,3.8-12.4
		c-0.1-1.2-0.1-2.4,0.2-3.6c3.8-3.3,0.4-8.9,3.9-12.3c-0.1-1.3,0-2.5,0.2-3.8c2.4-2.2,1.5-6,3.7-8.3c-0.1-1.2,0-2.4,0.3-3.7
		c2.4-2.1,1.6-5.8,3.8-8l0,0.1c2.5-2.1,1.8-5.8,4-8.1l0,0.1c2.5-2.1,1.7-5.8,4.1-8l0,0c2.4-2.1,1.6-5.8,4-7.9l0-0.1
		C2178.6,1546.3,2179.9,1544.8,2181,1543.1z"/>
	<path class="st14" d="M1577.2,2231.8c28.8-16.6,61.3-22.5,92.7-31.5c12.1-10,25-13.3,39.5-5.1c59.7-1,119.4-1.7,175.1,24.9
		c0.7,3.6,0.9,6.9-3.6,8.2c-89.5-31.1-178.9-24.1-268.2,1c-8.9,2.5-17.9,4.8-26.8,7.3C1581.6,2237.4,1576.8,2239.5,1577.2,2231.8z"
		/>
	<path class="st5" d="M2105.1,1063.7c1.3,4,2.7,8,4,12C2107.7,1071.7,2106.4,1067.7,2105.1,1063.7z"/>
	<path class="st5" d="M2101,1051.7c1.4,4,2.7,8,4.1,12C2103.7,1059.7,2102.4,1055.7,2101,1051.7z"/>
	<path class="st5" d="M2097.1,1039.7c1.3,4,2.7,8,4,12.1C2099.7,1047.7,2098.4,1043.7,2097.1,1039.7z"/>
	<path class="st5" d="M2093,1027.7c1.3,4,2.7,8,4,12C2095.7,1035.7,2094.4,1031.7,2093,1027.7z"/>
	<path class="st5" d="M2109.1,1075.7c1.3,4,2.7,8,4,12.1C2111.7,1083.7,2110.4,1079.7,2109.1,1075.7z"/>
	<path class="st5" d="M2117.2,1103.8c1.3,4,2.6,8,3.8,12C2119.8,1111.7,2118.5,1107.8,2117.2,1103.8z"/>
	<path class="st5" d="M2121,1115.7c1.3,4.1,2.6,8.3,3.9,12.4C2123.6,1124,2122.3,1119.8,2121,1115.7z"/>
	<path class="st5" d="M2089,1015.7c1.4,4,2.7,8,4.1,12C2091.7,1023.7,2090.3,1019.7,2089,1015.7z"/>
	<path class="st5" d="M2113,1087.7c1.3,4.1,2.6,8.2,4,12.3C2115.7,1095.9,2114.3,1091.8,2113,1087.7z"/>
	<path class="st5" d="M2085.3,1007.8c1.3,2.7,2.5,5.4,3.8,8C2087.8,1013.1,2086.5,1010.4,2085.3,1007.8z"/>
	<path class="st15" d="M1413.1,475.8c-3.1,90.6-18.2,170.6-37.5,249.9c-22.4,91.7-29,185.7-42.2,278.8
		c-14.1,99.6-23.2,200.1-45.2,298.4c-9.7,43.2-31.9,81-66.3,108.9c-22.8,18.5-49.8,6.9-73.9-1.2c-38.1-12.8-59.7-45.1-77.1-77.5
		c-50.9-95.1-103.3-191.3-117.7-299.4c-19.8-148.4,1.6-289.4,101.7-410.4c79.4-95.9,175.3-165.3,296.6-197.1
		c5.1-1.3,10.6-1.5,15.6-3.1c27.6-9.1,42.3-0.3,43.3,29.7C1410.7,463.4,1412.9,473.9,1413.1,475.8z"/>
	<path class="st15" d="M288.9,1813.4c4.6-78.6,12.4-157,40.1-232.1c6.5-17.7,16.4-23.4,35.1-18.2c36.6,10.1,59.2,38.3,81.9,64.5
		c36.8,42.6,77.9,79.6,123.4,112.4c23.8,17.1,38.7,42.1,49.5,68.8c4.6,11.4,5.7,24.9-4.7,35.6c-11.1,11.4-23.4,12.9-38.3,7.6
		c-30-10.7-60.5-20.4-90.8-30.3c-19.6-6.4-31.7-2-27.9,21.7c2.1,13.1,5.5,25.9,7.5,39c5.3,35.4-8.3,68.8-32.9,81.7
		c-27.7,14.6-71.4,7.2-96.5-16.5C296.4,1911.2,282.9,1865.8,288.9,1813.4z"/>
	<path class="st15" d="M2233.1,1411.7c-8-61-16-122.1-24.2-183.1c-0.4-3.1-2.4-6-3.7-8.9c0-4-0.1-8-0.1-12c-4.3-4.6,0.5-11.5-3.9-16
		c0-4,0-8-0.1-12c-4.3-4.6,0.5-11.4-3.9-16c0-2.7,0-5.3,0-8c-4.7-6,0.9-14-4-20c3.5-75.7-18.3-148.4-25.9-222.8
		c-3-28.9-8.5-57.6-12.6-86.4c-0.5-3.5,0.4-7.3,0.7-10.9c2.6,2.6,6,4.9,7.5,8c19.9,40.6,41.6,80.6,58.7,122.3
		c42,102,82.8,204.5,105.3,313.1c15.4,74.2,30.2,148.3,18.2,224.7c-3.8,24.6-17,42.7-39.7,50.6c-21.3,7.4-36.9-5-48.4-22.6
		c-2.5-2.1-1.4-5.9-4-8c0-1.3,0-2.7-0.1-4c-2.4-2.1-1.4-5.9-3.9-8c0-1.3,0-2.7-0.1-4c-2.5-2.1-1.4-5.9-3.9-8c0-2.7,0-5.3-0.1-8
		c-3.6-3.2-0.1-8.8-3.9-12c0-2.7-0.1-5.3-0.1-8c-2.4-2.1-1.4-5.9-3.9-8c0-4-0.1-8-0.1-12c-3.6-3.2-0.1-8.8-3.9-12
		C2233.1,1417,2233.1,1414.3,2233.1,1411.7z"/>
	<path class="st15" d="M1709.4,2195.1c-13.1,1.7-26.3,3.4-39.5,5.1c-15.8,0.8-20.6-7.8-20.9-22.2c-1-43.8-14-86.5-12-130.6
		c0.1-2.4-1-4.9-1.6-7.4c-3.2,1.7-6.9,2.9-9.7,5.1c-15.5,12.5-30.9,25.1-46.2,37.9c-5.7,4.8-12.6,6.8-18.4,3
		c-7.4-4.8-2.6-11.7-0.3-17.9c38.5-103.1,92.9-198.7,140.8-297.4c8.4-17.3,20.3-34.9,42.1-29.7c20.8,4.9,18.6,25.7,17.1,42
		c-6.6,73.2-15.7,146.3-20.9,219.6c-3.5,50.4-3.2,101.1-2.4,151.6C1738,2176.6,1737.9,2194.6,1709.4,2195.1z"/>
	<path class="st15" d="M989.1,2187.8c-17.2-27.4-20.1-59.4-22.8-89.6c-5.8-64.6-8.3-129.7-8.4-194.6c0-42.9,6.9-85.8,21.2-126.8
		c1.7-4.9,2.3-13.3,9.7-12.6c2.2,0.2,4.3,8.7,5.4,13.6c13.7,56.1,24.2,112.2,23.7,170.8c-0.6,69.5,4.2,139.1,7.5,208.7
		c0.8,16.2-3,26.9-20.2,29.8C1000.1,2192.7,994.7,2192.4,989.1,2187.8z"/>
	<path class="st15" d="M1587.7,2323.7c-9.3,0-18.7,0.9-27.9-0.3c-7.9-1-18.2,7.9-23.4-6.8c-4.6-13-2.4-23.2,6.6-32.8
		c42.3-45.1,95.5-56.4,154.4-50c29,3.1,52.1,15.1,64.2,43.2c8.1,18.8-2.6,37.1-23.3,38.5c-50.2,3.4-100.4,6.1-150.7,9.1
		C1587.7,2324.3,1587.7,2324,1587.7,2323.7z"/>
	<path class="st16" d="M1731.2,954.2c-0.9,38.4-6.6,75.7-26.8,109.2c-28.7,47.5-77.3,49.3-104.5,1c-41.9-74.6-44-153-5.2-229.4
		c25.5-50.3,73.7-50.1,105.3-3C1719.4,860.9,1731.5,908.2,1731.2,954.2z"/>
	<path class="st15" d="M1028.1,2219.3c27,1.7,45.4,12.5,57.9,32.1c10.6,16.7,1.2,37-17.9,40.5c-38.4,7.1-78,1.8-116.2,11.3
		c-7.1,1.8-12-2.6-15-9.9c-5.2-12.7-3-24.5,6.1-33C967.9,2237.4,998.2,2224.9,1028.1,2219.3z"/>
	<path class="st17" d="M989.1,2187.8c5.4-0.3,10.8-0.6,16.1-0.9c56.5-1.7,110.5,7.8,160.2,36.3c0.2,7.3-3.6,7.1-8.7,4.7
		c-58-27-119.3-32.8-182.2-27.7c-9.6,3.7-20-0.9-29.5,3c-2.5,0.4-5.1,0.8-7.6,1.2c-3.8,1.7-7.7,1.4-11.6,0.7c-1.2-1-1.7-2-1.5-3.2
		c0.2-1.2,0.4-1.8,0.8-1.8c1-0.9,2.2-1.1,3.4-0.6c3.6-3,8.7-0.5,12.4-3.1C957.1,2193.5,973.1,2190.7,989.1,2187.8z"/>
	<path class="st18" d="M925.3,2202.8c4.1,0.5,8.2,1.1,12.2,1.6c-5.7,1.1-11.3,2.9-17.1,3.1c-3.7,0.1-9.6,3.8-10.8-3.1
		c-0.1-0.8,7.6-2.9,11.6-4.5C922.5,2201,923.9,2202,925.3,2202.8z"/>
	<path class="st6" d="M1156.8,2227.9c2.9-1.6,5.8-3.1,8.7-4.7c4.6,1.4,10.8,5,7.5,8.8C1167.2,2238.6,1161.9,2231.2,1156.8,2227.9z"
		/>
	<path class="st19" d="M945.2,2203.3c9.3-6.4,19.5-3.1,29.5-3C964.8,2201.2,955,2202.2,945.2,2203.3z"/>
	<path class="st20" d="M1577.2,2231.8c2.9,1.6,5.8,3.1,8.7,4.7c-5.6,3.5-11.3,6.3-17.7,1.6C1571.2,2236,1574.2,2233.9,1577.2,2231.8
		z"/>
	<path class="st9" d="M2193.1,1135.7c6.1,5.7,3.3,13.2,4,20C2190.9,1150,2193.8,1142.5,2193.1,1135.7z"/>
	<path class="st9" d="M2197.1,1163.6c5.3,4.4,3.6,10.4,3.9,16C2195.7,1175.3,2197.5,1169.2,2197.1,1163.6z"/>
	<path class="st9" d="M2201.1,1191.6c5.3,4.4,3.6,10.4,3.9,16C2199.7,1203.3,2201.5,1197.2,2201.1,1191.6z"/>
	<path class="st19" d="M941,2196.3c-4.1,1.1-8.3,2.1-12.4,3.1C932.7,2198.4,936.9,2197.4,941,2196.3z"/>
	<path class="st9" d="M2241.1,1459.7c1.3,4,2.6,8,3.9,12C2243.7,1467.7,2242.4,1463.7,2241.1,1459.7z"/>
	<path class="st9" d="M2233.1,1419.7c1.3,4,2.6,8,3.9,12C2235.7,1427.7,2234.4,1423.7,2233.1,1419.7z"/>
	<path class="st9" d="M2245.1,1479.6c1.3,2.7,2.6,5.3,3.9,8C2247.7,1485,2246.4,1482.3,2245.1,1479.6z"/>
	<path class="st9" d="M2237.1,1443.6c1.3,2.7,2.6,5.3,3.9,8C2239.7,1449,2238.4,1446.3,2237.1,1443.6z"/>
	<path class="st9" d="M2253.1,1503.7c1.3,2.7,2.7,5.3,4,8C2255.8,1509,2254.4,1506.3,2253.1,1503.7z"/>
	<path class="st9" d="M2249.1,1491.7c1.3,2.7,2.6,5.3,3.9,8C2251.7,1497,2250.4,1494.3,2249.1,1491.7z"/>
	<path class="st19" d="M925.3,2202.8c-1.3-1-2.6-1.9-3.9-2.9c1.3-0.4,2.6-0.4,3.8,0.2C925.2,2201,925.2,2201.9,925.3,2202.8z"/>
	<path class="st2" d="M2020.9,600.4c1.4,1.1,2.8,2.2,4.2,3.3C2023.7,602.6,2022.3,601.5,2020.9,600.4z"/>
	<path class="st5" d="M2213.8,1935.7c1.1,1.3,2.2,2.7,3.3,4c-1-0.2-1.9-0.6-2.7-1.2C2214.1,1937.6,2213.9,1936.6,2213.8,1935.7z"/>
	<path class="st5" d="M2069.3,1947.6c10.6,1.7,22.1-3.6,31.9,4.1C2090.5,1950.6,2079.1,1955.1,2069.3,1947.6z"/>
	<path class="st5" d="M2129.1,1951.7c7.2-6.9,16.2-3,24.4-3.9C2146.1,1954,2137.3,1951.1,2129.1,1951.7z"/>
	<path class="st5" d="M2057,1879.3c-0.5,6.9,2.4,14.5-3.9,20.4C2053.4,1892.7,2051.4,1885.3,2057,1879.3z"/>
	<path class="st5" d="M2053.1,1911.7c5.4,4.5,3.7,10.7,3.9,16.4C2052,1923.5,2053.1,1917.4,2053.1,1911.7z"/>
	<path class="st5" d="M2157.1,1947.7c4.3-5.4,10.5-3.7,16.1-4C2168.7,1948.7,2162.7,1947.5,2157.1,1947.7z"/>
	<path class="st5" d="M2189.1,1507.9c2-0.5,5.2-2.1,5.8-1.4c3.2,3.5,1.2,6.6-2,9.2C2191.7,1513.1,2190.4,1510.5,2189.1,1507.9z"/>
	<path class="st5" d="M2173.1,1943.7c4.1-1.3,8.2-2.6,12.3-3.9C2181.3,1941.1,2177.2,1942.4,2173.1,1943.7z"/>
	<path class="st5" d="M2201.2,1935.6c3.8-4.7,7.7-4.5,11.9-0.6C2209.1,1935.2,2205.1,1935.4,2201.2,1935.6z"/>
	<path class="st5" d="M2157,1595.4c-1.3,4.1-2.6,8.2-3.9,12.3C2154.4,1603.6,2155.7,1599.5,2157,1595.4z"/>
	<path class="st5" d="M2153,1611.3c-1.3,4.1-2.6,8.2-3.8,12.4C2150.4,1619.6,2151.7,1615.4,2153,1611.3z"/>
	<path class="st5" d="M2148.9,1627.3c-1.3,4.1-2.6,8.3-3.9,12.4C2146.4,1635.6,2147.7,1631.4,2148.9,1627.3z"/>
	<path class="st5" d="M2145.1,1639.7c-1.3,4-2.6,8-3.9,12C2142.5,1647.6,2143.8,1643.6,2145.1,1639.7z"/>
	<path class="st5" d="M2141,1655.3c-1.3,4.1-2.7,8.2-4,12.3C2138.3,1663.6,2139.6,1659.4,2141,1655.3z"/>
	<path class="st5" d="M2137,1667.6c-1.4,4-2.7,8.1-4.1,12.1C2134.3,1675.6,2135.7,1671.6,2137,1667.6z"/>
	<path class="st5" d="M2060.9,1863.3c-1.3,4.2-2.6,8.3-3.9,12.5C2058.4,1871.6,2059.6,1867.4,2060.9,1863.3z"/>
	<path class="st5" d="M2073.1,1827.6c-1.4,4-2.8,8-4.2,12C2070.3,1835.6,2071.7,1831.6,2073.1,1827.6z"/>
	<path class="st5" d="M2121.1,1711.6c-1.4,4-2.8,8-4.1,12C2118.3,1719.7,2119.7,1715.6,2121.1,1711.6z"/>
	<path class="st5" d="M2112.9,1735.2c-1.3,2.8-2.6,5.6-3.9,8.5C2110.3,1740.8,2111.6,1738,2112.9,1735.2z"/>
	<path class="st5" d="M2109.1,1743.6c-1.3,2.7-2.6,5.4-3.9,8C2106.5,1749,2107.8,1746.3,2109.1,1743.6z"/>
	<path class="st5" d="M2104.9,1755.2c-1.3,2.8-2.6,5.6-4,8.4C2102.3,1760.8,2103.6,1758,2104.9,1755.2z"/>
	<path class="st5" d="M2117,1723.5c-1.3,2.7-2.6,5.4-3.8,8.1C2114.5,1729,2115.7,1726.3,2117,1723.5z"/>
	<path class="st5" d="M2101,1763.6c-1.3,2.7-2.6,5.4-4,8.1C2098.4,1769,2099.7,1766.3,2101,1763.6z"/>
	<path class="st5" d="M2097.1,1771.6c-1.3,2.7-2.6,5.3-3.9,8C2094.5,1777,2095.8,1774.3,2097.1,1771.6z"/>
	<path class="st5" d="M2092.9,1783.2c-1.3,2.8-2.7,5.6-4,8.4C2090.3,1788.8,2091.6,1786,2092.9,1783.2z"/>
	<path class="st5" d="M2089,1791.5c-1.3,2.7-2.7,5.4-4,8.1C2086.3,1797,2087.7,1794.2,2089,1791.5z"/>
	<path class="st5" d="M2085,1799.6c-1.3,2.7-2.6,5.4-4,8.1C2082.4,1805,2083.7,1802.3,2085,1799.6z"/>
	<path class="st5" d="M2081.1,1807.7c-1.3,2.6-2.6,5.3-3.8,7.9C2078.5,1813,2079.8,1810.3,2081.1,1807.7z"/>
	<path class="st5" d="M2076.9,1819.3c-1.3,2.8-2.6,5.6-3.9,8.4C2074.3,1824.9,2075.6,1822.1,2076.9,1819.3z"/>
	<path class="st5" d="M2124.9,1703.2c-1.3,2.8-2.6,5.6-3.9,8.5C2122.3,1708.9,2123.6,1706,2124.9,1703.2z"/>
	<path class="st5" d="M2069,1839.5c-1.3,2.7-2.6,5.4-3.9,8.2C2066.4,1845,2067.7,1842.2,2069,1839.5z"/>
	<path class="st5" d="M2064.9,1851.2c-1.3,2.8-2.5,5.7-3.8,8.5C2062.4,1856.9,2063.6,1854,2064.9,1851.2z"/>
	<path class="st5" d="M2129,1691.3c-1.3,2.8-2.5,5.6-3.8,8.4C2126.4,1696.9,2127.7,1694.1,2129,1691.3z"/>
	<path class="st5" d="M2133,1679.5c-1.3,2.7-2.5,5.4-3.8,8.1C2130.5,1684.9,2131.7,1682.2,2133,1679.5z"/>
	<path class="st5" d="M2160.9,1583.3c-1.2,2.8-2.5,5.6-3.7,8.3C2158.5,1588.9,2159.7,1586.1,2160.9,1583.3z"/>
	<path class="st5" d="M2165.1,1571.6c-1.3,2.7-2.6,5.4-3.8,8C2162.5,1577,2163.8,1574.3,2165.1,1571.6z"/>
	<path class="st5" d="M2169.1,1563.6c-1.3,2.7-2.7,5.4-4,8.1C2166.4,1569,2167.7,1566.3,2169.1,1563.6z"/>
	<path class="st5" d="M2173.1,1555.7c-1.4,2.7-2.7,5.3-4.1,8C2170.4,1561,2171.8,1558.4,2173.1,1555.7z"/>
	<path class="st5" d="M2060.9,1935.8c1.4,2.6,2.9,5.2,4.3,7.8C2063.7,1941,2062.3,1938.4,2060.9,1935.8z"/>
	<path class="st5" d="M2189.1,1939.6c2.8-1.2,5.6-2.5,8.4-3.7C2194.8,1937.1,2191.9,1938.4,2189.1,1939.6z"/>
	<path class="st5" d="M2177.1,1547.8c-1.3,2.6-2.7,5.3-4,7.9C2174.5,1553.1,2175.8,1550.4,2177.1,1547.8z"/>
	<path class="st5" d="M2189.1,1523.7c-1.3,2.6-2.6,5.3-3.9,7.9C2186.5,1529,2187.8,1526.4,2189.1,1523.7z"/>
	<path class="st5" d="M2193.1,1515.6c-1.3,2.7-2.6,5.4-3.9,8.1C2190.5,1521,2191.8,1518.3,2193.1,1515.6z"/>
	<path class="st5" d="M2185,1535.1c-1.2,1.5-2.5,3-3.7,4.5C2182.5,1538.1,2183.7,1536.6,2185,1535.1z"/>
	<path class="st5" d="M2065.2,1943.7c1.3,1.3,2.6,2.6,3.9,3.8C2067.8,1946.2,2066.5,1945,2065.2,1943.7z"/>
	<path class="st5" d="M2181,1543.1c-1.3,1.5-2.5,3.1-3.8,4.6C2178.4,1546.2,2179.7,1544.6,2181,1543.1z"/>
	<path class="st5" d="M2057.2,1931.7c1.3,1.4,2.5,2.8,3.8,4.2C2059.8,1934.5,2058.5,1933.1,2057.2,1931.7z"/>
	<path class="st21" d="M1438.8,223.7c-19.5-2.5-42.9-4.3-59.7-23.9c-7.2-8.4-13.7-18.7-12-28.7c8.2-47.2-16.9-76.5-51.2-101.8
		c-2.5-1.9-4.7-4.2-7-6.3c3.5,0.2,7,0.1,10.4,0.5c63.2,6.9,121.1,26.6,171.8,66.7c42,33.2,39.2,63.8-10.1,85.4
		C1468.8,221,1455.9,224,1438.8,223.7z"/>
	<path class="st21" d="M964.4,155.7c36.8-0.9,72.7,3.2,107.2,17.2c22.1,9,45.3,16.1,41.2,47.3c-2.6,20.2-36,49.6-58,51.4
		c-12.8,1.1-24.7-1.6-36.7-6.8c-63.8-27.6-131.9-39.6-199.6-53.1c-12-2.4-32.2-3.6-32.6-13.4c-0.6-13,19.3-11.9,30.5-16.1
		C864,164.1,913.2,154,964.4,155.7z"/>
	<path class="st16" d="M1186.1,953.4c0.3,28.7-7.1,67.5-28.4,102.8c-30.5,50.7-80.6,52.3-107.5,0.3c-39-75.5-37.3-153.5,4.3-227.5
		c28.9-51.3,78.4-48.8,107.3,2.5C1181.1,865.6,1186.2,903,1186.1,953.4z"/>
	<path class="st22" d="M1593.8,1015.5c-15.2-52-15.7-103.9,4-154.8c8.5-21.9,19.9-44.9,47.1-46.2c27.7-1.2,39.1,21.8,49.6,42.9
		c8.3,16.7,13.8,34.6,15.2,53.4c2.8,13.9,1.6,27.9,0.9,41.8c-0.3,7.1-2.4,15.7-11.7,16.3c-10.4,0.7-10.3-8.2-11.7-15.3
		c-0.5-2.6-1.5-5.1-2-7.7c-2.9-11.5-5.3-23.3-9-34.6c-2.8-8.4-6.8-9.1-12.1-1.9c-2.8,3.7-5.7,7.3-9.2,10.4
		c-10.7,9.7-20.9,9.8-31.6-0.3c-3.5-3.3-5-11.4-11.2-8.8c-4.9,2.1-3.9,9.3-5.2,14.4c-6.3,24-2.6,47.4,4.5,70.5
		c2.1,6.9,5.8,13.5,5.4,21.1C1608.2,1031.9,1600.9,1025.7,1593.8,1015.5z"/>
	<path class="st8" d="M1593.8,1015.5c6.3,0.6,12.3,12.9,19.1,0.6c8.2-3.1,11.5,4.4,16.5,7.9c15.4,11,25.8,10.1,37-5.3
		c10.6-14.6,17-30.8,16.5-49.6c-0.3-10.1-3-21.4,6.5-29.6c0.4,0.5,0.8,1.1,1.2,1.6c7,6.6-3.8,24.7,8.8,22.9
		c11.2-1.5,9.9-18.1,9.9-29.4c0-7.9,0.2-15.8,0.3-23.7c9.2,47.6,5.4,94-16.5,137.5c-22.6,44.8-58.1,45.9-83.7,3.3
		C1602.8,1040.5,1599,1027.6,1593.8,1015.5z"/>
	<path class="st22" d="M1049.8,1011.6c-14.4-55.8-11.7-110.4,12.8-162.9c9.3-20,22.1-40.5,47.6-39.4c25,1.1,36.2,22.1,45.6,42.3
		c5.2,11.3,10.3,23,9.9,36.1c-2.4,7.9,4.2,19.8-10,22.5c-10.2-2-11.8-11.7-16.5-18.6c-1.8-2.6-3.1-6.8-6.8-6.2
		c-3.8,0.6-3.6,5.1-4.6,8.1c-2.7,8.2-5.2,16.6-10.2,23.8c-7.9,11.6-18.2,18.8-32.1,11.8c-10.8-5.4-12.5-0.6-13.4,8.3
		c-2.5,24.4,2,47.7,10.7,70.4c0.9,2.8,1.5,5.7,1.6,8.7c0,2.1-0.5,4-1.4,5.8C1067.9,1030.9,1058.5,1022.3,1049.8,1011.6z"/>
	<path class="st23" d="M1153.2,907.7c12.6-1.5,4.4-15.8,12.4-20.1c13.6,53.6,7.1,105.2-17.2,154.4c-8.5,17.2-20,35-42.1,35.3
		c-24.7,0.3-37-18.3-46.6-38c-4.3-8.8-6.7-18.5-10-27.7c10.8,1.6,19.6,12.8,32,7.2c2-0.4,4-0.5,5.9,0.1c29.5,10.6,40.1,6,53.8-22.8
		c10.1-21.1,10.3-43.3,8.7-65.8C1149.7,922.6,1146.2,914.4,1153.2,907.7z"/>
	<path class="st0" d="M1689.4,939.6c-1.1,21.1,1.6,42.6-6.4,63c-6.2,15.8-13.1,31.8-31.3,36c-18.7,4.3-28.6-10.2-38.8-22.5
		c-17.7-36.4-19.5-73.9-7.4-112.2c1.3-4.2,3.7-10.8,6.6-11.3c6.9-1.3,4.1,6.4,6,10c4.7,8.9,8.8,19.6,20.3,19.6
		c13.8-0.1,19.4-12,25.1-22.7c2-3.8,4.6-7.3,7-11c2.5,3.7,6.1,7.1,7.4,11.2C1682.1,912.8,1685.6,926.2,1689.4,939.6z"/>
	<path class="st0" d="M1153.2,907.7c6.2,33.8,6.9,67.2-9.1,98.8c-15.6,30.8-36.8,34.8-62.3,12.2c0-1.2-0.5-2.1-1.5-2.8
		c-0.8-1.6-1.8-3.1-2.9-4.6c-12.8-30.3-15.8-61.4-8-93.5c0.6-2.4,1.8-4.7,2.7-7c1.8,1.3,4,2.3,5.3,4.1c16.4,23.2,27.9,12.5,38.2-5.6
		c1-1.7,1.6-3.6,2.2-5.5c3.8-11.2,7.5-22.5,11.3-33.7C1143.3,878.5,1147.3,893.7,1153.2,907.7z"/>
	<path class="st23" d="M1077.3,1011.3c1,1.5,2,3.1,2.9,4.6C1079.3,1014.3,1078.3,1012.8,1077.3,1011.3z"/>
	<path class="st24" d="M1676.9,979.7c-1.4,7.6-3.2,16.2-11.7,18.7c-7,2.1-8.8-4.7-8.3-10c0.6-8,2.7-16.3,12.1-18.1
		C1674.6,969.3,1676.7,974.1,1676.9,979.7z"/>
	<path class="st25" d="M1128.7,971.2c1.1-8.2-1.5-19.4,9.7-21.2c8.4-1.4,7.8,7.5,7.1,13c-1.1,9-1.6,21.1-12.1,22.4
		C1125,986.5,1129.8,976.4,1128.7,971.2z"/>
</g>
</svg>
