<?xml version="1.0" encoding="utf-8"?>
<!-- Generator: Adobe Illustrator 23.0.6, SVG Export Plug-In . SVG Version: 6.00 Build 0)  -->
<svg version="1.1" id="Calque_1" xmlns="http://www.w3.org/2000/svg" xmlns:xlink="http://www.w3.org/1999/xlink" x="0px" y="0px"
	 viewBox="0 0 6095 2044" style="enable-background:new 0 0 6095 2044;" xml:space="preserve">
<style type="text/css">
	.st0{fill:none;}
	.st1{fill:#FFFFFF;}
</style>
<g>
	<rect x="1998.3" y="495.7" class="st0" width="59.8" height="59.8"/>
	<rect x="1650.2" y="576.6" class="st0" width="93.2" height="93.2"/>
	<rect x="1829.5" y="434.2" class="st0" width="59.8" height="59.8"/>
	<rect x="1293.4" y="866.6" class="st0" width="59.8" height="59.8"/>
	<rect x="1604.5" y="748.8" class="st0" width="93.2" height="93.2"/>
	<rect x="2840.1" y="13" class="st0" width="93.2" height="93.1"/>
	<polygon class="st0" points="1369,969.2 1505.9,1013.8 1554.9,863.4 1404.5,814.4 1358.2,956.3 1275.9,956.3 1275.9,1049.4 
		1369,1049.4 	"/>
	<rect x="2729.3" y="76.1" class="st0" width="59.8" height="59.8"/>
	<rect x="2428.9" y="376.2" class="st0" width="93.2" height="93.2"/>
	<rect x="2258.4" y="288.4" class="st0" width="59.8" height="59.8"/>
	
		<rect x="1121.2" y="1096.9" transform="matrix(0.2567 -0.9665 0.9665 0.2567 -237.1589 1978.6677)" class="st0" width="93.2" height="93.2"/>
	<rect x="217.7" y="1423.8" class="st0" width="93.2" height="93.2"/>
	
		<rect x="437.1" y="1438.1" transform="matrix(0.7357 -0.6773 0.6773 0.7357 -877.6841 719.8976)" class="st0" width="93.2" height="93.2"/>
	
		<rect x="152.6" y="991.6" transform="matrix(0.8945 -0.447 0.447 0.8945 -441.2552 195.5879)" class="st0" width="82.5" height="82.5"/>
	<rect x="407.5" y="1335.9" class="st0" width="59.8" height="59.8"/>
	
		<rect x="877" y="1189.9" transform="matrix(0.404 -0.9147 0.9147 0.404 -575.2667 1556.5707)" class="st0" width="59.8" height="59.8"/>
	<rect x="506" y="1172.4" class="st0" width="93.2" height="93.2"/>
	
		<rect x="970.1" y="1049.3" transform="matrix(0.888 -0.4598 0.4598 0.888 -390.0536 590.196)" class="st0" width="93.2" height="93.2"/>
	
		<rect x="742.9" y="1065.3" transform="matrix(0.7956 -0.6059 0.6059 0.7956 -512.2492 705.6656)" class="st0" width="93.2" height="93.2"/>
	<polygon class="st1" points="982.3,1379.9 1015.1,1379.9 982.3,1336.8 	"/>
	<polygon class="st1" points="1029.8,1399.6 1030,1399.4 1029.8,1399.1 	"/>
	<polygon class="st1" points="3206.5,78.7 3131.9,74.5 3131.9,139.4 3226.8,139.4 3226.8,121.9 3226.8,76.2 3226.8,28.7 
		3278.6,28.7 3274.5,13 3210.1,13 	"/>
	<path class="st1" d="M0,1763l0,94.9h59.5v-140.6h75.3l8.3-148.4l157.9,8.8l-8.8,157.9l-74.6-4.2v64.9h94.9v-17.6V1733v-47.5h51.8
		l-23.6-89.8l153-40.2l18,68.5H599v-51h65v-36.9h-79.1v-93.2h93.2v47.5h65v-9.5l-14.9,8.6l-50.1-86.8v3.4h-93.2v-93.2h93.2v23.1
		l108-62.4l79.1,137l-105.1,60.7h76.2v37.1l5.3-3v-62.2h93.2v9.8l1.8-1v-24.6h-47.5v-93.2h91.2l-3.4-4.5l125.9-95.8l48.3,63.4V1241
		h85.7l30.4-114.3l119.4,31.7v-28.1h47.5v-47.5h45.7v-58h93.2v26.4h31.6v-47.5h51.2l50.7-114.9l103.7,45.8v-64.5h10.6l-40.8-78.8
		l82.7-42.8l42.8,82.7l-75.2,38.9h73.1v28.7l40.7-124.9l89.1,29l-112.4-82l-48,19.3l-22.3-55.4l55.4-22.3l18.8,46.6l86.3-118.2
		l127.8,93.3l-43.4,59.4h52.4v-72.1h93.2v-11.9l-116.2-44.5l56.6-147.7L2329,524l-47.1,122.9h22.2v-45.7h45.7v-58h126.6V508h65
		v-17.6h79.1v-35.2h-65V297h158.2v147.6v7.6l15.7-8.8v-153h114.4v-35.6h4.4l-55.4-26.2v38.5H2733v-59.8h52.9l32.9-69.5l84.2,39.9
		l-10.9,23h81.6V60.1h75.3l2.6-47.4h-118.4v93.1H2840V12.7H0l0,1657.2h19.1v93.1H0z M2729.4,76.2h59.8V136h-59.8V76.2z
		 M2428.9,376.3h93.2v93.2h-93.2V376.3z M2258.4,288.4h59.8v59.8h-59.8V288.4z M1998.3,495.8h59.8v59.8h-59.8V495.8z M1829.6,434.3
		h59.8V494h-59.8V434.3z M1650.3,576.6h93.2v93.2h-93.2V576.6z M1604.6,748.9h93.2V842h-93.2V748.9z M1293.5,866.6h59.8v59.8h-59.8
		V866.6z M1275.9,956.3h82.4l46.2-141.9l150.4,49l-49,150.4l-136.8-44.6v80.2h-93.2V956.3z M1134.7,1086.5l90,23.9l-23.9,90
		l-90-23.9L1134.7,1086.5z M1036.6,1033.2l42.8,82.7l-82.7,42.8l-42.8-82.7L1036.6,1033.2z M891.5,1180.5l54.7,24.1l-24.1,54.7
		l-54.7-24.1L891.5,1180.5z M798.7,1046.6l56.4,74.1l-74.1,56.4l-56.4-74.1L798.7,1046.6z M506,1172.5h93.2v93.2H506V1172.5z
		 M549.8,1487.2l-68.5,63.1l-63.1-68.5l68.5-63.1L549.8,1487.2z M407.6,1335.9h59.8v59.8h-59.8V1335.9z M310.9,1517h-93.2v-93.2
		h93.2V1517z M212.1,977.5l36.9,73.8l-73.8,36.9l-36.9-73.8L212.1,977.5z"/>
	<polygon class="st1" points="2054.5,810 2054.5,799.5 2048.4,807.9 	"/>
	<polygon class="st1" points="2880.5,255 2880.5,225.4 2866.5,255 	"/>
	<polygon class="st1" points="3383.3,75.8 3406.8,62.6 3383.3,68.8 	"/>
	<polygon class="st1" points="2147.7,770.8 2158.5,764.7 2147.7,764.7 	"/>
</g>
</svg>
