<?xml version="1.0" encoding="utf-8"?>
<!-- Generator: Adobe Illustrator 23.0.6, SVG Export Plug-In . SVG Version: 6.00 Build 0)  -->
<svg version="1.1" id="Calque_1" xmlns="http://www.w3.org/2000/svg" xmlns:xlink="http://www.w3.org/1999/xlink" x="0px" y="0px"
	 viewBox="0 0 1446 3829" style="enable-background:new 0 0 1446 3829;" xml:space="preserve">
<style type="text/css">
	.st0{fill:#FFFFFF;}
</style>
<g>
	<polygon class="st0" points="1451.8,2018.2 1451.8,2001.9 1446.4,2018.2 	"/>
	<path class="st0" d="M1423.1,3785.6l-3.8-33.8l32.5-3.7V2274l-3.4-6.7l3.4-1.7V2038h-8.8v-17.6l-29.8-9.8l10.6-32.3l28.1,9.2v-31.8
		l-23.2-11.3l10.5-21.5l-0.1-0.1h-14.4v-1.1l-16.6,8.3l-8.9-17.7l17.7-8.9l7.8,15.4v-14.4l-21.9-8.2l8-21.2l-0.5-0.8l-17.8,25.8
		l3.4,10.5l-11.6,3.8l-3.8-11.6l10.2-3.3l-26.5-18.2l19.3-28l12.9,8.9v-10.9h-14.9v-19.8h3.5l-0.3-0.4h-5.6l-9.5,25.2l-31.8-12
		l12-31.8l26.8,10.1v-5l-0.4-0.6h-9.5v-9h-12.2v-25.4l-1.1-1.7h-6.7v-10.6l-2.2-3.5h-1.1v-1.7l-7.9-12.5v11.3h-34v-34h19.7l-2.1-3.3
		h-19.6v-24.8h-6.4v-6.4l-5.2,15.8h7.3v12.2H1283v-10.4l-15-4.9l6.2-18.9l4.1,1.4v-16.5h-27.9v-17h-27.2v-34h30.3l-2.1-3.2h-8.2v-13
		l-0.2-0.3l-12.3,7.1l-4.7-8.2h-9.5v-16.5l-2.8-4.8l2.8-1.6V1571h17v-29.7h15.5l2.2-32.6l33.9,2.3l-2.3,33.9l-15.3-1v14.4h20.8
		v-23.6h10.6l-6.1-18.7l32.3-10.6l5.4,16.4h18.5v-12h14.2v-7.9h-17v-19.8h19.8v10.7h14v-3.2l-3.2,1.8l-10.9-18.8v0.9h-19.8v-19.8
		h19.8v4.8l23.3-13.5l17,29.5l-22.9,13.2h16.5v-5.6h19.8v2.9h2.1v-6.8h-12v-19.8h19.8v9.9h6.7l-7.3-12.7l22.8-13.1v-30.8l-17.7,8.9
		l-8.9-17.7l17.7-8.9l8.9,17.7V67.6h-0.5V47.8h0.5V28h-9.8v29.7h-15.5l-2.2,32.6l-33.9-2.3l2.3-33.9l15.3,1V40.7h-18.5l-2.3,1.3
		v22.3h-10.6l6.1,18.7l-32.3,10.6l-5.4-16.5h-18.5v12h-14.2v7.9h17v19.8h-19.8v-10.7h-14v3.2l3.2-1.8l10.9,18.8v-0.9h19.8v19.9
		h-19.8v-4.8l-23.3,13.5l-17-29.5l22.9-13.2h-16.5v5.6h-18.1l-3.8,2.2v1.7h12v19.8h-19.8v-9.9h-6.7l7.3,12.7l-29.5,17l-8.7-15.1
		l-0.9,0.5v14.7h-18l-6.7,24.1l-25.6-7.1v6h-9.9v10.6h-9.9v12.1h-19.8v-4.9h-6.1l-1.1,0.7v9.6h-11.2l-11.9,24.4l-19.5-9.5l-2.1,1.2
		v12.2h-1.1l8.3,16.5l-17.7,8.9l-8.9-17.7l15.4-7.8h-14.4l-8.2,21.9l-19.6-7.4l-1.2,0.7l24.6,16.9l10.5-3.4l3.8,11.6l-11.6,3.8
		l-3.3-10.1l-18.2,26.5l-28-19.3l8.9-12.9h-9.2l-1.7,1v13.9h-19.8v-2.5l-0.5,0.3v4.6l25.2,9.5l-12,31.8l-31.8-12l10.1-26.8h-3.7
		l-1.8,1.1v8.8h-9v12.2h-27.1v7.8h-13.8l-0.3,0.2v3.1h-5.4l-11.6,6.7v1.2h14.2v34h-34v-23.7l-3.3,1.9v23.9h-24.8v6.4h-6.3l15.8,5.2
		v-7.4h12.2v12.2h-10.4l-4.9,15l-18.9-6.2l1.4-4.1h-16.5v27.9h-17v27.2h-34v-34h17v-11.6h-7.5l-12.7,7.4v18.3h-13.4L756,434
		l-29.5,17l-3.5-6h-4v29.7h-15.5l-2.2,32.6l-34-2.3l2.3-33.9l15.3,1v-14.4H668l-3.9,2.2v21.4h-10.6l6.1,18.7l-32.3,10.6l-5.4-16.4
		h-17.1l-1.4,0.8v11.2h-14.2v7.9h17v19.9h-19.8v-10.7h-14v3.2l3.2-1.8l10.9,18.8v-0.9h19.8v19.8h-19.8v-4.8L563.3,571l-17-29.5
		l22.9-13.2h-16.5v5.6h-16.5l-5.4,3.1v0.8h12v19.9h-19.8v-9.9h-6.7l7.3,12.7l-29.5,17l-8.3-14.4l-1.3,0.8v13.7h-18l-6.7,24.1
		l-25.6-7.1v6h-9.9v10.6h-9.9v12.1h-19.8v-4.9H390l-2.7,1.6v8.7h-11.2l-11.9,24.4l-18.6-9.1l-3,1.7v11.3h-1.1l8.4,16.5l-17.7,8.9
		l-8.9-17.7l15.4-7.8h-14.4l-8.2,21.9l-18.6-7l-1.4,0.8l23.9,16.5l10.5-3.4l3.8,11.6l-11.6,3.8l-3.3-10.2l-18.2,26.5l-28-19.3
		l8.9-12.9H274l-3.3,1.9v13h-19.8v-1.5l-0.5,0.3v3.6l25.2,9.5l-12,31.8l-31.8-12l10.1-26.8h-2.1l-3.5,2v7.9h-9v12.2h-25.9l-1.3,0.7
		v7H188l-1.9,1.1v2.2h-3.8l-13.2,7.6v0.3h14.2v34h-34v-22.8l-3.3,1.9v22.9h-24.8v6.4h-6.3l15.8,5.2v-7.3h12.2v12.2h-10.4l-4.9,15
		l-18.9-6.2l1.4-4.1H93.4v27.9h-17v27.2h-34v-34h17v-11.6h-5.9l-14.3,8.3v17.3H25.8L33,851L3.5,868L0,862v1265.9l3.3,10.1l-3.3,1.1
		v19.9l3.6-6.2l29.5,17l-7.3,12.7h6.7v-9.9h19.8v19.9h-12v1l3.9,2.9h18v5.6h16.5l-22.9-13.2l17-29.5l23.3,13.5v-4.8h19.8v19.9H96.1
		v-0.9l-10.9,18.8L82,2204v3.2h14v-10.7h19.8v19.9h-17v7.9H113v12h18.5l5.4-16.4l32.3,10.6l-6.1,18.7h10.6v23.6h20.8v-14.4l-15.3,1
		l-2.3-33.9l34-2.3l2.2,32.6h15.5v29.7h17v11.1l2.8,1.6l-2.8,4.8v16.5H236l-4.7,8.2l-12.5-7.2v13.4h-20.3l-5.3,8.7v11.5h11.6v-17h34
		v34h-27.2v17h-27.9v16.5l4.1-1.4l6.2,18.9l-15,4.9v10.4h-12.2v-12.2h7.3l-5.2-15.8v6.4h-6.4v24.8h-29.1l-0.2,0.3l0.1,0.3l-0.4,0.1
		l-1.5,2.5h29.1v34h-34v-14.2h-7.1l-0.8,1.3v15.7h-3.3v14.1h-7.8v27.1H95.5v9h-9.9v5.6l26.8-10.1l12,31.8l-31.8,12l-9.5-25.2H70.1
		l-0.3,0.4h10.8v19.9h-15v10.9l12.9-8.9l19.3,28l-26.5,18.2l10.2,3.3l-3.8,11.6l-11.6-3.8l3.4-10.5l-19-27.6l3.8-2.6h-5l10,26.4
		l-21.9,8.2v14.4l7.8-15.4l17.7,8.9l-8.9,17.7l-16.5-8.3v1.1H22.9l10.5,21.6L9,2670.6v11.2H0v7.2h3.6v19.9H0v23.7h15.6L6,2703.2
		l32.3-10.6l10.6,32.3l-29.8,9.8v17.6H0v50.7l2.4,1.2l-2.4,4.8v165.6l13.7,6.9l-7.4,14.7l-6.2-3.1v44.9l27.8,14.4l-6.6,12.8
		l13.4-0.6l0.4,9.1l3.3,1.8l-1.4-31.1l34-1.6l1.3,27.1l17-0.8l1.3,27.8l16.5-0.8l-1.5-4.1l18.6-7l5.6,14.8l10.3-0.5l0.6,12.2
		l-12.2,0.6l-0.3-7.3l-15.5,5.9l6.3-0.3l0.3,6.4l24.8-1.1l0.8,16.8l3.4,1.8l-0.8-16.8l34-1.6l1.6,34l-5.2,0.2l19.2,10.3l3.4-0.2
		l0.1,2l9.9,5.3l17.5-0.8l0.5,10.5l3,1.6l6.1-0.3l0.2,3.6l4.2,2.3l-9.7-22.5l31.2-13.4l13.5,31.2l-24.3,10.5l4.3,2.3l15.7-0.7
		l0.4,9.4l9.5,5.1l1.6-0.1l-9.5-12.5l27.1-20.6l19.5,25.6l2.9-10.3l11.8,3.2l-3.2,11.8l-10.6-2.9l-20.7,15.8l2.2,1.2l15.2-6.5
		l8.2,19.1l4.2,2.3l11.2-0.5l-15.7-7l8.1-18.1l18.1,8.1l-7.6,16.9l1.1-0.1l0.4,9.1l5.1,2.7l16.3-8.9l13,23.9l11.2-0.5l0.3,7.4l5,2.7
		l2.4-0.1l-0.2-4.9l19.8-0.9l0.6,12.1l9.9-0.5l0.5,10.6l9.9-0.5l0.3,6l25.2-8.3l7.8,23.8l18-0.8l0.7,14.4l1.1,0.6l7.9-15.3
		l30.2,15.6l-6.7,13l6.7-0.3l-0.5-9.9l19.8-0.9l0.9,19.8l-12,0.6l0.1,2.4l2.7,1.5l19.2-0.9l0.3,5.6l16.5-0.8l-23.5-12.1l15.6-30.2
		l23.9,12.4l-0.2-4.8l19.8-0.9l0.9,19.8l-19.8,0.9l0-0.9l-10,19.3l-3.3-1.7l0.2,3.2l14-0.6l-0.5-10.7l19.8-0.9l0.9,19.8l-17,0.8
		l0.4,7.9l14.2-0.7l0.6,12l18.5-0.9l4.6-16.7l32.8,9.1l-5.3,19l10.6-0.5l1.1,23.6l20.8-1l-0.7-14.4l-15.3,1.7l-3.8-33.8l33.8-3.8
		l3.7,32.4l15.5-0.7l1.4,29.6l4-0.2l3.2-6.1l30.2,15.6l-6.6,12.8l13.4-0.6l1.1,24.4l2.1,1.1l18.2-0.8l-0.5-11.6l-17,0.8l-1.6-34
		l34-1.6l1.3,27.1l17-0.8l1.3,27.8l16.5-0.8l-1.5-4.1l18.6-7l5.6,14.8l10.3-0.5l0.6,12.2l-12.2,0.6l-0.3-7.3l-15.5,5.9l6.3-0.3
		l0.3,6.4l24.8-1.1l1.4,29.4l0.6-0.3l1.8,4.2l1.1,0.6v-0.1l-1.5-31.9l34-1.6l1.6,34l-14.2,0.7l0.4,7.9l17-0.8l0.2,3.3l14.1-0.6
		l0.4,7.8l27.1-1.3l0.6,12.2l9-0.4l0.5,9.9l5.6-0.3l-11.3-26.3l31.2-13.4l13.5,31.2l-24.7,10.6l0.7,14.9l0.5,0.2l-0.6-12.8l19.8-0.9
		l0.7,14.9l10.9-0.5l-9.5-12.5l27.1-20.6l19.5,25.6l2.8-10.3l11.8,3.2l-3.2,11.8l-10.6-2.9l-26.7,20.3l-2.8-3.7l0.2,5l25.9-11.2
		l9.3,21.5l14.4-0.7l-15.7-7l8.1-18.1l18.1,8.1l-7.6,16.9l1.1-0.1l0.7,14.5l21.1-11.5l13,23.9l11.2-0.5l0.5,10.3l7.2-0.3l-0.2-4.9
		l19.8-0.9l0.6,12.1l9.9-0.5l0.5,10.6l9.9-0.5l0.3,6l25.2-8.3l7.8,23.8l18-0.8l0.8,16.8l8.8-17.1l30.2,15.6l-6.7,13l6.7-0.3
		l-0.5-9.9l19.8-0.9l0.9,19.8l-12,0.6l0.3,6.8l2.1-0.1l-0.1-2.9l19.8-0.9l0.3,5.6l16.4-0.8l-23.5-12.1l15.6-30.2l23.9,12.4l-0.2-4.8
		l19.8-0.9l0.9,19.8l-19.8,0.9l0-0.9l-10,19.3l-3.3-1.7l0.2,3.2l14-0.6l-0.5-10.7l19.8-0.9l0.9,19.8l-17,0.8l0.4,7.9l14.2-0.7
		l0.6,12l18.5-0.9l4.6-16.7l32.8,9.1l-5.3,19l10.6-0.5l1.1,23.6l20.8-1l-0.7-14.4L1423.1,3785.6z M28,2134.9l-17.7-8.9l8.9-17.7
		l17.7,8.9L28,2134.9z M44.6,2156.5l-6.1-10.6l10.6-6.1l6.1,10.6L44.6,2156.5z M73.1,2139L58,2126L71,2111l15,12.9L73.1,2139z
		 M133.1,815.4h12.2v12.2h-12.2V815.4z M101.9,821.6h19.8v19.8h-19.8V821.6z M113.1,2158.1v-19.9h19.8v19.9H113.1z M138.9,2220.4
		l-15-12.9l12.9-15.1l15,12.9L138.9,2220.4z M154.2,2186H142v-12.2h12.2V2186z M190.2,743.5h19.8v19.8h-19.8V743.5z M194.9,2211.9
		H175v-19.9h19.9V2211.9z M203.8,2119.1l-14.7-7.4l7.4-14.7l14.7,7.4L203.8,2119.1z M38,2748.5H25.8v-12.2H38V2748.5z M63.6,2681.9
		H43.7V2662h19.8V2681.9z M105.5,2584.8h12.2v12.2h-12.2V2584.8z M80.7,2671.9V2652h19.9v19.9H80.7z M98.1,3078.6l-0.9-19.8
		l19.8-0.9l0.9,19.8L98.1,3078.6z M118.8,2633.3v-12.2H131v12.2H118.8z M129.6,3083.4l-0.6-12.2l12.2-0.6l0.6,12.2L129.6,3083.4z
		 M143.7,2504.6h-19.9v-19.9h19.9V2504.6z M162.3,2541.1h-12.2v-12.2h12.2V2541.1z M195.7,2427.7h12.2v12.2h-12.2V2427.7z
		 M189.9,3152.5l-0.9-19.8l19.8-0.9l0.9,19.8L189.9,3152.5z M221.7,2416.3h-19.9v-19.9h19.9V2416.3z M232.8,3124.2l-0.6-12.2
		l12.2-0.6l0.6,12.2L232.8,3124.2z M234.4,769.8h12.2V782h-12.2V769.8z M257.6,2265.6h-19.9v-19.9h19.9V2265.6z M290.3,725.2h12.2
		v12.2h-12.2V725.2z M290.7,3166.1l-0.6-12.2l12.2-0.6l0.6,12.2L290.7,3166.1z M326.3,3151.2l-0.6-12.2l12.2-0.6l0.6,12.2
		L326.3,3151.2z M338.7,750.7h-12.2v-12.2h12.2V750.7z M367.5,663.4h19.9v19.9h-19.9V663.4z M357.5,700.5h19.8v19.9h-19.8V700.5z
		 M359,3187.8l-0.9-19.8l19.8-0.9l0.9,19.8L359,3187.8z M370.7,3224.3l-0.9-19.8l19.8-0.9l0.9,19.8L370.7,3224.3z M457.3,3226
		l0.6,12.2l-12.2,0.6l-0.6-12.2L457.3,3226z M441.8,657.8v-12.2H454v12.2H441.8z M398.1,658.1l10.6-32.3l29.3,9.6V619h19.9v19.9
		h-17.6l-9.8,29.8L398.1,658.1z M443.2,3265.4l-0.8-16.3l-28.8,10.9l-12.1-31.8l31.8-12.1l11.1,29.4l17.6-0.8l0.9,19.8L443.2,3265.4
		z M563.6,591.4l12.9,15.1l-15,12.9l-12.9-15.1L563.6,591.4z M535.1,573.8l10.6,6.1l-6.1,10.6l-10.6-6.1L535.1,573.8z M468.8,605
		l6.2-18.9l18.9,6.2l-6.2,18.9L468.8,605z M481.6,3296.5l-7-18.6l18.6-7l7,18.6L481.6,3296.5z M500.8,604.4l17.7-8.9l8.9,17.7
		l-17.7,8.9L500.8,604.4z M524.7,3285.2l-18.1-8.1l8.1-18.1l18.1,8.1L524.7,3285.2z M542.3,3306l-6.6-10.3l10.3-6.6l6.6,10.3
		L542.3,3306z M569.9,3287.2l-15.6-12.2l12.2-15.6l15.6,12.2L569.9,3287.2z M629.4,510l12.9,15.1l-15,12.9l-12.9-15L629.4,510z
		 M644.7,544.3v12.2h-12.2v-12.2H644.7z M603.6,572.2h19.8v19.8h-19.8V572.2z M610.8,3304.4l-0.9-19.8l19.8-0.9l0.9,19.8
		L610.8,3304.4z M639.4,3365.4l-15.6-12.2l12.2-15.6l15.6,12.2L639.4,3365.4z M640.9,3331l-0.6-12.2l12.2-0.6l0.6,12.2L640.9,3331z
		 M701.8,626l-14.7,7.4l-7.4-14.7l14.7-7.4L701.8,626z M665.5,538.2v-19.9h19.8v19.9H665.5z M675.2,3355.4l-0.9-19.8l19.8-0.9
		l0.9,19.8L675.2,3355.4z M699.6,3261.3l-15.1-6.7l6.7-15.1l15.1,6.7L699.6,3261.3z M728.2,484.6v-19.9h19.8v19.9H728.2z
		 M740.3,3406l-0.9-19.8l19.8-0.9l0.9,19.8L740.3,3406z M824.9,424.4v-19.8h19.8v19.8H824.9z M839.7,3461.6l-0.9-19.8l19.8-0.9
		l0.9,19.8L839.7,3461.6z M868.3,410.6h-12.2v-12.2h12.2V410.6z M871.1,3466.3l-0.6-12.2l12.2-0.6l0.6,12.2L871.1,3466.3z
		 M913.2,346.4v-19.8h19.8v19.8H913.2z M931.5,3535.5l-0.9-19.8l19.8-0.9l0.9,19.8L931.5,3535.5z M969.6,365h-12.2v-12.2h12.2V365z
		 M974.4,3507.2l-0.6-12.2l12.2-0.6l0.6,12.2L974.4,3507.2z M1025.5,320.4h-12.2v-12.2h12.2V320.4z M1032.3,3549.1l-0.6-12.2
		l12.2-0.6l0.6,12.2L1032.3,3549.1z M1061.7,333.7h-12.2v-12.2h12.2V333.7z M1287,1497.6h-19.8v-19.9h19.8V1497.6z M1349,1443.8
		h-19.8V1424h19.8V1443.8z M1417.4,1442.2l-10.6-6.1l6.1-10.6l10.6,6.1L1417.4,1442.2z M1424.8,209l-14.7,7.4l-7.4-14.7l14.7-7.4
		L1424.8,209z M1388.5,101.4h19.8v19.9h-19.8V101.4z M1391.1,1396.7l12.9,15.1l-15.1,12.9l-12.9-15.1L1391.1,1396.7z M1367.7,139.5
		h-12.2v-12.2h12.2V139.5z M1352.4,93l12.9,15.1l-15.1,12.9l-12.9-15.1L1352.4,93z M1326.6,155.2h19.8v19.9h-19.8V155.2z
		 M1338.2,1493.1l-15.1,12.9l-12.9-15.1l15.1-12.9L1338.2,1493.1z M1307.9,1459.5h12.2v12.2h-12.2V1459.5z M1286.6,174.4l12.9,15.1
		l-15.1,12.9l-12.9-15.1L1286.6,174.4z M1258.1,156.8l10.6,6.1l-6.1,10.6l-10.6-6.1L1258.1,156.8z M1265.5,1382.6l7.4,14.7
		l-14.7,7.4l-7.4-14.7L1265.5,1382.6z M1241.5,178.5l8.9,17.7l-17.7,8.9l-8.9-17.7L1241.5,178.5z M1197.9,169.1l18.9,6.2l-6.2,18.9
		l-18.9-6.2L1197.9,169.1z M1198.9,3608.9l0.6,12.2l-12.2,0.6l-0.6-12.2L1198.9,3608.9z M1090.5,246.4h19.8v19.9h-19.8V246.4z
		 M1067.9,3534.2l-0.6-12.2l12.2-0.6l0.6,12.2L1067.9,3534.2z M1080.5,303.3v-19.9h19.8v19.9H1080.5z M1100.6,3570.8l-0.9-19.8
		l19.8-0.9l0.9,19.8L1100.6,3570.8z M1112.3,3607.3l-0.9-19.8l19.8-0.9l0.9,19.8L1112.3,3607.3z M1121.1,241.1l10.6-32.3l29.3,9.6
		V202h19.8v19.9h-17.6l-9.8,29.8L1121.1,241.1z M1176.9,228.6v12.2h-12.2v-12.2H1176.9z M1184.7,3648.4l-0.8-16.3l-28.8,10.9
		l-12.1-31.8l31.8-12.1l11.1,29.4l17.6-0.8l0.9,19.8L1184.7,3648.4z M1204.5,1551.3v-19.8h19.8v19.8H1204.5z M1223.2,3679.5l-7-18.6
		l18.6-7l7,18.6L1223.2,3679.5z M1240.3,1702v-19.9h19.8v19.9H1240.3z M1266.4,1713.4v12.2h-12.2v-12.2H1266.4z M1266.3,3668.2
		l-18.1-8.1l8.1-18.1l18.1,8.1L1266.3,3668.2z M1283.9,3689l-6.6-10.3l10.3-6.6l6.6,10.3L1283.9,3689z M1361.5,1937.7h19.8v19.8
		h-19.8V1937.7z M1318.4,1770.4h19.8v19.8h-19.8V1770.4z M1299.8,1814.6h12.2v12.2h-12.2V1814.6z M1311.5,3670.2l-15.6-12.2
		l12.2-15.6l15.6,12.2L1311.5,3670.2z M1343.3,1919h-12.2v-12.2h12.2V1919z M1344.3,1870.5h12.2v12.2h-12.2V1870.5z M1352.4,3687.4
		l-0.9-19.8l19.8-0.9l0.9,19.8L1352.4,3687.4z M1381,3748.4l-15.6-12.2l12.2-15.6l15.6,12.2L1381,3748.4z M1382.5,3714l-0.6-12.2
		l12.2-0.6l0.6,12.2L1382.5,3714z M1398.5,1967.6v-19.8h19.8v19.8H1398.5z M1447.9,3629.2l-6.7,15.1l-15.1-6.7l6.7-15.1
		L1447.9,3629.2z M1424,2022h12.2v12.2H1424V2022z M1416.8,3738.4l-0.9-19.8l19.8-0.9l0.9,19.8L1416.8,3738.4z"/>
</g>
</svg>
