<?xml version="1.0" encoding="utf-8"?>
<!-- Generator: Adobe Illustrator 23.0.6, SVG Export Plug-In . SVG Version: 6.00 Build 0)  -->
<svg version="1.1" id="Calque_1" xmlns="http://www.w3.org/2000/svg" xmlns:xlink="http://www.w3.org/1999/xlink" x="0px" y="0px"
	 viewBox="0 0 6095 7176.4" style="enable-background:new 0 0 6095 7176.4;" xml:space="preserve">
<style type="text/css">
	.st0{fill:#FFFFFF;}
</style>
<g>
	<g>
		<rect x="2840.1" y="7176.3" class="st0" width="93.2" height="0.1"/>
	</g>
	<g>
		<polygon class="st0" points="4173.6,6794.7 4158.4,6790.7 4158.4,6803.2 		"/>
	</g>
	<g>
		<polygon class="st0" points="4968.7,6305.9 4962.5,6314.4 4968.7,6316.4 		"/>
	</g>
	<g>
		<polygon class="st0" points="5061.9,6295.1 5104.4,6271.1 5061.9,6271.1 		"/>
	</g>
	<g>
		<polygon class="st0" points="3953.7,6918.4 3944,6905.5 3944,6923.9 		"/>
	</g>
	<g>
		<polygon class="st0" points="3671.5,7077.1 3682.6,7070.8 3671.5,7070.8 		"/>
	</g>
	<g>
		<polygon class="st0" points="5916.1,5814.6 5929.4,5807.1 5916.1,5807.1 		"/>
	</g>
	<g>
		<polygon class="st0" points="3929.3,6886.3 3896.5,6843.2 3896.5,6886.3 		"/>
	</g>
	<g>
		<path class="st0" d="M2840.1,7176.3h93.2v0.1h118.4l5.6-101.1l157.9,8.8l-5.2,92.2h64.3l-19.5-74l153-40.2l18,68.5h87.3v-51h65
			v-36.9H3499v-93.2h93.2v47.5h65v-9.5l-14.9,8.6l-50.1-86.8v3.4H3499v-93.2h93.2v22.9l108-62.4l79.1,137l-105.1,60.7h76.2v54.9
			l5.3-3v-80.1h93.2v27.7l1.8-1v-42.5h-47.5v-93.2h91.2l-3.4-4.5l126-95.7l48.3,63.4v-56.3h85.7l30.4-114.3l119.4,31.7v-28.1h47.5
			v-47.5h45.7v-58h93.2v26.4h31.6v-47.5h51.2l50.7-114.9l103.7,45.8v-64.5h10.6l-40.8-78.8l82.7-42.8l42.8,82.7l-75.2,38.9h73.1
			v28.7l40.7-124.8l89.1,29l-112.4-82l-48,19.3l-22.3-55.4l55.4-22.3l18.8,46.6l86.3-118.2l127.8,93.3l-43.4,59.4h52.4V6178h93
			v-11.9l-116.2-44.5l56.6-147.7l147.7,56.5l-47.1,122.9h22.2v-45.7h45.8v-58h126.6v-35.2h65v-17.6h79.1v-35.2h-65v-158.2h158.2
			V5951v10.5v14.9l20.3-11.4h-0.9v-93.2h65v-47.5h45.7V5761h158.1v-47.5h93.2v48.2l85.7-47.7V0H0v7176.4L2840.1,7176.3
			L2840.1,7176.3z M5647.2,5714h59.8v59.8h-59.8V5714z M5343.1,5882.7h93.2v93.2h-93.2V5882.7z M5172.6,5794.8h59.8v59.8h-59.8
			V5794.8z M4912.5,6002.2h59.8v59.8h-59.8V6002.2z M4743.7,5940.7h59.8v59.8h-59.8V5940.7z M4564.4,6083.1h93.2v93.2h-93.2V6083.1z
			 M4518.7,6255.3h93.2v93.2h-93.2V6255.3z M4207.6,6373.1h59.8v59.8h-59.8V6373.1z M4190,6462.7h82.4l46.2-141.9l150.4,49
			l-49,150.4l-136.8-44.6v80.2H4190V6462.7z M4115,6706.9l-90-23.9l23.9-90l90,23.9L4115,6706.9z M4089.6,6050.8l30.5,76.7
			l-76.7,30.5l-30.5-76.7L4089.6,6050.8z M3945.5,6290.1l78.1,26.7l-26.7,78.1l-78.1-26.7L3945.5,6290.1z M3950.7,6539.7l42.8,82.7
			l-82.7,42.8l-42.8-82.7L3950.7,6539.7z M3805.7,6687l54.7,24.1l-24.1,54.7l-54.7-24.1L3805.7,6687z M3712.9,6553l56.4,74.1
			l-74.1,56.4l-56.4-74.1L3712.9,6553z M3420.2,6678.9h93.2v93.2h-93.2V6678.9z M3464,6993.6l-68.5,63.1l-63.1-68.5l68.5-63.1
			L3464,6993.6z M3321.7,6842.4h59.8v59.8h-59.8V6842.4z M3131.9,6930.2h93.2v93.2h-93.2V6930.2z M2542.8,7015.4v-28.6h28.6v28.6
			H2542.8z"/>
	</g>
</g>
</svg>
