<?xml version="1.0" encoding="utf-8"?>
<!-- Generator: Adobe Illustrator 23.0.6, SVG Export Plug-In . SVG Version: 6.00 Build 0)  -->
<svg version="1.1" id="Calque_1" xmlns="http://www.w3.org/2000/svg" xmlns:xlink="http://www.w3.org/1999/xlink" x="0px" y="0px"
	 viewBox="0 0 6095 2044" style="enable-background:new 0 0 6095 2044;" xml:space="preserve">
<style type="text/css">
	.st0{fill:none;}
	.st1{fill:#FFFFFF;}
</style>
<g>
	<rect x="4036.9" y="1501.5" class="st0" width="59.8" height="59.8"/>
	<rect x="4351.6" y="1387.2" class="st0" width="93.2" height="93.2"/>
	<rect x="4205.7" y="1563" class="st0" width="59.8" height="59.8"/>
	<rect x="4741.8" y="1130.6" class="st0" width="59.8" height="59.8"/>
	<rect x="4397.3" y="1215" class="st0" width="93.2" height="93.2"/>
	<rect x="3161.7" y="1950.9" class="st0" width="93.2" height="93.1"/>
	<polygon class="st0" points="4726,1087.8 4589.1,1043.2 4540.1,1193.6 4690.5,1242.6 4736.8,1100.7 4819.1,1100.7 4819.1,1007.6 
		4726,1007.6 	"/>
	<rect x="3305.9" y="1921.1" class="st0" width="59.8" height="59.8"/>
	<rect x="3572.9" y="1587.6" class="st0" width="93.2" height="93.2"/>
	<rect x="3776.8" y="1708.8" class="st0" width="59.8" height="59.8"/>
	
		<rect x="4880.6" y="867" transform="matrix(0.2567 -0.9665 0.9665 0.2567 2779.374 5441.0986)" class="st0" width="93.2" height="93.2"/>
	<rect x="5784.1" y="540" class="st0" width="93.2" height="93.2"/>
	
		<rect x="5564.4" y="526" transform="matrix(0.7358 -0.6773 0.6773 0.7358 1094.9247 3951.343)" class="st0" width="93.2" height="93.2"/>
	
		<rect x="5860.1" y="982.9" transform="matrix(0.8945 -0.447 0.447 0.8945 164.6056 2745.946)" class="st0" width="82.5" height="82.5"/>
	<rect x="5627.7" y="661.3" class="st0" width="59.8" height="59.8"/>
	
		<rect x="5158.4" y="807.2" transform="matrix(0.404 -0.9147 0.9147 0.404 2326.2976 5244.7837)" class="st0" width="59.8" height="59.8"/>
	<rect x="5495.8" y="791.4" class="st0" width="93.2" height="93.2"/>
	
		<rect x="5031.8" y="914.4" transform="matrix(0.888 -0.4598 0.4598 0.888 126.841 2442.7844)" class="st0" width="93.2" height="93.2"/>
	
		<rect x="5258.6" y="898.6" transform="matrix(0.7956 -0.6059 0.6059 0.7956 511.9543 3407.5349)" class="st0" width="93.2" height="93.2"/>
	<polygon class="st1" points="5112.7,677.1 5079.9,677.1 5112.7,720.2 	"/>
	<polygon class="st1" points="5065.2,657.4 5065,657.6 5065.2,657.9 	"/>
	<polygon class="st1" points="2888.5,1978.3 2963.1,1982.5 2963.1,1917.6 2868.2,1917.6 2868.2,1935.1 2868.2,1980.8 2868.2,2028.3 
		2816.4,2028.3 2820.5,2044 2884.9,2044 	"/>
	<path class="st1" d="M6095,294v-94.9h-59.5v140.6h-75.3l-8.3,148.4l-157.9-8.8l8.8-157.9l74.6,4.2v-64.9h-94.9v17.6v45.7v47.5
		h-51.8l23.6,89.8l-153,40.2l-18-68.5h-87.3v51h-65v36.9h79.1v93.2h-93.2v-47.5h-65v9.5l14.9-8.6l50.1,86.8v-3.4h93.2v93.2h-93.2
		V721l-108,62.4l-79.1-137l105.1-60.7h-76.2v-37.1l-5.3,3v62.2h-93.2v-9.8l-1.8,1v24.6h47.5v93.2h-91.2l3.4,4.5l-125.9,95.8
		l-48.3-63.4V816h-85.7l-30.4,114.3l-119.4-31.7v28.1h-47.5v47.5h-45.7v58h-93.2v-26.4h-31.6v47.5h-51.2l-50.7,114.9l-103.7-45.8
		v64.5h-10.6l40.8,78.8l-82.7,42.8l-42.8-82.7l75.2-38.9h-73.1v-28.7l-40.7,124.9l-89.1-29l112.4,82l48-19.3l22.3,55.4l-55.4,22.3
		l-18.8-46.6l-86.3,118.2l-127.8-93.3l43.4-59.4h-52.4v72.1h-93.2v11.9l116.2,44.5l-56.6,147.7L3766,1533l47.1-122.9h-22.2v45.7
		h-45.7v58h-126.6v35.2h-65v17.6h-79.1v35.2h65v158.2h-158.2v-147.6v-7.6l-15.7,8.8v153h-114.4v35.6h-4.4l55.4,26.2v-38.5h59.8v59.8
		h-52.9l-32.9,69.5l-84.2-39.9l10.9-23h-81.6v140.6H3046l-2.6,47.4h118.4v-93.1h93.2v93.1H6095V387.1h-19.1V294H6095z
		 M3365.6,1980.8h-59.8v-59.8h59.8V1980.8z M3666.1,1680.7h-93.2v-93.2h93.2V1680.7z M3836.6,1768.6h-59.8v-59.8h59.8V1768.6z
		 M4096.7,1561.2h-59.8v-59.8h59.8V1561.2z M4265.4,1622.7h-59.8V1563h59.8V1622.7z M4444.7,1480.4h-93.2v-93.2h93.2V1480.4z
		 M4490.4,1308.1h-93.2V1215h93.2V1308.1z M4801.5,1190.4h-59.8v-59.8h59.8V1190.4z M4819.1,1100.7h-82.4l-46.2,141.9l-150.4-49
		l49-150.4l136.8,44.6v-80.2h93.2V1100.7z M4960.3,970.5l-90-23.9l23.9-90l90,23.9L4960.3,970.5z M5058.4,1023.8l-42.8-82.7
		l82.7-42.8l42.8,82.7L5058.4,1023.8z M5203.5,876.5l-54.7-24.1l24.1-54.7l54.7,24.1L5203.5,876.5z M5296.3,1010.4l-56.4-74.1
		l74.1-56.4l56.4,74.1L5296.3,1010.4z M5589,884.5h-93.2v-93.2h93.2V884.5z M5545.2,569.8l68.5-63.1l63.1,68.5l-68.5,63.1
		L5545.2,569.8z M5687.4,721.1h-59.8v-59.8h59.8V721.1z M5784.1,540h93.2v93.2h-93.2V540z M5882.9,1079.5l-36.9-73.8l73.8-36.9
		l36.9,73.8L5882.9,1079.5z"/>
	<polygon class="st1" points="4040.5,1247 4040.5,1257.5 4046.6,1249.1 	"/>
	<polygon class="st1" points="3214.5,1802 3214.5,1831.6 3228.5,1802 	"/>
	<polygon class="st1" points="2711.7,1981.2 2688.2,1994.4 2711.7,1988.2 	"/>
	<polygon class="st1" points="3947.3,1286.2 3936.5,1292.3 3947.3,1292.3 	"/>
</g>
</svg>
