<?xml version="1.0" encoding="utf-8"?>
<!-- Generator: Adobe Illustrator 23.0.6, SVG Export Plug-In . SVG Version: 6.00 Build 0)  -->
<svg version="1.1" id="Calque_1" xmlns="http://www.w3.org/2000/svg" xmlns:xlink="http://www.w3.org/1999/xlink" x="0px" y="0px"
	 viewBox="0 0 6095 8246" style="enable-background:new 0 0 6095 8246;" xml:space="preserve">
<style type="text/css">
	.st0{fill:#FFFFFF;}
</style>
<g>
	<g>
		<rect x="3161.7" y="0" class="st0" width="93.2" height="0.1"/>
	</g>
	<g>
		<polygon class="st0" points="1921.4,381.7 1936.6,385.7 1936.6,373.2 		"/>
	</g>
	<g>
		<polygon class="st0" points="1126.3,870.5 1132.5,862 1126.3,860 		"/>
	</g>
	<g>
		<polygon class="st0" points="1033.1,881.3 990.6,905.3 1033.1,905.3 		"/>
	</g>
	<g>
		<polygon class="st0" points="2141.3,258 2151,270.9 2151,252.5 		"/>
	</g>
	<g>
		<polygon class="st0" points="2423.5,99.3 2412.4,105.6 2423.5,105.6 		"/>
	</g>
	<g>
		<polygon class="st0" points="178.9,1361.8 165.6,1369.3 178.9,1369.3 		"/>
	</g>
	<g>
		<polygon class="st0" points="2165.7,290.1 2198.5,333.2 2198.5,290.1 		"/>
	</g>
	<g>
		<path class="st0" d="M3254.9,0.1h-93.2V0h-118.4l-5.6,101.1l-157.9-8.8l5.2-92.2h-64.3l19.5,74l-153,40.2l-18-68.5h-87.3v51h-65
			v36.9h79.1v93.2h-93.2v-47.5h-65v9.5l14.9-8.6l50.1,86.8v-3.4h93.2v93.2h-93.2V334l-108,62.4l-79.1-137l105.1-60.7h-76.2v-54.9
			l-5.3,3v80.1h-93.2v-27.7l-1.8,1v42.5h47.5v93.2h-91.2l3.4,4.5l-126,95.7l-48.3-63.4V429H1944l-30.4,114.3l-119.4-31.7v28.1h-47.5
			v47.5H1701v58h-93.2v-26.4h-31.6v47.5H1525l-50.7,114.9l-103.7-45.8v64.5H1360l40.8,78.8l-82.7,42.8l-42.8-82.7l75.2-38.9h-73.1
			v-28.7L1236.7,896l-89.1-29l112.4,82l48-19.3l22.3,55.4l-55.4,22.3l-18.8-46.6l-86.3,118.2L1042,985.7l43.4-59.4H1033v72.1h-93
			v11.9l116.2,44.5l-56.6,147.7L851.9,1146l47.1-122.9h-22.2v45.7H831v58H704.4v35.2h-65v17.6h-79.1v35.2h65V1373H467.1v-147.6
			v-10.5V1200l-20.3,11.4h0.9v93.2h-65v47.5H337v63.3H178.9v47.5H85.7v-48.2L0,1462.4V8246h6095V0L3254.9,0.1L3254.9,0.1z
			 M447.8,1462.4H388v-59.8h59.8V1462.4z M751.9,1293.7h-93.2v-93.2h93.2V1293.7z M922.4,1381.6h-59.8v-59.8h59.8V1381.6z
			 M1182.5,1174.2h-59.8v-59.8h59.8V1174.2z M1351.3,1235.7h-59.8v-59.8h59.8V1235.7z M1530.6,1093.3h-93.2v-93.2h93.2V1093.3z
			 M1576.3,921.1h-93.2v-93.2h93.2V921.1z M1887.4,803.3h-59.8v-59.8h59.8V803.3z M1905,713.7h-82.4l-46.2,141.9l-150.4-49l49-150.4
			l136.8,44.6v-80.2h93.2V713.7z M1980,469.5l90,23.9l-23.9,90l-90-23.9L1980,469.5z M2005.4,1125.6l-30.5-76.7l76.7-30.5l30.5,76.7
			L2005.4,1125.6z M2149.5,886.3l-78.1-26.7l26.7-78.1l78.1,26.7L2149.5,886.3z M2144.3,636.7l-42.8-82.7l82.7-42.8l42.8,82.7
			L2144.3,636.7z M2289.3,489.4l-54.7-24.1l24.1-54.7l54.7,24.1L2289.3,489.4z M2382.1,623.4l-56.4-74.1l74.1-56.4l56.4,74.1
			L2382.1,623.4z M2674.8,497.5h-93.2v-93.2h93.2V497.5z M2631,182.8l68.5-63.1l63.1,68.5l-68.5,63.1L2631,182.8z M2773.3,334h-59.8
			v-59.8h59.8V334z M2963.1,246.2h-93.2V153h93.2V246.2z M3552.2,161v28.6h-28.6V161H3552.2z"/>
	</g>
</g>
</svg>
