<?xml version="1.0" encoding="utf-8"?>
<!-- Generator: Adobe Illustrator 23.0.6, SVG Export Plug-In . SVG Version: 6.00 Build 0)  -->
<svg version="1.1" id="Calque_1" xmlns="http://www.w3.org/2000/svg" xmlns:xlink="http://www.w3.org/1999/xlink" x="0px" y="0px"
	 viewBox="0 0 256.2 126.4" style="enable-background:new 0 0 256.2 126.4;" xml:space="preserve">
<style type="text/css">
	.st0{fill:#050506;}
	.st1{fill:#050404;}
	.st2{fill:#080F0F;}
	.st3{fill:#100202;}
	.st4{fill:#1F1E1E;}
	.st5{fill:#3BA5FF;}
	.st6{fill:#8A8A8A;}
	.st7{fill:#FF1D87;}
	.st8{fill:#2C7CBE;}
	.st9{fill:#2C7BBE;}
	.st10{fill:#BE1665;}
	.st11{fill:#BEBEBE;}
	.st12{fill:#C8C8C8;}
	.st13{fill:#FFFFFF;}
	.st14{fill:#3BA6FF;}
	.st15{fill:#F9770C;}
	.st16{fill:#BDBDBD;}
	.st17{fill:#FED8B8;}
	.st18{fill:#3BA5FE;}
	.st19{fill:#BEBDBD;}
	.st20{fill:#C5C5C5;}
	.st21{fill:#FEFEFE;}
	.st22{fill:#2B7BBC;}
	.st23{fill:#BA5909;}
	.st24{fill:#2C7ABD;}
	.st25{fill:#2C7BBD;}
	.st26{fill:#2C7BBC;}
	.st27{fill:#FAD3B3;}
	.st28{fill:#B65709;}
	.st29{fill:#3AA2FB;}
	.st30{fill:#BCA088;}
	.st31{fill:#BC9F88;}
	.st32{fill:#BDA088;}
	.st33{fill:#3AA4FC;}
	.st34{fill:#2B79BA;}
	.st35{fill:#B85809;}
	.st36{fill:#BB9E87;}
	.st37{fill:#B99D86;}
	.st38{fill:#F3750C;}
	.st39{fill:#B79B84;}
	.st40{fill:#B91562;}
	.st41{fill:#F9D3B3;}
	.st42{fill:#7E7C7C;}
	.st43{fill:#B69B84;}
	.st44{fill:#EE1B7F;}
	.st45{fill:#EF730B;}
	.st46{fill:#B3B4B4;}
	.st47{fill:#994D0D;}
	.st48{fill:#B49982;}
	.st49{fill:#B75709;}
	.st50{fill:#2770AC;}
	.st51{fill:#444141;}
	.st52{fill:#AAA9A9;}
	.st53{fill:#B25509;}
	.st54{fill:#CF650E;}
	.st55{fill:#974A0B;}
	.st56{fill:#423426;}
	.st57{fill:#9D9EA0;}
	.st58{fill:#A74F08;}
	.st59{fill:#E3BFA3;}
	.st60{fill:#422712;}
	.st61{fill:#3699EC;}
	.st62{fill:#533217;}
	.st63{fill:#442814;}
	.st64{fill:#393838;}
	.st65{fill:#95806D;}
	.st66{fill:#C6C6C6;}
	.st67{fill:#D1640A;}
	.st68{fill:#58321E;}
	.st69{fill:#402312;}
	.st70{fill:#827160;}
	.st71{fill:#683F23;}
	.st72{fill:#4C2C10;}
	.st73{fill:#7F8181;}
	.st74{fill:#DDB79C;}
	.st75{fill:#0E2336;}
	.st76{fill:#482A0F;}
	.st77{fill:#4A2E14;}
	.st78{fill:#443628;}
	.st79{fill:#52321B;}
	.st80{fill:#5B3F26;}
	.st81{fill:#3F2A1C;}
	.st82{fill:#8A8888;}
	.st83{fill:#3F2713;}
	.st84{fill:#205C8D;}
	.st85{fill:#767B7B;}
	.st86{fill:#542E14;}
	.st87{fill:#929191;}
	.st88{fill:#764F37;}
	.st89{fill:#515044;}
	.st90{fill:#462C1A;}
	.st91{fill:#726152;}
	.st92{fill:#53290F;}
	.st93{fill:#553212;}
	.st94{fill:#0D2438;}
	.st95{fill:#A9A189;}
	.st96{fill:#256AA2;}
	.st97{fill:#6D5C4E;}
	.st98{fill:#8B7664;}
	.st99{fill:#6F5A4D;}
	.st100{fill:#1F5B8C;}
	.st101{fill:#5A6666;}
	.st102{fill:#212829;}
	.st103{fill:#1C4F79;}
	.st104{fill:#225F93;}
	.st105{fill:#858181;}
	.st106{fill:#194871;}
	.st107{fill:#19476D;}
	.st108{fill:#163E5F;}
	.st109{fill:#394457;}
	.st110{fill:#3D2513;}
	.st111{fill:#5D5447;}
	.st112{fill:#8F7C6A;}
	.st113{fill:#9E8874;}
	.st114{fill:#615548;}
	.st115{fill:#000001;}
	.st116{fill:#3088D2;}
	.st117{fill:#040A10;}
	.st118{fill:#2F7FC6;}
	.st119{fill:#2B131F;}
	.st120{fill:#1E0310;}
	.st121{fill:#371A27;}
	.st122{fill:#1D0D15;}
	.st123{fill:#2A101C;}
	.st124{fill:#440723;}
	.st125{fill:#190B11;}
	.st126{fill:#260412;}
	.st127{fill:#301923;}
	.st128{fill:#34252C;}
	.st129{fill:#301F27;}
	.st130{fill:#51092B;}
	.st131{fill:#383233;}
	.st132{fill:#780D3F;}
	.st133{fill:#1B1618;}
	.st134{fill:#27131D;}
	.st135{fill:#47373F;}
	.st136{fill:#521A38;}
	.st137{fill:#480826;}
	.st138{fill:#423139;}
	.st139{fill:#3A1D2A;}
	.st140{fill:#3E3B3D;}
	.st141{fill:#482A38;}
	.st142{fill:#1C0412;}
	.st143{fill:#31262B;}
	.st144{fill:#430821;}
	.st145{fill:#59092D;}
	.st146{fill:#58092D;}
	.st147{fill:#FD1D86;}
	.st148{fill:#9B1252;}
	.st149{fill:#2C0416;}
	.st150{fill:#82143C;}
	.st151{fill:#2F0414;}
	.st152{fill:#491A30;}
	.st153{fill:#603B4C;}
	.st154{fill:#491F33;}
	.st155{fill:#5A2A3E;}
	.st156{fill:#B2145E;}
	.st157{fill:#482837;}
	.st158{fill:#36061C;}
	.st159{fill:#563444;}
	.st160{fill:#3B3036;}
	.st161{fill:#54092A;}
	.st162{fill:#42323B;}
	.st163{fill:#16060C;}
	.st164{fill:#300519;}
	.st165{fill:#580B2F;}
	.st166{fill:#300518;}
	.st167{fill:#644453;}
	.st168{fill:#2A181E;}
	.st169{fill:#3C1B2B;}
	.st170{fill:#3F0A1F;}
	.st171{fill:#531F33;}
	.st172{fill:#90104C;}
	.st173{fill:#2E0519;}
	.st174{fill:#3E1A2C;}
	.st175{fill:#331F28;}
	.st176{fill:#311C23;}
	.st177{fill:#260414;}
	.st178{fill:#33111D;}
	.st179{fill:#2B0415;}
	.st180{fill:#320E20;}
	.st181{fill:#661231;}
	.st182{fill:#24060F;}
	.st183{fill:#200A11;}
	.st184{fill:#451E33;}
	.st185{fill:#18080F;}
	.st186{fill:#020507;}
	.st187{fill:#03080D;}
	.st188{fill:#240412;}
	.st189{fill:#3E0720;}
	.st190{fill:#2C1721;}
	.st191{fill:#331C26;}
	.st192{fill:#402B35;}
	.st193{fill:#53092C;}
	.st194{fill:#521432;}
	.st195{fill:#431F2F;}
	.st196{fill:#2E1320;}
	.st197{fill:#A11356;}
	.st198{fill:#590B30;}
	.st199{fill:#700D3B;}
	.st200{fill:#0A0004;}
	.st201{fill:#260A16;}
	.st202{fill:#94114E;}
	.st203{fill:#270517;}
	.st204{fill:#D4186F;}
	.st205{fill:#0C0408;}
	.st206{fill:#0A0104;}
	.st207{fill:#1F0E15;}
	.st208{fill:#090004;}
	.st209{fill:#6C421F;}
	.st210{fill:#85542B;}
	.st211{fill:#5D3816;}
	.st212{fill:#6C462B;}
	.st213{fill:#755C43;}
	.st214{fill:#502E12;}
	.st215{fill:#744C32;}
	.st216{fill:#43270B;}
	.st217{fill:#613A1A;}
	.st218{fill:#49392C;}
	.st219{fill:#512E1A;}
	.st220{fill:#493D30;}
	.st221{fill:#5F2A0D;}
	.st222{fill:#463525;}
	.st223{fill:#54331A;}
	.st224{fill:#41260C;}
	.st225{fill:#5E2C11;}
	.st226{fill:#473425;}
	.st227{fill:#57290F;}
	.st228{fill:#502812;}
	.st229{fill:#E9710E;}
	.st230{fill:#6E563E;}
	.st231{fill:#725B42;}
	.st232{fill:#63462C;}
	.st233{fill:#674D36;}
	.st234{fill:#433122;}
	.st235{fill:#5A4632;}
	.st236{fill:#58270D;}
	.st237{fill:#443021;}
	.st238{fill:#4E2712;}
	.st239{fill:#462A19;}
	.st240{fill:#52260F;}
	.st241{fill:#573518;}
	.st242{fill:#534432;}
	.st243{fill:#593D27;}
	.st244{fill:#452411;}
	.st245{fill:#484A3E;}
	.st246{fill:#56371D;}
	.st247{fill:#513824;}
	.st248{fill:#754721;}
	.st249{fill:#3F2A17;}
	.st250{fill:#4E321B;}
	.st251{fill:#53361E;}
	.st252{fill:#4F3018;}
	.st253{fill:#544130;}
	.st254{fill:#5A4230;}
	.st255{fill:#4D3622;}
	.st256{fill:#3F2712;}
	.st257{fill:#402813;}
	.st258{fill:#734A29;}
	.st259{fill:#573A23;}
	.st260{fill:#58391F;}
	.st261{fill:#573215;}
	.st262{fill:#502E0F;}
	.st263{fill:#462913;}
	.st264{fill:#3A220C;}
	.st265{fill:#422815;}
	.st266{fill:#492B0B;}
	.st267{fill:#492712;}
	.st268{fill:#412711;}
	.st269{fill:#412B1A;}
	.st270{fill:#684121;}
	.st271{fill:#6F4623;}
	.st272{fill:#492C0D;}
	.st273{fill:#462B0D;}
	.st274{fill:#492A09;}
	.st275{fill:#B7B7B7;}
	.st276{fill:#B4B6B6;}
	.st277{fill:#918F90;}
	.st278{fill:#646263;}
	.st279{fill:#B6B5B5;}
	.st280{fill:#A09F9F;}
	.st281{fill:#999898;}
	.st282{fill:#F3F4F4;}
	.st283{fill:#565454;}
	.st284{fill:#777575;}
	.st285{fill:#BBBCBC;}
	.st286{fill:#767575;}
	.st287{fill:#C0C5C5;}
	.st288{fill:#343232;}
	.st289{fill:#D1D6D6;}
	.st290{fill:#838080;}
	.st291{fill:#919091;}
	.st292{fill:#383535;}
	.st293{fill:#E6E5E5;}
	.st294{fill:#B4B4B4;}
	.st295{fill:#543641;}
	.st296{fill:#220911;}
	.st297{fill:#BCBCBC;}
	.st298{fill:#3A3B3B;}
	.st299{fill:#1A1A1A;}
	.st300{fill:#98999A;}
	.st301{fill:#624051;}
	.st302{fill:#0D0A0B;}
	.st303{fill:#6B304C;}
	.st304{fill:#742148;}
	.st305{fill:#752C4F;}
	.st306{fill:#84797E;}
	.st307{fill:#661640;}
	.st308{fill:#634E59;}
	.st309{fill:#DB2379;}
	.st310{fill:#E91A7B;}
	.st311{fill:#6D183B;}
</style>
<g>
	<path d="M246,122.2c-0.6-0.1-1.2,0.2-1.8-0.2c1.3-2.6,1.8-5.2,1.2-8.1c-0.9-4.1-3.2-7.3-5.8-10.5c-0.3-0.3-0.6-0.7-0.6-1.1
		c-0.4-2.3-1.4-4.3-3-6c-0.3-0.4-0.7-0.8-0.4-1.3c0.5-0.8,0.3-1.6-0.1-2.4c-2.8-6.6-6.9-12.1-12.4-16.7c-2.9-2.4-6-4.7-8.1-7.8
		c-1.1-1.6-2.3-3.3-2.1-5.5c0.1-0.7-0.2-1.4-0.7-1.9c-0.2-0.1-0.3,0-0.4,0.1c-0.1,0.1-0.1,0.3-0.1,0.5c0,0.1,0,0.2,0,0.3
		c0.1,0.2,0.2,0.5,0.2,0.7c0,0.1,0,0.2,0.1,0.3c0.1,0.3,0,0.7-0.1,1c0,0.1,0,0.2,0,0.3c0,0.9,0.4,1.6,0.7,2.5c0,0.1,0.1,0.2,0.1,0.3
		c0.3,0.4,0.5,0.8,0.7,1.2c1.3,2.2,3.1,3.9,4.9,5.6c1.2,0.9,2.4,1.9,3.6,2.9c3.6,3,6.9,6.4,9.3,10.4c0.5,0.8,1,1.6,1.4,2.4
		c0.7,1.1,1.2,2.3,1.8,3.5c0.3,0.8,0.5,1.5,0.2,2.3c-0.2,0.6,0,1.2,0.4,1.7c0.9,1.2,2,2.2,2.3,3.6c0.6,2.5,1.9,4.5,3.5,6.4
		c0.6,0.7,1.2,1.5,1.7,2.3c0.3,0.4,0.5,0.8,0.8,1.2c0.1,0.2,0.2,0.3,0.3,0.5c0.1,0.1,0.1,0.3,0.2,0.4c0,0,0.1,0,0.1,0s-0.1,0-0.1,0
		c0-0.1-0.1-0.2-0.1-0.3c-0.1-0.2-0.2-0.4-0.3-0.5c-0.2-0.4-0.4-0.8-0.7-1.2c-0.9-1.5-2.4-2.4-3.8-3.3c-1.8-1-3.8-1.7-5.8-2.1
		c-4-0.6-8-0.6-11.6,1.6c-0.2,0.1-0.4,0.4-0.7,0.2c-0.2-0.2,0-0.4,0-0.7c0-0.2,0.1-0.5,0.1-0.7c1.2-5.9,2.6-11.9,3.9-17.8
		c-0.1-1.9-1.3-3.4-3.4-4.1c-1.9-0.6-3.8-0.9-5.8-1.1c-0.3,0-0.5-0.1-0.8-0.1c-3.6-0.2-7.1-0.6-10.7-1c-1.6-0.2-1.6-0.2-2-1.9
		c-0.3-1-0.4-2-0.7-2.9c-0.1-0.5-0.4-1-1-0.9c-0.6,0.1-0.5,0.7-0.5,1.1c0.1,0.9,0.3,1.8,0.5,2.7c0.3,1.3,0.2,1.4-1.1,1.1
		c-4.3-0.7-8.6-1.5-13-1.8c-0.9-0.1-1.1-0.5-0.9-1.3c0.4-1.6,0.6-3.2,0.5-4.9c-0.1-2.1-0.5-4.2-1.7-6c-1.3-2.1-3.7-2.3-5.4-0.4
		c-0.4,0.5-0.7,1-1,1.5c-0.1,0.2-0.2,0.4-0.3,0.6c0,0.1-0.1,0.2-0.1,0.3c-0.1,0.2-0.1,0.4-0.2,0.6c0,0.1-0.1,0.2-0.1,0.3
		c-0.1,0.2-0.1,0.3-0.2,0.5c0,0.1-0.1,0.2-0.1,0.3c-0.1,0.3-0.1,0.7-0.2,1c0,0.1,0,0.2-0.1,0.3c0,0.5,0,1.1-0.2,1.6
		c0,0.1,0,0.2,0,0.3c0,0.5,0,1,0,1.6c0,0.1,0,0.2,0.1,0.3c0.2,0.5,0.2,1,0.2,1.5c0,0.1,0,0.2,0.1,0.3c0.3,1,0.3,1-0.7,0.8
		c-0.1,0-0.2,0-0.3-0.1c-0.7-0.1-1.5,0.1-2.2-0.1c-0.1,0-0.2,0-0.4,0c-1.9,0.2-2.9,1.4-3.5,3c-0.4,1-0.3,2.2-0.6,3.2
		c-0.8,2.9-1.4,5.9-1.9,8.8c-1.1,5.4-2.2,10.9-3.3,16.3c-0.2,1.1-0.3,1.1-1.3,0.5c-1.2-0.8-2.4-1.3-3.8-1.6
		c-0.9-0.2-1.6-0.6-2.2-1.2c-4-4-9-5.6-14.6-5.7c-1.1,0-1.8-0.4-2.4-1.2c-2.1-2.8-3.7-5.8-4.2-9.2c-0.5-3.1-0.8-6.3-1.1-9.4
		c-0.2-2.5-0.8-4.7-2.9-6.2c-0.3-0.3-0.5-0.7-0.8-1c-0.2-0.3-0.5-0.6-1-0.4c-0.5,0.4-0.3,0.9-0.1,1.4c0.4,0.8,0.9,1.5,1.6,2.1
		c0.8,0.6,1.2,1.4,1.3,2.3c0.3,2.3,0.7,4.5,0.8,6.8c0.4,5,1.4,9.8,4.6,14c0.8,1.1,0.8,1.2-0.6,1.7c-0.1,0.1-0.3,0.1-0.4,0.2
		c-0.3,0.2-0.5,0.4-0.5,0.7c0.1,0.4,0.4,0.4,0.7,0.5c0.7,0.1,1.4-0.1,2.1-0.2c6.5-1,12.2,0.6,16.9,5.4c2.3,2.5,3.9,5.4,3.8,8.9
		c0,1.8-0.5,2.3-2.3,2.3c-2.5,0-5,0-7.5,0.3c-2.5,0.3-5.2,0.1-7.6,1.3c-0.2,0.1-0.5,0.1-0.8,0.1c-1.6,0.1-3.1,0.3-4.7,0.2
		c-0.6,0-1.2,0.1-1.8,0.4c-0.8,0.5-1.6,0.5-2.4,0.5c-4.6,0-9.2,0-13.9,0c-3,0-6.1,0-9.1,0c-1,0-1.4-0.4-1.5-1.3
		c-0.1-1.2-0.1-2.5,0-3.7c0.2-2.7,0.8-5.3,1.2-7.9c0.2-1.2,0-2.2-0.5-3.3c-0.5-1-1-2.1-1.2-3.2c-0.8-3.7,0.1-7.3,1.5-10.7
		c1.1-2.6,2.7-4.9,4-7.4c0.6-1.2,1.2-2.4,1.8-3.6c1.6-3.6,3.2-7.2,3.7-11.2c0.4-3.5,1.8-6.6,3.5-9.6c0.4-0.7,1-1.1,1.9-1
		c1,0.1,2-0.2,2.9-0.5c3.4-1.3,6.1-3.3,8.4-6.1c0.4-0.5,0.8-0.6,1.4-0.3c0.6,0.3,1,0.7,1.2,1.4c0.3,1.3,0.4,2.6,1,3.8
		c1.7,2.3,2.7,2.5,5.2,1.2c0.4-0.2,0.9-0.5,1.3-0.8c4.2-2.5,8.7-4.3,13.4-5.6c3.7-1,7.5-1.4,11.3-1.6c2.4-0.2,4.7,0.1,7.1,0.3
		c8.5,0.9,16.4,3.6,23.5,8.4c0.7,0.5,1.6,1.1,2.4,0.2c0.8-0.8,0.3-1.6-0.1-2.4c-0.2-0.4-0.5-0.8-0.8-1.1c-0.3-0.2-0.5-0.5-0.7-0.7
		c0,0,0.1,0.1,0.1,0.1c1.5,1.2,3,2.3,5,2.3c0.8,0,1.6,0,1.8-1c-0.1-0.4-0.4-0.4-0.7-0.4c-1.2,0.3-2.3,0-3.3-0.6
		c-3.4-2.1-5.9-5-6.9-9c-0.4-1.6-0.6-3.2-1.1-4.8c-0.4-0.5,0-1-0.1-1.4c-0.5-0.1-0.6-0.6-0.7-1c-0.8-3.4-1.7-6.7-3-9.9
		c-0.7-1.8-1.7-3.5-3.4-4.7c-3.4-2.4-6.8-4.8-10.2-7.1c-2.3-1.6-4.7-2.8-7.3-3.6c-1.1-0.4-2.6-0.1-2.9-1.9c0-0.3-0.8-0.6-1.2-0.8
		c-0.8-0.3-1.7-0.5-2.6-0.3c-1.5,0.3-3.6-0.2-3.6,2.3c0,0.1-0.3,0.3-0.6,0.3c-7.3,2.6-13.3,7.2-19.5,11.5c-0.2,0.1-0.3,0.2-0.4,0.4
		c-3.4,4.9-6.4,10.1-7.6,16c-0.1,0.3,0,0.6-0.5,0.7c-4.6,0.8-8-1.6-11.3-4.2c-0.2-0.1-0.3-0.4-0.3-0.6c0.1-2.2-1.1-4-2.2-5.7
		c-0.4-0.6-0.5-0.9,0.2-1.3c4-2.7,6.8-6.4,8.6-10.8c1.6-3.8,2.6-7.8,2-12c-0.1-0.8-0.3-1.8-1.3-2c-1-0.2-1.6,0.5-2.1,1.2
		c-0.9,1.3-1.9,2.6-2.7,4c-2.3,3.8-5.7,6-10.2,6.3c-2.2,0.2-4.3-0.1-6.5-0.2c-2-0.2-3.9-0.4-5-2.4c-0.1-0.2-0.4-0.4-0.6-0.4
		c-1.7-0.2-2.1-1.6-2.6-2.9c-0.3-0.8-0.6-1.7-0.9-2.5c-0.3-0.8-0.7-0.9-1.4-0.4c-1,0.7-2.1,1.4-3.2,2.1C93,10,92.8,10,92.6,10
		c0-0.1,0-0.3,0.1-0.4c0.4-1.8,1-3.4,2-4.9C95,4,95.9,3.2,95.3,2.5c-0.6-0.7-1.6-0.1-2.4,0.1c-0.4,0.1-0.8,0.4-1.3,0.5
		c-2.6,1.1-4.3,3.2-5.8,5.5c-0.3,0.4-0.5,0.7-1.2,0.5c-4.9-1.9-10-2.4-15.2-1.8c-1.6,0.2-3.1,0.9-4.6,0.6c-11.6-2.5-22.1,0.2-32,6.3
		c-0.5,0.3-1,0.7-1.4,1.2c-0.9,0.9-0.7,1.7,0.5,2.2c0.7,0.3,1.9,0.1,2,0.9c0.1,0.6-0.8,1.4-1.2,2c-0.2,0.3-0.4,0.6-0.6,1
		c-0.8,1.3-1.8,2.2-3.5,2.2c-1.3,0-2.7,0.5-3.8,1.2c-0.5,0.3-0.8,0.2-1.2-0.1c-1.5-1.3-2.5-2.9-3.2-4.7c-0.6-1.3-1-2.8-2.2-3.8
		c-1.1-0.9-2-0.7-2.7,0.4c-3.6,5.9-2.6,14.4,2.4,19.2c0.6,0.6,0.6,0.8-0.1,1.3c-2.8,2-5.9,3.7-8.4,6.1C6.7,46,4.5,48.9,5.1,53
		c0,0.2,0,0.5-0.1,0.6c-0.9,1.8-1.4,3.7-1.8,5.7c-0.9,4.9-0.6,9.5,3.3,13.3c0.4,0.4,0.7,0.9,0.9,1.5c2.8,10,9.6,17,17.4,23.2
		c1,0.8,2.3,1.3,3.6,1.5c0.7,0.2,1,0.5,1.1,1.3c0.2,6.9-0.4,13.8-2,20.5c-0.2,0.7-0.4,0.9-1.1,0.9c-5.5-0.1-10.9-0.1-16.4-0.1
		c-0.4,0-0.8-0.1-0.8,0.4c-0.1,0.6,0.4,0.5,0.8,0.5c6.4,0,12.7,0,19.1,0c34.7,0.1,69.4,0.1,104,0.1c0.9,0,1.3,0.3,1.4,1.2
		c0,0.8,0.4,1.2,1.2,1.2c2.8,0,5.5,0.1,8.3,0.1c15.3-0.2,30.5-0.5,45.8-0.6c7.1-0.1,14.1,0.1,21.2,0.2c1.6,0,3,0,4.1-1.2
		c0.6-0.6,1.1-0.8,1.9-0.8c9.7,0,19.5,0,29.2,0C246.1,122.4,246.1,122.3,246,122.2z M198,50.8c0.5,0.7,1,1.3,1.6,1.9
		c0.2,0.2,0.4,0.4,0.6,0.6c-0.2-0.2-0.4-0.4-0.5-0.6c-0.6-0.6-1.1-1.3-1.7-1.9c-0.1-0.1-0.3-0.3-0.3-0.5
		C197.8,50.4,197.9,50.7,198,50.8z M107,121.2c0.1,0.4,0,0.5-0.4,0.5c-0.1,0-0.2,0-0.2,0c-1.3,0-2.8,0.4-3.9-0.1
		c-1.2-0.5-0.5-2.3-1.1-3.3c-2.8-5-1.3-10.4-1.3-16.1c0.2-6,0.3-12.4,1.2-18.8c0.2-1.5,1.2-2.5,1.8-3.8c2.2-4.5,5-8.7,6.5-13.5
		c1.4-4.3,3.6-8.1,6.3-11.7c1-1.4,1.5-1.8,2.7-0.3c0.9,1,2,1.8,3.3,2.3c0.6,0.2,0.9,0.6,0.4,1.1c-3.1,3.7-4.4,8-5.2,12.7
		c-0.9,5.3-3.4,10.2-6.2,14.8c-2.3,3.7-4.2,7.5-4.8,11.9c-0.4,2.9-0.1,5.7,1.3,8.2c0.8,1.4,0.8,2.8,0.5,4.3
		C107.2,113.3,106.3,117.2,107,121.2z"/>
	<path class="st0" d="M208.2,56c-0.2,0-0.4-0.1-0.6-0.1c-0.2-0.2-0.7,0-0.7-0.4c0-0.4,0.3-0.6,0.6-0.8c0.5-0.2,1-0.4,1.5-0.6
		c6.4-2.6,10.7-7.1,12.2-14c0.7-3.2,0.3-6.3-0.2-9.5c-0.1-0.5-0.3-1-0.2-1.6c0.1-0.2,0.2-0.5,0.5-0.4c3.3,10.3,0.3,20.1-10.3,25.7
		c-0.9,0.4-1.2,0.7-0.5,1.6c0.7,0.9,1,2,1,3.1c0,0.7,0.2,1.2,0.6,1.7c-0.1,0.1-0.2,0.2-0.3,0.3c0,0-0.1,0-0.1,0c0,0-0.1,0-0.1,0
		c-0.1,0-0.2-0.1-0.3-0.1c0,0-0.1-0.1-0.1-0.1c-0.1-0.1-0.2-0.2-0.3-0.3c-0.1-0.1-0.1-0.2-0.1-0.3c-0.1-0.6,0-1.3-0.2-1.9
		c-0.1-0.6-0.3-1.2-0.6-1.7C209.4,55.9,208.9,55.7,208.2,56z"/>
	<path class="st1" d="M195.9,41.2c-0.5-0.6-0.2-1,0.3-1.4c7.1,2.4,15.7-1.9,19.6-7.3c1-1.5,2-3,3-4.5c0.4-0.6,0.9-1.1,1.7-0.7
		c0.1,0.4-0.2,0.5-0.3,0.8c-0.9,0.9-1.5,2.1-2.2,3.1c-3.5,5.6-8.5,9.1-15,10.2c-1.9,0.3-3.8,0.2-5.6-0.3
		C196.8,41,196.3,40.9,195.9,41.2z"/>
	<path class="st2" d="M246,122.5c0-0.1,0-0.1,0-0.2c1.2-0.2,2.4,0,3.6-0.1c0.4,0,0.8,0.1,1.2-0.1c0.9,0,1.9-0.2,2.8,0.2
		c-0.8,0.7-1.8,0.2-2.7,0.3C249.4,122.6,247.7,122.6,246,122.5z"/>
	<path class="st3" d="M250.9,122.1c-1.6,0.4-3.2,0.1-4.9,0.2c-0.6-0.1-1.3,0.3-1.8-0.3C246.5,122.1,248.7,122.1,250.9,122.1z"/>
	<path class="st4" d="M219.9,27.7c0.2-0.2,0.3-0.3,0.5-0.5c0.6,0.2,0.8,0.8,0.9,1.4c-0.1,0.2-0.2,0.4-0.3,0.5
		C220.4,28.9,220.2,28.3,219.9,27.7z"/>
	<path class="st5" d="M63.8,96.2c-0.2-0.3-0.4-0.6-0.7-0.9c-0.6,0.4-1.1,0.3-1.8-0.1c-1.4-0.9-2.7-1.9-4-2.9c-1-0.9-2.2-1.3-3.4-1.6
		c-1.1-0.2-1.9-0.7-2.6-1.5c0,0.1,0.1,0.1,0.1,0.2c2.1,3.7,5.3,6.6,7.5,10.2c0.5,0.9,1.2,1.7,2,2.4c2.1,1.8,3.2,4.2,4.3,6.6
		c0.4,0.8,0.4,1.6,0.3,2.4c-0.5,3.5-1.8,6.7-2.9,9.9c-0.2,0.5-0.5,0.8-1,0.7c-6.1,0-12.1,0-18.2,0c-1.7,0-1.8-0.1-1.8-1.8
		c0-3.7,0.1-7.3,0-11c-0.1-4.2,0.1-8.4,0.7-12.5c0-0.2,0-0.5,0-0.7c0.1-2.6,0-5.2,0.2-7.9c0.2-3-0.2-5.9-0.7-8.8
		c-0.3-1.8-0.4-3.7-0.4-5.5c0-2.6-0.4-5.1-1.3-7.5c-1.1-2.9-3.1-5.1-5.8-6.6c-2.2-1.1-4.4-2-6.9-2.3c-0.3-0.1-0.5-0.1-0.8-0.1
		c-0.4,0.1-0.7-0.1-1.1,0.1c0.4-0.1,0.6,0,0.9,0.3c1.5,0.6,3.1,1.1,4.6,1.7c0.1,0.1,0.2,0.2,0.3,0.2l0,0c0.3,0.4,0.2,0.9,0.2,1.4
		c-0.2,2.3-0.9,4.4-1.5,6.7c-1.1,4.5-2.2,9.1-3.6,13.5c-0.6,1.8-1.5,3.6-2.3,5.3c-0.4,0.8-0.9,1.4-1.5,2c-1,0.9-1.6,0.9-2.4-0.1
		c-1.4-1.6-2.8-3.3-4-5.1c-2.8-4.3-5.1-8.9-6.5-13.9c-0.8-3.1-1.4-6.1-0.4-9.3c0.4-1.4,0.3-3-0.3-4.4c-0.5-1.2-0.5-2.5-0.2-3.7
		c0.2-0.7,0.4-1.4,0.6-2.1c0.4-1.6,1.3-2.8,2.7-3.6c1-0.6,1.9-1.3,2.8-2.1c0.7-0.6,1.4-0.7,2.3-0.6c3.9,0.5,7.9,0.7,11.8,0
		c2.9-0.6,5.8-1.5,8.6-2.6c0.6-0.4,1.3-0.8,1.9-1.1c0.1-0.2,0-0.4,0.2-0.6c0.7-0.5,1.1-1.2,1.9-1.6c1.4-0.3,1.6-1.6,2.1-2.7
		c1.4-3,0.6-7-1.7-8.9c-1.5-1.2-3.5-1-5.2-1.5c-1.2-0.4-2.6-0.3-3.9-0.5c-0.2,0-0.5-0.1-0.7-0.2c0.1-0.2,0.2-0.4,0.3-0.6
		c0.7-1.1,1.5-2.2,2.1-3.3c0.4-0.7,0.8-0.8,1.4-0.5c1.5,0.7,3.1,1.4,4.6,2c0.3,0.1,0.6,0.2,0.5-0.3c-2-2.1-4.7-2.6-7.3-3.4
		c-0.6-0.2-1.6-0.1-1.7-0.7c-0.1-0.7,0.8-1,1.4-1.4c9.1-5.6,18.8-8.5,29.5-6.7c0.2,0,1.2-0.2,0.3,0.6c-0.6,0.6,0,0.9,0.5,1.1
		c1.7,0.7,3.3,1.4,4.7,2.4c0.2,0.1,0.7,0.2,0.7,0.2c0.2-0.3-0.1-0.6-0.3-0.8c-0.9-1-2.2-1.5-3.4-2.1c-0.2-0.1-0.4-0.3-0.6-0.4
		c0.2-0.1,0.4-0.2,0.6-0.3c6.4-1.6,12.7-1.5,19,0.9c1.3,0.5,2.4,1.3,3.4,2.2c1.6,1.5,3.4,2.8,5.8,2.9c0.9,0.5,1,0.9,0.4,1.7
		c-0.8,1-0.4,1.4,0.6,1.8c2.1,0.8,3.9,2,5.8,3.1c0.4,0.3,0.8,0.6,1.1,1c1.2,3.8,2.7,7.5,5.6,10.4c0.3,0.4,0.4,0.9,0.4,1.4
		c-0.1,3.6,0.3,7.1,1,10.6c0.2,0.8,0.2,1.5,0.1,2.3c-0.1,0.9-0.4,1.7-1.3,2.3c-0.9,0.5-1.3,1.6-1.7,2.6c-0.3,0.6-0.5,1.3-0.3,1.9
		c0.5,1.7,0.2,3.4-0.2,5c-0.5,2.4-0.9,4.8-1.5,7.1c-1.2,4.2-3.1,8-5.3,11.8c-2.1,3.6-4.1,7.2-5.5,11.2c-0.7,1.9-1.8,3.7-3.9,4.5
		c-0.3,0.1-0.6,0.2-0.8,0.5c-1.1,1.4-2.8,1.9-4.1,3c-0.1,0.1-0.2,0.2-0.4,0.2c-1.4,0.2-2.5,1-3.5,2c-0.2,0.2-0.5,0.3-0.9,0.3
		c-2-0.4-3.8,0.4-5.7,0.7c-1.4,0.3-2.7,0.3-3.9-0.7c-0.5-0.4-1-0.8-1.6-0.9C66.1,98.6,65,97.4,63.8,96.2z"/>
	<path class="st5" d="M169.3,82.8c-1.8,8.7-3.6,17.4-5.4,26.1c-0.2,0.9-0.4,0.9-1,0.3c-1.4-1.2-3.1-1.9-5-2.2
		c-0.5-0.1-0.8-0.3-1.1-0.6c-4.2-4.5-9.5-6.2-15.5-6.2c-0.8,0-1.3-0.2-1.8-0.8c-3.7-4.3-5-9.4-5.4-14.9c-0.2-2.3-0.5-4.5-0.8-6.8
		c-0.1-1.1-0.5-1.9-1.4-2.5c-1.1-0.7-1.7-1.9-2.5-2.8c-0.6-0.2-0.8-0.7-0.8-1.2c0-0.6,0.1-1.1-0.1-1.7c-0.2-0.3,0.1-0.8-0.5-0.9
		c-0.2,0-0.4,0-0.6-0.1c-0.5-0.4-0.8-1-1.1-1.5c-0.1-0.2-0.1-0.7-0.6-0.4c1.1,3.7,1.7,7.4,2.1,11.2c0.3,3,0.5,5.9,1,8.8
		c0.8,4.4,1.8,8.7,3.2,12.9c0.2,0.5,0.3,1,0.6,1.5c0.6,1.1,1.4,1.6,2.7,1.4c3.8-0.5,7.4,0,11,1.3c4.5,1.6,7.7,4.6,9.5,9
		c0.1,0.3,0.2,0.6,0.3,1c0.5,2.1,0,3.1-2,3.8c-2.3,0.8-4.7,1.1-7.1,1.4c-3.1,0.4-6.2,0.9-9.3,1.2c-5.3,0.5-10.4-0.4-15.2-2.5
		c-1.8-0.8-3.2-2-4.5-3.5c-2.7-3.1-4.5-6.7-5.4-10.7c-1.3-5.4-1.5-10.8-1-16.3c0.1-1.3,0.7-2.4,1.1-3.6c1.9-4,3.8-8.1,4.9-12.4
		c0.4-1.5,0.5-3,0.8-4.5c0.5-2.7,1.9-5,3.2-7.4c0.4-0.8,0.9-1.3,2.1-1.1c2,0.4,3.8-0.9,5.5-1.8c2.2-1.2,4-2.9,5.7-4.8
		c0.3-0.3,0.4-1.1,0.9-0.8c0.7,0.5,1.9,0.4,2.1,1.6c0.3,1.4,0.6,2.8,0.9,4.2c0.5,1.5,1.6,2.6,2.9,3.5c2,1.5,4.1,3,6.1,4.5
		c0.5,0.4,1.1,0.8,1.2,1.6c-0.8,1.6-1.5,3.3-1.6,5.2c-0.1,3,0.5,5.8,2.3,8.2c1.2,1.6,3.3,1.5,4.4-0.2c0.8-1.2,1.2-2.6,1.3-4
		c0.1-1.2,0-2.4,0.1-3.6c0.1-0.7,0.5-0.8,1.1-0.5c0.3,0.1,0.5,0.3,0.8,0.5c3.9,2.9,7.6,6,11.2,9.2C169.3,81.4,169.6,82,169.3,82.8z"
		/>
	<path class="st6" d="M222.4,84.9c0.6,0.4,0.7,1,0.5,1.7c-2.9,11.1-4.5,22.5-7.7,33.5c-0.8,2.7-1.8,3.3-4.6,3.3
		c-9.3-0.1-18.6-0.2-27.8-0.3c-6.2-0.1-12.4-0.1-18.6-0.2c-0.3,0-0.7-0.1-1-0.2c0.7-0.7,1-1.6,1.3-2.5c2.6-9,4.8-18.1,7.1-27.2
		c0.7-2.7,1.5-5.3,2.6-7.8c1.8-4,3.7-4.7,7.7-4.5c2.3,0.1,4.6,0.2,6.9,0.3c5.5,0.3,11.1,0.8,16.6,1.3c5.1,0.5,10.1,1.2,15.1,1.9
		C221.2,84.5,221.8,84.8,222.4,84.9z"/>
	<path class="st7" d="M139.7,55.5c-0.1-0.1-0.2-0.3-0.2-0.4c-0.2-2.4-1-4.1-3.3-5.5c-3.1-1.8-2.9-5.1-2.4-8.2
		c1-5.8,3.8-10.9,7.1-15.6c1-1.4,3.1-2.1,4.6-3.3c4.5-3.4,9.2-6.4,14.5-8.5c1.8-0.7,3.7-1.6,5.7-0.2c0.3,0.2,0.7,0,0.9-0.3
		c0.4-0.3,0.9-0.1,1.2,0.1c1.7,1.3,3.2,2.9,3.5,5.2c0,0.3-0.1,0.5-0.3,0.7c-0.1,0.2-0.2,0.3-0.3,0.5c-0.1,0.2,0,0.4,0.1,0.6
		c0,0.1,0,0.2,0,0.3c0,0.3-0.2,0.4-0.3,0.6c-0.1,0.2-0.3,0.3-0.5,0.4c-0.2,0.1-0.4,0-0.6-0.1c-0.1-0.1-0.2-0.2-0.3-0.2
		c-0.2-0.1-0.3-0.2-0.5-0.3c-0.3-0.2-0.6-0.3-0.9-0.4c-0.5-0.2-0.9,0-1.3,0.2c-0.5,0.2-1.1,0.1-1.7,0.2c-0.2,0.1-0.4,0.1-0.6,0.2
		c-0.1,0-0.1,0.1-0.2,0.2c-0.1,0.2-0.1,0.3-0.2,0.5c-0.3,0.4-0.7,0.5-1.1,0.3c-0.1,0-0.2-0.1-0.3-0.1c-0.1-0.1-0.2-0.2-0.3-0.3
		c-0.1-0.1-0.1-0.1-0.1-0.2c0-0.1-0.1-0.1-0.1-0.2c0,0-0.1-0.1-0.1-0.1c-0.1,0-0.1,0-0.1,0.1c0,0.1,0,0.1,0,0.2c0,0.3,0,0.6,0.2,0.8
		c0.2,0.5,0.6,0.9,0.2,1.5c-0.1,0.1-0.1,0.2-0.2,0.2c-0.3,0.2-0.5,0.4-0.7,0.6c-0.1,0.1-0.2,0.2-0.3,0.3c-0.2,0.2-0.3,0.4-0.4,0.6
		c-0.2,0.3-0.5,0.5-0.7,0.8c-0.2,0.2-0.3,0.5-0.5,0.7c-0.3,0.5-0.4,1.1-0.5,1.6c-0.1,0.3-0.2,0.6-0.3,1c-0.5,1.8,0.1,3.2,1.8,4.1
		c0.6,0.3,1.1,0.3,1.6-0.1c0.5-0.4,0.9-0.8,0.5-1.4c-0.1-0.6-0.5-1-0.4-1.7c0.2-0.5,0.1-1.1,0.2-1.6c0.2-0.7,0.4-1.5,0.8-2.1
		c0.5-0.6,0.9-0.5,0.9,0.3c0.1,0.9,0.1,1.8,0,2.8c-0.4,1.1-0.1,2.2-0.2,3.4c0,0.1,0,0.2,0,0.3c0,0.2-0.1,0.3-0.2,0.5
		c0,0.1-0.1,0.2-0.1,0.2c0,0.1-0.2,0.2,0,0.2c0.1,0,0.2,0,0.3,0c1-0.1,2.1,0.3,3-0.3c0.4-0.8,0.9-0.4,1.4,0c0.9,0.1,1.8,0,2.7,0.1
		c0.2,0,0.3,0,0.3-0.3c0-0.1,0-0.2-0.1-0.2c-0.1-0.2-0.1-0.4-0.2-0.6c0-0.3,0-0.6,0-0.8c0-0.5,0.2-1,0.2-1.5
		c0.1-1.3-0.1-2.6,0.1-3.9c0.1-0.2,0.2-0.3,0.4-0.3c0.1,0,0.2,0,0.4,0.1c0.3,0.3,0.4,0.7,0.6,1.1c0.1,0.3,0.2,0.6,0.3,0.8
		c0.1,0.5-0.1,0.9-0.1,1.4c0,0.8-0.1,1.5-0.4,2.2c0.1,1.2,0.8,1.7,1.9,1.3c0.4-0.2,0.8-0.4,1.1,0c0.7,2.2,0.6,4.4,0.7,6.7
		c0,0.8-0.6,0.9-1.2,0.9c-1.5,0-2.9,0-4.4,0c-0.4-0.1-0.8-0.2-1.3,0.1c-0.6,0.3-1.2,0.4-1.9,0.3c-0.1,0-0.2,0-0.3,0
		c-0.3,0-0.7,0-1,0.1c-0.2,0.1-0.5,0.1-0.7,0.1c-1.3,0.1-2.5,0.4-3.8,0.5c-0.2,0-0.5,0.1-0.7,0.2c-0.6,0-1.2,0.3-1.9,0.3
		c-0.2,0-0.3,0.1-0.5,0.1c-0.5,0.1-1,0.3-1.6,0.3c-0.1,0-0.2,0.1-0.3,0.1c-0.5,0.1-0.9,0.2-1.3,0.4c-0.2,0-0.3,0-0.5,0.1
		c-0.2,0.1-0.5,0.2-0.7,0.2c-0.3,0.1-0.6,0.2-0.9,0.3c-0.4,0.1-0.7,0.3-1.1,0.4c-0.7,0.3-1.4,0.6-2.2,0.8c-1,0.4-2,0.7-2.9,1.1
		c-0.9,0.3-1.8,0.8-2.7,1.1c-0.2,0.1-0.4,0.2-0.6,0.3c-0.5,0.2-1,0.5-1.6,0.6c-0.1,0.1-0.3,0-0.3,0.2c0.1-0.1,0.2-0.1,0.3-0.2
		c0.6-0.2,1.2-0.4,1.7-0.7c0.2-0.1,0.4-0.2,0.6-0.2c0.9-0.4,1.8-0.8,2.7-1.1c1-0.4,2-0.8,3-1.1c0.8-0.2,1.4-0.5,2.2-0.8
		c0.3-0.1,0.7-0.2,1-0.4c0.3-0.1,0.5-0.2,0.7-0.2c0.3-0.1,0.5-0.2,0.7-0.2c0.2,0,0.3,0,0.5-0.1c0.4-0.2,0.9-0.3,1.4-0.4
		c0.2,0,0.3-0.1,0.5-0.1c0.6,0,1.1-0.2,1.6-0.3c0.2,0,0.4-0.1,0.7-0.1c0.6-0.2,1.3-0.2,1.9-0.3c0.2,0,0.4-0.1,0.5-0.1
		c1.4-0.2,2.8-0.4,4.3-0.6c0.4-0.2,0.8-0.1,1.1-0.1c0.6,0,1.2,0,1.7-0.2c0.5-0.1,0.9-0.2,1.4-0.1c1.8,0,3.5,0,5.3,0
		c0.6,0,1.2,0,1.8,0.3c1.6,1.3,2.7,2.9,3.7,4.6c0.6,1,0.3,1.5-0.9,1.4c-1.3-0.1-2.7-0.3-4-0.4c-7.2-0.5-14.2,0.5-21,2.7
		c-4.5,1.4-8.8,3.4-13.3,5C141,55.5,140.4,55.9,139.7,55.5z"/>
	<path class="st8" d="M208.2,56c0.5-1,1-1,1.6-0.1c0.4,0.7,0.9,1.4,0.9,2.3c0.2,0.7,0.1,1.4,0.1,2c0,0.1,0,0.2,0,0.4
		c-0.2,1.4,0.3,2.7,0.6,4.1c0,0.2,0.1,0.4,0.1,0.6c0.1,3.1,1.5,5.7,3,8.4c1.3,2.3,1.2,5,1.3,7.5c0,0.2-0.1,0.4-0.3,0.5
		c-4.3-0.2-8.6-0.6-12.9-1.2c-0.5-0.1-0.7-0.3-0.8-0.8c-0.3-1.4-0.6-2.7-0.9-4c-0.1-0.4,0-1-0.6-0.9c-0.5,0.1-0.3,0.6-0.2,1
		c0.2,1.2,0.5,2.4,0.8,3.6c0.2,0.6,0.2,1-0.7,0.9c-4.9-0.8-9.8-1.7-14.8-2.1c-0.8-0.1-0.9-0.3-0.7-1.1c0.9-2.8,1-5.8,0.3-8.6
		c-0.5-1.8-1.1-3.8-3.3-4.1c-2.1-0.3-2.9,1.4-3.8,2.8c-0.2,0.1-0.1,0.3-0.2,0.5l0,0c-0.3,0.2-0.1,0.5-0.3,0.7l0,0
		c-0.2,0.2-0.1,0.5-0.2,0.7l0,0c-0.4,0.3,0,0.8-0.3,1.2l0,0c-0.4,0.6,0,1.3-0.2,1.9c0,0.1,0,0.1,0,0.2c-0.2,0.6-0.2,1.2,0,1.9
		c0,0,0,0.1,0,0.1c0.2,0.5-0.1,1.2,0.2,1.7l0,0c0.2,1.3,0.2,1.3-1,1.2l0,0c-0.8-0.4-1.7,0.1-2.6-0.2l0,0c-0.4-0.4-0.4-0.9-0.3-1.4
		c0.4-2.6,0.8-5.2,2.1-7.5c0.1-0.2,0.2-0.5,0.4-0.7c1.2-1,1-2.2,0.7-3.6c-0.8-4.1-0.8-8.2-0.7-12.4c0-1.3,0.3-1.5,1.6-1.3
		c8,0.7,15.4,3.3,22.3,7.5c0.6,0.3,1.1,0.7,1.6,1.1c0.5,0.3,1.1,0.7,1.7,0.2c0.5-0.5,0.2-1.2,0-1.7c-0.7-1.4-1.9-2.4-2.9-3.5
		c-0.2-0.2-0.3-0.4-0.5-0.6c-0.1-0.3,0-0.3,0.3-0.3c1.5,1.5,3.1,3,5.1,3.8C205.9,56.8,207.1,57.1,208.2,56z"/>
	<path class="st8" d="M34.2,59.2c3.3,0.9,5,3.4,6.2,6.2c1,2.5,1.6,5.1,1.4,7.8c-0.2,3.6,0.8,7.1,1,10.6c0.3,4.1,0.1,8.2-0.2,12.3
		c-0.3,4.8-0.6,9.6-0.5,14.5c0,3,0.1,6.1-0.1,9.1c-0.1,1.5,0.4,1.8,1.8,1.7c6-0.1,12.1,0,18.1,0c0.1,0,0.1,0.1,0.1,0.1
		c0,0-0.1,0.1-0.1,0.1c-11,0-22,0-33.1,0c-0.7,0-0.8-0.3-0.6-0.8c2.1-8.5,2.1-17.2,1.9-25.9C30,84.1,30.3,73.5,32.7,63
		c0-0.2,0.1-0.4,0.1-0.6c0.1-0.9,0.3-1.7,0.4-2.6c0.9,0.2,1.4,0.9,2,1.5c0.1,0.1,0.3,0.1,0.5,0.2c0-0.2,0.1-0.4,0.1-0.6
		C35.5,60.1,34.7,59.8,34.2,59.2z"/>
	<path class="st9" d="M177.2,49.9c-1-0.1-1.2,0.3-1.2,1.2c0,4.8,0,9.6,1.1,14.3c0.1,0.3,0.1,0.7-0.1,0.9c-2.9,2.9-3,6.8-3.5,10.5
		c-2.6,0.1-3.6,2.3-3.9,4.9c-0.1,0.4,0,0.8-0.2,1.1c0.2-1.1-0.6-1.5-1.2-2c-3.6-3.1-7.3-6.2-11.1-9c-0.3-0.2-0.6-1-1.1-0.3
		c-0.5-0.1-0.5-0.6-0.6-1c-0.4-1.2-0.7-2.3-1.5-3.4c-1.2-1.7-2.2-2-4.1-1.3c-0.2,0.1-0.4,0.2-0.7,0.1c-1.8-2-4.2-3.4-6.4-5
		c-1.2-0.9-2.4-1.7-3.2-3c-0.3-0.5-0.5-0.9-0.4-1.5c1.4,2.1,2.5,2.5,4.7,1.1c6.8-4.2,14.2-6.9,22.1-7.7
		C169.6,49.4,173.4,49.3,177.2,49.9z"/>
	<path class="st10" d="M139.7,55.5c4.2-1.6,8.4-3.3,12.7-4.8c5.5-2,11.1-3.2,16.9-3.6c3.7-0.2,7.3,0,11,0.5c0.2,0,0.4-0.1,0.6-0.1
		c-0.1-0.2-0.1-0.4-0.2-0.6c-1-1.8-2.2-3.3-3.6-4.8c0.1-0.2,0.2-0.2,0.4-0.2c0.2,0,0.3,0,0.5,0c0.3,0.2,0.6,0.2,0.9,0.2
		c0.2,0,0.3,0,0.4,0.1c0.2,0.1,0.5,0.1,0.7,0.2c0.1,0,0.2,0,0.3,0.1c0.1,0,0.2,0.1,0.3,0.1c0.2,0.1,0.5,0.1,0.7,0.2
		c0.2,0.1,0.5,0.1,0.7,0.2c0.1,0,0.2,0.1,0.3,0.1c1.4,0.3,2.8,0.8,4.2,1.3c1.5,0.6,2.8,1.3,4.2,2.1c0.7,0.5,1.5,0.8,2.1,1.4
		c0.3,0.2,0.6,0.3,0.8,0.6c0,0,0,0,0,0c-0.2-0.2-0.5-0.4-0.7-0.5c-0.6-0.6-1.4-0.9-2.1-1.4c-1.3-0.7-2.7-1.5-4.1-2
		c-1.3-0.5-2.6-1-3.9-1.3c-0.2,0-0.3,0-0.5-0.1c-0.2-0.1-0.4-0.2-0.6-0.2c-0.3-0.1-0.7-0.2-1-0.3c-0.1,0-0.2-0.1-0.3-0.1
		c-0.2-0.1-0.4-0.1-0.6-0.1c-0.2,0-0.3-0.1-0.4-0.1c-0.2-0.1-0.5-0.1-0.8-0.1c-0.2,0-0.3,0-0.5-0.1c-0.4-0.2-0.9,0-1.4-0.2
		c-0.6-0.2-1.2-0.1-1.7-0.1c-1.4,0-2.9,0-4.3,0c-0.3,0-0.9,0.2-0.9-0.5c1.6,0,3.1,0,4.7,0c0.8,0,0.9-0.2,0.8-1
		c-0.3-2.1-0.1-4.3-0.7-6.4c-0.2-0.4,0.1-0.6,0.3-0.8c0.3-0.3,0.6-0.6,0.7-1c0.2-0.6,0.2-1.2-0.1-1.8c-0.1-0.5-0.2-1-0.4-1.5
		c-0.5-1-0.6-2.2-1.5-3c-0.3-0.2-0.6-0.4-0.7-0.8c-0.1-0.2-0.2-0.5-0.2-0.7c0-0.2,0.1-0.4,0.1-0.6c0.2-0.3,0.3-0.6,0.3-0.9
		c0-0.3,0-0.6-0.2-0.8c-0.1-0.1-0.1-0.3-0.1-0.4c0-0.1,0-0.2,0-0.3c0.1-0.2,0.2-0.3,0.3-0.4c0.1-0.1,0.1-0.2,0-0.4
		c-0.1-0.2-0.3-0.3-0.5-0.5c-0.3-0.3-0.6-0.6-1-0.7c-0.1,0-0.3,0.1-0.4,0.1c-0.2,0-0.3-0.1-0.4-0.2c0-1.8-2.6-5-4.4-5.3
		c1-0.6,2-0.3,3-0.1c3.5,0.7,6.6,2.4,9.5,4.4c3,2.1,5.8,4.3,9,6.1c1.8,1,2.9,2.8,3.6,4.7c1.9,5.1,3.3,10.4,4.4,15.8
		c0.2,1.1,0.6,2.2,0.9,3.3c0.1,0.5,0.3,1,0,1.4c-0.9,1-0.3,1.6,0.4,2.3c1.6,1.6,3,3.3,4.5,5c0.3,0.4,0.9,1,0.5,1.4
		c-0.4,0.4-0.9-0.3-1.3-0.5c-17.6-10.7-35.7-11.8-54.2-2.5c-1.3,0.7-2.6,1.6-3.9,2.2C141.2,58,140,57.3,139.7,55.5z"/>
	<path class="st8" d="M128.9,69.1c0.5,1-0.2,2.3,0.7,3.3c-0.4,0.8,0,1.5,0.5,1.9c3,2,2.7,5.3,3.1,8.2c0.3,2.2,0.5,4.4,0.8,6.7
		c0.6,3.9,2.2,7.4,4.7,10.4c0.6,0.7,0.6,1-0.4,1.2c-0.7,0.1-2,0.1-1.8,0.7c0.1,0.7,1.2,0.1,1.9,0c9.1-1.5,17.1,2.2,20.6,9.7
		c0.8,1.7,1.3,3.6,1.1,5.6c-0.1,1.3-0.8,2.1-2.3,2c-4.4-0.1-8.8-0.1-13.1,0.8c-2.9,0.6-5.9,0.4-8.6,1.1c-7.2,1.9-14.5,0.3-21.7,0.8
		c-1.8,0.1-3.6,0-5.4,0c-0.8,0-1.1-0.2-1.2-1c-0.5-3.6,0.2-7.1,0.8-10.7c0.4-2,0.3-3.8-0.6-5.7c-2.1-4.4-1.1-8.9,0.6-13.2
		c1.1-2.7,2.7-5.2,4.3-7.7c-1,3.8-1.1,7.6-0.9,11.4c0.4,5.9,1.4,11.6,4.7,16.7c2.8,4.3,6.9,6.3,11.6,7.5c4.7,1.2,9.3,0.6,14,0.1
		c3.6-0.4,7.2-1,10.8-1.8c3.3-0.7,3.8-2,2.4-5c-2.7-6-7.6-8.6-13.8-9.5c-2.2-0.3-4.4-0.4-6.5,0c-1.7,0.3-2.6-0.9-3.1-2.2
		c-1.6-4.5-2.7-9.2-3.5-14c-1.1-6-1-12.2-2.5-18.1c-0.2-0.9-1.2-1.8-0.4-2.9c0.8,1.4,1.7,2.8,2.6,4.2c0.1,0.1,0.1,0.3,0.2,0.4
		c0.1-0.1,0-0.3,0-0.4C128.5,69.6,128.5,69.3,128.9,69.1z"/>
	<path class="st8" d="M63.8,96.2c0.6,0.2,1.1,0.5,1.6,0.9c1.8,1.4,4.2,1.7,6,3.1c0.4,0.3,1,0,1.5-0.1c2.1-0.4,4.1-1.5,6.3-0.8
		c0.1,0,0.3,0,0.3-0.1c1-1.8,3.1-1.9,4.7-2.9c1.6-1,2.8-2.4,4.4-3.1c1.9-0.9,3.1-2.4,3.7-4.2c1.4-4.2,3.5-8,5.8-11.8
		c3.9-6.4,6-13.4,6.9-20.8c0.2-1.3-0.8-2.8,0.2-4.1c0.1,0.1,0.2,0.2,0.1,0.4c0,0.5,0,1,0.6,1c0.2-0.1,0.3,0.1,0.3,0.3
		c-1.1,6.7-2.8,13.3-3.8,20c-0.6,4.2-2.1,8.3-2.5,12.5c-0.6,6.4-0.7,12.8-0.9,19.1c0,1,0,1.9-0.2,2.9c-0.7,3.9,0.8,7.3,1.9,10.9
		c0.6,1.7,0.1,2.2-1.7,2.1c-4.1-0.2-8.2-0.1-12.2-0.1c-0.3-0.7,0-1.3,0.2-1.9c0.9-3,2.1-5.9,2.8-9c0.1-0.6,0.3-1.1,0.3-1.7
		c0-3.9,0.4-7.8,0.7-11.7c0-0.1,0-0.2,0-0.3c-0.1,0-0.1,0.1-0.1,0.1c-1.3,2.4-3.4,4.2-5.5,5.9c-2.4,2-4.5,4.1-6.5,6.5
		c-0.3,0.3-0.4,0.8-1,0.7c-0.4-0.9-0.1-1.5,0.4-2.3c2-3.1,5.3-4.8,7.9-7.3c2.5-2.5,4.7-5.2,6.4-8.2c0.2-0.4,0.7-0.9,0.2-1.2
		c-0.6-0.3-0.7,0.4-0.9,0.8c-2,3.4-5.6,4.4-8.8,6.1c-0.9,0.5-1.8,0.7-2,1.9c-0.1,0.5-0.7,1.4-1.3,0.8c-1.4-1.1-2.6-0.4-3.7,0.2
		c-0.9,0.5-1.8-0.5-2.5,0.2c-0.4,0.2-0.7,0.1-1-0.2c-0.7,0.1-1.4,0.2-2.1,0.2c-1,0-1.9-0.2-2.3-1.4c-0.1-0.3-0.4-0.6-0.8-0.4
		c-1.7,1-2.3-0.2-2.8-1.4C64.1,97.3,64,96.8,63.8,96.2z"/>
	<path class="st8" d="M37.4,40.2c-2.7,1.5-5.6,2.5-8.7,3c-4.1,0.7-8.3,0.6-12.4-0.1c-0.2,0-0.5,0-0.6,0.1c-3.1,2.3-6.5,4.2-6.8,8.7
		c-0.1,1-0.1,1.9,0.3,2.8c0.7,1.5,0.8,3.1,0.4,4.5c-1.3,4.2-0.2,8.1,1.2,11.9c2.2,6,5.3,11.5,9.6,16.3c0.7,0.8,1.2,0.8,1.8,0.1
		c2.5-2.7,3.5-6.1,4.5-9.5c1.6-5.5,2.9-11,4.1-16.5c0.2-0.9,0.3-1.7,0.4-2.6c1.5,0.2,0.9,1.3,0.8,2.1c-0.5,3.4-1.2,6.8-1.7,10.2
		c-1.3,8.5-1,17-1.1,25.5c0,1.2-0.3,1.5-1.4,1.1c-0.9-0.3-1.9-0.6-2.6-1.3c-3.4-3.3-7.4-5.9-10.4-9.7c-2.9-3.7-5-7.9-6.6-12.3
		c-0.3-1-0.6-2-1.4-2.8c-3.5-3.1-3.7-7.2-3.1-11.4c0.3-2.3,0.8-4.7,2.1-6.8C6,53.4,6.1,53.2,6.1,53c-0.5-4.1,1.7-7,4.6-9.4
		c2.6-2.2,5.5-4.1,8.2-6.1c0.4-0.3,0.7-0.2,1,0.1c2.9,2.1,6.4,2.8,9.6,3.7C32.1,42,34.9,40.9,37.4,40.2z"/>
	<path class="st8" d="M237.3,106.5c3.9,1.7,6.1,5,7.4,8.7c0.7,2.1-0.1,4.3-1.3,6.3c-0.3,0.5-0.7,0.5-1.2,0.5
		c-8.4-0.1-16.9-0.1-25.3-0.1c-0.7,0-1,0-0.7-0.9c1.2-3.7,2.3-7.4,2.8-11.2c0.3-2,1.6-3.1,3.1-3.8c4-1.8,8.1-2.1,12.4-0.6
		c1.5,2.9,1.7,5.9,1.1,9.1c-0.1,0.3-0.1,0.5-0.2,0.8c-0.1,0.4,0,0.7,0.5,0.5c1.8-0.7,3.2-1.8,3.8-3.6c0.4-1.2-0.1-2.3-0.8-3.2
		c-0.4-0.5-0.9-0.9-1.3-1.3C237.4,107.3,237,107,237.3,106.5z"/>
	<path class="st11" d="M219.9,27.7c0.9,0.1,0.7,1,1.1,1.5c0.8,3.9,1.4,7.8,0.4,11.8c-1.8,7.2-6.7,11.6-13.5,14
		c-0.3,0.1-0.8,0.1-0.8,0.5c0,0.1,0.3,0.3,0.5,0.5c-1.3,0.5-2.4,0-3.5-0.6c-4.2-2.5-6.7-6.2-7.6-11c-0.2-1.1-0.5-2.1-0.7-3.1
		c-0.1-0.8-0.1-1.1,0.9-0.7c2.8,1.1,5.6,0.9,8.4,0.1c6-1.7,10.3-5.6,13.3-10.9C218.8,28.9,219.1,28.1,219.9,27.7z"/>
	<path class="st12" d="M222.4,84.9c-2.4,0.1-4.7-0.6-7-0.8c-5.4-0.6-10.8-1.3-16.3-1.7c-5.7-0.5-11.4-0.9-17.1-1.1
		c-4.1-0.2-6,0.2-7.9,5.5c-2.8,7.7-4.3,15.8-6.5,23.7c-1,3.8-2.1,7.6-3.2,11.3c-0.2,0.7-0.5,1.1-1.2,1.1c-1.2-0.1-1-0.9-0.9-1.7
		c1.9-10.2,4-20.3,6.3-30.4c0.8-3.6,1.1-7.2,2.4-10.7c0.5-1.4,1.3-2,2.9-1.9c10.2,0.8,20.4,2.3,30.6,3.8c3.5,0.5,7.1,0.6,10.6,0.9
		c2.4,0.2,4.9,0.3,7,1.9C222.3,84.7,222.4,84.8,222.4,84.9L222.4,84.9z"/>
	<path class="st5" d="M77.7,110.1c2.6-3.4,5.8-6.2,9-9c1.7-1.4,3.2-3.1,4.1-5.2c0.1-0.2,0.2-0.4,0.3-0.4c0.3,0.1,0.2,0.4,0.1,0.6
		c-0.6,4.3-0.8,8.7-0.9,13.1c0,1.2-0.4,2.4-0.8,3.6c-0.9,3-1.9,5.9-2.9,8.9c-2.4,0-4.8,0-7.2,0c-0.6,0-0.8-0.2-0.9-0.8
		C78.4,117.3,78,113.7,77.7,110.1z"/>
	<path class="st13" d="M41.4,36.9c-0.4,0.8-1.1,1.3-1.8,1.7c-0.2,0.2-0.4,0.1-0.6,0.2c-1.4,0.6-2.8,1-4.3,1.2
		c-5.2,0.4-9.5-1.5-12.7-5.6c-1.9-2.5-3.5-5.2-4.5-8.2c-0.4-1.2-0.8-2.5-0.8-3.8c0-0.5,0-1,0.6-1.2c0.5-0.2,0.8,0.3,1,0.6
		c1.4,1.7,3,3.2,4.9,4.1c3.9,1.8,7.5,4.1,11.8,5c2.4,0.6,4.8,0.7,7.2,0.1c1-0.3,1.1-0.1,1,1c-0.1,1.3-0.8,2.3-1.4,3.4
		C41.6,36,41.3,36.4,41.4,36.9z"/>
	<path class="st11" d="M43.3,32.2c-0.2-0.3,0.2-1.1-0.7-0.8c-3.2,1-6.3,0.6-9.4-0.5c-4.6-1.6-9-3.7-13-6.6c-0.9-0.6-1.5-1.5-2.2-2.3
		c-0.2-0.2-0.4-0.5-0.6-0.5c-0.3,0.1-0.3,0.5-0.3,0.8c0,2.7,1.1,5.1,2.3,7.4c2.2,4.4,5.2,8.1,10.2,9.5c1.7,0.5,3.4,0.8,5.1,0.8
		c-2.5,0.9-4.8,0-7.1-0.5c-4.5-1-8.6-2.9-11.3-6.9c-2.9-4.2-2.3-8.8-0.9-13.3c0.3-1,0.3-2.6,1.5-2.6c1.1,0,1.5,1.5,2,2.5
		c0.5,1.1,0.9,2.2,1.5,3.2c1.8,3.3,4.7,4.7,8.4,4.7c0.3,0,0.9,0.1,0.9-0.3c0.1-0.4-0.5-0.4-0.8-0.4c-1-0.2-2-0.4-2.9-0.6
		c-0.2,0-0.4-0.2-0.6-0.3c0.2-0.1,0.4-0.2,0.6-0.3c4.7-1.6,9.3-1.2,14,0.5c1.3,0.5,2.3,0.9,2.7,2.1C43.2,29.3,43.7,30.7,43.3,32.2z"
		/>
	<path class="st9" d="M105.3,52.8c0-0.1,0-0.2-0.1-0.4c0.2-1.4,0.8-2.5,2-3.2c1-0.6,0.8-1.7,0.8-2.6c0.1-2.5-0.9-5-1-7.5
		c-0.1-2,0-4-0.1-6c0.9,0.7,1.7,1.5,3,1.3c0.5-0.1,0.5,0.4,0.5,0.7c0.2,6,1.8,11.6,5.8,16.3c0.3,0.3,0.3,0.6,0.1,0.9
		c0,0,0,0.1-0.1,0.1c-6.2,6.8-7.6,16.1-12.3,23.7c-0.2,0.3-0.3,0.5-0.5,0.8c-0.1,0.1-0.1,0.2-0.2,0.3l0,0c-0.2,0-0.4,0-0.3-0.3
		c0-0.1,0-0.1,0-0.2c0.2-0.2,0-0.5,0.2-0.7c1-7.1,2.5-14.1,3.8-21.2c0.1-0.8,1.3-1.8-0.4-2.2c0-0.2,0.1-0.4,0.1-0.5
		c0.4-0.8,1-1.5,1.9-1.8c0.4-0.2,1.3-0.2,1-0.8c-0.3-0.6-1-0.3-1.5,0C106.6,50.2,106,51.6,105.3,52.8z"/>
	<path class="st9" d="M232.9,104.1c-3.3-0.5-6.6-0.5-9.7,0.8c-0.8,0.3-1.5,0.9-2.3,1.3c-0.3,0.2-0.6,0.3-0.9,0.4c0-0.3,0-0.7,0.1-1
		c1.2-5.7,2.5-11.3,3.8-17c0.2-0.7,0.4-1.4,0.5-2.1c2.4,0.8,4.8,1.6,7.1,2.8c0.4,0.2,0.8,0.5,1.1,0.8c0.1,0.1,0.2,0.2,0.2,0.2
		c0,0,0.1,0.1,0.1,0.1c0.1,0.1,0.1,0.2,0.2,0.3c0,0,0.1,0.1,0.1,0.1c0.1,0.1,0.1,0.2,0.2,0.3c0.1,0.1,0.1,0.2,0.2,0.3
		c0.6,1.1,0.7,2.4,0.8,3.6c0,0.1,0,0.2-0.1,0.4c-0.2,0.5-0.1,1.1-0.1,1.7c-0.3,2.1-0.7,4.1-0.9,6.2
		C233.2,103.6,233.1,103.9,232.9,104.1z"/>
	<path class="st13" d="M133.5,52c-1.2,1.2-2.4,2.4-3.9,3.2c-0.7,0.3-1.4,0.2-2.1-0.1c-4-1.5-6.8-4.3-9.2-7.6
		c-2.4-3.2-4.4-6.6-5.1-10.6c-0.2-1.2-0.1-2.4,0.2-3.5c0.2-0.7,0.5-0.8,1.1-0.3c0.3,0.3,0.6,0.6,0.8,1c3,3.9,6.7,7.1,11.4,8.9
		c1,0.4,2,0.6,3,0.8c0.8,0.2,1.4,0.6,1.5,1.5c0.3,2.2,0.9,4.2,2.3,6C133.5,51.5,133.6,51.8,133.5,52z"/>
	<path class="st13" d="M107.7,32.6c-2.8-2.5-4.2-5.8-5.3-9.2c-0.2-0.8,0.4-0.6,0.7-0.5c0.8,0.3,1.5,0.2,2.2-0.3
		c1-0.7,2.1-0.6,3.2-0.5c3.7,0.5,7.1-0.6,10.3-2.2c1.3-0.6,2.5-1.4,3.5-2.4c1.4-1.5,2.3-3.3,2.7-5.3c0.4-1.9,0.9-3.7,2-5.4
		c0.2-0.4,0.4-0.9,1-0.6c1.3,3.2,0.3,6.3-0.3,9.4c-0.1,0.5-0.4,1-0.5,1.5c-2.1,4.7-5.6,8.2-10,10.9c-0.7,0.5-1.6,1-2.6,0.6
		c-0.5-0.6-0.8-1.4-1.8-1.4c-0.4-0.1-0.6-0.4-0.9-0.7c-0.9-0.8-1.6-0.7-2.3,0.2c-0.6,0.8-0.9,1.7-1,2.7c-0.1,0.8-0.2,1.5-0.3,2.3
		C108.3,32.2,108.3,32.7,107.7,32.6z"/>
	<path class="st11" d="M133.5,52c-1.7-2-2.5-4.3-2.8-6.8c-0.1-0.6-0.4-0.9-0.9-1c-6.7-1.2-11.4-5.3-15.3-10.5
		c-0.2-0.3-0.5-0.7-0.7-0.7c-0.4,0.1-0.2,0.6-0.2,0.9c-0.6,3.8,1,7,2.8,10.1c2.2,3.7,4.8,7,8.4,9.4c1.4,1,3,1.7,4.8,1.8
		c-1.1,0.7-2.3,1.2-3.5,1.6c-0.2,0.1-0.4,0.1-0.6,0c0.1-0.4-0.2-0.6-0.6-0.7c-5.3-0.7-8.1-4.5-10.5-8.6c-2.9-4.8-3.7-10.1-3.2-15.7
		c0-0.3,0.1-0.5,0.1-0.8c0.3-1.1,0.8-2.5,1.8-2.7c0.7-0.2,1,1.4,1.4,2.3c2.4,5.3,6.9,8.5,11.8,11.1c1.6,0.9,3.4,1.1,5.3,0.6
		c0.9-0.2,1.2,0,1.1,1c-0.1,2.1,0,4.1,1.6,5.7C135.9,50.5,134.1,51.1,133.5,52z"/>
	<path class="st14" d="M233.1,91.3c0-0.1,0-0.1,0-0.2c-0.1-0.1-0.1-0.2-0.2-0.2l0,0c-0.1-0.1-0.2-0.2-0.2-0.2l0,0
		c-0.1-0.1-0.2-0.1-0.2-0.2c-2-1.7-4.6-2.3-7-3.2c-0.4-0.2-1-0.1-1.2-0.8c-0.2-1.9-1.3-3.1-3-3.6c-1.9-0.5-3.8-0.8-5.7-1.2
		c0-4.2-0.9-8-3.3-11.5c-1.1-1.6-0.7-3.7-1.2-5.6c-0.3-1.1-0.5-2.2-0.6-3.4c0-0.2-0.5-0.8,0.3-0.6c0.8,0.6,1,1.4,1.1,2.3
		c0,0.5,0.1,1,0.2,1.5c0.2,0.8,0.5,1.5,0.9,2.2l0,0c0.2,0.4,0.4,0.8,0.7,1.2c1.4,2,3.1,3.8,4.9,5.5c2.7,2.5,5.5,4.8,8,7.5
		c1.7,1.9,3.4,3.7,4.8,5.9c0.5,0.8,1,1.6,1.4,2.4c0.1,0.1,0.1,0.2,0.2,0.2c0.1,0.1,0.1,0.2,0.2,0.4c0,0.1,0.1,0.2,0.1,0.2
		c0.1,0.1,0.1,0.2,0.2,0.4c0,0.1,0.1,0.2,0.1,0.2c0.1,0.1,0.1,0.2,0.2,0.4c0,0.1,0,0.2,0,0.3C233.4,91.2,233.4,91.4,233.1,91.3z"/>
	<path class="st11" d="M128.1,6.3c-0.4,0-0.5,0.3-0.7,0.6c-0.8,1.6-1.5,3.3-1.8,5.1c-0.9,4.8-4,7.5-8.2,9.1c-3,1.2-6.1,2-9.3,1.3
		c-1.1-0.2-2.2,0-3.1,0.8c-0.5,0.5-1.1,0.3-1.6,0.1c-0.3-0.1-0.6-0.6-0.9,0c-0.7-2-1.2-4-1.4-6.1c-0.1-0.7,0-0.9,0.8-0.7
		c4.5,0.9,9,1.6,13.5,0.7c3.7-0.7,6.4-2.9,8.4-5.9c1-1.5,2-3.1,3.1-4.6C127.1,6.4,127.4,5.6,128.1,6.3z"/>
	<path class="st9" d="M62,121.6c0-0.1,0-0.1,0-0.2c1.3-3.5,2.8-7,3.2-10.8c0.3-2.7-1.3-4.9-2.9-6.8c-4-4.6-7.7-9.5-11.1-14.6
		c-0.2-0.3-0.1-0.5,0.2-0.5c0.9,0.8,1.8,1.5,3.1,1.6c1.7,0.2,3,1.2,4.2,2.5c0.9,1.1,2.3,1.5,3.4,2.4c0.5,0.4,0.8-0.5,1.2,0
		c-0.3,0.8-0.7,0.8-1.4,0.4c-1.9-1.2-3.8-2.5-5.7-3.7c-0.4-0.3-0.9-0.8-1.3-0.4c-0.4,0.4,0.3,0.8,0.5,1.2c3.2,5.2,7.3,9.6,12.3,13.1
		c1.4,1,2.8,2.8,1.8,5.3c-1.2,2.9-1.9,5.9-2.9,8.9c-0.4,1.2-1,1.8-2.3,1.6C63.4,121.5,62.7,121.6,62,121.6z"/>
	<path class="st8" d="M101.3,22.7c-2.5-1.4-4.8-3-7.5-4c-1.1-0.4-1.2-1.1-0.4-1.9c0.6-0.6,0.8-1.1,0-1.7c0.4-0.2,1.3,0.2,1.1-0.7
		c-0.1-0.8-0.7-0.6-1.2-0.4c-0.4,0.1-0.9,0.3-0.9-0.2c-0.2-0.9-0.5-1.8,0.5-2.4c1.6,0.3,3.1,0.1,4.5-0.9c0.4,0.8,0.7,1.6,1.1,2.4
		c0.2,0.3,0.3,0.8,0.6,0.8c1.9,0.3,1.3,1.3,1.1,2.6C100,18.4,100.7,20.5,101.3,22.7z"/>
	<path class="st5" d="M237.3,106.5c0.4,0.5,0.9,1.1,1.3,1.5c2.4,2.4,2.1,5.1-0.6,7c-0.2,0.2-0.4,0.3-0.7,0.4
		c-0.8,0.4-1.5,0.9-2.4,0.9c0.1-0.7,0.3-1.5,0.4-2.2c0.4-2.6,0.5-5.2-0.7-7.7c-0.2-0.3-0.5-0.7-0.1-1.1
		C235.4,105.8,236.4,106.2,237.3,106.5z"/>
	<path class="st6" d="M160.7,121.4c0.9,0.4,0.5,1.4,1,2.1c0.1,0.2-0.7,0.2-1.1,0.2c-8,0.2-15.9-0.1-23.9,0.5
		c-1.1,0.1-1.6-0.4-1.4-1.6c1-0.6,2.1-0.5,3.1-0.6c1.8-0.1,3.5,0.1,5.3,0.1c4.2,0,8.4,0.1,12.6-0.1c1-0.1,2.1-0.2,3.1-0.3
		C159.8,121.5,160.3,121.9,160.7,121.4z"/>
	<path class="st14" d="M232.9,104.1c-0.1-2.4,0.6-4.8,0.9-7.2c0.3-0.5-0.1-1.1,0.2-1.6c0-0.1,0-0.2,0-0.2c0.1-0.1,0.2-0.1,0.3,0
		c0.1,0.1,0.1,0.2,0.1,0.3c0,0.3,0,0.7,0.2,1c2.1,2.5,3,5.5,4.1,8.4c0.2,0.5,0.4,1-0.1,1.5C236.8,105.3,234.8,104.6,232.9,104.1z"/>
	<path class="st15" d="M71.9,121.6c-1.1,0-2.3,0-3.4,0c-0.5-0.7,0.1-1.3,0.4-1.9c0.2-0.2,0.4-0.4,0.6-0.6c0.2-0.1,0.5-0.2,0.7-0.4
		c0.4-0.3,0.9-0.5,1.3-0.8c0.1-0.1,0.2-0.2,0.4-0.2c0.2-0.1,0.3-0.2,0.5-0.3c0.1-0.1,0.2-0.1,0.3-0.1c0.4-0.2,0.7-0.5,1.1-0.7
		c0.3-0.2,0.6-0.3,0.9-0.5c0.2-0.1,0.3-0.2,0.5-0.3c0.3-0.2,0.6-0.4,0.8-0.6c0.2-0.1,0.4-0.2,0.4-0.5c0.1-0.1,0.2-0.2,0.3-0.1
		c1.4-0.3,0.7,0.9,0.9,1.4c0.1,0.8,0.2,1.5-0.3,2.2c-0.1,0.1-0.1,0.1-0.2,0.2c-0.2,0.1-0.3,0.2-0.5,0.3c-0.1,0.1-0.3,0.2-0.4,0.3
		c-0.1,0.1-0.1,0.1-0.2,0.2c-0.1,0.1-0.2,0.1-0.3,0.2c-0.1,0.1-0.1,0.1-0.2,0.1c0,0-0.1,0-0.1,0.1c-0.1,0.1-0.1,0.1-0.2,0.1
		c-0.1,0.1-0.2,0.1-0.3,0.2c-0.1,0.1-0.1,0.1-0.2,0.1c-0.1,0.1-0.2,0.1-0.3,0.2c-0.1,0.1-0.2,0.2-0.3,0.2c-0.1,0.1-0.2,0.2-0.3,0.2
		c-0.1,0.1-0.2,0.1-0.2,0.2c-0.1,0.1-0.2,0.1-0.2,0.1C72.6,121.4,72.2,121.4,71.9,121.6z"/>
	<path class="st16" d="M183.8,76.3c0.1-1.9,0.1-3.8-1.1-5.4c-0.2-0.3-0.3-1-0.9-0.3c-0.3-0.3-0.2-0.6-0.2-1c0-0.7-0.2-1.2-0.9-1.4
		c-0.7-0.2-1.3,0.2-1.6,0.8c-0.2,0.4-0.3,0.9-0.7,1.2c-0.1,0.1-0.3,0.1-0.4,0c0-0.2-0.1-0.5,0.1-0.7c0.2-1.2,0.6-2.4,1.4-3.4
		c1.2-1.7,2.8-1.7,3.9,0.1c1.8,2.9,1.7,6,1.1,9.2c-0.1,0.4-0.2,0.8-0.4,1.2C183.6,76.8,183.7,76.5,183.8,76.3z"/>
	<path class="st17" d="M76.6,114.7c-0.1,0-0.1,0.1-0.2,0.1c0,0.2-0.2,0.3-0.4,0.4c-0.4,0.2-0.6,0.5-1,0.7c-0.2,0.1-0.4,0.3-0.6,0.5
		c-0.3,0.1-0.6,0.2-0.9,0.5c-0.3,0.2-0.6,0.3-0.8,0.6c-0.1,0.1-0.2,0.1-0.3,0.1c-0.2,0.1-0.5,0.2-0.8,0.4c-0.1,0.1-0.2,0.2-0.4,0.3
		c-0.5,0.2-0.9,0.6-1.4,0.7c-0.1,0-0.2,0-0.3-0.1c-0.4-0.4-0.3-0.8-0.1-1.2c0.4-1,0.7-2,1.2-3c0.1-0.2,0.3-0.4,0.4-0.5
		c0,0,0.1-0.1,0.1-0.1c0.1-0.1,0.2-0.1,0.3-0.2c0.2-0.1,0.3-0.2,0.5-0.3c0.2-0.1,0.3-0.2,0.5-0.3c0.1-0.1,0.1-0.1,0.2-0.2
		c0.2-0.1,0.3-0.2,0.5-0.3c0,0,0.1,0,0.1-0.1c0.1,0,0.2-0.1,0.2-0.1c0.2-0.1,0.4-0.2,0.6-0.3c0.1-0.1,0.1-0.1,0.2-0.2
		c0,0,0.1-0.1,0.1-0.1c0.1-0.1,0.2-0.1,0.2-0.1c0.2-0.2,0.5-0.3,0.7-0.5c0.2-0.1,0.3-0.2,0.4-0.4c0.1-0.1,0.2-0.1,0.2-0.2
		c0.1-0.1,0.2-0.1,0.4-0.2c0.2-0.1,0.3-0.2,0.5,0c0.1,1.2,0.5,2.4,0.2,3.6l0,0C76.9,114.5,76.8,114.6,76.6,114.7z"/>
	<path class="st18" d="M87.4,8.1c1.4-2.3,3.5-3.8,6-4.7c0.2-0.1,0.5-0.1,0.8-0.1C94.1,3.5,94.1,3.8,94,4c-1,1.6-1.6,3.3-2.1,5
		c-0.1,0.2-0.2,0.4-0.3,0.6c-0.4,0.8-1,1.3-2,1C88.2,10.2,87.3,9.2,87.4,8.1z"/>
	<path class="st19" d="M114.7,28.7c3.8-0.9,6.2-3.8,8.8-6.4c1.5-1.5,2.6-3.4,3.8-5.2c-2,5.8-5.6,10.3-11,13.2
		C114.9,31.1,115.3,29.2,114.7,28.7z"/>
	<path class="st20" d="M160,121.9c-6.2,0.9-12.5,0.8-18.7,0.5c-2-0.1-4,0.1-6,0.2c0-0.7,0.5-0.8,1-0.8c3.3-0.1,6.5-0.3,9.8-0.4
		c2-0.1,4,0,6,0.1c2.3,0.2,4.7,0,7,0.1C159.4,121.5,159.9,121.2,160,121.9z"/>
	<path class="st11" d="M107.7,32.6c0.5-0.8,0.3-1.8,0.5-2.7c0.1-1,0.3-1.9,0.8-2.7c0.4-0.8,0.8-1.5,1.8-1.6c1.1,0,1.6,0.8,2.1,1.6
		c-1,1-2,2.1-2.2,3.5c-0.2,1.3-0.8,1.7-1.9,1.5c-0.2,0.1-0.1,0.3-0.1,0.5l0,0c0.1,0,0.2,0.1,0.3,0.2c0.1,0,0.1,0,0.2,0
		c0,0.4-0.3,0.3-0.5,0.2c-0.1,0-0.1,0-0.2-0.1c-0.1-0.1-0.2-0.1-0.3-0.2C108.1,32.9,107.9,32.8,107.7,32.6z"/>
	<path class="st21" d="M178.1,70.4c0.2-0.4,0.3-0.9,0.5-1.3c0.4-1.1,1.3-1.6,2.4-1.2c1,0.4,1.3,1.2,0.9,2.3c-0.1,0.1,0,0.3,0,0.4
		c-0.1,0.8-0.4,1.5-0.9,2.1c-0.7,0.9-1.5,1-2.4,0.2C177.5,72.2,177.8,71.3,178.1,70.4z"/>
	<path class="st22" d="M234.3,95.3c0-0.1,0-0.1,0-0.2c-0.3-1.4-0.3-2.8-0.9-4.2c0-0.1,0-0.1,0-0.2c-0.1-0.1-0.1-0.2-0.2-0.3
		c0-0.1,0-0.1,0-0.2c-0.1-0.1-0.1-0.2-0.2-0.3c0-0.1,0-0.1,0-0.2c-0.1-0.1-0.1-0.2-0.2-0.3c0-0.1,0-0.1,0-0.2
		c-0.1-0.1-0.1-0.2,0.1-0.3c1.1,1.4,1.7,3.2,2.4,4.8c0,0.1,0.1,0.2,0.1,0.2c-1.2,2.1,0.7,3.1,1.6,4.4c0.1,0.2,0.3,0.4,0.4,0.6
		c0.8,4,3.6,6.8,5.5,10.1c0.1,0.2,0,0.3-0.2,0.2c-1.1-1.2-2.4-2.2-3.7-3.2c-0.6-3-1.6-5.8-3.3-8.3c-0.4-0.5-0.7-1.1-0.9-1.7
		C234.2,95.9,234.5,95.5,234.3,95.3z"/>
	<path class="st23" d="M74.5,109.4c0.8,0.3,1.5,0,2.3-0.2c0.2,0.6,0.3,1.2-0.3,1.7c-0.1,0.1-0.3,0.2-0.4,0.3l0,0
		c-0.2,0.1-0.3,0.2-0.4,0.3c-0.1,0.1-0.2,0.2-0.3,0.2c-0.2,0.1-0.4,0.2-0.6,0.4c-0.1,0.1-0.2,0.1-0.3,0.2l0,0
		c-0.1,0.1-0.2,0.1-0.3,0.1c-1,0.3-2.2,0.1-2.5,1.5c0,0.1-0.1,0.2-0.2,0.3l0,0c-0.2,0.1-0.3,0.2-0.5,0.3c-0.3,0.2-0.4,0.4-0.7,0.6
		c-0.2,0.1-0.4,0.2-0.6,0.3c-0.3,0-0.8,0.4-0.9-0.3c0.3-0.9,0.6-1.9,0.9-2.8c0.3-0.6,0.9-0.8,1.3-1.1c0.9-0.4,1.7-1,2.5-1.6
		c0.1-0.1,0.2-0.1,0.3-0.2C74.1,109.4,74.3,109.4,74.5,109.4z"/>
	<path class="st24" d="M163,113.1c-0.4,1.7-0.8,3.4-1.1,5.2c-0.1,0.8-0.6,0.7-1.1,0.6c-0.9-0.2-0.2-0.6-0.1-0.9
		c0.7-2.5-0.1-4.8-1-7.1c-0.2-0.6-0.6-1.2-0.9-1.7c1.9,0.3,2.9,1.8,3.8,3.3C162.8,112.6,162.8,112.9,163,113.1z"/>
	<path class="st25" d="M87.4,8.1c1,2.4,2.3,2.6,4.4,0.9c-0.1,1.4-0.6,2.7-0.3,4.1c0.1,0.5-0.1,0.5-0.5,0.3c-1.8-0.8-3.1-2.3-4.5-3.5
		C86,9.5,87,8.7,87.4,8.1z"/>
	<path class="st26" d="M231,86.7c-2.8-3.8-6.1-7-9.5-10.2c-1.1-1.1-2.3-2-3.2-3.3c5,3.8,9.8,7.8,13,13.4
		C231.2,86.8,231.1,86.8,231,86.7z"/>
	<path class="st27" d="M77.7,118.2c-0.1,1.4,1.1,3.3-1.6,3.5c-1.2,0.1-2.4,0-3.7,0c-0.1-0.5,0.5-0.4,0.7-0.7l0,0
		c0.1-0.1,0.1-0.1,0.2-0.1c0.2-0.2,0.4-0.2,0.6-0.4c0.2-0.2,0.3-0.3,0.6-0.4l0,0c0.1-0.1,0.3-0.2,0.4-0.3c0.1-0.1,0.2-0.1,0.3-0.2
		l0,0c0.1-0.1,0.1-0.1,0.2-0.2c0.2-0.1,0.3-0.2,0.5-0.3l0,0c0.1-0.1,0.3-0.2,0.4-0.3c0.2-0.1,0.3-0.3,0.5-0.4l0,0
		C77.1,118.3,77.3,117.9,77.7,118.2z"/>
	<path class="st28" d="M65.2,103.1c-0.6-0.5-1.3-1.1-1.9-1.6c0-0.4,0.3-0.5,0.6-0.5c0.7,0,1.4-0.3,2.1-0.3c0.5,0,1-0.3,1.5,0.1
		c0.3,1,1.8,0.5,2.1,1.6c-0.4,0.6-1.2,0.5-1.8,0.7c-0.1,0-0.2,0-0.4,0.1C66.7,103.1,65.9,103.6,65.2,103.1z"/>
	<path class="st29" d="M163,113.1c-1.3-1.4-2.3-3.1-4.1-3.9c-0.2-0.4-0.7-0.6-0.5-1.1c0-0.1,0.8,0.1,1.2,0.2
		c0.6,0.2,1.2,0.5,1.8,0.8C162.9,109.9,164,111.1,163,113.1z"/>
	<path class="st30" d="M72.4,100.9c0.4-0.1,0.7-0.1,1,0.2c0.2,0.2,0.3,0.3,0.5,0.5c0.1,0.3,0.3,0.7,0.2,1c0,0.8-0.3,1.5-0.6,2.2
		c0,0.1-0.1,0.2-0.1,0.3c-0.2,0.3-0.3,0.7-0.6,0.9c-0.1,0.1-0.2,0.1-0.3,0.1c-0.3,0-0.6,0-0.9-0.2c0-0.2,0-0.5,0-0.7
		c-0.2-0.9-0.1-1.8-0.1-2.7c0-0.4,0.2-0.7,0.5-1C72.2,101.4,72.4,101.2,72.4,100.9z"/>
	<path class="st31" d="M76.8,101.3c0.7-0.2,1.4-1.1,1.9,0.2c-0.1,0.6,0.3,1.3,0,1.9c-0.1,0.3-0.3,0.6-0.4,0.9c0,0.1-0.1,0.2-0.1,0.3
		c-0.2,0.3-0.3,0.6-0.5,0.8c-0.1,0.1-0.2,0.1-0.3,0.2c-0.1,0-0.2,0-0.3,0c-0.6-0.1-1.1,0.2-1.7,0c-0.1-0.1-0.1-0.2-0.2-0.3
		c0-0.3,0.2-0.6,0.3-0.9c0.1-0.2,0.2-0.4,0.2-0.6c0.1-0.4,0.3-0.8,0.4-1.2C76.3,102.2,76.4,101.7,76.8,101.3z"/>
	<path class="st32" d="M71,114.8c-0.4,1-0.8,2-1.1,3c-0.1,0.3-0.5,0.7,0,1.1c0.1,0.2-0.1,0.3-0.3,0.4c-0.5,0.3-0.9,0.7-1.5,0.8
		c-0.3,0.1-0.7,0.4-0.9-0.3c0.6-1.3,0.8-2.8,1.6-4c0.2-0.3,0.5-0.4,0.8-0.5c0.2-0.2,0.6-0.2,0.8-0.5c0.1-0.1,0.2-0.2,0.4-0.2
		C71,114.7,71,114.7,71,114.8z"/>
	<path class="st33" d="M97.4,10.4c-0.5,1.4-2.9,1.8-4.5,0.9c1.1-0.8,2.1-1.8,3.4-2.4C97.5,8.5,96.9,9.9,97.4,10.4z"/>
	<path class="st34" d="M119.5,35.9c-1.3-1-2.3-2.3-3.1-3.6c-0.2-0.4-0.4-0.8,0.2-1c0.4-0.2,0.8-0.6,1.2,0c0.8,1.3,1.8,2.5,2.1,4.1
		C120,35.7,119.9,35.9,119.5,35.9z"/>
	<path class="st35" d="M74.2,101.8c0.7,0.2,1.4-0.1,2.1-0.3c0.3-0.1,0.4,0.2,0.3,0.4c-0.1,0.3-0.2,0.5-0.2,0.8
		c-0.1,0.4-0.4,0.7-0.5,1.2c0,0.2-0.2,0.4-0.2,0.6c-0.1,0.2-0.2,0.4-0.3,0.5c-0.3,0.2-0.2,0.6-0.5,0.8c-0.1,0-0.2,0.1-0.3,0.1
		c-0.5-0.1-1.1,0.2-1.6-0.1c-0.1-0.1-0.1-0.3-0.1-0.5c0.1-0.2,0.2-0.4,0.3-0.6c0.3-0.6,0.5-1.2,0.7-1.8
		C74.1,102.5,73.9,102.1,74.2,101.8z"/>
	<path class="st28" d="M80.2,103.4c-0.2-0.2,0-0.5,0-0.7c0,0,0-0.1,0-0.1c0-0.1,0.1-0.2,0.1-0.3c0,0,0.1-0.1,0.1-0.1
		c0.1-0.1,0.1-0.1,0.2-0.2c0.2-0.2,0.4-0.4,0.5-0.6c0.1-0.2,0.3-0.4,0.4-0.6c0-0.1,0.1-0.2,0.1-0.2c0.1-0.1,0.1-0.2,0.2-0.4
		c0.1-0.1,0.1-0.1,0.2-0.2c0.3-0.4,0.4-0.9,0.9-1.1c0.6,0,1.1-0.6,1.7-0.4c0.2,0.3,0,0.5-0.1,0.8c-0.1,0.1-0.2,0.3-0.3,0.5
		c-0.3,0.5-0.5,1.1-0.8,1.6c-0.1,0.3-0.4,0.5-0.5,0.7c-0.1,0.1-0.2,0.2-0.4,0.2c-0.4,0.8-1.1,1.3-1.9,1.7c-0.1-0.1-0.1-0.2,0-0.3
		c0.1-0.1,0.2-0.2,0.3-0.3c-0.1,0.1-0.2,0.2-0.4,0.3C80.5,103.5,80.3,103.5,80.2,103.4z"/>
	<path class="st36" d="M67.8,105c-0.7-0.5-1.4-0.9-2.1-1.4c0.4-0.8,1.1-0.5,1.7-0.6c0.3,0,0.6-0.1,0.9-0.2c0.5,0.1,1-0.5,1.5-0.1
		c0.2,0.4,0.3,0.8,0.5,1.1c0.3,1-0.4,1.2-1.1,1.3C68.7,105.3,68.2,105.3,67.8,105z"/>
	<path class="st28" d="M60.6,98.8c-0.5-0.6-0.9-1.1-1.4-1.7c0.1-0.6,0.6-0.5,1-0.5c0.5-0.1,0.9,0.1,1.4,0.1c1.1,0.2,2,0.6,2,1.9
		c-0.2,0.6-0.7,0.5-1.2,0.5C61.7,99.1,61.1,99.1,60.6,98.8z"/>
	<path class="st37" d="M63.9,98.9c0.4,0.6,0.7,1.1,1.4,1.5c0.8,0.2,0.8,0.2,0.6,0.5c-1,0.1-2,0.5-3.1,0.1c-0.5-0.5-1.1-1.1-1.6-1.6
		c-0.3-0.3-0.1-0.5,0.2-0.5c0.4-0.1,0.7,0,1.1,0C62.9,98.9,63.4,98.7,63.9,98.9z"/>
	<path class="st38" d="M73.1,105.7c0.5,0,1.1-0.5,1.6,0c0.2,0.3-0.1,0.6-0.2,0.8c0,0-0.1,0.1-0.1,0.1c0,0-0.1,0.1-0.1,0.1
		c-0.1,0.1-0.1,0.2-0.2,0.2c-0.2,0.2-0.5,0.5-0.9,0.5c-0.5,0-0.9,0.2-0.9,0.7c0,0,0,0,0,0c-0.3,0.1-0.6,0.3-0.9,0.4
		c-0.4,0.1-0.8,0-1-0.3c-0.2-0.5,0.4-0.4,0.6-0.6c0-0.1,0-0.2,0-0.2c0-0.1,0.1-0.1,0.1-0.2c0,0,0.1-0.1,0.1-0.1
		c0.1-0.1,0.1-0.1,0.2-0.2c0,0,0.1-0.1,0.1-0.1c0.1-0.1,0.1-0.1,0.2-0.2c0,0,0.1-0.1,0.1-0.1c0.1-0.1,0.1-0.1,0.2-0.2
		c0,0,0.1-0.1,0.1-0.1c0.1-0.1,0.1-0.1,0.2-0.2c0.2-0.1,0.3-0.2,0.4-0.3C72.8,105.7,72.9,105.6,73.1,105.7z"/>
	<path class="st39" d="M84.5,99c0.1-0.2,0.2-0.4,0.2-0.6c0.4-0.7,1.1-1,1.8-1.2c0.4,0.8,0,1.3-0.5,1.8c-0.5,1.2-1.7,1.9-2.6,2.8
		c-0.1,0.1-0.2,0.1-0.3,0c-0.1-0.1-0.1-0.2,0-0.3c0.4-0.7,0.7-1.4,1.1-2.1C84.3,99.2,84.4,99,84.5,99z"/>
	<path class="st40" d="M166.8,11.3c0.6,0.1,1.3,0.2,1.3,0.8c0,0.7-0.8,0.3-1.2,0.6c-1.6,0.9-3-0.8-4.6-0.2c0.1-0.8,0.7-0.8,1.3-0.8
		C164.7,11.6,165.7,11.5,166.8,11.3z"/>
	<path class="st41" d="M75.4,105.4c0.6,0,1.3-0.5,1.9,0c0.1,0.1,0.1,0.2,0.1,0.3c-0.1,0.3-0.3,0.5-0.5,0.7c-0.1,0.1-0.2,0.2-0.3,0.3
		c-0.1,0.1-0.2,0.2-0.3,0.3c-0.3,0.3-0.6,0.6-1,0.8c-0.4,0.2-0.8,0.4-1.2,0.1c-0.2-0.1-0.3-0.2-0.5-0.2c-0.1-0.5,0.4-0.6,0.5-0.9
		c0-0.1,0.1-0.2,0.2-0.2l0,0c0.1-0.1,0.1-0.3,0.2-0.4c0.2-0.2,0.4-0.4,0.6-0.6C75.1,105.5,75.2,105.4,75.4,105.4z"/>
	<path class="st42" d="M152.9,120c2.6-0.1,5.3-0.1,7.9-0.2c0.2,0,0.6-0.1,0.6,0.3c0,0.5-0.4,0.4-0.7,0.4c-1.3,0-2.6-0.1-3.9-0.1
		c-1.3-0.2-2.6,0-3.8-0.1C152.8,120.3,152.8,120.2,152.9,120z"/>
	<path class="st43" d="M70.1,111.5c0.1-2.7,2.4-1.6,3.7-2.1c0.1,0.1,0.1,0.1,0.1,0.2c0,0.1,0,0.1,0,0.1c-0.8,0.8-1.9,1.3-2.8,1.9
		C70.7,111.6,70.3,112.6,70.1,111.5z"/>
	<path class="st44" d="M166.8,11.3c-0.8,0.7-1.8,0.7-2.8,0.7c-0.6,0-1.1,0-1.6,0.5c-1-0.5-0.3-0.8,0.2-1
		C163.9,11,165.3,10.9,166.8,11.3z"/>
	<path class="st45" d="M78.9,105.4c-1.1,1.3-2.1,2.8-4,3c-0.2-0.3,0-0.5,0.2-0.7c0.3-0.1,0.6-0.3,0.8-0.6c0.1-0.1,0.2-0.2,0.3-0.3
		c0.1-0.1,0.2-0.2,0.3-0.3c0.1-0.1,0.2-0.2,0.3-0.3c0.2-0.2,0.4-0.3,0.5-0.5c0-0.1,0.1-0.2,0.1-0.3l0,0c0.1-0.2,0.3-0.4,0.5-0.5
		C78.4,104.9,79,104.5,78.9,105.4z"/>
	<path class="st46" d="M160,121.9c-0.4-0.4-0.9-0.2-1.3-0.2c-4.2-0.1-8.4-0.2-12.6-0.3c2.4-0.4,4.7,0,7.1,0c2.5,0,5,0,7.5,0
		C160.9,122.2,160.3,121.8,160,121.9z"/>
	<path class="st47" d="M86.1,98.9c0.2-0.6,0.4-1.2,0.5-1.8c0.8-0.4,1.1-1.5,2.2-1.4c0.2,0.2,0,0.3-0.2,0.5
		C88,97.3,87.4,98.4,86.1,98.9z"/>
	<path class="st48" d="M59,96.7c-0.4-0.4-0.8-0.8-0.9-1.4c0.3,0,0.5-0.1,0.8-0.1c0.1-0.1,0.1-0.1,0.2,0c1,0.1,1.6,0.8,2.3,1.2
		C60.6,97.1,59.7,96.7,59,96.7z"/>
	<path class="st49" d="M69.1,119.7c-0.2,0.6-0.4,1.2-0.6,1.9c-0.6,0-1.3,0.3-1.7-0.2c-0.2-0.2,0.1-0.7,0.5-1
		C67.8,120.1,68.4,119.7,69.1,119.7z"/>
	<path class="st50" d="M199.6,52.5c-0.1,0.1-0.2,0.2-0.3,0.3c-0.7-0.7-1.3-1.4-2-2c-0.4-0.4-0.3-0.7,0-1c0.4-0.3,0.5,0.2,0.6,0.4
		C198.5,50.9,199,51.7,199.6,52.5z"/>
	<path class="st51" d="M152.9,120.2c1.3,0.1,2.6,0.2,3.9,0.3c-3.2,0-6.3,0-9.5,0c-0.1,0-0.1-0.1-0.1-0.1c0,0,0.1-0.1,0.1-0.1
		c0.9-0.1,1.7-0.1,2.6-0.2c0.4,0.2,0.9,0,1.3,0.1C151.7,120.2,152.3,120.1,152.9,120.2z"/>
	<path class="st8" d="M211.8,64.6c-0.6-1.2-0.4-2.7-1.2-3.9c0,0,0,0,0,0c0.1-0.1,0.2-0.1,0.2,0l0,0c0.1,0.2,0.3,0.1,0.4,0.3l0,0
		c0.1,0.1,0.2,0.1,0.2,0.2l0,0c0.2,0.1,0.1,0.3,0.2,0.4c0.1,0,0.1,0.1,0,0.1c0.1,0.2,0,0.6,0.2,0.8l0,0c0.2,0.4,0.1,0.8,0,1.3
		c0,0.1,0,0.1,0,0.1C211.8,64,212.1,64.4,211.8,64.6z"/>
	<path class="st52" d="M178.1,70.4c-0.1,0.9-0.1,1.7,0.4,2.5c-0.1,0.2-0.2,0.4-0.2,0.6c-0.2,0.6,0,1.2-0.1,1.8
		c-0.1,0.1-0.2,0.1-0.3,0.1c0-0.1-0.1-0.1,0-0.2c-0.3-0.6,0.1-1.3-0.2-1.9c-0.1-1.3,0-2.5,0.4-3.7C178.1,69.8,178.1,70.1,178.1,70.4
		z"/>
	<path class="st53" d="M78.9,105.4c-0.1-0.8-0.6-0.1-0.9-0.2c-0.1-0.1-0.1-0.3-0.1-0.4c0.1-0.2,0.2-0.3,0.3-0.5
		c0.1-0.2,0.2-0.4,0.3-0.5c0.3-0.3,0.1-0.9,0.7-1C79.3,103.6,79.7,104.6,78.9,105.4z"/>
	<path class="st54" d="M70.5,105c0,0.4,0.3,0.8,0,1.1c-0.4,0.3-0.8-0.1-1.2-0.2c-0.4-0.1-0.7-0.3-1-0.5
		C69,104.8,69.7,104.8,70.5,105z"/>
	<path class="st55" d="M58.9,95.2L58.9,95.2c-0.1,0-0.2,0-0.2,0c0,0-0.1-0.1-0.1-0.1c-0.8,0-1.4-0.4-1.7-1.1c-0.1-0.2,0-0.4,0.2-0.3
		C57.9,94.1,58.9,94.2,58.9,95.2z"/>
	<path class="st56" d="M71.9,101.5c-0.2,1.2-0.3,2.5-0.5,3.7c-0.1-0.6-0.2-1.1-0.4-1.7c0.4-0.7,0-1.2-0.5-1.6
		C71,101.8,71.5,101.7,71.9,101.5z"/>
	<path class="st57" d="M125.5,56.9c0.2,0,0.4,0,0.6,0c-0.2,0.1-0.4,0.2-0.6,0.3c-0.7,0.2-1.4,0.4-2,0c-0.4-0.3-0.1-0.4,0.2-0.4
		c0.5,0,0.9,0.1,1.4,0.1C125.2,57,125.4,56.9,125.5,56.9z"/>
	<path class="st58" d="M70.6,102c1.5,0.1,1,0.8,0.5,1.6C70.9,103,70.7,102.5,70.6,102z"/>
	<path class="st59" d="M71.5,105.9c0.3-0.2,0.6-0.4,0.9,0c0.1,0.2-0.1,0.3-0.1,0.5c0,0.1-0.1,0.2-0.1,0.2l0,0
		c-0.1,0.1-0.2,0.2-0.2,0.2l0,0c-0.1,0.1-0.2,0.2-0.2,0.2l0,0c-0.1,0.1-0.2,0.1-0.3,0.1c-0.2-0.1-0.3-0.1-0.2-0.4
		C71.3,106.5,71.4,106.2,71.5,105.9z"/>
	<path class="st60" d="M70.5,105c-0.8,0-1.5,0-2.2,0.4c-0.2-0.1-0.4-0.3-0.5-0.4c0.8-0.4,2.3,0.5,2.6-1.2
		C70.7,104.2,70.5,104.6,70.5,105z"/>
	<path class="st61" d="M231,86.7c0.1,0,0.2,0,0.3,0c0.5,0.8,0.9,1.5,1.4,2.3c0,0.1,0,0.2-0.1,0.3C232.1,88.4,231.6,87.6,231,86.7z"
		/>
	<path class="st62" d="M69.1,119.7c-0.6,0.2-1.2,0.5-1.8,0.7c-0.1-0.2-0.3-0.4,0-0.6c0.9,0.4,1.5-0.6,2.3-0.7c0.1,0,0.1,0.1,0.1,0.1
		c0,0-0.1,0.1-0.1,0.1C69.5,119.5,69.3,119.6,69.1,119.7z"/>
	<path class="st63" d="M62.7,101c1.1,0.2,2.1-0.1,3.2-0.2c0.1-0.1,0.2-0.1,0.3,0c0.1,0.1,0.1,0.2,0,0.3c-0.9,0.2-1.9,0.3-2.8,0.5
		C63.1,101.4,62.9,101.2,62.7,101z"/>
	<path class="st64" d="M178,75.4c0.1-0.6,0.2-1.2,0.3-1.9c0,0.8,0,1.7,0,2.5c0,0.3,0.2,0.7-0.1,0.9c-0.1-0.3-0.2-0.6-0.3-0.9
		C178,75.8,177.9,75.6,178,75.4z"/>
	<path class="st65" d="M80.3,102.7c-0.5-0.1-0.5-0.5-0.5-0.8c0-0.4,0.4-0.3,0.7-0.4c0.1-0.1,0.2-0.1,0.2-0.2
		c0.1-0.1,0.1-0.1,0.2-0.2c0.1,0.1,0.2,0.1,0.2,0.2c0,0.4-0.3,0.5-0.5,0.8c0,0.1-0.1,0.2-0.2,0.3l0,0
		C80.4,102.5,80.3,102.6,80.3,102.7L80.3,102.7z"/>
	<path class="st34" d="M211.8,64.6c0.1-0.2,0.2-0.5,0.3-0.7c-0.1,1,0.6,1.8,0.7,2.8C212.1,66.1,212,65.3,211.8,64.6z"/>
	<path class="st66" d="M182.6,75.9c0.3,0,0.4,0.2,0.4,0.5c0,0.3-0.1,0.6-0.5,0.6c-0.3,0-0.4-0.2-0.4-0.4
		C182.2,76.2,182.3,76,182.6,75.9z"/>
	<path class="st67" d="M80.2,103.4c0,0,0.1,0,0.1,0c0.4-0.3,0.9-0.5,1.3-0.8c0,0.6-0.8,0.8-0.9,1.3C80,104.3,80.3,103.7,80.2,103.4z
		"/>
	<path class="st68" d="M77.7,118.2c-0.3,0.1-0.6,0.2-0.9,0.3c0.8-0.6,0.7-1.5,0.7-2.3C77.9,116.8,77.7,117.5,77.7,118.2z"/>
	<path class="st69" d="M67.5,103.1c-0.6,0.1-1.3-0.1-1.8,0.5c-0.1-0.2-0.3-0.3-0.4-0.5c0.8-0.1,1.6-0.2,2.3-0.2
		C67.6,103,67.7,103,67.5,103.1C67.6,103.1,67.6,103.1,67.5,103.1z"/>
	<path class="st70" d="M66.1,100.8c-0.1,0-0.2,0-0.3-0.1c-0.2-0.1-0.4-0.2-0.7-0.4c0.7,0.4,1.5-0.7,2.1,0.2
		C67,100.8,66.6,100.8,66.1,100.8z"/>
	<path class="st71" d="M59,96.7c0.8-0.2,1.6,0.2,2.3-0.3c0.1,0.1,0.2,0.1,0.3,0.2c-0.7,0.6-1.6,0-2.3,0.4C59.1,97,59,96.8,59,96.7z"
		/>
	<path class="st72" d="M79.1,102.7c-0.2,0.4-0.4,0.8-0.7,1.2c-0.1-0.1-0.1-0.2-0.1-0.4c0.1-0.7,0.2-1.3,0.3-2
		C78.8,101.9,79,102.3,79.1,102.7z"/>
	<path class="st73" d="M108.7,33.3c0.2-0.1,0.3-0.2,0.5-0.2c0.3,0,0.7,0.1,1,0.1c0,0.1,0,0.2-0.1,0.2
		C109.5,33.6,109.1,33.7,108.7,33.3z"/>
	<path class="st74" d="M69.9,107.7c-0.3-0.3-0.5-0.5-0.6-0.8c-0.1-0.1,0-0.3,0.2-0.3c0.3,0.1,0.5,0.2,0.8,0.3
		C70.1,107.2,70,107.4,69.9,107.7z"/>
	<path class="st75" d="M26.4,57.1c-0.4,0-0.8-0.1-1.1-0.4c0.4,0,0.8-0.1,1.2-0.1c0.3,0,0.6,0.1,0.9,0.2C27,56.9,26.7,57,26.4,57.1z"
		/>
	<path class="st9" d="M173.4,76.8c0.9,0.1,1.8-0.3,2.6,0.2C175.1,77,174.3,77.1,173.4,76.8z"/>
	<path class="st9" d="M176,77c0.9,0.1,1-0.5,1-1.2c0.2,0.4,0.5,0.9,0.2,1.3C176.9,77.4,176.3,77.2,176,77z"/>
	<path class="st76" d="M83.1,98.8c-0.4,0.4-0.4,1.1-0.9,1.4C82,100.1,82,100,82,99.9c0-0.1,0.1-0.2,0.1-0.2l0,0
		c0.1,0,0.1-0.1,0.1-0.1c0-0.1,0-0.1,0-0.1c0.1-0.1,0.1-0.2,0.2-0.2c0.1,0,0.1-0.1,0.1-0.2C82.5,98.7,82.8,98.8,83.1,98.8z"/>
	<path class="st77" d="M70.1,111.5c0.3,0.7,0.6-0.1,0.9,0c0.1-0.1,0.2-0.1,0.3,0c-0.5,0.3-1,0.6-1.5,0.9
		C69.9,112.1,69.8,111.7,70.1,111.5z"/>
	<path class="st78" d="M69.8,102.7c-0.5,0.1-1,0.2-1.6,0.2c-0.2,0.1-0.4,0.1-0.5,0c0.6-0.2,1.2-0.3,1.9-0.5
		C69.7,102.5,69.8,102.6,69.8,102.7z"/>
	<path class="st79" d="M76.3,111c0.6-0.5,0.6-1.1,0.5-1.8c0.4,0.5,0.2,1.1,0.2,1.6c-0.1,0.1-0.3,0.1-0.4,0.2
		C76.5,111.1,76.4,111.1,76.3,111z"/>
	<path class="st80" d="M74.2,101.8c-0.1,0.4-0.1,0.8-0.2,1.2c-0.2,0-0.2-0.2-0.2-0.3c0-0.4,0-0.8,0-1.2
		C74,101.6,74.1,101.7,74.2,101.8z"/>
	<path class="st81" d="M62.4,98.9c-0.4,0.2-1.1-0.3-1.3,0.5c-0.2-0.2-0.3-0.4-0.5-0.7c0.6,0,1.2,0,1.9,0
		C62.5,98.8,62.6,98.9,62.4,98.9C62.5,98.9,62.5,98.9,62.4,98.9z"/>
	<path class="st82" d="M183.8,76.3c0.1,0.2,0.2,0.3,0.2,0.5c0,0.4,0,0.8-0.5,1C183.6,77.3,183.7,76.8,183.8,76.3z"/>
	<path class="st83" d="M76.3,102.9c-0.1-0.5,0.4-0.9,0-1.4c0.2-0.1,0.3-0.1,0.5-0.2c-0.1,0.5-0.2,1.1-0.3,1.6
		C76.4,103,76.3,103,76.3,102.9z"/>
	<path class="st84" d="M242.4,109.4c0.1-0.1,0.2-0.2,0.2-0.2c0.2,0.4,0.5,0.8,0.7,1.2c0.1,0.2,0,0.3-0.2,0.2
		C242.8,110.1,242.6,109.8,242.4,109.4z"/>
	<path class="st85" d="M152.9,120.2c-0.6,0-1.2,0-1.8,0c-0.1,0-0.1-0.1-0.1-0.1c0,0,0.1-0.1,0.1-0.1c0.6,0,1.2,0,1.8,0
		C152.9,120.1,152.9,120.1,152.9,120.2z"/>
	<path class="st86" d="M69.8,115.4c-0.3,0.2-0.6,0.3-0.9,0.5c-0.1-0.2-0.3-0.4,0-0.7c0.3,0.4,0.6-0.1,0.9-0.1
		C69.9,115.2,69.9,115.2,69.8,115.4C69.9,115.3,69.9,115.4,69.8,115.4z"/>
	<path class="st87" d="M177.6,73.3c0.3,0.6,0.2,1.2,0.2,1.9C177.5,74.6,177.6,73.9,177.6,73.3z"/>
	<path class="st9" d="M176.7,74c-0.4-0.6-0.4-1.2,0-1.9C176.7,72.8,176.7,73.4,176.7,74z"/>
	<path class="st9" d="M176.7,72c0.1-0.6-0.3-1.3,0.2-1.9C176.9,70.7,176.8,71.3,176.7,72z"/>
	<path class="st88" d="M75.2,107.9c-0.1,0.2-0.2,0.4-0.3,0.5c-0.3-0.1-0.6-0.3-0.9-0.4c0.4-0.1,0.8-0.3,1.2-0.4
		C75.3,107.7,75.3,107.8,75.2,107.9z"/>
	<path class="st89" d="M62.4,98.9c0-0.1,0-0.1,0-0.2c0.4-0.1,0.7-0.1,1.1-0.2c0.1,0.1,0.2,0.3,0.3,0.4
		C63.4,98.9,62.9,98.9,62.4,98.9z"/>
	<path class="st90" d="M73.1,120.9c-0.2,0.2-0.4,0.4-0.7,0.7c-0.2,0-0.4,0-0.5,0C72.2,121.3,72.6,121,73.1,120.9z"/>
	<path class="st91" d="M82.1,99.9c0,0.1,0,0.2,0,0.2c0,0,0,0,0,0c-0.2,0.1-0.1,0.3-0.2,0.5l0,0c-0.1,0.1-0.2,0.3-0.4,0.4
		c-0.1,0-0.2,0-0.3-0.1c0.2-0.3,0.5-0.6,0.7-0.9C82,99.8,82,99.8,82.1,99.9z"/>
	<path class="st92" d="M74.2,106.8c-0.2,0.3-0.4,0.6-0.6,0.9c-0.1-0.1-0.2-0.1-0.3-0.2c0.2-0.2,0.5-0.5,0.7-0.7
		C74.1,106.8,74.1,106.8,74.2,106.8z"/>
	<path class="st34" d="M213.5,67.7c-0.5-0.2-0.7-0.7-0.7-1.2C213.1,66.9,213.4,67.3,213.5,67.7z"/>
	<path class="st93" d="M66.1,100.8c0.4-0.1,0.8-0.2,1.2-0.3c0.1,0.1,0.1,0.2,0.2,0.3c-0.5,0.1-0.9,0.1-1.4,0.2
		C66.1,101,66.1,100.9,66.1,100.8z"/>
	<path class="st9" d="M176.9,75.8c-0.5-0.5-0.2-1.1-0.2-1.7C176.8,74.7,176.9,75.3,176.9,75.8z"/>
	<path class="st94" d="M243.8,111.2c0.2,0.3,0.4,0.6,0.2,1c-0.2-0.2-0.3-0.5-0.5-0.7C243.6,111.3,243.6,111.2,243.8,111.2z"/>
	<path class="st95" d="M72.4,108.2c0.2,0,0.5-0.1,0.5,0.2c0,0.1-0.3,0.2-0.4,0.2C72,108.6,72.4,108.4,72.4,108.2
		C72.4,108.2,72.4,108.2,72.4,108.2z"/>
	<path class="st96" d="M102.9,77c0.1,0.1,0.2,0.2,0.3,0.3c-0.1,0.2-0.2,0.4-0.3,0.7c-0.2,0-0.3,0-0.2-0.3
		C102.7,77.4,102.8,77.2,102.9,77z"/>
	<path class="st97" d="M88.6,96.2c0.1-0.2,0.1-0.3,0.2-0.5c0.1-0.1,0.4-0.3,0.4-0.1C89.3,96,89,96.2,88.6,96.2z"/>
	<path class="st98" d="M71.2,106.8c0.1,0.1,0.2,0.2,0.3,0.3c0.1,0.1,0.1,0.2,0,0.2l0,0c-0.1,0.1-0.2,0.2-0.3,0.3
		c0,0.1,0,0.1-0.1,0.1C70.8,107.4,71,107.1,71.2,106.8z"/>
	<path class="st99" d="M83.2,101.7c0.1,0,0.2,0,0.3,0c-0.2,0.3-0.4,0.7-0.9,0.4c0-0.1,0.1-0.1,0.1-0.2
		C82.9,101.9,83,101.6,83.2,101.7z"/>
	<path class="st100" d="M41,20.6c0.2,0.1,0.3,0.3,0.2,0.4c-0.2,0.2-0.5,0.1-0.7-0.1C40.6,20.7,40.8,20.7,41,20.6z"/>
	<path class="st34" d="M212.1,63.7c0-0.4,0-0.8,0-1.3C212.3,62.8,212.3,63.3,212.1,63.7z"/>
	<path class="st101" d="M151,120c0,0.1,0,0.1,0,0.2c-0.4,0-0.8,0.1-1.1-0.1C150.3,120.1,150.6,120,151,120z"/>
	<path class="st102" d="M147.3,120.3c0,0.1,0,0.1,0,0.2c-0.3,0-0.6,0-0.9-0.1C146.7,120.1,147,120.3,147.3,120.3z"/>
	<path class="st103" d="M102.7,77.7c0.1,0.1,0.2,0.2,0.2,0.3c-0.1,0.2-0.2,0.4-0.4,0.5C102.3,78.2,102.5,77.9,102.7,77.7z"/>
	<path class="st104" d="M119.5,35.9c0.1-0.2,0.2-0.4,0.3-0.6c0.2,0.3,0.3,0.5,0.1,0.8C119.8,36.1,119.6,36,119.5,35.9z"/>
	<path class="st9" d="M176.9,70.1c0-0.4-0.2-0.9,0.3-1.2C177.1,69.3,177,69.7,176.9,70.1z"/>
	<path class="st105" d="M101.3,15.3c0.1,0.1,0.1,0.1,0.1,0.2c-0.1,0.1-0.1,0.1-0.2,0.2c0-0.1-0.1-0.2-0.1-0.2
		C101.2,15.4,101.3,15.4,101.3,15.3z"/>
	<path class="st106" d="M106.2,54.2c-0.1-0.1-0.2-0.2-0.3-0.3c0.2,0,0.4-0.2,0.5-0.1C106.6,53.9,106.4,54,106.2,54.2z"/>
	<path class="st107" d="M243.1,110.5c0.1-0.1,0.1-0.2,0.2-0.2c0.1,0.1,0.2,0.3,0.2,0.4c0.1,0.3,0,0.3-0.2,0.3
		C243.2,110.8,243.2,110.7,243.1,110.5z"/>
	<path class="st108" d="M243.3,111c0.1-0.1,0.2-0.2,0.2-0.3c0.1,0.2,0.2,0.3,0.2,0.5c-0.1,0.1-0.2,0.2-0.3,0.3
		C243.4,111.3,243.4,111.1,243.3,111z"/>
	<path class="st34" d="M212.1,62.4c-0.3-0.2-0.2-0.5-0.2-0.8C211.9,61.9,212,62.2,212.1,62.4z"/>
	<path class="st9" d="M177.4,68.2c0-0.3,0-0.5,0.3-0.7C177.6,67.8,177.5,68,177.4,68.2z"/>
	<path class="st9" d="M177.2,68.9c0-0.3,0-0.5,0.2-0.7C177.3,68.5,177.2,68.7,177.2,68.9z"/>
	<path class="st96" d="M103.1,76c-0.1,0.2-0.1,0.5-0.2,0.7C103,76.5,103.1,76.3,103.1,76z"/>
	<path class="st109" d="M39.1,38.8c0.1-0.2,0.4-0.2,0.6-0.2c-0.1,0.1-0.2,0.3-0.3,0.4C39.2,39,39.2,38.9,39.1,38.8z"/>
	<path class="st110" d="M74.5,109.4c-0.2,0.1-0.3,0.2-0.5,0.3c-0.1-0.2,0-0.3,0.2-0.4C74.3,109.3,74.4,109.3,74.5,109.4z"/>
	<path class="st111" d="M74.2,109.2c-0.1,0.1-0.1,0.3-0.2,0.4c0,0,0,0,0,0c-0.1,0.1-0.2,0.1-0.3,0c0-0.1,0-0.2,0-0.2
		C73.9,109.3,74.1,109.2,74.2,109.2z"/>
	<path class="st27" d="M77.8,121.3c0,0,0.1,0.1,0.1,0.1c-0.1,0-0.1,0.1-0.2,0.1c0,0-0.1,0-0.1-0.1C77.7,121.4,77.7,121.4,77.8,121.3
		z"/>
	<path class="st87" d="M178,75.4c0,0.2-0.1,0.4-0.1,0.7c0-0.2,0-0.4,0-0.6C177.9,75.4,178,75.4,178,75.4z"/>
	<path class="st73" d="M108.6,32.9c-0.3-0.2-0.2-0.4,0.1-0.5C108.7,32.5,108.7,32.7,108.6,32.9z"/>
	<path class="st112" d="M81,101.5c0-0.1,0-0.2,0-0.4c0.1-0.1,0.1-0.1,0.2-0.2c0.1,0,0.2,0.1,0.2,0.2C81.3,101.4,81.3,101.6,81,101.5
		z"/>
	<path class="st34" d="M211.8,61.5c-0.1-0.1-0.2-0.3-0.2-0.4c0.1,0,0.1,0,0.2,0.1C211.8,61.3,211.8,61.4,211.8,61.5z"/>
	<path class="st9" d="M177.6,67.6c0.1-0.2,0.1-0.3,0.2-0.5C177.8,67.2,177.7,67.4,177.6,67.6z"/>
	<path class="st96" d="M103.2,77.3c0.1-0.1,0.1-0.2,0.2-0.3C103.3,77.1,103.2,77.2,103.2,77.3z"/>
	<path class="st6" d="M222.4,84.9c-0.1-0.1-0.1-0.1-0.2-0.2C222.3,84.8,222.4,84.8,222.4,84.9z"/>
	<polygon class="st15" points="77.1,114.4 77.1,114.4 77.1,114.4 77.2,114.4 	"/>
	<path class="st112" d="M80.7,101.3c-0.1,0.1-0.2,0.1-0.2,0.2C80.5,101.5,80.6,101.4,80.7,101.3z"/>
	<path class="st8" d="M31.3,58.9c-0.1-0.1-0.2-0.1-0.3-0.2C31.1,58.8,31.2,58.9,31.3,58.9z"/>
	<path class="st113" d="M81.2,100.8c0.1,0,0.2,0,0.2,0c0.1,0.1,0.1,0.1,0.1,0.2c0,0.1,0,0.1,0,0.1c-0.1,0.1-0.2,0-0.3,0
		c0,0-0.1,0-0.1,0C81.1,100.9,81.1,100.9,81.2,100.8z"/>
	<path class="st73" d="M108.9,33.1c-0.1-0.1-0.2-0.1-0.3-0.2C108.8,32.9,108.9,33,108.9,33.1z"/>
	<path class="st73" d="M108.2,33.1c0.1,0.1,0.2,0.1,0.3,0.2C108.4,33.2,108.3,33.1,108.2,33.1z"/>
	<path class="st114" d="M82.1,99.9L82.1,99.9c-0.1,0-0.2,0-0.2,0c0.1-0.1,0.1-0.2,0.2-0.2C82.1,99.7,82.1,99.8,82.1,99.9z"/>
	<path class="st114" d="M82.1,99.4c0,0.1,0,0.1,0.1,0.2c0,0-0.1,0-0.1,0.1C82.1,99.6,82.1,99.5,82.1,99.4z"/>
	<path class="st114" d="M82.4,99c0,0,0,0.1,0,0.1c0,0,0,0-0.1,0C82.3,99.1,82.4,99.1,82.4,99z"/>
	<path class="st34" d="M210.9,60.6c-0.1,0-0.2,0-0.2,0c0-0.8,0-1.6,0-2.4C211.1,59,210.7,59.8,210.9,60.6z"/>
	<path class="st34" d="M211.4,60.8c-0.1-0.1-0.3-0.2-0.4-0.3C211.1,60.7,211.2,60.7,211.4,60.8z"/>
	<path class="st34" d="M211.6,61.1c-0.1-0.1-0.1-0.1-0.2-0.2C211.4,60.9,211.5,61,211.6,61.1z"/>
	<path class="st115" d="M96.3,58.3C96,62,95,65.4,92.1,67.8c-1.8,1.5-3.9,1-4.9-1.2c-1.7-3.7,0.3-10.8,3.7-13.1
		c1.9-1.3,3.9-0.7,4.8,1.4C96.2,56.1,96.3,57.2,96.3,58.3z"/>
	<path class="st115" d="M55.9,63.6c0-2.4,0.5-4.5,1.9-6.3c1.7-2.1,4.3-2.1,6.1-0.1c2.9,3.2,3,9.8,0.2,13c-1.6,1.8-4.1,1.9-5.8,0.1
		C56.5,68.4,56,66,55.9,63.6z"/>
	<path class="st116" d="M51.4,88.8c-0.1,0.2-0.2,0.3-0.2,0.5c-0.3-0.3-0.6-0.7-0.6-1.2C51,88.1,51.1,88.5,51.4,88.8z"/>
	<path class="st115" d="M149,66c1.8-1.4,3.4-1.2,4.8,0.6c1.2,1.4,1.6,3.2,2,4.9c0.2,2.6,0.3,5.1-1,7.5c-1.3,2.4-3.8,2.6-5.5,0.4
		C146.6,75.6,146.4,69.6,149,66z"/>
	<path class="st117" d="M128.9,69.1c-0.1,0.8-0.1,1.5-0.2,2.3c-0.4-0.7-0.9-1.3-1.1-2c-0.5-1.3-1.9-2.1-1.9-3.7
		c1.2,0.5,1.3,1.9,2,2.7c0.3,0.2,0.3-0.1,0.4-0.2C129.1,67.9,128.7,68.8,128.9,69.1z"/>
	<path class="st118" d="M128.1,68.2c0,0.2-0.1,0.5-0.1,0.7c-0.1-0.2-0.2-0.4-0.4-0.5C127.8,68.4,128,68.3,128.1,68.2z"/>
	<path class="st119" d="M162.4,32.5c0.4,1.3-0.7,2.4-2,2.1c-1.4-0.3-2.9-2.4-2.6-3.9c0.1-0.6,0.3-1.3,0.5-1.9c0.3,0,0.3,0.2,0.4,0.4
		c0,0.1,0,0.2,0,0.3c0,0.2-0.1,0.3-0.1,0.5c0,0.1,0,0.2,0,0.3c-0.5,1.5,0.4,2.4,1.5,3.1c0.9,0.7,1.5-0.1,2-0.7
		C162.1,32.6,162.2,32.6,162.4,32.5z"/>
	<path class="st120" d="M169.8,41.1c1.8,0.6,3.7,0,5.5,0.3c-0.2,0.6-0.6,0.3-1,0.3c-1.4,0.1-2.9-0.1-4.3,0.1c-0.4,0-0.9,0-1.3,0.1
		c-0.5,0.2-1.1,0.1-1.6,0.1c-0.2-0.1-0.2-0.2-0.1-0.3c0.7-0.4,1.9,0.4,2.2-1C169.3,40.3,169.5,41,169.8,41.1z"/>
	<path class="st121" d="M169.9,21.9c0.1-0.1,0.2-0.3,0.3-0.4c0.2-0.3,0.6,0,0.8-0.2c0-0.1,0.1-0.1,0.2-0.2c0.1,0,0.2,0,0.2-0.1
		c0.1,0,0.3,0,0.4,0c0.1,0,0.3,0,0.4,0c0.1,0,0.2,0.1,0.2,0.1c0.1,0.1,0.2,0.2,0.2,0.4c0,0.3,0.1,0.6,0.2,0.8c0,0.1,0,0.1,0,0.2
		c0,0,0,0.1-0.1,0.1c-0.7,0.5-1.5,0.9-2.3,0.2c-0.2-0.2-0.2-0.4-0.3-0.6c-0.1-0.1-0.1-0.1-0.2-0.2C169.9,22.1,169.9,22,169.9,21.9z"
		/>
	<path class="st122" d="M175.1,33.1c-0.2,0.2-0.3,0.4-0.5,0.6c-0.7,0.3-1.2,1.2-2,0.5c-0.5-0.4-1.6-0.6-1-1.7
		c0.4-0.1,0.5,0.3,0.7,0.4c0.9,0.8,1.5-0.1,2.2-0.3c0.1,0,0.2,0,0.3,0C175.1,32.8,175.2,32.9,175.1,33.1z"/>
	<path class="st123" d="M167.4,34.9c-0.2-0.2-0.3-0.4-0.5-0.6c-0.1,0.2-0.1,0.4-0.2,0.6c-1.3,0.2-2.6,0.2-3.9,0l0,0
		c-0.1-0.1-0.1-0.2,0-0.3c0-0.1,0.1-0.1,0.1-0.2c0-0.1,0.1-0.2,0.1-0.2c0-0.1,0-0.1,0.1-0.2c0.1-0.1,0.2-0.1,0.3,0
		c0.1,0.1,0.3,0.2,0.4,0.2c0.9,0.2,1.7,0.2,2.5-0.5c0.7-0.7,1.2-0.4,1.5,0.6c0,0.1,0,0.2-0.1,0.3C167.6,34.7,167.5,34.8,167.4,34.9z
		"/>
	<path class="st124" d="M161.1,42.5c1.3-0.4,2.6-0.5,4-0.6c0.2,0.2,0.6-0.1,0.8,0.3c-1.5,0.2-3,0.4-4.5,0.6
		C161.3,42.7,161.2,42.7,161.1,42.5z"/>
	<path class="st125" d="M163.2,30.2c0-0.9,0-1.8,0-2.7c0-0.1,0.1-0.4-0.2-0.3c-0.1,0-0.2,0.2-0.3,0.3c-0.4,0-0.4-0.3-0.4-0.6
		c0-0.3,0.2-0.5,0.4-0.7c0.5-0.5,1-0.4,1.1,0.3c0.2,1.5,0.4,3-0.1,4.4c-0.1,0.1-0.2,0.2-0.4,0.1C163.1,30.8,163.1,30.5,163.2,30.2z"
		/>
	<path class="st126" d="M170,41.8c1.3-0.4,2.6-0.1,4-0.2c0.4,0,0.9,0.1,1.3-0.2c0.6-0.1,1.2-0.1,1.7,0.2c-0.4,0.4-1,0-1.4,0.2
		C173.7,41.8,171.8,41.8,170,41.8z"/>
	<path class="st127" d="M170.9,19c0.1,0,0.3,0,0.4,0c0.1,0,0.2-0.1,0.3-0.1c0.8-0.2,1.1,0.3,1.4,0.9c0,0,0.1,0.1,0.1,0.1
		c0,0,0,0.1,0,0.1c0,0-0.1,0-0.1,0.1c-0.1,0-0.2,0.1-0.2,0.2c-0.1,0.2-0.2,0.3-0.3,0.3c-0.1,0-0.2,0-0.2,0c-0.1-0.1-0.2-0.3-0.2-0.4
		c0-0.1,0-0.1-0.1-0.2c0-0.1-0.1-0.1-0.2-0.1c-0.2,0.1-0.3,0.2-0.4,0.3c-0.3,0.1-0.7,0.3-0.6-0.3C170.7,19.4,170.8,19.2,170.9,19z"
		/>
	<path class="st128" d="M171.2,27.2c0,1.4-0.1,2.8-0.1,4.2c-0.6-0.2-0.4-0.8-0.5-1.2c0-0.7,0-1.3-0.1-2c0-0.6-0.1-1.2,0.1-1.7
		c0.2-0.5,0.5-0.8,1-0.2C171.7,26.8,171.2,26.8,171.2,27.2z"/>
	<path class="st129" d="M161.6,24.2c0.5-0.5-0.3-0.8-0.2-1.2c-0.1-0.5-0.1-1,0-1.5l0,0c0.2-0.1,0.4-0.1,0.5,0l0,0
		c0,0.1,0.1,0.2,0.1,0.3c0,0.1,0,0.1,0,0.2c0,0.1,0,0.1,0,0.2c0,0.4,0.2,0.8,0.4,1.2c0.4,0.7,0.3,1.2-0.5,1.4c-0.1,0-0.2,0-0.3-0.1
		C161.5,24.4,161.5,24.3,161.6,24.2z"/>
	<path class="st130" d="M149.9,45.8c-1,0.4-2,0.8-3,1.1c-0.3,0.1-0.3,0-0.3-0.2c1-0.4,2-0.8,3-1.1C149.8,45.7,149.9,45.7,149.9,45.8
		z"/>
	<path class="st131" d="M170.8,28.1c0.1,1.1,0.1,2.2,0.2,3.3c0,0.5-0.1,0.9-0.1,1.4c-0.2,0.1-0.3,0.1-0.4-0.1
		c-0.5-1.3-0.3-2.7-0.2-4.1C170.4,28.4,170.6,28.2,170.8,28.1z"/>
	<path class="st132" d="M146.6,46.8c0.1,0.1,0.2,0.2,0.3,0.2c-0.9,0.4-1.9,0.8-2.8,1.1c-0.3,0.1-0.3,0-0.2-0.2
		C144.8,47.5,145.7,47.1,146.6,46.8z"/>
	<path class="st133" d="M167.4,34.9c0-0.1,0-0.1,0-0.2c0.9-0.7,1.9-0.1,2.8-0.4c0.1,0,0.2-0.1,0.3-0.1c0.2,0,0.4,0,0.5,0.1l0,0
		c0.2,0.2,0.2,0.4,0,0.6C169.9,34.9,168.7,34.9,167.4,34.9z"/>
	<path class="st134" d="M162.4,32.5c-0.1,0.1-0.2,0.2-0.2,0.3c-1-0.7-1.2-1.8-0.5-3c0.7,0.3,0.3,0.8,0.3,1.2
		C162.1,31.5,162.2,32,162.4,32.5z"/>
	<path class="st135" d="M166.5,21c0.4-0.9,0.9-0.4,1.5-0.2c0,0.2-0.1,0.3-0.2,0.4c-0.6,0.5-1.2,1-2,0.2
		C165.8,20.9,166.4,21.4,166.5,21z"/>
	<path class="st136" d="M162.8,34.9c1.3,0,2.6,0,3.9,0C165.4,35.3,164.1,35.2,162.8,34.9z"/>
	<path class="st137" d="M149.9,45.8c-0.1-0.1-0.2-0.1-0.3-0.2c0.7-0.3,1.5-0.5,2.2-0.8c0.2-0.1,0.3,0,0.3,0.2
		C151.4,45.3,150.7,45.6,149.9,45.8z"/>
	<path class="st138" d="M162.6,22.3c0.4,0.1,0.8,0.3,1.1-0.2c-0.1-0.2-0.1-0.4,0-0.6l0,0c0.1-0.1,0.2-0.1,0.4,0
		c0.5,0.5,0.4,1-0.1,1.4c-0.5,0.4-1.1,0.3-1.5-0.2C162.5,22.5,162.5,22.4,162.6,22.3z"/>
	<path class="st139" d="M172.1,33.3c-0.1-0.2-0.3-0.4-0.4-0.7c0.2-0.8,0.3-1.5,0.5-2.3c0.6,0.3,0.4,0.9,0.5,1.4
		C172.6,32.3,172.5,32.8,172.1,33.3z"/>
	<path class="st140" d="M172.3,31.7c0-0.5-0.1-0.9-0.1-1.4c0-0.5,0.1-1,0.1-1.4c-0.1-0.2-0.2-0.4,0.2-0.5
		C173.2,29.5,173.2,31,172.3,31.7z"/>
	<path class="st141" d="M162.6,27.1c0.1,0.2,0.1,0.3,0.2,0.5c-0.2,0.6-0.4,1.2-0.7,1.8c-0.1,0.1-0.2,0.1-0.3-0.1
		C161.6,28.4,161.5,27.5,162.6,27.1z"/>
	<path class="st142" d="M175.5,41.8c0.4-0.4,1-0.1,1.4-0.2c0.5,0.1,0.9,0.2,1.4,0.2c-0.2,0.3-0.5,0-0.7,0.2c-0.2,0-0.3,0-0.5,0
		C176.6,42,176.1,41.9,175.5,41.8z"/>
	<path class="st143" d="M158.4,29.4c-0.1-0.2-0.1-0.3-0.2-0.5c0.2-0.6,0-1.2,0.6-1.6c0.2,0,0.3,0.2,0.4,0.3
		C159.2,28.3,159.4,29.1,158.4,29.4z"/>
	<path class="st144" d="M163.2,30.2c0,0.2,0.1,0.5,0.1,0.7c0.5,0.7,0.2,1.5,0.3,2.3c0,0.3-0.1,0.6-0.4,0.7c-0.1,0-0.1,0-0.2,0
		C163.1,32.8,163.2,31.5,163.2,30.2z"/>
	<path class="st145" d="M161,42.8c-0.6,0.1-1.3,0.3-1.9,0.4c-0.1-0.1-0.4,0-0.5-0.2c0.6-0.1,1.3-0.3,1.9-0.4
		C160.7,42.7,160.9,42.6,161,42.8z"/>
	<path class="st146" d="M156.5,43.4c0.6-0.1,1.1-0.3,1.7-0.4c0.1,0.1,0.3,0.1,0.3,0.2c-0.6,0.1-1.1,0.3-1.7,0.4
		C156.7,43.6,156.5,43.6,156.5,43.4z"/>
	<path class="st147" d="M171.1,21.3c0.1,0.3,0.4,0.8,0,0.9c-0.5,0.2-0.1-0.5-0.3-0.6c-0.1-0.1-0.4,0-0.5-0.1
		c0.1-0.2,0.3-0.3,0.4-0.5c0-0.1,0.1-0.1,0.2-0.1C171,21,171.1,21.1,171.1,21.3z"/>
	<path class="st148" d="M143.7,48.4c-0.6,0.2-1.3,0.5-1.9,0.7c-0.1-0.1-0.1-0.1-0.1-0.2c0-0.1,0-0.1,0.1-0.1
		c0.5-0.2,1.1-0.5,1.6-0.7C143.5,48.2,143.6,48.2,143.7,48.4z"/>
	<path class="st149" d="M154.9,43.9c0.5-0.1,0.9-0.3,1.4-0.4c0.1,0.1,0.1,0.2,0,0.2c-0.5,0.1-0.9,0.3-1.4,0.4
		C154.8,44.1,154.8,44,154.9,43.9z"/>
	<path class="st150" d="M166.5,21c-0.1,0.6-0.6,0.1-0.8,0.3c-0.3,0.3-0.6,0.3-1,0.2c-0.1,0-0.2-0.1-0.3-0.2
		C165.1,20.8,165.8,21.2,166.5,21z"/>
	<path class="st151" d="M165.9,42.1c-0.3-0.1-0.5-0.2-0.8-0.3c0.2,0,0.4,0,0.6,0c0.3-0.2,0.7,0,1-0.2c0.1,0,0.2,0,0.2,0
		c0,0.1,0,0.1,0,0.2c0.1,0,0.1,0.1,0.1,0.1c0,0-0.1,0.1-0.1,0.1C166.6,42.1,166.3,42.1,165.9,42.1z"/>
	<path class="st152" d="M161.9,29.4c0.1,0,0.2,0,0.2,0c0,0.6,0.1,1.1-0.2,1.7c-0.1-0.4-0.1-0.8-0.2-1.2
		C161.5,29.6,161.7,29.5,161.9,29.4z"/>
	<path class="st153" d="M172,28.2c-0.1-0.3-0.3-0.6-0.4-0.9c0.1-0.2,0.2-0.3,0.3-0.3c0.4,0.2,0.5,0.5,0.4,0.9
		C172.3,28.1,172.2,28.2,172,28.2z"/>
	<path class="st154" d="M170.6,19.6c0.2,0.4,0.5,0.1,0.7,0c0.1-0.1,0.2,0,0.3,0.1c0,0.6-0.3,0.8-0.9,0.7c-0.1-0.1-0.2-0.1-0.2-0.2
		C170.5,20,170.6,19.8,170.6,19.6z"/>
	<path class="st155" d="M159.3,26.6c0.2-0.2,0.5-0.5,0.7-0.7c0.1-0.1,0.2-0.1,0.3,0c0.2,0.4-0.1,0.7-0.4,0.9
		c-0.1,0.1-0.2,0.1-0.3,0.1c-0.1,0-0.2-0.1-0.2-0.2C159.4,26.7,159.4,26.6,159.3,26.6z"/>
	<path class="st156" d="M141.8,48.8c0,0.1,0,0.2,0,0.3c-0.3,0.2-0.5,0.4-0.9,0.4C141,49,141.5,49,141.8,48.8z"/>
	<path class="st157" d="M170.5,20.1c0.1,0,0.1,0,0.2,0c0.1,0.2,0.4,0.4,0.2,0.7c-0.1,0.1-0.2,0.1-0.3,0c-0.3,0-0.5-0.1-0.6-0.4
		C170,20.4,170.3,20.2,170.5,20.1z"/>
	<path class="st158" d="M167,42.1c0-0.1,0-0.1,0-0.2c0.6,0,1.1,0,1.7,0C168.1,41.9,167.5,42,167,42.1z"/>
	<path class="st159" d="M160.7,24.9c0.2-0.2,0.5-0.4,0.7-0.5c0.1,0,0.1,0.1,0.2,0.1c0,0,0,0.1,0,0.1c0.1,0.5-0.3,0.6-0.7,0.8
		c-0.1,0-0.2,0-0.3-0.1C160.7,25.1,160.7,25,160.7,24.9z"/>
	<path class="st160" d="M167.7,21c0.1-0.1,0.2-0.1,0.3-0.2c0.3,0.1,0.6,0.3,0.9,0.4c0.1,0.1,0.1,0.2,0,0.3
		C168.3,21.7,167.9,21.5,167.7,21z"/>
	<path class="st161" d="M152.2,45c-0.1-0.1-0.2-0.2-0.3-0.2c0.3-0.1,0.7-0.3,1-0.4c0.1,0.1,0.2,0.1,0.3,0.2
		C152.8,44.8,152.5,44.9,152.2,45z"/>
	<path class="st162" d="M160.3,25.9c-0.1,0-0.2,0-0.3,0c0-0.3,0-0.6,0.3-0.7c0.1,0,0.2-0.1,0.3-0.1c0,0,0.1,0.1,0.1,0.1
		C160.8,25.6,160.8,25.9,160.3,25.9z"/>
	<path class="st163" d="M159,27.5c-0.1-0.1-0.1-0.2-0.2-0.2c0.2-0.2,0.3-0.5,0.5-0.7c0,0.1,0,0.1,0,0.1l0.1,0.1c0,0.1,0.1,0.1,0.1,0
		C159.7,27.3,159.4,27.5,159,27.5z"/>
	<path class="st164" d="M153.1,44.7c-0.1-0.1-0.2-0.2-0.3-0.2c0.3-0.1,0.6-0.2,0.9-0.3c0.1,0.1,0.1,0.2,0,0.2
		C153.6,44.5,153.4,44.6,153.1,44.7z"/>
	<path class="st165" d="M161.4,21.5c0,0.5,0,1,0,1.5C161.1,22.5,161.1,22,161.4,21.5z"/>
	<path class="st166" d="M153.8,44.4c0-0.1,0-0.2,0-0.2c0.2-0.1,0.5-0.1,0.7-0.2c0.1,0.1,0.1,0.2,0,0.2
		C154.3,44.3,154,44.4,153.8,44.4z"/>
	<path class="st167" d="M169.9,21.9c0,0.1,0,0.2,0,0.3c-0.4,0.6-0.5,0-0.7-0.2c0-0.1,0-0.2,0-0.3c0.1-0.1,0.2-0.1,0.3,0
		C169.7,21.8,169.8,21.9,169.9,21.9z"/>
	<path class="st168" d="M171.1,34.2c-0.1,0.1-0.3,0.1-0.4,0.2c-0.2-0.2-0.2-0.4-0.1-0.7c0.1-0.1,0.2-0.1,0.3,0
		C171,33.9,171,34.1,171.1,34.2z"/>
	<path class="st169" d="M171.2,27.2c0-0.4,0.1-0.6,0.5-0.6c0,0,0.1,0.1,0.1,0.1c0,0.1,0,0.2,0,0.3c0,0-0.1,0.1-0.1,0.1
		C171.4,27.1,171.3,27.2,171.2,27.2z"/>
	<path class="st170" d="M161.9,21.5c-0.2,0-0.4,0-0.5,0c0.1-0.1,0.2-0.2,0.3-0.3C161.8,21.3,161.9,21.4,161.9,21.5z"/>
	<path class="st171" d="M164.4,21.3c0.1,0,0.2,0,0.3,0c-0.1,0.4-0.4,0.4-0.7,0.2c-0.1,0-0.2,0-0.3-0.1
		C163.9,21.2,164.2,21.3,164.4,21.3z"/>
	<path class="st133" d="M170.9,33.8l-0.1,0l-0.1,0c-0.3-0.3-0.3-0.6,0-0.9c0.1,0,0.1,0,0.2,0C170.9,33.1,170.9,33.5,170.9,33.8z"/>
	<path class="st158" d="M166.7,41.7c-0.3,0.3-0.7,0.2-1,0.2C166.1,41.8,166.4,41.7,166.7,41.7z"/>
	<path class="st172" d="M143.7,48.4c-0.1-0.1-0.2-0.2-0.3-0.2c0.2-0.1,0.3-0.1,0.5-0.2c0.1,0.1,0.2,0.1,0.2,0.2
		C144,48.2,143.8,48.3,143.7,48.4z"/>
	<path class="st164" d="M161,42.8c-0.2-0.1-0.3-0.1-0.5-0.2c0.2,0,0.4,0,0.6-0.1c0.1,0.1,0.2,0.2,0.3,0.2
		C161.3,42.8,161.1,42.8,161,42.8z"/>
	<path class="st173" d="M158.5,43.3c-0.1-0.1-0.2-0.2-0.3-0.2c0.1,0,0.3,0,0.4-0.1c0.2,0.1,0.3,0.1,0.5,0.2
		C158.9,43.2,158.7,43.3,158.5,43.3z"/>
	<path class="st174" d="M172,28.2c0.1-0.1,0.1-0.2,0.2-0.2c0.2,0.1,0.2,0.2,0.1,0.4c0,0.2,0,0.3-0.1,0.5
		C172.2,28.7,172.1,28.4,172,28.2z"/>
	<path class="st168" d="M171.1,34.9c0-0.2,0-0.4,0-0.6C171.4,34.5,171.5,34.7,171.1,34.9z"/>
	<path class="st175" d="M168.8,21.5c0-0.1,0-0.2,0-0.2c0.2,0.1,0.3,0.2,0.5,0.3l0,0.1c0,0,0,0.1,0,0.1
		C169,21.8,168.9,21.7,168.8,21.5z"/>
	<path class="st176" d="M162.6,22.3c0,0.1,0,0.2,0,0.2c-0.3,0.1-0.5,0-0.5-0.3c0.1-0.1,0.2-0.1,0.3,0
		C162.5,22.2,162.5,22.2,162.6,22.3z"/>
	<path class="st177" d="M154.5,44.2c0-0.1,0-0.2,0-0.2c0.1,0,0.3-0.1,0.4-0.1c0,0.1,0,0.2,0,0.2C154.8,44.2,154.6,44.2,154.5,44.2z"
		/>
	<path class="st178" d="M162.4,22.2c-0.1,0-0.2,0-0.3,0c-0.2,0.1-0.3,0-0.3-0.2l0.1-0.1c0.1,0,0.1,0,0.2,0
		C162.3,22,162.3,22.1,162.4,22.2z"/>
	<path class="st179" d="M156.3,43.7c0-0.1,0-0.2,0-0.2c0.1,0,0.1-0.1,0.2,0c0.1,0.1,0.2,0.2,0.3,0.2
		C156.6,43.7,156.5,43.7,156.3,43.7z"/>
	<path class="st180" d="M163.7,21.5c0,0.2,0,0.4,0,0.6C163.5,21.9,163.3,21.7,163.7,21.5z"/>
	<path class="st169" d="M171.9,27c-0.1,0.1-0.2,0.2-0.3,0.3c0-0.1-0.1-0.1-0.1-0.2c0,0,0.1-0.1,0.1-0.1c0,0,0.1,0,0.1-0.1
		C171.8,27,171.8,27,171.9,27z"/>
	<path class="st181" d="M169.3,21.6c0,0,0-0.1,0-0.1c0.1,0.1,0.2,0.1,0.3,0.2C169.5,21.7,169.4,21.7,169.3,21.6z"/>
	<path class="st170" d="M161.9,21.8c0-0.1,0-0.2,0-0.3c0.1,0.1,0.1,0.2,0.2,0.3L161.9,21.8L161.9,21.8z"/>
	<path class="st136" d="M163,34.2c0,0.1-0.1,0.2-0.1,0.2C162.9,34.4,163,34.3,163,34.2z"/>
	<path class="st182" d="M160.7,25.2c-0.1,0-0.2,0-0.3,0.1c0.1-0.1,0.2-0.2,0.4-0.3C160.7,25,160.7,25.1,160.7,25.2z"/>
	<path class="st183" d="M161.6,24.4c-0.1,0-0.1-0.1-0.2-0.1c0.1,0,0.1-0.1,0.2-0.1C161.6,24.3,161.6,24.3,161.6,24.4z"/>
	<path class="st184" d="M170.6,20.8c0.1,0,0.2,0,0.3,0c0,0,0.1,0,0.1,0.1c0,0.1,0,0.2-0.1,0.2c-0.1,0-0.1,0-0.2,0
		C170.6,21,170.6,20.9,170.6,20.8z"/>
	<path class="st185" d="M161.9,21.8c0.1,0,0.1,0,0.2,0c0.1,0.1,0.1,0.1,0.1,0.2c-0.1,0-0.1,0-0.2,0
		C161.9,21.9,161.9,21.8,161.9,21.8z"/>
	<path class="st136" d="M162.8,34.7c0,0.1,0,0.2,0,0.3C162.6,34.9,162.7,34.8,162.8,34.7z"/>
	<path class="st186" d="M199.2,71.3c0-0.8,0-1.1,0-1.4c0-0.3,0-0.6,0.3-0.7c0.4-0.1,0.4,0.3,0.5,0.5c0.1,0.2,0.1,0.4,0.2,0.6
		c0.1-0.2,0.2-0.4,0.3-0.6c0.4-0.8,0.8-1.6,1.2-2.4c0.1-0.3,0.4-0.5,0.8-0.2c0.3,0.2,0.1,0.5,0,0.7c-0.9,1.5-1.4,3.1-2,4.8
		c-0.1,0.3-0.3,0.8-0.5,0.8c-0.5,0-0.5-0.6-0.6-0.9C199.2,72,199.2,71.4,199.2,71.3z"/>
	<path class="st187" d="M205.8,65.9c-0.3,0-0.7,0.2-0.8-0.2c0-0.2,0.1-0.4,0.3-0.6c1.1-0.9,2.1-1.9,3.4-2.6c0.2-0.1,0.5-0.2,0.6-0.1
		c0.2,0.3-0.1,0.4-0.3,0.5c-0.8,0.7-2,1.1-2.1,2.5C206.9,65.7,206.3,66.1,205.8,65.9z"/>
	<path class="st188" d="M182.7,42.8c1.5,0.2,2.8,0.8,4.2,1.4c0,0.2,0,0.4-0.3,0.3c-1.5-0.5-2.9-0.9-4.4-1.4
		C182.3,42.8,182.6,43,182.7,42.8z"/>
	<path class="st189" d="M186.6,44.4c0.1-0.1,0.2-0.2,0.3-0.3c1.5,0.5,2.8,1.3,4.2,2.1c0,0.2,0,0.3-0.2,0.2
		C189.4,45.8,188,45.1,186.6,44.4z"/>
	<path class="st190" d="M173.7,25.2c1.2,0.7,1.2,2.1,1.7,3.2c-0.1,0.1-0.2,0.1-0.3,0.1c-0.7-0.4-0.9-1.1-1.2-1.8
		c-0.1-0.4-0.3-0.7-0.5-1c0-0.1-0.1-0.2-0.1-0.3C173.4,25.3,173.5,25.1,173.7,25.2z"/>
	<path class="st191" d="M173.7,25.2c-0.1,0.1-0.2,0.2-0.2,0.3c-0.8,0.1-1.3-0.3-1.5-1c-0.2-0.6,0.2-1,0.7-1.2c0.2,0,0.4,0.1,0.3,0.3
		c-0.1,0.1-0.2,0.3-0.3,0.4c0.1,0.2,0.2,0.3,0.2,0.5C173.2,24.8,173.4,25,173.7,25.2z"/>
	<path class="st192" d="M175.1,28.4c0.1,0,0.2,0,0.3,0c0.1,0.5,0.3,1,0.4,1.6c0.2,0.6,0.1,1.2,0.1,1.8c-0.1,0.1-0.2,0.2-0.3,0.1
		C175,30.8,174.8,29.7,175.1,28.4z"/>
	<path class="st193" d="M190.8,46.5c0.1-0.1,0.2-0.2,0.2-0.2c0.7,0.5,1.4,0.9,2.1,1.4c0.1,0.2,0,0.3-0.2,0.2
		C192.2,47.4,191.5,47,190.8,46.5z"/>
	<path class="st194" d="M173,23.6c-0.1-0.1-0.1-0.2-0.2-0.2c-0.4-0.3,0.1-0.6,0-0.9c0,0-0.1-0.1-0.1-0.1c0-0.1,0-0.1,0-0.2
		c0,0,0.1-0.1,0.1-0.1c0.3-0.1,0.5,0,0.6,0.3C173.5,22.9,173.3,23.3,173,23.6z"/>
	<path class="st195" d="M172.8,19.9c0.1-0.1,0.2-0.2,0.2-0.2c0.2,0.2,0.4,0.3,0.6,0.5c-0.2,0.2-0.2,0.5-0.2,0.7
		c-0.1,0.1-0.3,0.1-0.4,0.2c-0.1,0.1-0.2,0.1-0.3,0.1C172.4,20.7,172.8,20.3,172.8,19.9z"/>
	<path class="st196" d="M175.5,31.9c0.1,0,0.1,0,0.2,0c0.1,0,0.1,0.1,0.1,0.2c0,0.1,0,0.1,0,0.1c-0.2,0.3-0.5,0.6-0.7,0.9
		c-0.1-0.1-0.2-0.2-0.2-0.3C174.7,32.2,175.1,32,175.5,31.9z"/>
	<path class="st197" d="M172.5,22.4c-0.4-0.3-0.2-0.6,0-0.9c0.1-0.2,0.2-0.4,0.5-0.2c0.1,0.1,0.2,0.1,0.2,0.2
		c0.1,0.4-0.3,0.5-0.5,0.7l0,0C172.7,22.3,172.6,22.4,172.5,22.4z"/>
	<path class="st198" d="M175.8,32.2c0-0.1,0-0.2-0.1-0.3c0-0.6,0-1.3,0-1.9C176.1,30.7,176.1,31.5,175.8,32.2z"/>
	<path class="st199" d="M192.9,47.9c0.1-0.1,0.2-0.2,0.2-0.2c0.3,0.2,0.6,0.5,0.9,0.7c0.1,0.2,0,0.3-0.2,0.2
		C193.5,48.3,193.2,48.1,192.9,47.9z"/>
	<path class="st200" d="M180.6,42.3c0.4,0.1,0.8,0.2,1.1,0.3c0,0.4-0.2,0.3-0.5,0.2c-0.2-0.1-0.5-0.1-0.7-0.2
		C180.5,42.5,180.5,42.4,180.6,42.3z"/>
	<path class="st201" d="M172.7,22.2c0.2-0.2,0.3-0.5,0.5-0.7c0.4,0.2,0.2,0.6,0.2,0.9C173.2,22.3,173,22.3,172.7,22.2z"/>
	<path class="st202" d="M193.8,48.6c0.1-0.1,0.1-0.2,0.2-0.2c0.3,0.2,0.6,0.3,0.6,0.7C194.3,48.9,194.1,48.7,193.8,48.6z"/>
	<path class="st203" d="M178.7,41.9c0.3,0.1,0.5,0.1,0.8,0.2c-0.1,0.2-0.4,0.1-0.5,0.2c-0.3-0.1-0.7-0.1-1-0.2
		C178.2,41.8,178.5,42.1,178.7,41.9z"/>
	<path class="st204" d="M172.9,24.6c-0.2-0.1-0.5-0.2-0.2-0.5C173.1,24.1,173.3,24.2,172.9,24.6z"/>
	<path class="st205" d="M173.5,20.9c-0.3-0.3-0.4-0.6,0.2-0.7C173.8,20.4,173.7,20.7,173.5,20.9z"/>
	<path class="st206" d="M178.7,41.9c-0.2,0.1-0.5,0.2-0.7,0.2c-0.1,0-0.3,0-0.4-0.1c0.2-0.1,0.5-0.2,0.7-0.2
		C178.5,41.9,178.6,41.9,178.7,41.9z"/>
	<path class="st203" d="M179.9,42.1c0.2,0,0.3,0.1,0.5,0.1c0,0,0,0.1,0,0.1c-0.1,0-0.2,0.1-0.2,0.1c-0.3-0.1-0.5-0.1-0.8-0.2
		C179.5,42.1,179.8,42.3,179.9,42.1z"/>
	<path class="st188" d="M181.3,42.8c0.2-0.1,0.3-0.1,0.5-0.2c0.2,0.1,0.4,0.1,0.5,0.2c0,0.2-0.2,0.2-0.3,0.3
		C181.8,42.9,181.5,42.9,181.3,42.8z"/>
	<path class="st207" d="M173,21.3c-0.2,0.1-0.3,0.1-0.5,0.2c-0.1-0.1-0.2-0.1-0.2-0.2c0.1-0.2,0.2-0.3,0.4-0.3c0.1,0,0.2,0,0.3,0
		C173,21.1,173,21.2,173,21.3z"/>
	<path class="st206" d="M179.9,42.1c-0.2,0.1-0.3,0.2-0.5,0.2c-0.1,0-0.3,0-0.4-0.1c0.2-0.1,0.3-0.2,0.5-0.2
		C179.6,42.1,179.8,42.1,179.9,42.1z"/>
	<path class="st200" d="M182,43c0.1-0.1,0.2-0.2,0.3-0.3c0.1,0,0.3,0.1,0.4,0.1c-0.2,0.1-0.3,0.2-0.5,0.2C182.1,43,182.1,43,182,43z
		"/>
	<path class="st208" d="M180.6,42.3c0,0.1,0,0.2,0,0.3c-0.1,0-0.1,0-0.2-0.1c-0.1,0-0.1-0.1-0.1-0.1c0,0,0-0.1,0.1-0.1
		c0,0,0-0.1,0-0.1C180.5,42.3,180.6,42.3,180.6,42.3z"/>
	<path class="st206" d="M180.4,42.4c0,0.1,0,0.1,0,0.2c-0.1,0-0.2,0-0.2,0C180.2,42.5,180.3,42.4,180.4,42.4z"/>
	<path class="st154" d="M171.6,18.8c-0.1,0-0.2,0.1-0.3,0.1C171.4,18.9,171.5,18.9,171.6,18.8z"/>
	<path class="st13" d="M207.2,42.8c-0.1-0.6,0.2-1,0.7-1.3c1.5-1,2.8-2.1,4.3-3.1c2.7-1.6,4.7-3.8,6.4-6.3c0.1-0.2,0.3-0.4,0.5-0.6
		c0,0.2,0.1,0.5,0.1,0.7c-0.7,6.4-2.9,12-7.7,16.6c-1,1-1.6,0.8-2.3-0.3C208.1,46.8,207.5,44.9,207.2,42.8z"/>
	<path class="st61" d="M233.3,90.9c1,1.2,1,2.7,0.9,4.2c-0.1,0-0.2,0-0.2,0c-0.2-1.3-0.2-2.6-0.9-3.7
		C233.2,91.2,233.3,91,233.3,90.9z"/>
	<path class="st61" d="M234,95.3c-0.1,0.5,0.2,1.1-0.2,1.6C233.9,96.3,233.6,95.8,234,95.3z"/>
	<path class="st61" d="M232.4,90.4c0.1,0.1,0.1,0.1,0.2,0.2C232.6,90.6,232.5,90.5,232.4,90.4z"/>
	<path class="st61" d="M232.7,90.6c0.1,0.1,0.1,0.2,0.2,0.2C232.8,90.8,232.7,90.7,232.7,90.6z"/>
	<path class="st61" d="M232.9,90.9c0.1,0.1,0.1,0.2,0.2,0.2C233,91,232.9,91,232.9,90.9z"/>
	<path class="st61" d="M232.7,89.5c0.1,0.1,0.1,0.2,0.2,0.3C232.8,89.6,232.7,89.6,232.7,89.5z"/>
	<path class="st61" d="M232.9,89.9c0.1,0.1,0.1,0.2,0.2,0.3C233,90.1,233,90,232.9,89.9z"/>
	<path class="st61" d="M233.1,90.4c0.1,0.1,0.1,0.2,0.2,0.3C233.3,90.6,233.2,90.5,233.1,90.4z"/>
	<path class="st61" d="M234.3,95.3c0.1,0.3,0.1,0.6,0.2,0.9C234.2,95.9,234.3,95.6,234.3,95.3z"/>
	<path class="st209" d="M70.1,118.9c0.4-0.2,0.9-0.5,1.3-0.7c0.1-0.1,0.3-0.1,0.4,0c-0.5,0.3-1,0.6-1.4,0.8
		C70.2,119,70.1,119,70.1,118.9z"/>
	<path class="st210" d="M75,115.9c0.3-0.2,0.6-0.4,0.9-0.7c0.1,0,0.2,0.1,0.2,0.2c-0.3,0.2-0.6,0.4-0.9,0.6
		C75.1,116,75,116,75,115.9z"/>
	<path class="st211" d="M72.6,117.4c0.3-0.2,0.6-0.4,0.9-0.6c0.1-0.1,0.2-0.1,0.4,0c-0.4,0.3-0.9,0.6-1.3,0.8
		C72.5,117.6,72.5,117.5,72.6,117.4C72.6,117.4,72.6,117.4,72.6,117.4z"/>
	<path class="st212" d="M73.9,116.8c-0.1,0-0.2,0-0.4,0c0.3-0.2,0.5-0.3,0.8-0.5c0.1-0.1,0.2-0.1,0.3,0
		C74.4,116.5,74.2,116.7,73.9,116.8z"/>
	<path class="st213" d="M74,120.5c-0.2,0.2-0.5,0.3-0.7,0.5c-0.1-0.1-0.1-0.1,0-0.2c0-0.1,0-0.1,0.1-0.1c0.1-0.1,0.2-0.1,0.3-0.2
		C73.8,120.5,73.8,120.4,74,120.5C73.9,120.4,74,120.4,74,120.5z"/>
	<path class="st214" d="M70.1,118.9c0.1,0.1,0.2,0.1,0.2,0.2c-0.2,0.1-0.4,0.2-0.7,0.3c0-0.1,0-0.1,0-0.2c0.1-0.1,0.2-0.2,0.2-0.3
		C69.9,118.9,70,118.8,70.1,118.9z"/>
	<path class="st215" d="M71.7,117.9c0.2-0.1,0.5-0.3,0.7-0.4c0.1,0.1,0.1,0.1,0.1,0.2c0,0.1,0,0.1-0.1,0.1c-0.1,0.1-0.2,0.1-0.3,0.2
		C71.9,118,71.8,118,71.7,117.9z"/>
	<path class="st216" d="M74.7,116.3c-0.1,0-0.2,0-0.3,0c0.2-0.1,0.4-0.3,0.6-0.4c0.1,0.1,0.1,0.1,0.2,0.2
		C75,116.1,74.8,116.2,74.7,116.3z"/>
	<path class="st217" d="M76.1,115.4c-0.1-0.1-0.1-0.1-0.2-0.2c0.2-0.1,0.4-0.2,0.5-0.4C76.7,115.3,76.2,115.2,76.1,115.4z"/>
	<path class="st218" d="M76.8,118.4c0,0.3-0.2,0.4-0.5,0.4c-0.1,0-0.1-0.1-0.1-0.1c0,0,0.1-0.1,0.1-0.1
		C76.5,118.6,76.6,118.5,76.8,118.4z"/>
	<path class="st219" d="M76.3,118.7c0,0.1,0,0.1,0,0.2c-0.2,0.1-0.3,0.2-0.5,0.3C75.9,118.8,76.1,118.7,76.3,118.7z"/>
	<path class="st220" d="M75.9,119.1c-0.2,0.1-0.3,0.3-0.5,0.4c-0.1,0-0.1-0.1-0.1-0.1c0,0,0-0.1,0.1-0.1
		C75.6,119.3,75.7,119.2,75.9,119.1z"/>
	<path class="st221" d="M74.9,119.8c-0.2,0.1-0.3,0.2-0.5,0.2c0.2-0.1,0.3-0.3,0.5-0.4C75,119.6,75,119.7,74.9,119.8
		C75,119.8,75,119.8,74.9,119.8z"/>
	<path class="st222" d="M74.5,120c-0.2,0.1-0.3,0.3-0.5,0.4l0-0.1l0-0.1C74.2,120.2,74.3,120.1,74.5,120z"/>
	<path class="st223" d="M71.7,117.9c0.1,0,0.2,0,0.4,0c-0.1,0.1-0.2,0.2-0.3,0.2c-0.1,0-0.3,0-0.4,0C71.5,118.1,71.6,118,71.7,117.9
		z"/>
	<path class="st224" d="M72.4,117.7c0-0.1,0-0.2,0-0.3c0.1-0.1,0.1-0.1,0.2-0.1c0,0.1,0,0.2,0,0.2C72.5,117.7,72.5,117.7,72.4,117.7
		z"/>
	<path class="st225" d="M75.4,119.3c0,0.1,0,0.1,0,0.2c-0.1,0-0.1,0-0.2,0C75.2,119.5,75.3,119.4,75.4,119.3z"/>
	<path class="st226" d="M74.9,119.8c0-0.1,0-0.1,0-0.2c0.1,0,0.2,0,0.2,0C75.1,119.6,75,119.7,74.9,119.8z"/>
	<path class="st227" d="M74,120.3C74,120.3,74,120.4,74,120.3c-0.1,0.1-0.2,0.2-0.3,0.2C73.8,120.4,73.9,120.3,74,120.3z"/>
	<path class="st228" d="M73.3,120.7c0,0.1,0,0.2,0,0.2c-0.1,0-0.1,0-0.2,0C73.2,120.9,73.2,120.8,73.3,120.7z"/>
	<path class="st229" d="M71.5,114c0.1-1.4,1-1.9,2.7-1.7c0,0.1,0,0.2-0.1,0.2c-0.1,0.1-0.2,0.1-0.3,0.2c-0.1,0.1-0.2,0.1-0.3,0.2
		c-0.1,0.1-0.2,0.1-0.3,0.2l0,0c-0.2,0.1-0.3,0.2-0.4,0.3c-0.1,0.1-0.2,0.2-0.3,0.3c-0.1,0.1-0.2,0.2-0.4,0.3c-0.2,0-0.4,0-0.5,0.2
		C71.6,114.1,71.5,114.1,71.5,114z"/>
	<path class="st230" d="M74.7,112.2c0.2-0.2,0.4-0.3,0.6-0.5c0.1,0,0.2-0.1,0.2-0.1c0,0,0,0.1,0.1,0.1c-0.3,0.2-0.6,0.4-0.9,0.6
		C74.6,112.3,74.6,112.3,74.7,112.2C74.7,112.2,74.7,112.2,74.7,112.2z"/>
	<path class="st231" d="M73.6,112.8c0.1-0.1,0.1-0.2,0.2-0.2c0.1-0.1,0.2-0.1,0.3-0.1c0.1,0,0.2,0,0.2,0.1c-0.2,0.2-0.5,0.3-0.7,0.5
		C73.5,113,73.5,113,73.6,112.8C73.5,112.9,73.5,112.8,73.6,112.8z"/>
	<path class="st232" d="M75.6,111.4c0.2-0.1,0.3-0.1,0.5-0.2c-0.2,0.2-0.3,0.3-0.5,0.5c0,0,0-0.1,0-0.1
		C75.5,111.5,75.6,111.5,75.6,111.4z"/>
	<path class="st233" d="M72.9,113.3c0.2-0.1,0.3-0.1,0.5-0.2c0,0.3-0.3,0.3-0.5,0.4C72.8,113.5,72.8,113.4,72.9,113.3
		C72.8,113.3,72.8,113.3,72.9,113.3z"/>
	<path class="st234" d="M71.7,114c0.2-0.2,0.3-0.3,0.5-0.1c-0.2,0.1-0.4,0.2-0.6,0.3C71.6,114.2,71.6,114.1,71.7,114
		C71.7,114,71.7,114,71.7,114z"/>
	<path class="st235" d="M71,114.4c0.2-0.1,0.3-0.1,0.5-0.2c-0.2,0.2-0.3,0.3-0.5,0.5c0,0,0-0.1,0-0.1
		C70.9,114.6,70.8,114.5,71,114.4z"/>
	<path class="st236" d="M74.2,112.6c-0.1,0-0.1,0-0.2,0c-0.1,0-0.1-0.1,0-0.1c0,0,0-0.1,0.1-0.1c0.1,0,0.1,0,0.2-0.1
		c0.1,0,0.2,0,0.3,0.1C74.4,112.5,74.3,112.5,74.2,112.6z"/>
	<path class="st232" d="M76.3,111c0.1,0,0.2,0,0.3,0c-0.2,0.1-0.3,0.2-0.5,0.2C76.2,111.2,76.2,111.1,76.3,111z"/>
	<path class="st237" d="M74.7,112.2c0,0.1,0,0.1,0,0.2c-0.1,0-0.1,0-0.2,0.1C74.5,112.3,74.6,112.2,74.7,112.2z"/>
	<path class="st238" d="M73.6,112.8c0,0.1,0,0.2,0,0.2c-0.1,0-0.1,0-0.2,0C73.4,113,73.5,112.9,73.6,112.8z"/>
	<path class="st239" d="M72.9,113.3c0,0.1,0,0.1,0,0.2c-0.1,0.1-0.2,0.1-0.2,0.2C72.7,113.5,72.8,113.4,72.9,113.3z"/>
	<path class="st240" d="M71.7,114c0,0.1,0,0.1,0,0.2c-0.1,0-0.1,0-0.2,0.1c0-0.1,0-0.2,0-0.2C71.6,114,71.6,114,71.7,114z"/>
	<path class="st241" d="M73.8,109.6c0.1,0,0.2,0,0.3,0c-0.7,0.9-1.7,1.4-2.7,1.9c-0.1,0-0.2,0-0.3,0
		C71.9,110.8,72.8,110.2,73.8,109.6z"/>
	<path class="st242" d="M69.8,115.4c0-0.1,0-0.2,0-0.3c0.1-0.1,0.3-0.1,0.4-0.2c0.1-0.1,0.2-0.1,0.3,0
		C70.3,115.1,70.1,115.2,69.8,115.4z"/>
	<path class="st243" d="M70.6,114.9c-0.1,0-0.2,0-0.3,0c0.2-0.2,0.5-0.3,0.7-0.5c0,0.1,0,0.1,0,0.2
		C70.9,114.7,70.7,114.8,70.6,114.9z"/>
	<path class="st244" d="M75.6,111.4c0,0.1,0,0.1,0,0.2c-0.1,0-0.2,0.1-0.2,0.1C75.4,111.6,75.5,111.5,75.6,111.4z"/>
	<path class="st245" d="M67.7,102.9c0.2,0,0.4,0,0.5,0c-0.3,0.1-0.5,0.1-0.8,0.2c0-0.1,0-0.1,0-0.2
		C67.6,102.9,67.7,102.9,67.7,102.9z"/>
	<path class="st246" d="M73.8,102.7c0.1,0.1,0.1,0.2,0.2,0.3c-0.1,0.7-0.2,1.3-0.7,1.8c-0.1,0.1-0.2,0.1-0.2,0
		C73.4,104.1,73.6,103.4,73.8,102.7z"/>
	<path class="st247" d="M73.1,105.7c-0.1,0.1-0.2,0.2-0.2,0.2c-0.1,0.1-0.2,0.1-0.3,0c0.2-0.3,0.3-0.6,0.5-0.9
		c0.1,0.1,0.1,0.2,0,0.3C73.1,105.4,73.1,105.5,73.1,105.7z"/>
	<path class="st248" d="M72.6,105.9c0.1,0,0.2,0,0.3,0c-0.1,0.2-0.3,0.3-0.4,0.5c-0.1,0.1-0.2,0.1-0.2,0c0.1-0.1,0.1-0.3,0.2-0.4
		C72.5,105.9,72.5,105.9,72.6,105.9z"/>
	<path class="st249" d="M73.1,105.3c0-0.1,0-0.2,0-0.3c0-0.1,0-0.1,0.1-0.2c0.1,0,0.2,0,0.2,0C73.3,104.9,73.2,105.1,73.1,105.3z"/>
	<path class="st250" d="M76.3,102.9c0.1,0,0.1,0,0.2,0c-0.1,0.4-0.3,0.8-0.4,1.2c-0.1,0.1-0.2,0.1-0.2,0
		C76,103.7,76.1,103.3,76.3,102.9z"/>
	<path class="st251" d="M78,104.8c0,0.1,0,0.2,0,0.4c-0.1,0.1-0.3,0.2-0.4,0.3c0-0.4,0.2-0.7,0.5-0.9C78,104.6,78.1,104.7,78,104.8z
		"/>
	<path class="st252" d="M75.4,105.4c-0.1,0.1-0.2,0.2-0.3,0.2c-0.1,0.1-0.1,0.1-0.2,0c0.1-0.3,0.3-0.5,0.4-0.8
		c0.1,0.1,0.1,0.2,0,0.3C75.4,105.3,75.4,105.4,75.4,105.4z"/>
	<path class="st253" d="M75.4,105.2c0-0.1,0-0.2,0-0.3c0.1-0.1,0.1-0.3,0.2-0.4c0.1-0.1,0.2-0.1,0.3,0
		C75.7,104.8,75.5,105,75.4,105.2z"/>
	<path class="st254" d="M78.4,103.6c0,0.1,0,0.2,0.1,0.4c-0.1,0.1-0.1,0.3-0.2,0.4c-0.1,0.1-0.2,0.1-0.3,0
		C78.1,104.1,78.3,103.8,78.4,103.6z"/>
	<path class="st255" d="M75.8,104.5c-0.1,0-0.2,0-0.3,0c0.1-0.2,0.2-0.3,0.2-0.5c0.1,0,0.2,0,0.2,0C76,104.2,75.9,104.4,75.8,104.5z
		"/>
	<path class="st256" d="M78,104.3c0.1,0,0.2,0,0.3,0c-0.1,0.2-0.2,0.3-0.3,0.5c0-0.1,0-0.2,0-0.3C77.9,104.4,78,104.4,78,104.3z"/>
	<path class="st257" d="M77.5,105.4c0,0.1,0,0.2,0,0.2c-0.1,0.1-0.2,0.1-0.3,0c0-0.1,0.1-0.2,0.1-0.2
		C77.3,105.4,77.4,105.4,77.5,105.4z"/>
	<path class="st258" d="M74.9,105.7c0.1,0,0.1,0,0.2,0c-0.2,0.2-0.4,0.5-0.5,0.7c-0.1,0.1-0.2,0.1-0.3,0c0.1-0.2,0.3-0.5,0.4-0.7
		C74.8,105.7,74.9,105.7,74.9,105.7z"/>
	<path class="st259" d="M84.4,99.4c-0.4,0.7-0.7,1.4-1.1,2.1c-0.1-0.1-0.1-0.1-0.1-0.2c0-0.1,0-0.1,0.1-0.1c0.3-0.6,0.6-1.2,0.9-1.8
		C84.2,99.3,84.3,99.3,84.4,99.4z"/>
	<path class="st260" d="M81.2,101.1c0.1,0,0.2,0,0.2,0c0.1,0.1,0.1,0.2,0,0.3c-0.1,0.4-0.3,0.7-0.7,0.9c-0.1,0.1-0.1,0.1-0.2,0
		c0.1-0.2,0.3-0.5,0.4-0.7C81,101.4,81.1,101.2,81.2,101.1z"/>
	<path class="st261" d="M83.2,101.2c0,0.1,0,0.2,0,0.3c0,0.1,0,0.2,0,0.2c-0.2,0.1-0.3,0.2-0.5,0.2
		C82.9,101.7,83.1,101.5,83.2,101.2z"/>
	<path class="st262" d="M81.4,101.3c0-0.1,0-0.2,0-0.3c0-0.1,0-0.1,0-0.2c0.2-0.1,0.3-0.2,0.5-0.2C81.7,100.8,81.6,101.1,81.4,101.3
		z"/>
	<path class="st263" d="M84.4,99.4L84.4,99.4c-0.1,0-0.2,0-0.2,0c0-0.2,0.1-0.4,0.4-0.5C84.5,99.1,84.4,99.3,84.4,99.4z"/>
	<path class="st76" d="M81.9,100.6c0.1-0.2,0.2-0.3,0.2-0.5C82,100.3,82,100.4,81.9,100.6z"/>
	<path d="M80.2,102.7c0.1-0.1,0.2-0.2,0.3-0.3C80.4,102.5,80.3,102.6,80.2,102.7z"/>
	<path class="st264" d="M80.5,102.2c0.1,0,0.1,0,0.2,0c-0.1,0.1-0.2,0.2-0.3,0.2C80.5,102.4,80.5,102.3,80.5,102.2z"/>
	<path d="M71.2,107.6c0.1-0.1,0.2-0.2,0.3-0.3C71.4,107.4,71.3,107.5,71.2,107.6z"/>
	<path class="st265" d="M71.7,107.1c0.1-0.1,0.2-0.2,0.2-0.2C71.9,106.9,71.8,107,71.7,107.1z"/>
	<path class="st266" d="M72.2,106.4c0.1,0,0.2,0,0.2,0c-0.1,0.1-0.2,0.1-0.3,0.2C72.2,106.5,72.2,106.5,72.2,106.4z"/>
	<path class="st267" d="M74.2,106.8c-0.1,0-0.1,0-0.2,0c0.1-0.1,0.2-0.1,0.3-0.2C74.2,106.7,74.2,106.8,74.2,106.8z"/>
	<path class="st268" d="M71.9,106.8c0.1-0.1,0.2-0.2,0.2-0.2C72.1,106.7,72,106.8,71.9,106.8z"/>
	<path class="st269" d="M74.3,106.4c0.1,0,0.2,0,0.3,0c-0.1,0.1-0.2,0.2-0.3,0.2C74.3,106.5,74.3,106.5,74.3,106.4z"/>
	<path class="st60" d="M71.5,107.3c0-0.1,0-0.1,0-0.2c0.1,0,0.1-0.1,0.2,0C71.6,107.1,71.5,107.2,71.5,107.3z"/>
	<path class="st270" d="M75.2,107.9c0-0.1,0-0.2,0-0.3c0.3-0.2,0.6-0.5,0.9-0.7c0,0,0.1,0.1,0.1,0.1c0,0.1-0.1,0.1-0.1,0.2
		C75.8,107.4,75.5,107.6,75.2,107.9z"/>
	<path class="st271" d="M77.2,105.7c0.1,0,0.2,0,0.3,0c-0.2,0.2-0.4,0.5-0.6,0.7c-0.1,0.1-0.2,0.1-0.3,0
		C76.8,106.1,77,105.9,77.2,105.7z"/>
	<path class="st272" d="M76.6,106.4c0.1,0,0.2,0,0.3,0c-0.1,0.1-0.2,0.2-0.3,0.2c-0.1,0.1-0.1,0.1-0.2,0
		C76.4,106.5,76.5,106.5,76.6,106.4z"/>
	<path class="st273" d="M76.4,106.6c0.1,0,0.1,0,0.2,0c-0.1,0.1-0.2,0.2-0.2,0.2l-0.1,0c0,0-0.1,0-0.1,0
		C76.2,106.8,76.3,106.7,76.4,106.6z"/>
	<path class="st274" d="M76.2,106.9c0,0,0.1,0,0.1,0c-0.1,0.1-0.1,0.2-0.2,0.3C76.1,107,76.2,106.9,76.2,106.9z"/>
	<path class="st21" d="M94.8,55.5c0,0.1,0.1,0.1,0,0.2c0.2,0.6,0.1,1.2,0,1.8c-0.1,0.4-0.2,1-1,0.8c-0.3-0.2-0.5-0.4-0.8-0.7
		c-0.1,0.3-0.2,0.6-0.3,0.9c-0.7,1.4-1,3.3-3.3,2.6C88.9,61,89,61.5,89,61.8c-0.5,1.5-0.5,3.1-0.3,4.7c0,0.1,0,0.3,0,0.5
		c-0.1-0.1-0.2-0.2-0.3-0.3c-0.2-0.5-0.5-1-0.6-1.5c-0.5-3.9,0.4-7.4,3.2-10.2c1.4-1.4,2.6-1.3,3.6,0.2
		C94.7,55.2,94.7,55.4,94.8,55.5z"/>
	<path class="st275" d="M93.9,58.3c1-0.6,0.6-1.7,1-2.6c0.9,2.3,0.5,4.5-0.2,6.7c-0.5,0-0.3-0.3-0.3-0.5
		C94.4,60.7,94.4,59.5,93.9,58.3z"/>
	<path class="st276" d="M92.6,65.3c-0.2,0.2-0.4,0.4-0.6,0.6c-0.2,0.1-0.4,0-0.4-0.3c0-0.3,0.2-0.6,0.5-0.6
		C92.3,65,92.4,65.2,92.6,65.3z"/>
	<path class="st277" d="M94.3,61.9c0.1,0.2,0.2,0.3,0.3,0.5c-0.1,0.3-0.2,0.6-0.3,0.9c-0.2,0-0.3,0-0.2-0.2
		C94.2,62.7,94.2,62.3,94.3,61.9z"/>
	<path class="st278" d="M94.1,63.1c0.1,0.1,0.2,0.2,0.2,0.2c-0.1,0.2-0.1,0.6-0.4,0.5C93.7,63.7,93.9,63.3,94.1,63.1z"/>
	<path class="st275" d="M94.8,55.5c-0.1-0.2-0.1-0.3-0.2-0.5C94.7,55.2,94.7,55.4,94.8,55.5z"/>
	<path class="st13" d="M59.2,69.7c-2.7-2.7-3-8.8-0.5-11.7c1.8-2.1,4.2-1.5,5.5,1.2c-0.1,0.4,0.1,0.8,0.1,1.1
		c-0.1,0.5-0.1,1-0.8,0.8c-0.6-0.2-0.9-0.2-0.9,0.6c0,1.8-0.6,3.2-2.7,3.3c-0.5,0-0.4,0.4-0.4,0.7c-0.1,1,0,2,0.3,3
		C59.8,69.1,59.8,69.6,59.2,69.7z"/>
	<path class="st279" d="M63.3,61.1c1-0.3,0.1-1.4,0.8-1.9c0.6,0.7,0.8,1.6,0.9,2.5c0,0.5,0.4,1.1-0.2,1.4
		C64.5,62.3,64.1,61.6,63.3,61.1z"/>
	<path class="st280" d="M59.2,69.7c0.4-0.2,0.4-0.6,0.5-1c0.1,0.2,0.2,0.4,0.3,0.6c0.3,0.4,0.5,0.8,0.8,1.2
		C60.1,70.5,59.6,70.2,59.2,69.7z"/>
	<path class="st281" d="M64.8,63.1c0.4-0.4,0.1-1,0.2-1.4c0.4,0.9,0.3,1.9,0.2,2.8c-0.1,0.1-0.1,0.1-0.2,0
		C64.9,64.1,64.9,63.6,64.8,63.1z"/>
	<path class="st282" d="M63.3,68.8c-0.1-0.2-0.3-0.3-0.3-0.3c0-0.2,0.1-0.4,0.2-0.4c0.2-0.1,0.4,0,0.4,0.2
		C63.6,68.4,63.4,68.6,63.3,68.8z"/>
	<path class="st283" d="M65.2,65c0,0.2-0.1,0.3-0.1,0.5c0-0.2-0.1-0.3-0.1-0.5C65.1,64.9,65.1,64.9,65.2,65z"/>
	<path class="st284" d="M65.2,65L65.2,65c-0.1,0-0.2,0-0.2,0c0-0.2,0-0.3,0-0.5c0.1,0,0.1,0,0.2,0C65.2,64.7,65.2,64.8,65.2,65z"/>
	<path class="st21" d="M153.3,70.3c-0.4-0.2-0.6-0.4-0.8,0.3c-0.4,1.4-0.5,3.2-2.8,2.9c-0.3,0-0.3,0.5-0.3,0.8
		c-0.1,1.3,0.1,2.6,0.5,3.9c-0.1,0.1-0.2,0.1-0.3,0c-2.2-3.4-2.1-9,0.1-11.6c0.3-0.2,0.7-0.2,1,0c1.1,0.6,2.1,1.4,2.9,2.3
		C153.9,69.3,154.2,70,153.3,70.3z"/>
	<path class="st285" d="M153.3,70.3c0.4-0.3,0.4-0.9,0.1-1.1c-1.2-1-2.2-2.2-3.8-2.6c1-1.1,2.1-0.9,3.1,0.1c1.2,1.2,1.8,2.6,2,4.2
		c0.1,0.2,0,0.5,0.2,0.8c0,0.1,0,0.1,0,0.2c0.1,0.2,0.1,0.3,0,0.5c-0.1,0.1-0.2,0.1-0.3,0l0,0c-0.1-0.1-0.1-0.3-0.2-0.5
		C154.1,71.4,153.7,70.9,153.3,70.3z"/>
	<path class="st286" d="M154.9,72.3c0-0.1,0-0.3,0.1-0.4c0.3,0.5,0.2,1.1,0.2,1.6c-0.1,0.1-0.1,0.1-0.2,0c-0.1-0.3-0.2-0.6-0.2-0.9
		C154.8,72.5,154.9,72.4,154.9,72.3z"/>
	<path class="st287" d="M154.8,76.6c-0.5,0.3-0.6,0.4-0.8,0.4c-0.2,0-0.3-0.2-0.3-0.4c0.1-0.1,0.2-0.3,0.4-0.3
		C154.3,76.4,154.5,76.5,154.8,76.6z"/>
	<path class="st288" d="M150.3,78.8c0.2,0.2,0.4,0.3,0.2,0.6c-0.2-0.1-0.3-0.3-0.5-0.4C150.2,79,150.2,78.9,150.3,78.8z"/>
	<path class="st289" d="M149.6,78.2c0.1,0,0.2,0,0.3,0c0.1,0.2,0.2,0.3,0.2,0.5c-0.1,0.1-0.2,0.1-0.3,0
		C149.8,78.5,149.7,78.3,149.6,78.2z"/>
	<path class="st290" d="M149.8,78.6c0.1,0,0.2,0,0.3,0c0.1,0.1,0.1,0.2,0.2,0.2c-0.1,0.1-0.2,0.1-0.2,0.2
		C150,78.9,149.9,78.8,149.8,78.6z"/>
	<path class="st291" d="M154.9,71.7c-0.2-0.2-0.3-0.5-0.2-0.8C154.8,71.2,154.9,71.4,154.9,71.7z"/>
	<path class="st292" d="M155,73.5c0.1,0,0.1,0,0.2,0c0,0.2-0.1,0.3-0.1,0.5C155,73.8,155,73.7,155,73.5z"/>
	<path class="st291" d="M154.5,71.9c0.1,0.2,0.1,0.3,0.2,0.5C154.6,72.2,154.6,72.1,154.5,71.9z"/>
	<path class="st291" d="M154.9,72.3c-0.1,0.1-0.1,0.2-0.2,0.3c0-0.1,0-0.1,0-0.2C154.8,72.4,154.8,72.4,154.9,72.3z"/>
	<path class="st13" d="M172.8,22.5c0.4,0.3,0,0.6,0,0.9c-1.6,1.2-0.1,1.5,0.6,2.1c0,0.1,0,0.1,0,0.2c0.9,1.9,1.3,4,1.5,6.1
		c0,0.4-0.2,0.8-0.3,1.2c-0.7,0.9-1.6,1.3-2.6,0.4c0.1-0.5,0.2-1,0.2-1.5c0.3-1.1,0.3-2.2,0-3.3c0-0.1,0-0.3-0.1-0.4
		c-0.1-0.3-0.2-0.6-0.4-1c0,0,0,0,0,0c-0.2-0.1-0.1-0.3-0.2-0.5l0,0c-0.3-0.5-0.7-0.8-0.8,0.1c-0.1,0.5,0,1,0,1.5
		c0,1.6-0.1,3.2-0.1,4.7c0,0.3,0,0.6,0,0.9c0,0.2,0,0.5,0,0.7l0,0c-1.1,0.1-2.1,0.3-3.2-0.1c0.2-1-0.7-0.9-0.9-0.5
		c-0.9,1.5-2.1,0.7-3.2,0.7c0.1-0.5,0-0.9,0.1-1.4c0.1-0.7-0.1-1.5,0.1-2.2c0-1.3,0.1-2.5,0.1-3.8c0-0.4,0.3-1.1-0.2-1.2
		c-0.3-0.1-0.6,0.6-0.8,1c-0.5,0.7-0.6,1.5-0.7,2.3c-0.1,0.2-0.1,0.3-0.2,0.5c-0.3,1.1-0.2,2.1,0.4,3c-0.4,1.4-1.3,1.8-2.4,0.9
		c-1.3-1-2.2-2.1-1.4-3.8c0-0.1,0-0.1,0-0.2c0-0.1,0-0.1,0.1-0.2c0.1-0.1,0.1-0.1,0.1-0.2c0.5-0.5,0.3-1.3,0.6-1.9
		c0.2-0.2,0.3-0.5,0.5-0.7c0.2-0.3,0.5-0.6,0.7-0.9c0.2-0.2,0.3-0.5,0.5-0.7c0.3-0.2,0.6-0.5,0.9-0.7c0.8-0.3,1.1-0.6,0.3-1.3
		c-0.3-0.3-0.7-0.8-0.1-1.2c0.1,0.1,0.2,0.1,0.3,0.2c0.1,0.1,0.3,0.2,0.4,0.3c0.4,0.3,0.8,0.5,1.3,0.2c0.5-0.3,0.1-0.8,0.2-1.2
		c0.2-0.1,0.5-0.2,0.7-0.2c0.3,0,0.6,0,0.9,0c0.8,0.4,1.4,0.1,2-0.3c0.4,0.2,0.8,0.3,1.2,0.5c0.2,0.1,0.3,0.2,0.5,0.3
		c0.2,0.2,0.3,0.5,0.7,0.5c0.1,0,0.2,0,0.2,0c0.2,0.1,0,0.4,0.2,0.5C171.3,23.6,172,22.7,172.8,22.5z"/>
	<path class="st143" d="M158.4,29.6c0,0.1-0.1,0.2-0.1,0.4l0-0.1C158.3,29.8,158.3,29.7,158.4,29.6z"/>
	<polygon class="st7" points="158.3,29.9 158.3,30 158.3,29.9 	"/>
	<path class="st293" d="M170.9,20.8c-0.1-0.2-0.1-0.5-0.2-0.7c0.6,0.4,0.7-0.2,0.9-0.5c0.2-0.1,0.3,0,0.3,0.1c0,0.1,0,0.3,0,0.4
		c0,0.1,0.1,0.2,0.1,0.3c0.1,0.1,0.1,0.2,0.1,0.3c0,0.2,0,0.4-0.2,0.5c-0.1,0.1-0.1,0.1-0.2,0.2c-0.1,0-0.2-0.1-0.3-0.1
		c0-0.1-0.1-0.1-0.2-0.1C171.2,21.2,171.1,21,170.9,20.8C170.9,20.8,170.9,20.8,170.9,20.8z"/>
	<path class="st294" d="M172.1,21.3c0-0.2,0-0.5,0-0.7c0.1-0.1,0.1-0.2,0.3-0.2c0.1-0.2,0.2-0.3,0.2-0.5c0-0.1,0.1-0.1,0.2,0
		c0,0,0,0,0,0c0.3,0.4,0.3,0.8,0,1.1c-0.1,0.1-0.3,0.2-0.4,0.3C172.2,21.3,172.1,21.3,172.1,21.3z"/>
	<path class="st295" d="M170.9,20.8c0.2,0.1,0.4,0.3,0.5,0.4c-0.1,0-0.2,0-0.3,0c-0.1-0.1-0.1-0.1-0.2-0.2
		C170.9,21,170.9,20.9,170.9,20.8z"/>
	<path class="st167" d="M170.4,22.6c-0.1-0.2-0.1-0.3-0.2-0.5C170.7,22.1,170.4,22.5,170.4,22.6z"/>
	<path class="st295" d="M171.6,21.3c0.1,0,0.2,0.1,0.3,0.1C171.8,21.4,171.7,21.4,171.6,21.3z"/>
	<path class="st296" d="M172.5,22.4c0.1-0.1,0.2-0.1,0.2-0.2c0,0.1,0,0.1-0.1,0.2C172.6,22.4,172.6,22.4,172.5,22.4z"/>
	<path class="st297" d="M174.7,32.9c0-2.5-0.8-4.8-1.2-7.3c0.9,0.7,1,1.9,1.6,2.8c0.3,1.1,0.5,2.3,0.4,3.5c-0.2,0.3-0.5,0.6-0.7,0.9
		C174.8,32.9,174.7,32.9,174.7,32.9z"/>
	<path class="st168" d="M167.5,34.3c1.1,0.3,2.1,0.1,3.2,0.1c-1,0.5-2.2,0.1-3.2,0.2C167.4,34.6,167.5,34.5,167.5,34.3z"/>
	<path class="st298" d="M163.5,33.3c0.1,0.4,0.1,0.9-0.2,1.3c0-0.2-0.1-0.4-0.1-0.5c0-0.3,0-0.5,0.1-0.8
		C163.4,33.2,163.4,33.2,163.5,33.3z"/>
	<path class="st299" d="M163.5,33.3c-0.1,0-0.1,0-0.2,0c0-0.8,0-1.5,0-2.3c0.1,0,0.1,0,0.2,0C163.5,31.8,163.5,32.5,163.5,33.3z"/>
	<path class="st300" d="M171.8,19.9c-0.1-0.1-0.2-0.2-0.3-0.2c-0.1,0-0.2,0-0.2,0c0.1-0.8,0.5-0.6,0.9-0.2c-0.1,0.1-0.1,0.2-0.2,0.3
		c0,0.1-0.1,0.1,0,0.2C172,20,171.9,20,171.8,19.9z"/>
	<path class="st301" d="M171.8,19.9c0.1,0,0.1,0,0.2,0c0,0.1,0.1,0.3,0.1,0.4c0,0.1,0,0.1,0,0.2c-0.1,0-0.2,0-0.2-0.2
		C171.9,20.2,171.9,20,171.8,19.9z"/>
	<path class="st301" d="M172.7,19.9c-0.1,0-0.1,0-0.2,0c0-0.1,0-0.1,0.1-0.2C172.6,19.8,172.7,19.9,172.7,19.9z"/>
	<path class="st301" d="M172.3,20.4c-0.1,0.1-0.2,0.1-0.3,0.2c0,0,0,0,0,0c-0.1,0-0.1-0.1-0.1-0.1c0-0.1,0-0.1,0.1-0.1
		c0,0,0.1-0.1,0.1-0.1C172.2,20.3,172.3,20.4,172.3,20.4z"/>
	<path class="st301" d="M172.1,19.7c0.1-0.1,0.1-0.2,0.2-0.3C172.2,19.5,172.1,19.6,172.1,19.7z"/>
	<polygon class="st302" points="159.4,26.8 159.4,26.7 159.4,26.7 	"/>
	<path class="st128" d="M171.6,26.5c0.1,0.2,0.2,0.3,0.2,0.5c-0.1,0-0.2,0-0.3,0C171.6,26.9,171.6,26.7,171.6,26.5z"/>
	<path class="st23" d="M74,112.4c0,0.1,0,0.1,0,0.2c-0.1,0-0.2,0-0.3,0C73.8,112.5,73.9,112.5,74,112.4z"/>
	<path class="st303" d="M169.3,26.4c0,0.4-0.3,0.7-0.6,0.5c-0.5-0.4-0.4-0.9-0.1-1.5c0.1,0,0.2,0.1,0.2,0.2c0.1,0.2,0.2,0.4,0.3,0.6
		C169.2,26.2,169.2,26.3,169.3,26.4z"/>
	<path class="st304" d="M169.3,26.4c-0.1,0-0.1,0-0.2,0c-0.4-0.2-0.2-0.7-0.5-0.9c0,0-0.1-0.1-0.1-0.1
		C169.3,25.1,169.4,25.2,169.3,26.4z"/>
	<path class="st305" d="M165.3,26.6c-0.3-0.6-0.5-1.2,0.3-1.6c0.1,0.1,0.1,0.2,0.2,0.3c0,0.4-0.1,0.8-0.2,1.2
		C165.5,26.5,165.4,26.6,165.3,26.6z"/>
	<path class="st306" d="M166,25.2c0.4,0.5,0.4,0.9,0,1.4c0,0-0.1-0.1-0.1-0.1c-0.1-0.1-0.1-0.2-0.1-0.3c-0.1-0.3,0-0.5,0-0.8
		C165.9,25.4,166,25.3,166,25.2z"/>
	<path class="st307" d="M166,25.2c0,0.1,0,0.2,0,0.3c-0.2,0.1-0.3-0.1-0.4-0.3c0-0.1,0-0.1,0-0.2C165.7,25.1,165.9,25.1,166,25.2z"
		/>
	<path class="st308" d="M166,26.6c-0.2,0.3-0.5,0.4-0.7,0c0,0,0-0.1,0.1-0.1c0.1-0.1,0.2-0.1,0.4-0.1c0.1,0,0.2,0.1,0.2,0.1
		C166,26.6,166,26.6,166,26.6z"/>
	<path class="st294" d="M172.1,20.4c0,0.1,0,0.1,0,0.2c-0.1-0.1-0.1-0.2-0.2-0.3C171.9,20.3,172,20.3,172.1,20.4z"/>
	<path class="st309" d="M168.6,25.4c0.7,0,0.4,0.6,0.5,0.9C168.1,26.5,168.8,25.7,168.6,25.4z"/>
	<path class="st310" d="M165.8,26.6c-0.1,0-0.3,0-0.4-0.1c0-0.4-0.1-0.9,0.2-1.3c0.1,0.1,0.3,0.2,0.4,0.3c0,0.3,0,0.6,0,0.9
		C166,26.4,165.9,26.5,165.8,26.6z"/>
	<path class="st311" d="M165.8,26.6c0.1-0.1,0.1-0.2,0.2-0.2c0,0.1,0,0.2-0.1,0.2C165.9,26.6,165.9,26.6,165.8,26.6z"/>
</g>
</svg>
