<?xml version="1.0" encoding="utf-8"?>
<!-- Generator: Adobe Illustrator 23.0.6, SVG Export Plug-In . SVG Version: 6.00 Build 0)  -->
<svg version="1.1" id="Calque_1" xmlns="http://www.w3.org/2000/svg" xmlns:xlink="http://www.w3.org/1999/xlink" x="0px" y="0px"
	 viewBox="0 0 2804.3 2463.1" style="enable-background:new 0 0 2804.3 2463.1;" xml:space="preserve">
<style type="text/css">
	.st0{opacity:0.28;}
	.st1{fill:#010101;}
	.st2{fill:#3BA5FF;}
	.st3{fill:#FFFFFF;}
	.st4{fill:#55B1FF;}
	.st5{fill:#2C7CBD;}
	.st6{fill:#2C7ABD;}
	.st7{fill:#BDBDBD;}
	.st8{fill:#CFCFCF;}
	.st9{fill:#D6D6D6;}
	.st10{fill:#3F83BD;}
	.st11{fill:#FEFEFE;}
	.st12{fill:#CECFCF;}
	.st13{fill:#BCBCBC;}
	.st14{fill:#2C7BBB;}
	.st15{fill:#ACACAC;}
	.st16{fill:#2C7BBC;}
	.st17{fill:#2B7ABA;}
	.st18{fill:#3E82BC;}
	.st19{fill:#3D81BA;}
	.st20{fill:#EEECEC;}
	.st21{fill:#607F9A;}
	.st22{fill:#3BA7FF;}
	.st23{fill:#3BA6FE;}
	.st24{fill:#101216;}
	.st25{fill:#2972AF;}
	.st26{fill:#3999E9;}
	.st27{fill:#0F1116;}
	.st28{fill:#3596E9;}
	.st29{fill:#010202;}
	.st30{fill:#3AA3FC;}
	.st31{fill:#03070A;}
	.st32{fill:#091A28;}
	.st33{fill:#458ECC;}
	.st34{fill:#4797DB;}
	.st35{fill:#55B3FF;}
	.st36{fill:#020609;}
	.st37{fill:#0A1E2E;}
	.st38{fill:#194972;}
	.st39{fill:#E3E3E3;}
	.st40{fill:#020202;}
	.st41{fill:#E8ECEC;}
</style>
<ellipse class="st0" cx="1373.7" cy="2352" rx="1302.2" ry="81.4"/>
<g>
	<path d="M2675.6,1461.9c-8.9-34.2-13.9-66.6,10.5-98.4c15.4-20.1,14.8-44.1,2.5-68c-24.4-47.3-46.2-96-71-143.1
		c-47.9-90.9-108.9-173.7-146.2-271.8c-35-92.1-114.1-154.1-192.6-212c-32.4-23.9-67.3-42.7-107.5-50c-5.5-2.6-11.2-1.3-16.9-1.2
		c-12.4,2.3-21.9,10.8-33.2,15.5c-1.8,0.7-3.5,1.4-5.2,2.4c-2.5,1.5-5.2,2.6-7.8,4c-12.3,4.6-25.1,8.2-36.7,14.7
		c-4.9,2.8-11.8,5.8-9.2,13.2c2.3,6.8,9.2,6.4,15.2,6.3c12.1-0.3,23.1-4.8,34.5-8.2c21.1-6.3,37.5-22.3,59.1-27.3
		c23.6,3.3,44.2,13.8,63.7,26.7c49.1,32.5,94.5,69.7,135.1,112.2c51.1,53.4,95,111.8,110.4,186.7c1.5,7.3,5.6,13.4,9.7,19.6
		c66.6,99.2,125.9,202.5,175.1,311.6c10.4,23,11.2,43.5-3,64.1c-11.9,17.3-15.3,36.3-14.7,56.9c0.7,20.9,5.3,40.9,10.4,61
		c10.8,42.6,21.8,85.1,28.8,128.6c10.4,64.5,19.6,129.1,16.9,194.8c-1.4,34.9-6.5,69.1-21.9,100.9c-12.2,25-32.5,36.1-60.1,33.2
		c-8-0.8-15.9-1.7-23.9-1.4c-29.4,0.9-53,11.2-66.6,39.3c-8.5,17.5-20.5,32.8-32.4,48c-58.8,75.3-126.3,139.2-222,165.3
		c-39.2,10.7-78.2,15.1-118.5,6.1c-25.9-5.8-44.4-20-57.8-42.2c-15.7-25.9-15.1-54.5-16-83.3c-0.7-19.5,4.4-33.1,23.5-41.2
		c12.2-5.1,23.2-13.1,34.3-20.4c5-4,10.2-7.6,15.8-10.7c1.7-1.4,3.6-2.6,5.5-3.6c13.5-12.3,30.3-15.1,47.6-18.1
		c51.9-8.7,75.1-39.9,69.2-91.5c-12.2-107.2-28.1-213.9-41.4-320.9c-12.3-98.3-26.4-196.3-39.1-294.5
		c-7.6-58.6-15.6-117.1-23.5-175.6c-11-69.2-52.5-91.7-93.4-80.3c-16.4,2.7-32.7,5.5-49.2,6.8c-5.2,0.4-11.4,0.6-14-5.2
		c-3.1-7,3.7-8.9,7.6-11.8c8.6-6.4,16.3-13.7,21.5-23.1c2.9-5.2,6.3-11.2,1.2-16.5c-5.8-5.9-12.7-3.2-18,1
		c-11.9,9.5-23.7,19.1-38,25c-6.8,2.8-13.6,7.7-15.7,14.6c-7.5,24.2-25.9,28.9-47.9,29.8c-13.2,0.6-26.2,3.6-39.5,4.2
		c-54.8,7.4-109.8,13.1-164.7,20.1c-17.1,2.2-18.4,1.1-11.8-15c17.5-42.7,18.7-87.1,13.8-131.8c-4.1-37-15.5-72-42.1-99.5
		c-31-32.2-68.3-29.6-96.1,5.4c-5,6.3-9.1,13.2-12.4,20.5c-31.8,71.2-29.7,142.3,1.2,213.1c10.2,23.4,10.8,23.1-13.5,26.5
		c-50.8,7.1-102,11.7-152.9,18.1c-37.6,4.8-75.1,9.7-112.8,13.1c-104.3,12.1-208.6,24.3-312.8,37.3c-3.2,0.7-6.2,2.5-9.5,2.7
		c-52.1,2-103.4,11.5-155.2,17.1c-40.7,7.2-39.4,7.1-41.6-32.6c-2.1-37.8-2-76-13.3-112.8c-4.4-14.3-10-28.1-23.5-35.9
		c-14.4-8.4-29.4-15.5-41.8-27c-3.9-3.6-9.4-6.2-14.6-2.5c-6.1,4.3-4.6,10.5-2.2,16.3c5.1,12.2,15.1,20.1,25.8,27
		c7.4,4.8,10,9.9,3.6,17.8c-33.3,41.6-56.9,88.6-73.1,139c-8.6,26.9-23.7,38.4-52,39c-20.3,0.5-43.1-1.4-60.4,10.4
		c-20.6,14-40.4,20.5-64.9,13.7c-6.9-1.9-16.5-1.5-19.1,9.3c1.4,4.3,4.4,7.1,8.3,9c6.1,2.7,12.1,5.8,18.6,7.2
		c14.5,3.1,19.8,11.2,16.6,26c-2.3,10.5-0.3,21.2,0.9,31.8c2.9,25.8,4.8,51.7,8.5,77.4c1.7,11.9-1.9,14.4-12.8,10
		c-9.9-4-19.9-7.9-30.5-9.3c-10.8-1.4-20.8-0.6-19.4,14.7c7.1,13.7,21.4,16.9,33.8,22.7c119.2,44.9,202.4,129.1,255.2,242.6
		c47.7,102.3-10.5,206.2-96.7,248.6c-52.8,26-109.5,41.1-167.4,51.8c-79.1,14.6-156.3,8-227.7-28.1c-39.4-19.9-77.4-44.7-113.6-69.6
		c-65.3-44.8-86.5-113.5-73.5-191.8c1.4-8.5,3-17,3.4-25.7c2.2-44.6,7.2-88.9,18.9-132.2c5.9-21.8,11.2-43.9,16.3-65.9
		c7.6-32.9,7.9-64.4-13-93.7c-12.6-17.7-12.4-37.2-1.9-56.7c7.8-14.6,13.4-30.4,20.7-45.3c8.8-19.9,19.2-39,29.5-58.1
		c4.3-11.9,10.3-23,16.4-34.1c33.7-61.2,71.8-119.7,109.8-178.3c4.4-6.7,9.4-13.2,10.1-21.4c2.8-35.3,21.5-63.8,39-92.8
		c35.2-62,85.6-110.3,140.4-154.4c32.1-25.9,63.6-52.8,103-68.1c19.5-7.6,35.9-7.8,54.3,4.4c19.9,13.3,42.6,22.1,67.1,24.3
		c5.3,0.5,11.5,0.1,14.3-5.1c3.3-6.2-2-9.5-6.4-12.6c-1.8-0.7-3.6-1.7-5.4-2.4c-29.7-10.1-55-30.5-86.2-37.2
		c-5.8,2.5-12.4,1.3-18.3,3.8c-13.8,4.5-28.3,7.6-41.4,13.8c-72.5,34.1-131.4,86.5-183.6,145.5c-48.1,54.4-92.2,112.7-99.6,189.5
		c-0.3,3.6-3.5,7-5.8,10.2c-72,97.4-128,204-179,313.5c-12.7,27.2-13,52.4,4.1,75.3c18.9,25.3,18.5,51.3,11.1,79.3
		c-18,68.3-31.3,137.6-43.8,207.1c-15.6,86.7,3.3,162.5,69.4,221.3c34,30.3,77.9,48.4,117.2,71.5c104.2,61.4,216.7,55.5,329.2,22.8
		c24.2-7,33,2.7,35.1,25.1c3.7,39.1,7.9,78.2,12.3,117.3c4.8,43.2,35.3,67.6,78.8,62.6c25.1-2.9,50.3-6.3,75.2-10.7
		c14.2-2.5,18.3-0.2,15.9,15.7c-6.5,43.5-23.7,83-41.5,122.5c-8.6,19.1-9.4,38,10.8,51.2c25.9,16.9,54.2,29,84.7,33.7
		c128.2,19.8,257.1,26.6,386.6,19.6c19.2-1,38.3-4.4,56.3-12.6c18.9-8.6,28.9-22,29.2-43.3c0.4-28.2,8.9-55,15.6-82.2
		c5-20.2,16.1-26.8,35.7-24.8c30.3,3,60.4,10.2,91.3,6.7c9.5-1.1,13.9,5.8,16.7,14.1c9.7,28.5,18.7,57.5,18.9,87.5
		c0.3,30.3,15.7,45.4,42.1,52.5c14.7,3.9,29.9,6.7,45.1,7.9c95.2,7.5,190.1,1.9,285-6.4c52.4-4.6,104.9-7.3,153.9-29.5
		c51.2-23.2,58.6-37.7,34.5-85.1c-44.8-88-40.7-183.2-44.2-277.5c-0.3-8.3,0.5-15.4,11.9-16.8c9.9-1.2,15.5,0.5,20.3,10.2
		c8.6,17.3,17.9,35.6,40.4,37.6c12.8,1.1,16.3,3.6,14.6,18.2c-9.8,86.6,31.4,147.9,104.6,156.7c35.2,4.3,70.5,2.7,105.2-6
		c126.8-32,209.7-119.1,277.9-223.5c16.4-25.1,36.5-33.4,63.7-30.2c49.1,5.8,76.3-10.2,94.1-56.3c14.2-36.6,18.9-74.8,19.1-113.7
		C2725.6,1674.6,2703.1,1567.8,2675.6,1461.9z M697.7,1183c-50.8,5.1-50.3,5.2-32.9-42.7c15.5-42.9,36.5-82.6,63.5-119.2
		c3.4-4.6,8.5-8,12.7-12c2.2,5.5,5,10.8,6.6,16.4c8.5,29,9.3,59,10.5,88.9C760.4,1176.7,760.4,1176.7,697.7,1183z M1997.8,1027.8
		c-4.5,0.7-8.2-0.4-6.5-6.1c0.8-2.6,3-4.9,5.6-8.8c3.5,4.6,6.9,7.3,7.7,10.6C2005.6,1028.2,2000.7,1027.4,1997.8,1027.8z"/>
	<path class="st1" d="M2171.3,618.6c-5.6,1.5-11.2,3-16.8,4.4c-4-4.4-8.9-7.8-13.4-11.6c-3.9-3.4-9.7-4.9-11.4,0.9
		c-4.6,15.4-17,12-27.6,12.6c-11.9,0.8-23.7-1.1-35.2-4.3c-6.3-1.8-13.1-3.4-13.7-11.9c2.3-5.4,7.2-6.6,12.2-7.4
		c20.4,2.8,36.4-3.9,52.2-17.7c19.6-17.1,44.9-25.8,68.3-37c49.4-23.7,93.4-53.5,122.5-101.9c11.5-19.1,19.8-39.1,24.8-60.7
		c16.9-73.6,21.1-147.5,5-221.8c-1.1-5.2-1.9-10.5-3.8-15.5c-4.5-11.6-11.2-11.9-19.4-3.5c-6.1,6.3-9.7,14.3-14.7,21.3
		c-16.6,36.2-33,72.6-59.8,102.9c-63.1,67.3-143.6,97.9-232.8,110.5c-30.9,4.4-62,6.7-92.9,11.1c-5.9,0.8-11.8,2-17.6,3.6
		c-33.7,9.2-36.6,15.2-23.1,47.4c4.9,15.4,16.8,27.7,19.7,43.9c-0.3,4.5-2.1,7.9-6.8,9.3c-12,0.1-16.8-9.2-22.1-17.4
		c-12.1-18.3-19.2-38.9-26.6-59.4c-1.5-5.8-2.9-11.7-3.4-17.5c-1-10.7,2-17,15.2-17.6c22.6-1,42.4-13.8,64.3-18.5
		c8.5-1.8,4.1-8.2-0.5-11.5c-12.5-9-26.6-14.7-41.3-19.5c-37.9-12.4-75.5-25.1-109.5-47.2c-29.7-19.3-50.9-46.7-72.3-73.6
		c-37-46.6-76.8-90-128.7-120.5c-23.6-13.9-48.7-24.1-75.3-30.7c-71.1-23.9-144.5-27.8-218.6-25.9c-5.7,0.1-13.2-1.5-15.8,5.4
		c-2,5.3,2.9,9.9,6.1,14c18.1,23.2,40.8,41.9,60.5,63.4c15,16.4,15.4,24.2,3.2,44.2c-5.7,5.9-12.7,9.6-20.8,11
		c-9.2,1.5-19.5,3.4-26.4-4.2c-7.2-7.9,3.7-14.2,4.6-21.6c1.6-2.7,3.3-5.1,6.9-3.2c7.5-1.4,15.1,11.3,21.5,1.9
		c7.1-10.4-5-15.2-10.5-20.3c-24.5-22.8-46-48.2-65.8-75c-14-18.9-9.1-32.6,14.4-34.1c173.8-11.3,332.3,19.3,446.7,167.2
		c13.4,17.4,25.3,43.2,42.8,48.2c19.1,5.4,31.2-24.6,48.4-36.9c23.5-16.7,47.4-32.2,74.8-41.2c10.2-3.3,22-4.6,30.2,3.9
		c8.7,9,1.2,18.8-2.3,27.8c-12.8,32.1-30.6,62.2-38,96.4c-1.7,7.9-8.4,19.1,1,23.5c11.7,5.5,23.7,15.1,39,7.7
		c55.7-27,55.7-26.8,62.2,35.7c0.8,8.2-1.1,17.9,13.4,15.9c69.4-9.2,138.4-18.1,199.3-57.9c49.1-32.1,84.2-74.8,107-128.3
		c8.4-19.7,17.9-38.8,33.6-53.8c18.6-17.8,40.4-14.2,46.1,10.4c27.3,117.6,32.1,233.7-36.4,341c-32.7,51.2-85.7,76.4-138.2,101.3
		C2144.2,591.3,2143.7,595.3,2171.3,618.6z"/>
	<path class="st1" d="M1286.6,142.8c-1.5,1.6-3,3.2-4.5,4.8c-9.6,7.3-19.1,2.2-28.3-0.7c-44.5-14-90.5-18.5-136.6-21.8
		c-67.9-0.5-135.7,0.8-202.9,12.6c-45.4,8-89.5,20.4-132.8,36.2c-8.1,3-16,6.6-23.6,10.8c-6.7,3.8-16.3,6.3-15.8,15.9
		c0.4,8.5,9.3,10.4,15.8,13.4c13.3,6.2,26.7,12.1,40.1,18c18.9,8.3,37.4,17.8,53.7,30.6c17.3,13.7,19.4,26.4,7.8,45.2
		c-6.6,10.8-13.5,21.3-17.8,33.4c-3.7,10.5-1.3,17.7,9.2,22.7c13.9,6.6,27.6,13.1,43.6,10.2c8.6,9,6.8,20.4,4.3,30.3
		c-8.8,35.4-25.3,67.1-50.2,94.1c-3.2,3.5-7.2,6-12,6.8c-3.3,0.1-6-1-7.9-3.8c-3.2-9.8,2.9-16.5,7.9-23.4c7.4-10.3,14-21,20.3-32
		c1.9-3.3,3.9-6.6,4.7-10.4c0.6-1.9,1.2-3.7,2-5.6c10.6-27.9,8.3-32.8-19.8-41.6c-23.1-7.3-47.1-8.2-70.9-11
		c-48.4-5.7-96.5-12.9-142.8-28.4c-56.9-19.1-104.6-51.8-143.1-98c-16.3-20.4-29.6-42.6-39.8-66.7c-6-14.2-12.5-28-21.7-40.4
		c-4.2-5.7-8.2-13.9-16.8-11.7c-7.4,1.9-8,10.1-9.2,16.5c-6,30-13.2,59.9-11,90.9c-2.4,44.8,3.5,88.8,12.8,132.6
		c14,65.9,52.1,113.8,109.3,147.5c20.6,12.2,41.5,23.7,63.7,32.8c23.5,9.6,45.4,22.2,62,42.2c5.2,6.5,11.7,6.6,18.9,3.9
		c1.9-0.4,3.7-0.7,5.6-0.8c6,0.3,12,0.4,14.4,7.5c-0.5,2-1.6,3.6-3.2,4.8c-4.2,2.4-9,3.3-13.4,5.2c-19.5,4.8-39.5,13.7-54.1-9.9
		c-3.2-5.2-8.1-3.1-11.6,0.5c-4.3,4.3-9.1,7.3-14.8,9.1c-6.9-0.1-13.9-0.3-20.8-0.4c4.1-5.4,11.7-3.1,16.5-9.5
		c11-14.5,15.2-22.6-6.9-31.9c-69.7-29.5-135.2-66.7-167.3-140.1c-35.1-80.1-39.5-164.8-26.5-250.7c2.3-15.1,5.8-30,8.6-45.1
		c2.6-13.9,8.4-26,22.8-30c14.5-4,24.2,6,31.9,16c8.8,11.6,17.6,23.8,23,37.2c47.9,119.4,142.4,173.8,264.1,190.8
		c4.6,0.6,9.2,1.2,13.8,1.9c77.9,12.2,77.7,12.1,109.6-58.6c5.2-11.5-3.9-14.6-9.4-18.6c-27.2-19.5-58.4-31.5-88.8-45
		c-14.3-6.3-29.9-12.5-30.3-30.5c-0.4-17.9,14.2-26.1,28.6-32.4c123.1-53.6,252.2-68.7,384.9-58.9
		C1184.9,113.1,1238.1,117.6,1286.6,142.8z"/>
	<path class="st2" d="M834.9,503.4c32.7-36.5,61.8-74.8,58.1-127.8c9.7,6.2,12.8,1.5,16.9-7.6c5.4-12.2,12.4-23.3,9.7-37.7
		c-1.8-9.6,3.5-15.2,12.9-16.6c11.3-1.7,23.4-2.9,32.9,4.1c18.6,13.8,39.2,22.2,61.3,27.8c3.8,1,7.5,2.8,8.8,7.3
		c-10,19.6-30.3,24.7-47.6,33.8c-9.9,5.2-21.6,6.6-30.4,14.3c11,5.2,21.1-2.1,31.7-2.7c10.4-0.6,20.1,0.4,28.8,6
		c22,14.1,44.9,13.2,69.2,6.9c60-15.5,119.2-34.2,180.1-46.3c53.1-10.5,106.6-14.8,160.7-17.3c132.6-6.1,261.2,17.3,389,48.8
		c11.2,2.8,21.8,5.9,25.9,18.5c12.4,26.6,21.1,55.3,42.7,76.7c8.1,1.3,11.9,8,16.7,13.3c27.9,30.7,61,54.5,97.1,74.3
		c8.1,4.4,17,7.9,20.1,18c9.5,29.4,16.3,34.5,47.1,35.1c12.6,0.3,25.2-0.3,37.8-1.3c6.5-0.5,15.1-3.4,17.5,7.3
		c-0.8,0.8-1.8,1.2-3,1.1c-1.5,1-3.1,1.9-4.7,2.8c-14.1,5.9-28.2,11.6-42.1,17.7c-3.2,1.4-8.7,1.9-7,7.2c0.4,1.4,5.9,1.8,8.9,1.5
		c30.4-3.6,57.1-16.5,82.3-33c4.3-2.8,7.9-7.7,14.1-4.4c114.8,60.7,195.8,154.8,247.4,270.7c28.2,63.3,59.6,122.9,99.9,178.6
		c43.2,59.8,73.8,126.4,103.1,193.6c10.4,23.8,14.7,47.7,3.6,73.4c-7.9,18.4-3.7,38.1,3.2,56.7c16.9,45.5,36.8,89.8,46.3,137.9
		c15.9,80.5,29.8,161,27.1,243.6c-1.1,33.9-13.1,63.8-30,92c-10.7,17.9-24.4,18-38.7,2.5c-16.2-17.6-27.4-18-45.7-2
		c-20.7,18.1-35.5,41.4-53.2,62.2c-33.1,38.8-70.7,72.3-112,102c-43.2,31.1-82,68.2-128.6,94.9c-15,8.6-30.1,17.1-45.9,24.2
		c-8.5,3.8-17.4,7.3-26.7,8.2c-26.2,2.5-53,1-67.3-24.3c-13.1-23.2-6.1-47.5,7.9-69.4c55.6-34.5,115.7-60.2,173.6-90.1
		c17.8-9.2,35.1-19.1,51.6-30.4c30.5-20.9,41.9-46.5,33.4-82.5c-24-101.1-49.3-201.8-75.4-302.3c-5.8-22.5-12.7-44.8-17.6-67.6
		c-0.4-3.2-0.2-6.3,0.6-9.5c12.5-38.2,11.5-77.9,6.9-116.6c-16.2-135.1-53.8-264.5-107.9-389.4c-20.9-48.2-38.1-98.1-63.1-144.5
		c-1.7-3.1-2.4-6.9-5.5-9.2c-0.3,3.4,0.9,6.6,1.3,9.8c8.8,74.7,22.5,148.7,32,223.4c0.8,6.6,2,13.2,0,19.8c-0.8,2.1-2,3.9-3.6,5.5
		c-7.3,3.8-12.8,1.8-16.5-5.4c-4.4-13.1-7.1-27.1-13.4-39.2c-15.8-30.6-42.2-39.5-74.9-32.7c-18.3-16.3-22.3-40-30.8-61.2
		c-2.9-7.2,3.5-14,9-18.9c11-10,6.4-14.5-5-19.1c-26.1-10.5-53-17.6-80.7-22.1c-17.5-2.9-27.7,2.7-32.8,20.1
		c-10.2,35.2-21.6,70-33.8,104.5c-2.9,8.3-5.5,16.4-13.7,21.1c-62,7.9-124.1,15.8-186.1,23.9c-14.8,1.9-11.1-3.8-6.9-12.7
		c30-63.7,29.5-128.7,7-194.3c-3.4-10-8.5-19.6-14.2-28.5c-31.7-49.7-81.4-49.7-107.2,3.1c-37.8,77.5-34.9,155.8,8.4,231.1
		c5.5,9.6,9.5,13.7-5.2,15.4c-95.9,10.8-191.7,21.9-287.6,33c16.1-89.7,25.1-180.4,37.1-270.6c7.6-57.5,19.2-114.3,33.1-170.5
		c14.6-59.1,20.7-119.3,26.3-179.6c1.3-14.6,0-29.3-2.6-43.8c-3.9-21-10.7-26.1-33.4-22.3c-33.7,5.7-65.9,17.1-96.6,31.5
		c-123.8,57.9-217.6,147.3-277.5,270.5c-25.9,53.3-34.6,111.1-40.4,169.9c-8.7,87.7,6.4,170.8,38.1,251.9
		c-56.1,6.6-112.2,13.2-168.3,19.8c-10.1-12.4-7.8-27.9-9.6-41.9c-11-85.6-46.8-157.6-113.3-213.7c-24.9-21-46.9-18.7-62.4,10.1
		c-20.7,38.7-39,78.8-57.2,118.8c-8.9,19.5-17.7,38.9-31.5,55.5c-22.7,27.2-43,56-60.5,86.8c-6.4,11.3-15.7,17.5-28.6,19.3
		c-17.8,2.4-35.1,8.4-53.1,7c0.3,0,0.4,1.1,0.4,1.1s1.1-0.4,1.3-0.4c14.6,3.2,31,0.4,42.2,13.4c2.7,1.3,5.4,2.7,8.1,4
		c5.5,5.7,4.5,12.4,2.4,18.8c-7.3,21.9-7.9,44.4-8,67.1c-0.2,21.8-4.1,25.2-24.5,29c-11.2,2.1-28.8-1.4-31.2,11
		c-1.7,9,15.7,13.9,25,19.8c7.9,5.1,15.8,9.8,20.9,17.9c10.5,5.5,20.9,11.1,31.4,16.6c69.1,52.7,135.1,108.6,179.2,185.3
		c22.2,38.6,37.4,79.6,35.3,125.3c-0.8,18.6-6.4,35.4-17.6,50.1c-33.3,43.5-72.9,79.3-123.6,101.9c-17.3,7.7-35,13.6-53.7,14.8
		c-97.8,6.2-193.1-1.2-281-50.7c-16.5-9.3-32.3-19.1-44.2-33.7c-18.5-22.7-39.1-43.6-57.8-66.2c-16-19.3-25.7-41.9-33.5-65.5
		c-3.5-10.6-1.6-21.1,0.7-31.6c8.7-38.5,22.1-75.4,35.5-112.4c16.3-44.9,26.9-90.7,17.6-139c-3.5-17.9-7.4-36.4-22.2-48
		c-34-26.7-38.6-58-18.7-94.8c6.8-19.9,16.4-38.4,28.2-55.8c15.5-25.8,35.6-48,55.2-70.6c18.3-21.2,36.1-42.9,49.5-67.6
		c12.5-23,29.8-42.5,44.6-63.8c21.1-30.4,35.7-62.6,23.7-101.1c-2.7-8.6-0.6-17.1,2.8-25.2c42-77.4,108.5-131.4,176.4-184.1
		c13.6-10.6,27.7-20.9,42.8-29.1c29.6-16,58.7-31.6,92.2-3.9c15.9,13.1,38,18.7,59.5,20.8c3.9,0.4,19.2,4.9,5.5-8.1
		c-11-8.4-0.9-12.8,4.2-15.4c16.8-8.9,23.9-23.6,27.9-40.9c3.7-7.9,11.2-11.1,18.3-14.6c37.9-18.6,72.9-41.2,102.8-71.4
		C823.9,507.6,828.9,504.7,834.9,503.4z"/>
	<path class="st3" d="M782.2,1950.6c-43.4,45-86.7,90-130.1,134.9c-3.2,3.4-7.2,6.2-9.7,10c-5.1,8.1-20.9,15.9-9.3,25.8
		c9.3,8,17-5.9,23.5-12.5c139-141.4,277.7-282.9,416.6-424.4c1.9-1.9,4-3.5,5.9-5.3c9.3-9.8,18.2-4.2,27,0.8
		c25.5,14.3,51.1,28.6,76.9,42.4c30.1,16.1,61.9,27.5,94.2,38.2c42.7,14.2,86.7,15.3,130.3,10.3c45.6-5.2,82.9-31.7,119.5-57
		c40.6-28,77.6-60.5,111-97c7.7-8.4,14.2-20,28.8-18.2c132.7,80.8,265.4,161.7,398.2,242.5c43.1,26.2,86.2,52.5,129.6,78.4
		c7.3,4.4,17.2,15.1,24.1,4.7c7.9-11.9-7.1-16.5-14.4-21.2c-41.8-27-84-53.2-126.1-79.7c-118.3-82.7-226.4-178.8-343.6-262.9
		c-9.8-7-22.9-13.1-19.2-29.4c21.4-32.8,48.1-61.7,70.5-93.8c55.6-79.6,121.4-150.7,186.5-222.4c2.3-2.5,4-5.3,5.9-8
		c37.3-39,74.5-78,111.8-116.9c5.1-5.3,10.9-10,15.3-15.7c5-6.4,16-13.8,8-21.8c-9.6-9.6-16.5,2.8-22.4,8.8
		c-180.2,183.5-360.7,366.7-540,551c-102,104.9-205.3,111.4-304,64.2c-59.2-28.3-113.3-67.2-169.5-101.6
		c-154.4-94.6-308.7-189.4-463-284.1c-7.8-22,3.4-66.4,20-79.1c225.5-26.9,451.1-53.8,676.6-80.6c228.2-27.1,456.4-53.9,684.6-81.1
		c30.4-3.6,60.6-8.7,90.9-13.2c36.4-5.4,53.5,5.8,59.8,42.8c7.2,42.6,12.5,85.6,18.2,128.5c20,151.2,39.8,302.3,59.6,453.5
		c10,76.5,20.3,153.1,29.8,229.7c4.1,33.2-14.1,51-52.8,55.2c-96.6,10.6-193.7,18.7-289.8,32.9c-359.8,53.1-720.9,96.3-1081,146.6
		c-50.8,7.1-101.6,13.7-152.4,21c-57.4,8.2-73.4-5-76-63.3c-4.3-34-1.9-40.3,28.4-52.2C789,1968.6,815,1796.9,776.2,1687
		c-21.4-60.7-45.7-119.3-88.3-168.8c-20.5-23.9-42-46.7-68.3-64c-16-10.5-23.4-23.7-25.5-42.4c-2.9-25.4-3.8-50.5,2.6-75.4
		c2.1-8.1,2.9-17.7,14-19.5c56.9,36.9,107.4,82,160.2,124.2c76.3,60.9,153.4,120.8,233.8,176.3c6.5,4.5,14,8.1,16.1,16.8
		c-8.9,30.2-29.5,53.8-48.4,77.2C908.5,1790.8,852.2,1876.2,782.2,1950.6z"/>
	<path class="st4" d="M986.6,1147.3c-7-1.1-9.6-6.5-11.7-12.2c-17.1-47-34-95.1-35.4-144.7c-4.2-145.7,22.3-282,126.9-394.7
		c80.5-86.7,173.3-149.9,288.9-177.7c34.4-8.3,41.7-3.7,48,29.8c8.3,44,0.7,87.8-7.4,130.3c-28.9,151.6-59,303-73.9,456.9
		c-1.9,19.8-6.1,39.3-7.2,59.1c-0.6,9.4-6.1,12.3-12,16.2C1197.4,1122.6,1092,1135,986.6,1147.3z"/>
	<path class="st5" d="M1465.9,2295.1c-0.4-0.5-1-1-1.2-1.6c-23.2-67.3-27.7-70.5-100.7-71.2c-78.4-0.7-78.6-0.6-94.6,77.4
		c-2.4,11.7-6.8,23.8-5.8,35.3c3.1,34.8-19.4,44.7-46.1,47.8c-77.6,8.8-155.5,8.5-233.3,2.3c-58.3-4.6-117.1-5.2-174.7-17.5
		c-8.5-1.8-16.9-3.8-25.2-6.2c-69.5-19.9-74-29.2-44.5-94.1c11.7-25.7,21.2-52.5,22.7-80.3c1.7-32.6,18.7-39.7,46.2-36.5
		c33.3-4.2,40.6,2.1,40.4,34.9c-0.1,12.2-3.4,23.6-7.7,34.8c-13.7,36.2-11.5,38.7,27.7,39.6c18.9,0.4,38.6-4.8,56.6,5.6
		c1.6,2,1.8,4.2,0.6,6.5c-7.7,6.9-17.3,6.1-26.5,6.3c-26.6,0.4-53.3-0.3-79.9,0.4c-9,0.2-19.9-1.3-21.4,12.2
		c-1.4,13.3-0.2,25.8,14.9,31.2c6.9,2.5,14.2,4.2,21.4,4.6c110.3,7.1,220.6,11.1,331.1,8.7c17.5-0.4,27-9,31.2-25.1
		c2.1-8.4,4.5-16.9,4.8-25.5c0.6-19,5.7-36.7,13.5-53.8c1.7-21.1,8.8-40.2,21.5-57.1c9-11.9,21.5-21.1,36.1-14.7
		c26.2,11.5,53,7.3,78.5,3.2c45.8-7.5,90-1,134.5,6.7c21.2,3.7,30.4,13.9,31.5,33.9c-0.3,0.6-0.4,1.6-0.9,1.7
		c-26,9.8-19.2,29.7-15.1,48.8c4.3,19.9,3.7,41.2,18,58.2c5.8,6.9,12,11.4,20.9,13.8c19.4,5.2,39.3,8.2,59,8.8
		c80.3,2.1,160.7,6.2,240.6-6.9c21.3-3.5,40.1-10.1,48.4-32.5c3.6-6,9.3-6.8,15.5-6.5c15,0.9,18.2-4.8,9.7-17.1
		c-4.9-7.1-9.9-14.2-13.6-21.9c-4-8.2-8.5-2-12.9-1.7c-8.8-5.9-7.4-15.9-10-24.3c-0.6-3-0.8-6-0.9-9c3.3-24.5-8.2-37.9-31.7-42.4
		c-9.6-25.1-3.6-50.8,18.9-67.3c13.1-9.6,17.5-20,16.1-35.4c-1.2-13.9-0.9-28,0.7-41.9c0.9-8,1.9-16,9.5-21l-0.2,0.3
		c9-4.7,19.6,1.8,28.4-4.1l-0.3,0.2c10.3-5.1,22.2,2.2,32.3-4.4l-0.4,0.2c2.8-1.5,5.5-2,8.1,0.4c1.1,0.7,1.4,1.7,0.8,2.9
		c3.7,32.1,0.5,64.2,1.7,96.3c0.3,7-2.4,14.5,2.3,21c0.8,0.8,0.8,1.5,0,2.2c4.6,13.6-1.9,28.2,3.8,41.7c0.8,0.8,0.9,1.7,0.1,2.7
		c4.5,9.3-1.9,20.1,4,29.2l-0.1-0.3c4.5,6.1-1.6,14.5,4.3,20.3l-0.2-0.4c3.9,4.8-1.3,12,4.4,16.3l-0.3-0.4c2.8,3.7-0.3,9.2,3.9,12.5
		l-0.1-0.2c3.3,3.4-0.1,9.1,4.1,12.2l-0.1-0.2c3.4,3.3-0.4,9.4,4.7,12.1l-0.3-0.5c1.4,2.8,0.9,6.4,3.8,8.6l-0.2-0.3
		c1.9,2.5,1.3,6.2,4,8.3l-0.1-0.2c1.1,1.2,2,2.5,2.8,4c1,0.5,1.5,1.3,1.4,2.5c1.4,3.1,1,6.9,3.9,9.5l-0.1,0.4
		c3.6,3.1-0.2,9.2,4.7,11.8l-0.3-0.4c2.8,3.7-0.4,9.3,3.9,12.5l-0.2-0.3c1.9,2.9,2.1,5.7-0.2,8.5l0-0.1c-2.1,3.3-5.3,5.7-7.7,8.9
		l0.4-0.5c-2,0.6-3.3,2.2-4.8,3.5l-0.1,0.1c-2,2.5-6.1,1.6-7.6,4.8l0.4-0.4c-2,0.6-3.2,2.3-4.7,3.6l-0.1,0.1c-2,2.5-5.8,1.7-7.8,4.2
		l0.1,0c-5.3,2.4-11,3.8-15.9,7.2c-1.4,0.4-2.8,0.7-4.2,1.1c-2.3,1.7-5.2,1.6-7.7,2.8c-2.8,0.4-5.6,0.7-8.4,1.1
		c-1.4-1.5-2.7-1.3-3.8,0.4l0.1-0.2c-3.6,3-9.1-0.1-12.4,3.8l-1,0.8l-1.2-0.4c-5.5,3.2-12.5-0.9-17.6,3.8l0.2-0.1
		c-8.9,4.9-19.5-1.7-28.2,4.2l0.3-0.2c-13.1,5.1-27.4-1.8-40.4,4l-1.4,0.6l-1.5-0.5c-18.8,5.2-38.5-2.3-57.2,4l-1.3,0.6l-1.3-0.6
		c-20.2,5.2-41.3-2.4-61.4,4.1l-1.2,0.6l-1.2-0.6c-55.6,2.6-111.2,2.6-166.9,0l-1.2,0.6l-1.2-0.6c-10.2-6.2-22.1,1.1-32.4-4.3
		l0.2,0.1c-3.4-4-8.8-0.9-12.5-3.7l0.4,0.3c-2.6-4.8-8.7-0.9-11.7-4.8l-0.1-0.1c-1.5-1.3-2.8-2.9-4.9-3.4l0.5,0.5
		c-12-6.4-7.6-19.5-12-29.1c-0.8-0.9-0.8-1.8,0-2.7c-4.6-9.3,1.9-20.1-4-29.2l0.1,0.3C1465.6,2309.2,1471.5,2300.9,1465.9,2295.1z"
		/>
	<path class="st5" d="M86.2,1242.8c-15.1,39.4-1.8,67.5,28.2,96.4c25.8,24.8,24.4,63,22.4,98.1c-3.4,57.6-26.9,109.8-47.1,162.1
		c-26.2,68,7.5,111.9,47.2,160.1c39.8,48.3,87.1,80.2,145.5,99.2c74.5,24.3,151.2,29,226.6,14.8c71.3-13.5,125.1-61.3,159.9-123
		c26.5-46.9,3.9-95.9-17.5-141c-32.6-68.7-90.1-116-144.2-166.1c-12.6-11.7-24.7-24.1-37-36.2c135.9,51.9,230.3,145.7,272.3,284.9
		c24.3,80.5-30.3,181.1-107.6,215.4c-105,46.6-213.3,77.9-329.4,51.9c-47.2-10.6-94.9-23.2-127.2-64.9c-3.4-4.4-9.6-7.5-15.1-9.2
		c-87.3-26-141.6-121.7-127.8-212c12.4-81.5,22.9-163,43.7-243c7.1-27.3,4-53.6-13.5-77.9c-15.4-21.4-15.7-44.2-1.4-67.3
		C72.7,1271.7,79,1257,86.2,1242.8z"/>
	<path class="st5" d="M2162.5,2079.5c-5.4,23.6-22.4,48.7,1.1,70.2c23.9,21.8,52.6,18.4,80.3,6.1c60.3-26.8,109-70.5,161.4-109.1
		c60-44.1,113.6-93.8,157.7-153.9c7.4-10.1,16.8-19.4,27-26.5c17-11.9,34.1-12.3,45.8,8c12.4,21.5,21.8,13.4,31.6-1.9
		c32.8-51,30.8-108.3,25.7-164.6c-6.5-72-17.3-143.8-38.6-213.2c-9.9-32.3-24-63.3-35.4-95.2c-7.4-20.6-8-41.2,1.2-62.1
		c14.2-32.3-5.4-59.3-16.7-86.9c-38-93.1-96.5-174.2-152.6-256.6c-12.4-18.2-19.8-38.9-26.1-60.1c-19.7-66-61.7-118.6-104.5-170.6
		c-39.2-47.6-84.1-88.6-137.6-119.9c-4.9-2.9-8.4-8.1-12.6-12.2c18.6,2.9,36.8,8.4,52.3,18.5c95.3,62.1,189.4,130.4,234,237.3
		c45.7,109.6,118.6,202.5,167.9,309c16.5,35.7,33.7,71,51.4,106.1c9.1,18.2,7.9,36.1-3.2,51.2c-25.5,34.6-20.9,71.2-11.3,108.8
		c28.1,110,51.4,220.6,48.8,335.1c-0.8,33.6-5.5,66.4-18.1,97.7c-15.3,38.1-37.3,50.5-77.9,44.5c-36.4-5.4-59.5,8.8-76.8,35.6
		c-72.4,112.5-161.3,204.3-302.1,225.4c-18.3,2.7-37.4,2.8-55.8,1c-63.6-6.1-94.1-38.7-101.4-102.6c-4.6-40.2-4-75.9,44-89.7
		c6.8-2,12.8-6.9,19.1-10.5c4.7-2.1,9.4-4.2,12.7-8.4l-0.2-0.1c6.9-0.2,9.6,5,10,10C2165.9,2026.6,2170.2,2053.2,2162.5,2079.5z"/>
	<path class="st6" d="M926.3,2267c-23.9,0-47.8,0-71.6,0c-29.5,0-36.7-11-24.7-38.9c5.8-13.4,12.4-26.2,12.5-41.4
		c0.2-23.1-4.4-40.9-33.7-36.1c56.5-7.7,112.9-15.4,169.4-23.1c1.9,4.8-1.1,9-1.5,13.5c-1.7,19.5,3.6,27,22.3,32.4
		c5,1.4,13,0.2,11.4,9.8c-9.3,6.5-20,6-30.5,5.8c-16.7-0.3-32.8,4.1-49.1,6c-6.4-0.6-12.6,1.9-19,1.6c6.2,1.2,11.9-2.3,18.1-1.7
		c7.3,0.7,14.1-2.2,21-3.6c59.9-8.3,118.8-6.8,176.1,15.4c3.7,1.4,7.1,3.6,11,4.6c-3.6-1.1-6.9-3.1-10.4-4.5
		c-35.4-14.4-73.4-16.7-110.4-24c-1.8-1-3.1-2.5-4.1-4.2c-1.3-2.9-1-5.9-0.4-8.8c0.4-1.9,0.9-3.8,1.5-5.6c4.4-12,2-24.3,1.5-36.6
		c0.4-1.9,1.3-3.6,2.5-5.1c80.3-11.2,160.6-22.8,241-33.4c99.6-13.2,199.3-25.7,298.9-38.4c1.2,0.8,1.9,2,2.1,3.5
		c-0.1,2.2-0.7,4.2-1.5,6.2c-0.5,1.3-1.1,2.6-1.7,3.8c-0.8,1.8-1.7,3.6-2.4,5.5c-0.3,1.2-0.5,2.4-0.6,3.7c0.1,1.2,0.4,2.4,1,3.4
		c0.8,0.9,1.7,1.7,2.8,2.2c1.2,0.3,2.4,0.4,3.6,0.2c1.3-0.4,2.5-0.8,3.6-1.4c1.8-1.1,3.4-2.3,5.1-3.6c2.9-2.4,5.8-4.7,8.9-6.9
		c1.8-1.4,3.7-2.8,5.6-4.2c3-2.4,6-4.7,9.2-6.9c1.1-0.8,2.3-1.6,3.4-2.3c-0.1,0,1.6-1,1.5-1c0.7-0.5,1.6-1.1,2.3-1.5
		c-0.2,0.1-0.4-1.1-0.5-0.9c-0.9,0.9-1.7,1.3-2.9,1.3c-4.7,0.2-9-0.5-11.7-4.8c18.8-2.5,37.6-5.1,56.4-7.6
		c-2,13.3-7.2,26.1-5.5,39.9c-1.2,8.9-0.8,17.8,2,26.4c1.1,4.8,1.6,9.7,2.1,14.6c0.4,3.9,1.1,7.7,2,11.5c0.7,2.9,1.2,5.8,1.3,8.7
		c-0.6,7.1,1.5,13.8,3.2,20.6c1.4,7.3,1.8,14.7,0.7,22.1c-0.6,3.2-1.8,6.2-3.9,8.8c-2.4,2.3-5.2,3.7-8.4,4.4
		c-8.1,1-16.5,0.2-24.4,3.3c-3,0.8-6,1.2-9.1,1.4c-7.2-0.7-14.1,1-21,3c-4.1,0.9-8.3,1.5-12.6,1.1c-13-0.2-26-0.9-38.7,2.8
		c-5.8,0.4-11.4,0.5-15.6-4.5c-0.4-17.3-12.1-24.8-26.4-27.7c-59.3-12.2-118.9-11.3-178.5-1.4c-6.2,1-13.4,0.4-19.4-1.7
		c-35.9-12.4-43.2-9.9-58.6,24.8c-4.7,10.7-6.4,22.8-9.4,34.3c-1.5,1.2-3,2.3-4.6,3.2c-5.3,2-10.9,3-16.3,4.7
		c-3.8,0.9-7.6,1.5-11.6,1.5c-6.3-0.5-11.6,2.5-17.2,4.4c-25.9,7.6-52.2,12.1-79.3,11.7c-10-1.1-16.3-8-22.9-14.7
		c-20.2-20.6-43.9-25.6-71-16.4c-21.6,7.3-41.5,17.2-58.1,33.3C937.1,2263.2,933.7,2269.1,926.3,2267z"/>
	<path class="st6" d="M2162.5,2079.5c-7.5-22.6-3-45.8-4.2-68.8c-0.4-7.1,1.6-14.7-4.5-20.6c14.3-14.4,29.9-22.9,51.7-25.1
		c55-5.6,74.7-34.5,67.6-88.7c-30.5-231.4-60.6-462.9-90.8-694.4c-4.1-31.6-7.8-63.3-11.7-95c5.2,1.4,10.5,2.8,15.7,4.1
		c7.8,6.3,6,15.6,7.3,23.9c17.9,112.9,25.7,227.2,49.7,339.1c3.2,15,6.4,29.9,13,43.8c13.3,27.9,33.3,32.3,57.5,13
		c5-4,8.9-10.4,16.9-8.3c38.4,126.6,67.9,255.4,97.7,384.1c6,25.8-6.9,50.8-29.7,67.8c-33.3,24.9-71.2,41.6-108,60.2
		C2248,2036.4,2205.3,2057.9,2162.5,2079.5z"/>
	<path class="st6" d="M386.8,1207.2c8.5-1.4,16.9-3.5,25.4-4.2c35.1-2.9,59.6-14.7,82.9-47.2c51.2-71.4,90-148.3,126.8-227.1
		c21.9-46.9,47.8-49.2,86-14.9c75.7,68,106.9,154.4,110.5,253.4c-1.8,0.8-3.6,1.7-5.5,2.3c-27.8,7.8-41.2,2.8-39.7-31.5
		c1.7-38.9-0.7-78.5-11-116.9c-5.5-20.4-13.7-36.8-36.4-43.2c-8.4-2.3-15.1-10.5-22.6-15.9c-4.8-3.5-8.4-13.6-15.3-7.4
		c-5,4.5,2.4,10.7,5.7,15.2c3.9,5.3,8.3,12.1,13.9,13.9c33.8,10.9,18.5,24.5,4.8,41.9c-35.2,44.5-54.6,97.2-73.8,149.8
		c-4.3,11.7-10.5,16.7-22.8,17.5c-20.6,1.4-41,4.2-61.5,6.7c-7.2,0.9-17.1,0.1-21,4.5c-22.4,25-49.3,20.9-77.1,14.7
		c-3.7-0.8-8.1-0.5-9.9,4.4c-17.3-2.7-34.5-5.4-51.8-8.2C392.9,1211.3,383.8,1215.3,386.8,1207.2z"/>
	<path class="st7" d="M613.4,1319.9c-21.2,25.3-14.2,55.3-13.6,84c0.4,19.7,8,32.7,25.6,46.6c110.2,87.5,172.3,203,172,344.2
		c-0.2,111.6-54.3,195.6-160.2,240.2c-23.2,9.8-39.9,20.5-35.2,48.7c-4.8-42.2-9.4-84.5-14.6-126.6c-1.3-10.6,6.2-11.5,12.7-14.5
		c24.8-11.3,51.8-19.5,73.8-34.9c96.3-67.3,122.3-169.7,70.6-275.3c-46.8-95.5-118.6-167.9-210-221.3c0.4-3.7-1.9-6-4.5-8.1
		c-4.7-44.7-9.4-89.3-13.8-134c-0.5-5,0.1-13.2,3.1-14.8c5.9-3.2,6.7,5.8,10.8,8.4c29.5,18.7,58.8,37.6,88.2,56.5
		C616.9,1320.7,615.3,1321,613.4,1319.9z"/>
	<path class="st8" d="M1666.8,1598.7c-42,39.7-83.2,80-128.7,116.1c-102.6,81.6-211.1,81-324.2,29.5c-38.7-17.6-75.3-39.8-112.8-60
		c-7-3.8-13.3-8.9-21.9-5c0.6-1.1,1.1-2.5,1.9-3.4c46.1-46.9,46.8-48.1,102.2-12.1c50,32.5,102.6,55.3,162.7,59.9
		c77.9,6,140.9-26.4,197.1-75.5c21.5-18.8,41.4-39.6,60-61.3c12.9-15.1,23.9-17.4,39-4.7C1649.7,1588.5,1658.5,1593.2,1666.8,1598.7
		z"/>
	<path class="st6" d="M1890.1,2006.4c-4.3,26.2-6,52.6-2,78.9c1.2,8.3-1.5,13.6-7.7,16.2c-31.5,13.5-35.4,40.1-34,69.5
		c-1.9,5.6-6.3,8.9-11.6,9.4c-33.7,2.8-67.4,6.8-101.4,4.8c-10.6-7.8-10.2-19.4-10.4-30.6c-0.5-28.4-0.7-56.9,0-85.3
		c0.4-16.2-2.2-29.9-17.2-38.7C1767.2,2022.6,1828.6,2014.5,1890.1,2006.4z"/>
	<path class="st8" d="M613.4,1319.9c1.6-0.3,3.2-0.6,4.9-0.9c145.5,89,291.1,178.1,436.6,267.1c-0.6,22.8-19.8,33.9-31.3,49.8
		c-2,0.8-3.8,0.4-5.4-0.8c-89.1-62.4-175.6-128.3-260.4-196.4C709.2,1399.6,661.5,1359.5,613.4,1319.9z"/>
	<path class="st5" d="M1894.4,1039.3c14.7-44.8,29.3-89.6,44-134.4c4.5-13.9,10.4-21.2,28.6-19c36.8,4.5,71,16.3,105.2,29.1
		c11.6,4.3,11.6,10.1,1.6,16.2c-18,10.8-22.8,22.6-9.2,41.7c8.6,12.1,12,27.9,17.8,42c-17.7,2.7-35.4,5-53,8.3
		c-13.9,2.7-20.9-7.7-24.4-16.1c-3.9-9.2,9.6-6.9,14.4-11.2c3.4-3.1,8-4.9,11.4-8c8.2-7.5,22.4-20.7,17-25.9
		c-9.8-9.4-15.2,8.8-23.6,13.5c-21.5,11.9-47.1,20-50.8,50.4c-0.7,5.5-7.2,4.9-11.7,5.5C1939.2,1034.2,1916.8,1036.7,1894.4,1039.3z
		"/>
	<path class="st9" d="M1718.9,1531.1c-1.9,8.7,3.6,12.7,9.8,17.5c113.7,87.9,227.2,176.1,340.7,264.3c3.5,2.7,5.9,6.9,8.8,10.3
		c-83.9-50.7-168-101.2-251.8-152.1c-48.2-29.3-95.9-59.2-143.8-88.8c-6-8.2,0.6-13.4,4.9-18.6c8.3-10,16.1-20.4,23.7-30.9
		C1713.4,1530.9,1715.8,1529.4,1718.9,1531.1z"/>
	<path class="st10" d="M1705.7,2030.7c20.2-3,25.1,5.7,25.2,25.5c0.2,42-5.4,84.3,3.4,126.1c-3.4,5.7-9.1,6-14.8,6.4
		c-5.4,0.2-10.9,0.1-16.3,0.2c-15.2,4-31,3-46.4,5.5c-3.1,0.5-6.2,0.2-9.1-1.1c-4.5-2-2.3-7.6-5.5-10.4c0-8,0-16,0-24
		c-4.7-6,0.9-14-4-20c0-2.7,0-5.3,0-8c-2.5-2.1-1.4-5.9-4-8c0-5.3,0-10.7-0.1-16c-5.2-8.8,1.4-19.2-3.9-28
		c2.1-13.8-7.1-31.1,11.9-39.8C1663.4,2036.3,1684.6,2033.5,1705.7,2030.7z"/>
	<path class="st11" d="M1586.4,1006.9c-15.1-54.2-15-107.7,7.9-159.8c8.5-19.2,20.4-37.9,43.8-39c23.9-1.1,35.9,17.6,46,36
		c10,18.2,16.6,37.6,18.5,58.5c3.5,14.4,1.5,29,1.3,43.5c-0.1,7.8-1.7,17.4-11.9,18.1c-11.5,0.7-10.1-9.9-12-17.2
		c-0.5-1.9-1.1-3.8-1.6-5.7c-2.9-11.5-5.2-23.2-9-34.5c-1.9-5.7-4-9.5-11-3.7c-24.8,20.5-25.1,20.4-49.2,1.4
		c-7.2-5.7-5.6,2.1-6.2,4.1c-9.9,30.3-6.7,60.1,4.1,89.4c1,3.7,1.4,7.4,2.2,11.1c0.2,1.9,0.1,3.8-0.2,5.7c-6.1,10-12.6,5.3-19.1,0.5
		l0,0C1588.2,1012.8,1588.8,1009.2,1586.4,1006.9z"/>
	<path class="st6" d="M438.8,1390.7c-18.5-10.5-36.9-21-55.4-31.3c-12.3-6.9-7.7-12.3,1.8-15.6c10.6-3.7,22-8.6,32.6-7.7
		c23.6,1.8,26.5-10.2,24.2-28.8c-3.5-27.8,6.5-53.7,12.2-80.2c31.9,3.2,46.8,15.2,42.5,52.7c-3.8,33.5,5.2,68.6,9.1,102.9
		c1.4,12-1.2,15.9-13.5,11.1c-13-5-26.4-8.9-39.8-13C444,1378.1,435.8,1376.8,438.8,1390.7z"/>
	<path class="st9" d="M1018.2,1635c1.3,0,2.6,0,3.9,0c23.2,3.3,38.6,15.1,39.9,30.8c-93.3,94.9-186.6,189.8-279.8,284.7
		c38.3-50.8,75.7-102.3,115.2-152.1C939.5,1745.3,981.8,1692.4,1018.2,1635z"/>
	<path class="st12" d="M1718.9,1531.1c-1.7,1.5-3.3,2.9-5,4.4c-20.3,0.3-32.2-10.4-31.4-28c98.6-100.2,197.1-200.4,295.7-300.7
		c-14.4,33.1-42,55.9-65.4,81.8c-67.4,74.6-124.3,157.4-186.5,236C1724.3,1527.1,1721.4,1529,1718.9,1531.1z"/>
	<path class="st5" d="M290.2,858.7c21.1,65.6-9.9,113.8-46.5,165.4C203.4,1081,162.9,1137,114.4,1187c23.6-56.9,56-109,91.1-158.9
		c28.4-40.3,44.8-84.8,62.1-129.7C273,884.4,282.5,871.9,290.2,858.7z"/>
	<path class="st13" d="M1589.9,1015.3c5-3.4,13.6,6.2,16.6-4.5c7.1-1.6,10.7,4.2,15.4,7.3c15.9,10.5,28.5,8.9,39.2-6.9
		c9.7-14.5,14.4-30.9,15-48.7c0.3-9.6-2.6-20.3,6.7-27.8c0.7,1.1,1.4,2.2,2.2,3.2c5.2,6.5-4.7,22.5,7.7,21
		c10.4-1.2,9.9-16.6,10-27.2c0.1-9.8,0-19.6-0.1-29.3c9.6,44.8,4.6,88.3-11.6,130.9c-9.4,24.8-25.3,39-53.7,38.4
		c-23.8-0.5-29.8-19.3-39.4-34.5C1593.9,1030.9,1592.5,1022.7,1589.9,1015.3z"/>
	<path class="st13" d="M634.4,1211.6c-12.2,25-14.5,52.4-20,79.1c-25.7-13.8-52.1-26.9-74-46.4c-3.7-3.3-14.9-4.3-10.2-13.8
		c3.2-6.3,9.9-8.5,16.9-9.2C576.3,1218,605.3,1214.8,634.4,1211.6z"/>
	<path class="st14" d="M701.8,598.3c1,20.6-8.1,35.1-26.3,44.4c-4.4,2.3-13,2.5-9.1,11.7c-31.8-7.7-58.7-26.6-88.3-39.4
		c15.1-20.9,13.7-19.1,36.2-3c12.1,8.6,29.3,1,44-1.6c3.7-2.6,8.7-0.1,12.3-3.1c1.2,0.3,2.4,0,3.4-0.7
		C681.6,597.9,690.3,593.4,701.8,598.3z"/>
	<path class="st15" d="M1062,1665.9c-8.9-15.9-27.6-19.3-39.9-30.8c6-19.6,23.9-31.3,32.9-49c57.5,29,57.5,29.1,14.4,73.2
		C1067,1661.6,1064.4,1663.7,1062,1665.9z"/>
	<path class="st16" d="M2121.8,638.2c-20,0.4-40.1,1.2-60.1,1c-33.1-0.2-44.9-11.6-47.2-44.5c17.5-5.4,28.4,6.3,40.1,15.8
		c14.8,6.5,30.5,9,46.4,8.9c9.2-0.1,23.7,7.6,22.8-12.9c-0.1-2.8,12.9-9.2,13.5-8.5c6.6,7.7,18.7,12,17.2,25.1
		C2143.6,628.1,2132.7,633.1,2121.8,638.2z"/>
	<path class="st17" d="M2058.4,2023.2c-23.3,0.5-29.9-15-36.8-29.3c-3.5-7.2,3.8-6.7,8-7.2c36.3-4.9,72.6-9.7,108.8-14.4
		c2.4-0.3,5,0.3,7.5,0.6c-0.8,1.7-1.2,4-2.6,4.9C2115.7,1996,2087.9,2014.2,2058.4,2023.2z"/>
	<path class="st15" d="M1682.5,1507.5c4.6,15.9,19.4,20.4,31.4,28c-5,19.3-25.2,28.4-31.5,46.9c-48.5-26.1-48.5-26.1-11.5-64.1
		C1674.7,1514.5,1678.7,1511.1,1682.5,1507.5z"/>
	<path class="st18" d="M1011.2,2179.5c-27.2,3.4-42.3-5.3-42.3-35.9c0-9.8,3.7-12.2,9.3-16.1c13.3-1.7,26.6-3.3,39.9-5
		c0.1,1.5,0.2,3,0.3,4.6c3.1,13.3,3.2,26.6,0,40c0,1.3,0,2.7,0,4c-1.5,1.1-2.5,2.8-3.9,4c0,1.5,0,3,0,4.4c0,0-1.5,0.9-1.5,0.9
		L1011.2,2179.5z"/>
	<path class="st19" d="M1554.3,2063c0-1.3,0-2.7,0-4c1.5-1.2,2.5-2.8,4-4c-0.1-1.5-0.2-2.9-0.3-4.4c0,0,0,0.2,0,0.2
		c6.2-4,13.8,0.4,20.1-3.3c2.6-0.3,5.1-0.5,7.7-0.8c6.9,0.1,13.7,0.2,20.6,0.3c0.8,0.9,1.1,1.8,0.8,2.6c-0.3,0.9-0.6,1.3-0.8,1.3
		l0,0c-1.4,1.2-2.6,2.7-4,4l0,0c-1.3,1.3-2.8,2.5-4,4c-4,2.7-8,5.4-12,8c-1.2,1.4-2.8,2.5-4,4c-4,2.7-8,5.4-12,8
		c-1.2,1.4-2.8,2.5-4,4c-1.3,0-2.7,0-4,0c-2.7,2.3-5.3,2.3-8,0c-1.3-1.3-2.7-2.7-4-4c-2.3-2.7-2.3-5.3,0-8c0-1.3,0-2.7,0-4
		C1551.8,2065.8,1552.8,2064.2,1554.3,2063z"/>
	<path class="st6" d="M1548.9,2391.4c55.6,0,111.2,0,166.9,0C1660.1,2397.4,1604.5,2396.1,1548.9,2391.4z"/>
	<path class="st6" d="M1962.7,2119.1c-9.7-38.8-2.2-78.2-4.1-117.3C1960,2040.9,1961.4,2080,1962.7,2119.1z"/>
	<path class="st6" d="M1718.2,2391.4c19.9-9.2,40.9-2.5,61.4-4.1C1759.1,2388.7,1738.6,2390,1718.2,2391.4z"/>
	<path class="st6" d="M1782.2,2387.3c18.5-9.2,38.1-2.4,57.2-4C1820.6,2388.6,1801.3,2387.1,1782.2,2387.3z"/>
	<path class="st6" d="M1842.2,2383.2c12.8-8.5,27-2.5,40.4-4C1869.6,2384.6,1855.8,2383.1,1842.2,2383.2z"/>
	<path class="st6" d="M1966.5,2163.1c-8.5-13.2-2.6-27.8-3.8-41.7C1964,2135.3,1965.3,2149.2,1966.5,2163.1z"/>
	<path class="st6" d="M1473.9,2346.8c4,9.7,8,19.4,12,29.1C1471.3,2370.6,1473,2358.6,1473.9,2346.8z"/>
	<path class="st6" d="M1950.2,1998.3c-9.7,8.9-21.5,3-32.3,4.4C1928.2,1997.7,1939.3,1998.2,1950.2,1998.3z"/>
	<path class="st6" d="M1514.1,2387.1c10.8,1.4,22.5-4.1,32.4,4.3C1535.5,2391.4,1524.4,2392.5,1514.1,2387.1z"/>
	<path class="st6" d="M1469.9,2315c8,8.8,3.1,19.4,4,29.2C1472.6,2334.5,1471.3,2324.7,1469.9,2315z"/>
	<path class="st6" d="M1970.7,2194.9c-8-8.8-3.1-19.4-4-29.2C1968,2175.5,1969.4,2185.2,1970.7,2194.9z"/>
	<path class="st6" d="M1882.4,2379.3c8.4-8,18.8-3,28.2-4.2C1901.7,2380,1892,2379.4,1882.4,2379.3z"/>
	<path class="st6" d="M1918.3,2002.5c-8.5,8.1-18.8,3.1-28.4,4.1C1898.8,2001.6,1908.6,2002.7,1918.3,2002.5z"/>
	<path class="st20" d="M529.9,1402.8c3.5,0.9,9,0.7,10.2,2.8c2.3,4.4-3.2,4-5.7,5.3C530.2,1409.8,529.1,1406.9,529.9,1402.8z"/>
	<path class="st6" d="M1465.9,2295.1c6.9,5.6,3.7,13.3,4.2,20.3C1468.7,2308.6,1467.3,2301.8,1465.9,2295.1z"/>
	<path class="st6" d="M1966.5,2362.2c3.4-6.5,9.3-7.6,15.9-7.2C1977.1,2357.4,1971.8,2359.8,1966.5,2362.2z"/>
	<path class="st5" d="M1578.1,2047.5c-6,5.5-13.3,2.9-20.1,3.3C1564.7,2049.7,1571.4,2048.6,1578.1,2047.5z"/>
	<path class="st6" d="M1974.9,2214.9c-7.1-5.5-3.8-13.3-4.3-20.3C1972,2201.4,1973.4,2208.1,1974.9,2214.9z"/>
	<path class="st6" d="M1979,2230.8c-6.4-4.1-4.4-10.5-4.4-16.3C1976.1,2220,1977.6,2225.4,1979,2230.8z"/>
	<path class="st6" d="M2154,1990.2c-1.9,6.3-6.4,8.8-12.7,8.4C2145.5,1995.8,2149.8,1993,2154,1990.2z"/>
	<path class="st6" d="M1910.4,2375.3c4.8-6,11.5-3.9,17.6-3.8C1922.1,2372.7,1916.3,2374,1910.4,2375.3z"/>
	<path class="st6" d="M1501.8,2383.4c4.7-0.4,9.3-0.8,12.5,3.7C1510.1,2385.9,1505.9,2384.7,1501.8,2383.4z"/>
	<path class="st6" d="M1490.5,2378.9c4.5,0.2,9.2-0.1,11.7,4.8C1498.3,2382.1,1494.4,2380.5,1490.5,2378.9z"/>
	<path class="st6" d="M1930.3,2371.1c3.2-4.4,7.8-4.1,12.4-3.8C1938.6,2368.6,1934.4,2369.8,1930.3,2371.1z"/>
	<path class="st6" d="M2006.7,2339.9c2.6-3,5.1-5.9,7.7-8.9C2014.6,2336.3,2011.8,2339.1,2006.7,2339.9z"/>
	<path class="st6" d="M2014.8,2322.9c-4.9-3.1-4.4-7.8-3.9-12.5C2012.1,2314.5,2013.4,2318.7,2014.8,2322.9z"/>
	<path class="st6" d="M2011.1,2310.8c-5.1-2.6-4.7-7.3-4.7-11.8C2008,2302.9,2009.5,2306.8,2011.1,2310.8z"/>
	<path class="st6" d="M1991.2,2266.8c-5.2-2.6-4.8-7.4-4.7-12.1C1988.1,2258.7,1989.6,2262.7,1991.2,2266.8z"/>
	<path class="st6" d="M1986.7,2254.9c-4.7-3-4.3-7.6-4.1-12.2C1983.9,2246.7,1985.3,2250.8,1986.7,2254.9z"/>
	<path class="st6" d="M1982.6,2242.9c-4.7-3.1-4.3-7.8-3.9-12.5C1980.1,2234.6,1981.4,2238.7,1982.6,2242.9z"/>
	<path class="st13" d="M1586.4,1006.9c1.2,2.8,2.3,5.6,3.5,8.4C1588.7,1012.5,1587.6,1009.7,1586.4,1006.9z"/>
	<path class="st6" d="M1994.7,2274.9c-1.3-2.9-2.6-5.7-3.8-8.6C1992.1,2269.2,1993.4,2272,1994.7,2274.9z"/>
	<path class="st6" d="M1998.5,2282.9c-1.3-2.8-2.7-5.5-4-8.3C1995.9,2277.4,1997.2,2280.1,1998.5,2282.9z"/>
	<path class="st21" d="M2006.5,2298.6c-1.3-3.1-2.6-6.3-3.9-9.4C2003.9,2292.3,2005.2,2295.4,2006.5,2298.6z"/>
	<path class="st6" d="M2014.4,2331.1c0.1-2.8,0.1-5.7,0.2-8.5C2017.5,2325.5,2017.1,2328.3,2014.4,2331.1z"/>
	<path class="st6" d="M1954.7,2366c2.6-0.9,5.1-1.8,7.7-2.8C1959.8,2364.2,1957.3,2365.1,1954.7,2366z"/>
	<path class="st6" d="M1982.3,2355.1c2.6-1.4,5.2-2.8,7.8-4.2C1987.6,2352.3,1985,2353.7,1982.3,2355.1z"/>
	<path class="st6" d="M1994.5,2347.7c2.5-1.6,5.1-3.2,7.6-4.8C1999.6,2344.5,1997.1,2346.1,1994.5,2347.7z"/>
	<path class="st6" d="M1957.9,1999c-2.7-0.1-5.4-0.3-8.1-0.4C1952.6,1996.3,1955.4,1994.1,1957.9,1999z"/>
	<path class="st6" d="M2002.3,2342.8c1.6-1.2,3.2-2.3,4.8-3.5C2005.5,2340.5,2003.9,2341.7,2002.3,2342.8z"/>
	<path class="st6" d="M1942.6,2367.5c1.3-0.1,2.5-0.3,3.8-0.4c0,0-1.8,0.7-1.8,0.7L1942.6,2367.5z"/>
	<path class="st16" d="M2114.1,642c1.6-0.9,3.1-1.8,4.7-2.8C2117.2,640.2,2115.7,641.1,2114.1,642z"/>
	<path class="st6" d="M1485.5,2375.4c1.6,1.1,3.3,2.3,4.9,3.4C1488.7,2377.7,1487.1,2376.5,1485.5,2375.4z"/>
	<path class="st6" d="M2001.2,2286.7c-0.9-1.3-1.8-2.6-2.8-4C1999.3,2284,2000.2,2285.4,2001.2,2286.7z"/>
	<path class="st6" d="M1990.3,2350.8c1.6-1.2,3.1-2.4,4.7-3.6C1993.4,2348.5,1991.8,2349.6,1990.3,2350.8z"/>
	<path class="st6" d="M1842.8,414.7c-38.2-19.9-80.5-25.7-121.9-33.8c-75.6-14.7-152-27.1-228.8-28.6c-102.4-2-204.2,8.7-303.2,38.3
		c-37.6,11.2-75.5,21.4-113.5,30.7c-14.7,3.6-32.1,6.7-44.7-2.9c-22.5-17.1-45.1-14.2-69.6-8.1c-6.7,1.7-18.4,9.6-21.8-4
		c-2.8-11.2,9.1-11.2,15.8-14c27.7-11.3,55.9-21.5,78.9-41.5c3.5-11.5,14.2-15.5,23-20.9c43.1-26.6,86-53.4,122.6-88.9
		c3.3-3.2,7.2-5.9,10.5-9.2c25.3-25.3,25.2-48.7-1.9-71.5c-17.8-15-37.3-27.9-61.3-31.8c-5.4-0.9-12.7-0.5-12.9-9.2
		c57.5,0.4,113.4,10.2,167.9,28.1c1.5,1.2,3.6,2.1,4.5,3.7c5,8.8-19,6.7-7.3,14.4c10,6.6,24.2,2.7,34.9-5.8c1-0.8,2.3-1.3,3.4-1.9
		c8.7,5,9.7,13.9,10.6,22.4c1.6,15.3,0.8,30.5-2.7,45.6c-7,30-6.9,30.1,23.1,30.2c77.9,0.2,155.3-4.6,231.7-21.1
		c41.8-9,47.4-21.5,26.7-59.2c-23.1-42-59.6-70.7-97.8-97.8c-8.2-5.8-19.9-9.4-19-23c81.3,19.1,141.9,69.6,189.6,134.2
		c52.1,70.5,116.1,119.5,202.2,138.5c4.5,1,8.9,2.9,13,5c14.7,7.6,34.9,13.7,36,30.4c0.5,7.6-24.1,6.5-36.7,11.2
		c-9.9,3.7-19.7,7.7-29.4,11.8c-3,1.3-5.5,4.5-8.5,5C1840.4,394.1,1840.4,393.9,1842.8,414.7z"/>
	<path class="st7" d="M2294.9,163.2c0.2-1.3,0-2.9,0.7-3.8c9.6-12.2,14.7-34.4,32.2-31.5c19.1,3.1,14.3,26,17.7,40.7
		c15.7,68.9,10.5,137.7-3.5,206.2c-13,63.8-47.3,112.9-101.7,149.4c-45.8,30.7-102.3,42.8-142.6,83.5c-4.8,4.9-20.2-0.5-30.7-1.2
		c-20.7-1.1-38.7-8.6-54.4-22c2.3-16.2,13.1-27.1,23.5-38.3c42.8-45.8,90.2-86.6,140.1-124.1c44.7-33.6,71.3-78.4,89.4-129
		C2280.9,251.3,2288.8,207.4,2294.9,163.2z"/>
	<path class="st22" d="M1490.3,55.1c24,18.6,48.4,36.7,72,55.9c27.2,22.2,47.7,49.9,60.9,82.4c8.9,21.8,2.2,37.9-22,43.8
		c-90.2,22-182.1,26.6-274.5,25.5c-13.1-0.1-18.4-5.4-13.3-18.9c10.7-28.1,12.4-56.9,4.2-86c13-16,8.2-29.1-6.2-41.1
		c-25.1-21-47.3-44.8-67.5-70.7c-7.3-9.3-9.3-17.5,6.1-18.3C1331.6,23.8,1412.4,26.5,1490.3,55.1z"/>
	<path class="st3" d="M2294.9,163.2c7.2,42.2-8.6,81-19.4,120.1c-18.4,66.3-58.1,117.3-113.4,158.9
		c-54.5,40.9-106.9,85.1-147.8,140.8c-6.5,3.4-11.6-0.9-16.5-3.7c-34.7-19.7-67.3-42.1-93.9-72.3c-6.3-7.1-10.9-14.6-13.6-23.5
		c-7-13.5-13.9-27-20.9-40.5c5.2-6.8,12.8-6,20-6.5c111.1-8.2,211.7-43,297.4-116c19.8-16.9,36.8-36.3,51.3-57.9
		C2261.3,231.9,2278.5,197.9,2294.9,163.2z"/>
	<path class="st7" d="M2238.1,262.6c-11.5,33.6-36.8,55.6-63.6,76.4c-89.9,69.4-192.4,101.7-305.1,104.1c-20-38.1-18.1-46.5,23-55.3
		c41.4-8.9,84-12.5,126.1-18.3C2103.2,357.7,2177.5,324.3,2238.1,262.6z"/>
	<path class="st23" d="M1778.4,219.1c22.4-24.7,51.1-39.8,81.3-52.3c5.2-2.1,12-6,16.9-1.1c5.6,5.4-0.6,11.1-2.7,16.2
		c-10.2,24.5-20.8,48.8-31.3,73.2c-2.1,2.5-3.9,5.3-7.5,5.9C1814.8,264.1,1782.4,240.2,1778.4,219.1z"/>
	<path class="st16" d="M1778.4,219.1c17,19.8,33.9,39.9,64.2,36c-10.8,49.3-10.8,49.3-55,22.8c-2.3-1.4-4.5-2.7-6.8-4.1
		C1743,249.8,1742.9,247.3,1778.4,219.1z"/>
	<path class="st24" d="M1890.1,483.6c34,42.3,74.6,76.4,124.1,99.5c17.6,7.8,35.3,15.6,52.9,23.5c-4.2,1.3-8.4,2.6-12.6,3.9
		c-13.4-5.3-26.7-10.5-40.1-15.8c-48.6-27.4-96.2-56.1-128.9-103.2C1887.1,488.8,1888.6,486.2,1890.1,483.6z"/>
	<path class="st25" d="M1934.4,319c-0.2,8.5,6.3,16.8,0.6,25.4c-10.2-6.9-22.8-12-29.8-21.2c-4.5-6,7.4-9,13.1-12.1
		C1924.1,313,1930.5,313.4,1934.4,319z"/>
	<path class="st26" d="M1934.4,319c-6.9,0.4-12.9-0.8-16-7.9C1928.4,304.3,1935.9,302.6,1934.4,319z"/>
	<path class="st3" d="M862.2,446.7c-6.4,19.8-22.3,33.6-32.5,51.1c-8.1,21.2-27.4,32-43.8,44.8c-26.2,20.5-55.3,36.7-85.7,50.1
		c-3.2,1.4-6.3,1.9-9.7,1.4c-5.3-1.1-10-3.8-14.4-6.8c-47.3-32.3-96.9-61.5-140.4-99C471.2,432.6,421,366.2,391,285.5
		c-5.6-15.1-3.8-31.4-8.8-46.6c-3.6-35,7.4-68.2,12.5-102.1c1.1-7.4,5-14.6,12.8-16.3c7.2-1.6,12,4.7,16.3,9.6
		c14.5,16.8,22,37.5,31.6,57.1c10.2,20.7,23,40.1,34.7,60.1c51.5,73.6,121.6,120.9,207.4,145.8c48.5,14.1,98.5,21.7,147.7,32.7
		c7.5,1.7,16,2.1,21.4,9.2c-0.3,1.3-0.5,2.6-0.8,3.9C863.8,441.1,864.9,444.8,862.2,446.7z"/>
	<path class="st22" d="M1114.2,119.4c29.8,3.8,55.9,16.5,78.1,35.9c31.8,27.9,31.3,53.3,0.6,82.7c-47.4,45.4-102.7,79.7-158.7,112.9
		c-24.7-0.7-47.5-7.6-65.8-24.3c-11.8-10.9-24.9-6.9-37.7-7.3c-6.4-0.2-7.7,4.2-5.5,9.6c11.2,28-19.1,43.5-20.5,67.7
		c-0.1,0.9-3.1,1.6-4.7,2.4c-0.5-1.9-1.3-3.7-1.6-5.6c-1-6.2,2.4-13.7-5.4-17.8c-22.9,21.8-37.1-8.3-56.2-10.5
		c-13.3-1.5-4-17.1-1.6-25.4c3.1-10.6,7.9-22,15.4-29.7c20.2-20.7,12.7-34-8.4-46.7c-29.2-17.5-60-31.5-91.3-44.7
		c-8.5-3.6-19-6.8-20-17.4c-1.2-12.2,10.1-16.4,18.9-20.5C832.3,142,920.4,126,1010.5,120C1044.9,117.7,1079.7,119.5,1114.2,119.4z"
		/>
	<path class="st7" d="M382.2,239c13.1,41.9,28.2,82.9,51.2,120.6c48.6,79.6,116.5,139.3,194.6,188.4c21.4,13.4,41.5,28.7,62.3,43.1
		c-1.1,9.8-9.1,9.2-15.7,10.1c-5.6,0.7-11.5-1.6-17,1.4l-1.8-0.3l-1.7,0.8c-6.7,2.4-13.3,3.8-19.7-0.8c-10.6-17.2-27.9-26-44.9-34.9
		c-25.9-13.6-52.5-25.9-78.2-39.9c-67.7-36.7-107.2-94.1-120.3-169.5C384.3,318.7,379,279.1,382.2,239z"/>
	<path class="st7" d="M866.7,435c-114.2-20.9-231.1-34.4-322.6-117.6c-22.2-20.2-43.1-41.3-53.9-70.1
		c75.9,88.5,179.1,113.9,288.7,124.4c23.2,2.2,46.4,3.6,68.8,10.9C884.1,394.4,886.6,401.1,866.7,435z"/>
	<path class="st27" d="M657.7,602.6c10.9-3.8,21.8-7.7,32.6-11.5c54.1-19.8,99.1-53,139.4-93.3c1.7,1.9,3.5,3.7,5.2,5.6
		c-35.7,43.7-84.4,69.3-133.1,94.9c-9.2,2.8-18.4,5.5-27.7,8.3C668.7,605.3,663.2,604,657.7,602.6z"/>
	<path class="st27" d="M634.6,602.3c6.6,0.3,13.1,0.5,19.7,0.8C647.5,608.2,640.8,609.9,634.6,602.3z"/>
	<path class="st27" d="M670.8,607.3c-4.1,1-8.2,2.1-12.3,3.1C662.5,609.3,666.7,608.3,670.8,607.3z"/>
	<path class="st7" d="M862.2,446.7c1.2-2.6,2.4-5.3,3.7-7.9C864.6,441.5,863.4,444.1,862.2,446.7z"/>
	<path class="st4" d="M286.3,1744.6c7.9-55.4,13.5-111.6,33.9-164.7c12.1-31.6,37.3-33.9,71.7-4.5c21.2,18.1,40.1,38.9,59.2,59.2
		c8.1,8.7,11.4,18.4,8.9,32.4c-5.2,28.5,1.4,56.7,12.3,83.4c5,12.3,2.9,17-10.1,23.3c-53.3,26-105.3,32.9-158.7,0.3
		C291,1766.6,283,1759.9,286.3,1744.6z"/>
	<path class="st10" d="M2330.7,1502.7c-12.9,16.9-27.4,32.5-51.2,27.5c-22.9-4.8-30-24.9-35.5-44.3
		c-16.2-57.6-25.4-116.7-31.6-175.9c-7.6-73.1-23.6-145.2-26.2-218.9c0,0-0.1-1.3-0.1-1.3c12-7.4,21.7-1.3,30.9,5.7
		c14.8,11.2,23.5,26.9,30.1,43.8c21.9,55.8,38.7,113.2,49,172.3c8.7,49.8,20.2,98.9,32.7,147.9c2.9,11.6,5.4,23.3,1.9,35.3
		C2330.8,1497.4,2330.8,1500,2330.7,1502.7z"/>
	<path class="st4" d="M2330.8,1494.7c-23.8-82.8-36.2-168.2-57.1-251.6c-10.1-40.4-21.3-80.9-40.7-118.2
		c-9.9-19.1-23.6-33.7-46.9-35.1c-8.6-61-17.2-122-25.9-182.9c-4.2-29.5-8.9-58.9-13.2-88.4c-0.4-2.4,0.1-7,1.1-7.2
		c5.3-1.4,6.2,3.8,8.1,6.9c23.1,38.3,41.2,79,58,120.4c41.7,103,83.4,205.9,105.9,315.4c15,72.9,30.7,145.7,18.5,220.9
		C2337.3,1482.2,2336.5,1489.3,2330.8,1494.7z"/>
	<path class="st28" d="M386.8,1207.2c2.6,2.5,5.1,5.1,7.7,7.6c-4.7-0.8-10.8,2.7-13.5-4.1C380.8,1210.4,384.7,1208.4,386.8,1207.2z"
		/>
	<path class="st29" d="M1179.4,945.5c0.6,30.7-7.2,70-29,105.8c-29.4,48.2-79.3,50.3-105.5,1.1c-41.1-77.3-39.3-156.9,4.9-232.3
		c28.1-48,75.8-45,104,3.1C1174,857.6,1179.3,895.6,1179.4,945.5z"/>
	<path class="st2" d="M1646.2,2190.7c2.7,0,5.4,0,8.1,0c4.3-2.6,7.6-2.3,9,3.2c-0.8,1.9-2.1,3.3-3.8,4.4c-5.3,2.5-11.3,2.8-16.5,5.5
		c-19.9,8-40.9,12.7-60.5,20.8c-0.8,0.8-1.9,1.2-2.9,0.9c0.3,0,0.4,1.1,0.4,1.1s0.9-0.7,1-0.8c3.3-2.5,6.9-3.8,10.7-4.8
		c65.4-23.1,132.9-29,201.4-23.5c28.7,2.3,57.5,7.8,83.9,21c1.8,1.4,3.6,2.9,5.2,4.5c2.6,8.1,5.3,16.1,7.9,24.2
		c9.4,13.8,11.8,28.3,4.1,43.7c-0.5,23-13.7,35.2-34.9,39.7c-87.4,18.5-175.8,12.6-264,10.6c-7.9-0.2-15.8-1.8-23.7-2.3
		c-48-3-67.1-20.3-73.6-66.7c-1.4-9.8-1.4-20.4-5-29.3c-9.3-22.7-7.8-38.2,21.2-39.7c5.3-0.2,10.7-0.3,16-0.5
		c13-5.1,27.1,1.6,40.1-3.7c4-0.1,7.9-0.2,11.9-0.3c6.2-4.3,14.1,0.8,20.2-3.7c2.6-0.1,5.2-0.1,7.8-0.2c7.5-4.8,16.7,1,24.2-3.8
		c2.6-0.1,5.1-0.1,7.7-0.2C1643.5,2188.8,1644.8,2188.7,1646.2,2190.7z"/>
	<path class="st2" d="M1190.7,2235.1c3.9-0.1,7.8-0.3,11.7-0.4c4.8-3.9,11.5,0.4,16.3-3.6c1.1,0.2,2.3,0.3,3.4,0.4
		c-12,23.7-11.7,50-15.9,75.4c-4,24.4-15.9,36.3-42.9,36.5c-108.4,1.1-216.7-2.4-324.9-9c-15.2-0.9-33.3,0.5-43.4-15
		c-8.1-12.4-6.8-27.7-2.7-40.7c4.3-13.5,18.4-7.3,28.2-7.5c35.3-0.8,70.6-0.5,105.8-0.6c2-1.2,3.7-1,5.3,0.6
		c4.9,15.5,15.9,19.5,30.9,16.8c26.8-4.7,54-5.3,81-6.6c19.5-0.9,31.5-6.4,36.1-25.5c2.6-4,7.8-1.7,10.9-4.6
		c28.5-0.7,56.3-5.8,83.9-12.3C1179.2,2234.8,1185.9,2239.2,1190.7,2235.1z"/>
	<path class="st10" d="M1090.5,2251.2c-2.7,1.3-5.5,2.6-8.2,3.9c-7.5,7.7-17.5,9-27.3,10.5c-32.8,5.1-65.8,8.1-98.7,11.5
		c-9.2,1-18.7,2.1-26-5.9c-1.3-0.2-2.6-0.5-4-0.7c0-1.2,0-2.4,0-3.5c21.1-29.2,51.8-43.2,85.1-51c24.3-5.7,45.6,3.2,63.2,21.1
		C1079.6,2242.1,1081.9,2250.3,1090.5,2251.2z"/>
	<path class="st30" d="M1718.5,2183.1c5.3-0.3,10.6-0.5,15.8-0.8c37.3-3.8,74.6-7.5,112-11.3c38.6-7.4,37.2,18.2,35.9,43.6
		c-1.6,1.6-3.5,2.6-5.8,2.8c-46.6-17.7-95.3-22.2-144.5-24c-4.4-0.9-8.9-1.3-12.6-4.3C1717.4,2187.3,1717.1,2185.3,1718.5,2183.1z"
		/>
	<path class="st6" d="M1894.3,2291c-1.4-14.6-2.8-29.1-4.1-43.7c0.9-4.3,1.7-8.5,2.6-12.8c3.5,2.7,7.9,4.7,10.4,8.1
		c5,6.8,9.9,14,13.3,21.8c3.8,8.9,18.8,16.5,9.3,26.8C1918,2299.7,1904.9,2295.8,1894.3,2291z"/>
	<path class="st6" d="M1878.5,2214.9c1.2-0.2,2.4-0.3,3.7-0.2c0,2.8,0.1,5.6,0.1,8.4c-1.5-0.2-3.1-0.4-4.6-0.6
		C1875.9,2219.7,1875.9,2217.2,1878.5,2214.9z"/>
	<path class="st31" d="M1011.2,2179.5c1.1,0.6,2.1,0.6,3.1-0.1c49.6,2.6,97.5,11.8,141.8,35.6c3.7,2,9.3,6.8,8.8,9.3
		c-1.1,5.5-6.3,2.3-9.4,0.7c-64.7-33.2-133.5-36.9-204-29.3c-8.5-0.2-18.1,6.7-24.9-4.1C954.8,2187.5,983,2183.5,1011.2,2179.5z"/>
	<path class="st32" d="M926.6,2191.5c7.5,6.3,16.7,1.7,24.9,4.1c-8.4,1.2-16.7,2.9-25.1,3.5c-6.3,0.4-12.6-0.7-19-1.1
		C912.6,2192.1,919.8,2192.3,926.6,2191.5z"/>
	<path class="st5" d="M1570.5,2199.1c-12.8,7.2-26.7,2.6-40.1,3.7C1543.2,2195,1557.2,2200.7,1570.5,2199.1z"/>
	<path class="st5" d="M1018.3,2167c0-13.3,0-26.6,0-40C1024.5,2140.3,1024.5,2153.6,1018.3,2167z"/>
	<path class="st5" d="M1630.3,2078.9c7.2,8.5,2.7,18.7,3.9,28C1627,2098.5,1631.6,2088.3,1630.3,2078.9z"/>
	<path class="st5" d="M1634.6,2191.1c-7.3,6.1-16.1,3.2-24.2,3.8C1617.6,2188.2,1626.5,2191.9,1634.6,2191.1z"/>
	<path class="st5" d="M1638.3,2139c6.2,5.7,3.3,13.2,4,20C1636.1,2153.2,1639,2145.7,1638.3,2139z"/>
	<path class="st5" d="M1602.6,2195.1c-5.9,5.5-13.3,3.4-20.2,3.7C1588.3,2192.8,1595.7,2195.6,1602.6,2195.1z"/>
	<path class="st5" d="M1218.7,2231.1c-4.6,4.8-10.6,3.6-16.3,3.6C1207,2229.6,1213,2231.3,1218.7,2231.1z"/>
	<path class="st5" d="M1190.7,2235.1c-4.6,4.8-10.6,3.7-16.4,3.7C1178.9,2233.6,1185,2235.3,1190.7,2235.1z"/>
	<path class="st5" d="M1554.3,2083c2.7,0,5.3,0,8,0C1559.6,2086.7,1557,2086.7,1554.3,2083z"/>
	<path class="st5" d="M1646.2,2190.7l-1.9,0.2c0,0-2,0-2,0c0-2.6,0-5.3,0-7.9C1643.6,2185.5,1644.9,2188.1,1646.2,2190.7z"/>
	<path class="st5" d="M1550.3,2071c0,2.7,0,5.3,0,8C1546.6,2076.3,1546.6,2073.6,1550.3,2071z"/>
	<path class="st5" d="M1634.3,2122.9c1.3,2.7,2.6,5.3,4,8C1637,2128.3,1635.6,2125.6,1634.3,2122.9z"/>
	<path class="st5" d="M1554.3,2063c-1.3,1.3-2.6,2.7-4,4C1551.6,2065.6,1553,2064.3,1554.3,2063z"/>
	<path class="st5" d="M1598.3,2059c1.3-1.3,2.7-2.7,4-4C1601,2056.3,1599.6,2057.6,1598.3,2059z"/>
	<path class="st5" d="M1582.3,2071c1.3-1.3,2.7-2.6,4-4C1585,2068.3,1583.7,2069.6,1582.3,2071z"/>
	<path class="st5" d="M1014.4,2175c1.3-1.3,2.6-2.7,3.9-4C1017,2172.3,1015.7,2173.6,1014.4,2175z"/>
	<path class="st5" d="M1558.3,2055c-1.3,1.3-2.6,2.7-4,4C1555.6,2057.6,1557,2056.3,1558.3,2055z"/>
	<path class="st5" d="M1602.3,2055c1.3-1.3,2.7-2.7,4-4C1605,2052.3,1603.7,2053.6,1602.3,2055z"/>
	<path class="st5" d="M1606.3,2051c0-1.3,0-2.6,0-4c0.4,0.9,1,1.8,1.3,2.8C1607.7,2050.1,1606.8,2050.6,1606.3,2051z"/>
	<path class="st5" d="M1566.3,2083c1.3-1.3,2.7-2.6,4-4C1569,2080.3,1567.6,2081.6,1566.3,2083z"/>
	<path class="st33" d="M1662.1,2194.8c-2.6-1.4-5.2-2.7-7.8-4.1c16-2.6,32-5.1,48.1-7.7c1.4,1.9,1.6,3.9,0.6,6
		c-1.7,2.9-4.2,5-7.2,6.4C1684.5,2198.9,1673.1,2204.8,1662.1,2194.8z"/>
	<path class="st34" d="M1702.4,2186.8c0-1.3,0-2.5,0-3.8c5.4,0,10.8,0.1,16.1,0.1c0,1,0.1,1.9,0.3,2.8
		C1713.7,2192.1,1708.2,2191.8,1702.4,2186.8z"/>
	<path class="st1" d="M1682.8,934.8c-1.3,21.1,1.4,42.5-7,62.9c-6.4,15.7-13.4,31.5-32.1,34.9c-17.7,3.2-27.2-10.2-37.2-21.8
		c0,0,0,0,0,0c-2.6-2-1.7-5.8-4.2-7.9c-13.8-35.3-15.1-71-3.1-106.9c1.3-4,5-7.2,7.6-10.7c1.4,3.4,2.6,6.9,4.2,10.2
		c4.3,8.9,7.6,19.4,19.6,20.2c13.6,0.8,19.1-9.9,24.7-19.8c2.5-4.4,5.1-8.8,7.6-13.2c3.3,4.6,7.8,8.7,9.5,13.8
		C1676.6,909.1,1679.4,922,1682.8,934.8z"/>
	<path class="st13" d="M1602.3,1003c1.4,2.6,2.8,5.2,4.2,7.9C1605.1,1008.2,1603.7,1005.6,1602.3,1003z"/>
	<path class="st35" d="M1434.7,214.7c-28.8,2.1-54.2-2.3-68.6-30.4c-3.3-6.4-7.9-14.3-6.5-20.4c10.6-47.3-17.6-74.4-49.8-100
		c-2.5-2-4.6-4.4-6.9-6.7c2.8-0.7,5.8-2.4,8.4-1.9c69.2,12.4,135.9,30.6,187.9,82.4c21.4,21.3,19.1,43.5-5.1,61.4
		C1476,212.7,1455.9,217,1434.7,214.7z"/>
	<path class="st35" d="M1041.4,267c-9.4,1.8-18.2-3.7-27.3-7.5c-63.6-26.6-130.7-39.9-198-52.4c-13.4-2.5-35.3-4-36-15.4
		c-0.7-11.4,21.3-12.8,33.9-16.9c82.5-27.5,165.9-37,250.1-7.5c21.8,7.6,46.5,15.1,41.6,47C1101.7,239.5,1068.4,266.9,1041.4,267z"
		/>
	<path class="st11" d="M1042.4,1002.9c-13.6-53.9-10.8-106.7,12.1-157.6c9.3-20.7,21.3-42.5,47.9-42c27.4,0.6,38.1,23.5,47.6,45
		c4.2,9.5,5.7,20.2,8.5,30.4c-0.6,9.7,3.5,21.3-10.3,25.7c-5.2-0.5-7.7-4.4-10.5-8.2c-4.1-5.5-4-17.1-12.2-15.9
		c-7,1.1-6,12.2-8.8,18.7c-9.8,22.4-17.7,26.9-42.1,21.9c-10.8-2.2-8.5,6.2-9.1,10.9c-3.6,24.3,2,47.3,10.5,69.9
		c0.8,1.7,1.5,3.4,2.2,5.1c0.4,0.9,0.7,1.7,1,2.6c0.6,1.8,1,3.6,1.2,5.4c-0.1,1.9-0.7,3.6-1.9,5.1c-12.6,3.9-21.9-5.1-32.6-8.5l0,0
		C1044.2,1008.8,1044.8,1005.3,1042.4,1002.9z"/>
	<path class="st13" d="M1045.9,1011.4c13.5-7.8,21.9,8.1,34,7.2c0.6-0.3,1.1-0.9,1.7-1c13.8-1.3,29.3,6.6,40.8-7.5
		c14.4-17.7,19.9-38.5,21.9-60.6c1.4-15.5-5.8-31.4,2.3-46.6c11.1-4.5,5.7-17.1,11.9-24.1c13.4,49.3,8.4,97.6-10.6,144
		c-9.4,23-20.8,50.3-51.6,47.5C1063.5,1067.3,1053.1,1039.4,1045.9,1011.4z"/>
	<path class="st13" d="M1042.4,1002.9c1.2,2.8,2.3,5.6,3.5,8.4C1041.7,1009.8,1041.7,1006.5,1042.4,1002.9z"/>
	<path class="st4" d="M1574.9,2319c-9.6,0-15.6,0.5-21.5-0.1c-8.5-0.9-18.7,4.3-23.9-8.3c-5.1-12.4-1.6-21.8,6.3-31
		c31-36.3,71.6-51.4,118.1-52.4c33.9-0.8,68.3-2.5,92.3,29.4c8.4,11.2,15.8,22.9,10.1,36.3c-5.9,13.8-18.3,18.2-34.2,18.7
		C1671.8,2312.9,1621.6,2316.4,1574.9,2319z"/>
	<path class="st36" d="M1662.1,2194.8c12.1-1.5,24.2-2.9,36.3-4.4c10.8-3.8,22.2,0.9,33-2.9c50.4,1.8,100.9,3.5,147.2,27.3
		c-0.3,2.5-0.6,5.1-0.8,7.6c-97.3-33.3-193.9-23.1-290.1,5.2c-5.3,1.5-10.3,2.6-9.9-5.8c21.6-7.7,43.1-15.5,64.7-23.2
		c5-3.8,11.6,0.2,16.7-3.4C1660.1,2195.6,1661.1,2195.4,1662.1,2194.8z"/>
	<path class="st37" d="M1577.7,2221.9c3.3,1.9,6.6,3.8,9.9,5.8c-4.2,1.4-8.3,2.7-12.5,4.1c-4.2,1-9,3.1-8.6-4.6
		C1570.2,2225.4,1573.9,2223.7,1577.7,2221.9z"/>
	<path class="st38" d="M1566.5,2227.2c2.9,1.5,5.7,3.1,8.6,4.6c-4.6,2.9-9.3,4.9-14.7,1.8
		C1562.4,2231.4,1564.4,2229.3,1566.5,2227.2z"/>
	<path class="st10" d="M1659,2195.3c-5.6,1.1-11.1,2.3-16.7,3.4C1647.1,2193.8,1653,2194.2,1659,2195.3z"/>
	<path class="st4" d="M930.3,2271.2c50.7-5.4,101.3-10.7,152-16.1c2.3,23.8-7.6,32.6-32.3,32.6c-33.6,0-67.3,4.6-100.9,7.6
		C929.9,2297,925.9,2287.6,930.3,2271.2z"/>
	<path class="st10" d="M1731.3,2187.6c-11,1-22,1.9-33,2.9c1.4-1.2,2.7-2.4,4.1-3.6c5.5-0.3,11-0.6,16.4-0.9
		C1723,2186.5,1727.2,2187,1731.3,2187.6z"/>
	<path class="st39" d="M1657.7,992.9c-6.1-0.4-7.8-4.5-7.7-9.4c0.1-8.4,2.8-16.6,11.1-19.4c6.3-2.1,9.6,3.7,8.9,9.7
		C1668.9,981.9,1666,989.2,1657.7,992.9z"/>
	<path class="st40" d="M1146.6,902.9c6.4,35.8,6.9,71.1-12.7,103.3c-13.2,21.8-31.1,29.9-54,12.4c-0.8-1.1-1.6-2.2-2.5-3.4
		c-0.7-1.7-1.7-3-3.1-4.1l-0.1-0.1c-1.3-1.5-2.8-2.9-3.2-5c-13.2-30.1-16.5-61.2-8.6-93.2c0.7-2.9,2.5-5.5,3.8-8.3
		c1.6,1.8,3.4,3.5,4.8,5.4c14.6,19.4,26.2,13,36.2-4.3c2.6-4.5,4.5-9.6,6.2-14.6c2.9-8.9,5.4-17.9,8.1-26.9
		c12.4,6,17,17.8,21.6,29.5C1144.4,896.6,1145.4,899.8,1146.6,902.9z"/>
	<path class="st13" d="M1071,1006c1.1,1.7,2.1,3.3,3.2,5C1073.1,1009.3,1072.1,1007.7,1071,1006z"/>
	<path class="st13" d="M1074.2,1011.1c1,1.4,2.1,2.7,3.1,4.1C1076.3,1013.8,1075.3,1012.5,1074.2,1011.1z"/>
	<path class="st41" d="M1121.8,967c1.4-9.4-1.5-20.4,9.4-23.1c7.6-1.9,7.3,6.2,6.7,11.1c-1,9.1-1,20.9-11.5,23.1
		C1118.3,979.8,1124,970,1121.8,967z"/>
</g>
</svg>
