<?xml version="1.0" encoding="utf-8"?>
<!-- Generator: Adobe Illustrator 23.0.6, SVG Export Plug-In . SVG Version: 6.00 Build 0)  -->
<svg version="1.1" id="Calque_1" xmlns="http://www.w3.org/2000/svg" xmlns:xlink="http://www.w3.org/1999/xlink" x="0px" y="0px"
	 viewBox="0 0 307.7 311.9" style="enable-background:new 0 0 307.7 311.9;" xml:space="preserve">
<style type="text/css">
	.st0{opacity:0.21;}
	.st1{fill:#0A0B0D;}
	.st2{fill:#454949;}
	.st3{fill:#3BA7FF;}
	.st4{fill:#FFFFFF;}
	.st5{fill:#2C7CBD;}
	.st6{fill:#BDBDBD;}
	.st7{fill:#BCBDBD;}
	.st8{fill:#2C7CBC;}
	.st9{fill:#2C7BBC;}
	.st10{fill:#2B79B9;}
	.st11{fill:#39A2F8;}
	.st12{fill:#BBB5B5;}
	.st13{fill:#B5BCBC;}
	.st14{fill:#1C507A;}
	.st15{fill:#081622;}
	.st16{fill:#010102;}
	.st17{fill:#CFCFCF;}
	.st18{fill:#D6D6D6;}
	.st19{fill:#CECFCF;}
	.st20{fill:#F1F1F1;}
	.st21{fill:#3BA7FE;}
	.st22{fill:#3596E5;}
	.st23{fill:#ACACAC;}
	.st24{fill:#FEFEFE;}
	.st25{fill:#BBBBBB;}
	.st26{fill:#EBEBEB;}
	.st27{fill:#C3C3C3;}
	.st28{fill:#010101;}
	.st29{fill:#3B3535;}
	.st30{fill:#B2B5B5;}
	.st31{fill:#BAC3C3;}
	.st32{fill:#F1F2F2;}
</style>
<g>
	<path d="M298,196.2c-1.6-11.1-3.8-22.1-6.1-33c-1.8-9-6.5-17.1-9.6-25.7c-1.6-4.3-2.3-8.4-0.4-12.9c1.2-2.8,1.2-6-1.4-8.4
		c-5.4-5-10.1-10.7-14.9-16.1c-3.7-4.2-7.4-8.3-11.8-11.8c-0.5-0.3-1.1-1-1.5,0.2c0.2,1.1,1.1,1.8,1.8,2.5c2.9,3.1,6,5.9,8.9,9.1
		c4.9,5.4,9.2,11.2,14.7,16.1c2.8,2.5,3.5,5.1,2,8.4c-0.2,0.4-0.3,0.8-0.4,1.2c-0.9,2.4-0.9,4.8-0.3,7.3c1.1,4.2,2.5,8.2,4.2,12.2
		c3.2,7.5,6.3,15.1,7.8,23.2c1.4,7.5,2.6,15,4.1,22.5c0.6,3,0.6,6,0.8,9c0.6,8.7-3.8,14.4-11,18.2c-3.7,2-7,4.4-9.9,7.5
		c-1.2,1.3-2.5,2.5-3.7,3.7c-7.1,6.8-15.4,11.1-25.3,11.8c-3.3,0.2-6.4-0.6-9.1-2.6c-1.6-1.2-2.3-2.6-2.3-4.7
		c-0.1-5.9,0.5-11.7,0.5-17.5c0-2.4,0-2.3,2.4-2.7c5.8-1.1,10.9-3.4,14.1-8.7c0.5-0.8,1.2-1.6,0.8-2.7c-0.2-0.3-0.5-0.4-0.9-0.4
		c-1.3,0.3-2,1.3-2.7,2.2c-2.7,3.5-6.5,5.4-10.6,6.5c-2.4,0.6-2.8,0.1-3-2.3c-0.2-3,0.4-5.9,0.4-8.9c0-8.2,0.7-16.3,0.4-24.5
		c-0.1-1.8,0.6-3.4,1.5-5c1.6-2.7,3.7-5,6-7.1c0.8-0.7,1.9-1.9,1-2.9c-0.9-1.1-2.1-0.1-3,0.5c-1.8,1.2-3.4,2.5-4.6,4.3
		c-0.1,0.2-0.2,0.6-0.5,0.5c-0.2,0,0-0.5,0-0.8c0-2,0-3.9,0-5.9c0-3-1.1-5.4-3.4-7.2c-1-0.8-1.6-1.8-2.1-3.1
		c-3-8.1-6.1-16.2-11.1-23.4c-0.5-0.7-0.7-1.5-0.6-2.4c0.6-5.2,0.9-10.4,3.3-15.2c0.2-0.4,0.4-0.9,0.4-1.4c0.1-0.8,0.3-1.7-0.6-2.1
		c-0.8-0.4-1.5,0.3-2,0.8c-0.5,0.6-0.9,1.3-1.2,2c-1.1,2.2-1.9,4.4-2.2,6.8c-0.8,5.3-1.4,10.6-1.9,16c-0.5,6.2-1.1,12.3-2.1,18.5
		c-0.2,1.3-0.8,1.8-2.1,1.8c-1,0-2,0.1-3,0c-5.8-0.6-11.5-0.5-17.3-0.7c-5.8-0.2-11.5-0.5-17.3-0.6c-3.7-0.1-7.3-0.2-11-0.4
		c-9-0.6-18-0.8-27-1.1c-5.2-0.2-10.4-0.3-15.6-0.6c-12.3-0.6-24.6-0.8-36.9-1.6c-2.8-0.2-3.1-0.3-2.8-3.1c0.4-3.8,0.4-7.6,1-11.4
		c0.6-4,0.2-7.9-1.2-11.7c-0.7-1.9-1.9-3.6-4.2-3.7c-2.2-0.2-3.2,1.5-4.1,3.1c-1.4,2.4-2.1,5.1-2.8,7.7c-1,3.9-1.3,7.9-2.4,11.8
		c-0.3,1.2-0.7,1.6-1.9,1.1c-4.2-1.8-8.7-2.2-13.2-2.3c-0.9,0.1-2,0.2-2.1,1.3c-0.1,1.1,1,1.4,1.8,1.8c0.6,0.2,1.2,0.3,1.8,0.4
		c1.7,0.3,3.4,0.5,5.2,0.4c2.8,0.4,5.3,1.4,7.5,3.1c0.2,0.2,0.5,0.4,0.4,0.7c-0.1,0.3-0.5,0.2-0.7,0.2c-4.5,0.2-6.6,2-7.7,6.3
		c-0.3,1.2-0.5,2.3-0.6,3.5c-0.1,2.1-0.3,2.1-2.3,1.5c-1-0.3-2-0.7-3-1c-0.8-0.2-1.6-0.5-2.5,0c-0.2,0.1-0.3,0.3-0.3,0.5
		c0.1,2.4,2.1,2.6,3.7,3.2c12.5,4.8,21.3,13.6,26.9,25.5c5.1,10.9-1.1,22-10.2,26.5c-5.5,2.7-11.3,4.3-17.3,5.4
		c-8.4,1.6-16.5,0.9-24.2-2.7c-4.2-2-7.7-5.1-11.9-7.2c-5.4-2.7-7.3-8.2-7.8-14.2c-0.5-6.4,0.5-12.6,1.9-18.9
		c0.8-3.7,1.2-7.4,1.1-11.1c-0.1-1.4-0.2-2.9-1.2-4c-2.8-3.1-2.5-6.5-1.4-10.1c1.6-5.1,3.8-10,5.9-14.9c2.8-6.3,6.2-12.3,8.3-19
		c0.4-1.4,0.9-2.9,0.6-4.4c-0.8-3.4,0.7-6,2.8-8.2c6.4-6.5,12.7-13.2,19.6-19.3c1.1-0.8,2.1-1.7,3.3-2.5c0.6-0.5,1.4-0.9,2-1.5
		c3.4-3.1,7.2-3.4,11.4-1.6c1.7,0.7,3.6,1.2,5.5,1.3c1,0.1,2.5,0.4,2.7-0.9c0.3-1.3-1.2-1.5-2.2-1.7c-2.7-0.7-5.4-1.5-8.1-2.4
		c-0.3-0.1-0.9-0.2-0.8-0.5c0.2-0.5,0.7-0.2,1.1-0.1c1.2,0.5,2.2,1.3,3.5,1.5c1.6,0.3,2.2-0.3,1.8-2.1c-0.4-0.6-1-1-1.6-1.3
		c-3.7-1.9-6.9-4.6-10.1-7.3c-7.4-6.4-10.9-14.7-11.3-24.3c-0.3-5.3,0.6-10.4,1.9-15.5c0.2-0.7,0.4-1.4,0.7-2c0.5-1,1.1-1,1.7-0.2
		c1,1.2,1.8,2.5,2.5,3.9c1.1,2,2.2,4,3.5,5.8c4.2,4.5,8.8,8.5,14.7,10.7c5.6,2.1,11.3,3.4,17.1,4.4c2.3,0.4,4.6,0.8,6.8,1.5
		c1.1,0.3,2.2,0.7,2.5,2c0.1,2.2-0.9,4.1-2.1,5.8c-4.6,6.7-10.7,11.4-18.6,13.7c-1.1,0.5-2.5,0.3-2.8,1.9c1.3,1.5,2.7,0.4,4.1,0.3
		c9.6-2.5,16.4-8.5,21.2-17c1-1.8,1.7-3.9,0.7-6c-1.1-1.8-2.9-2.5-4.7-3.3c-1.7-0.8-3.6-1-5.5-1.5c-0.6-0.2-1.5-0.4-0.7-1.2
		c1.9-1.9,3.4-4.4,6.4-4.8c0.8-0.1,1.5-0.4,1.5-1.4c-0.2-1.7-1.5-2.5-2.8-3.3c-3.3-1.8-6.9-2.4-10.5-3.2c-1.2-0.3-2.9-0.3-3.1-1.7
		c-0.2-1.3,1.3-1.8,2.3-2.4c0.7-0.3,1.4-0.6,2.1-1c8.6-4.4,18-5.5,27.5-5.7c5.7-0.1,11.4,0.9,17,1.9c0.9,0,1.8,0.1,2.7,0.3
		c3.8,0.6,7.6,1.5,11.5,1.5c1.8,0,3.5-0.2,4.3-2.1c0.8-1.9,0.4-3.6-0.8-5.1c-1.3-1.6-2.7-3.1-3.9-4.7c-0.2-0.2-0.4-0.4-0.5-0.7
		c-1.1-1.5-1-1.9,0.9-2.2c0.3-0.1,0.7-0.1,1.1-0.1c12-0.1,23,3,32.7,10.1c1.3,0.7,2.4,1.7,3.3,2.9c2.1,2.8,4.4,5.5,6.5,8.3
		c2.3,3,4.6,5.9,8,7.8c3.2,1.8,6.6,3.2,10,4.5c5,1.9,5,1.9,5,7.2c2.4,8.3,6.7,15.5,12.1,22.2c0.6,0.3,1.2,1.2,1.9,0.2
		c0.2-1.2-0.8-1.9-1.1-2.9c-0.8-1.4-1.8-2.7-2.6-4.1c-3.2-5.4-6.8-10.7-7.8-17.1c-0.2-1.1,0.4-1.1,1.2-1.1
		c6.5-0.1,12.9-0.8,19.3-1.8c4.6-0.7,9-1.8,12.8-4.6c0.3-0.2,0.6-0.3,0.8-0.5c0.1-0.1,0.2-0.1,0.2-0.2c0.2-0.1,0.3-0.3,0.4-0.4
		c0.1-0.1,0.3-0.3,0.4-0.4c0.8-0.8,1.6-1.6,2.4-2.4c2.3-3.1,4.1-6.6,5.8-10.1c0.4-0.8,0.8-1.7,1.3-2.4c0.7-1.1,1.4-1.1,2.1,0
		c0.6,1,1,2.2,1.3,3.3c0.4,2.3,0.5,4.5,0.3,6.9c-1.1,11.6-6.4,20.8-15.1,28.3C237.3,65,231.8,68.7,226,72c-0.9,0.5-1.9,0.9-2.1,2.2
		c1.2,2,2.7,1,4.2,0.4c0.6-0.5,1.3-0.9,1.7-1.6c2.8-1.8,5.5-3.6,8.3-5.5c11.3-7.9,19.1-18.1,21.5-31.9c0.9-5,0.9-10-1.7-14.6
		c-2-3.6-4.5-3.6-6.6-0.1c-1,1.8-2,3.7-2.9,5.6c-3.3,7.1-8.5,12.1-16.4,13.7c-7.1,1.4-14.4,2-21.6,2.6c-0.4,0-0.9,0-1.2-0.3
		c-2.7-2.9-6.5-3.8-10-5.4c-0.6-0.3-1.5-0.3-1.3-1.3c0.7-3.5-1.1-2.5-2.8-1.6c-0.4,0.2-0.9,0.7-1.3,0.3c-0.2-0.3-0.2-0.9-0.1-1.4
		c0.4-2.6,1.5-5,3.1-7.1c0.5-0.7,1.2-1.5,0.6-2.5c-0.6-1-1.7-0.9-2.7-0.7c-2.8,0.4-5.5,1.4-8,2.5c-1.3,0.6-2.1,0.4-2.9-0.8
		c-5.8-8.8-13.9-14.4-24-17.4c-6.7-2-13.4-3.2-20.4-2.7c-1.5,0.1-3.3,0.1-4.1,1.7c-0.7,1.5,0.6,2.7,1.4,3.8c1.5,2,3.2,3.9,4.8,5.9
		c0.6,0.7,1,1.6,0.6,2.5c-0.4,0.9-1.4,0.9-2.2,0.9c-1.3,0-2.5-0.1-3.8-0.3c-6.1-1-12.2-2.1-18.4-2.9c-13.6-1.8-26.7-0.2-39.1,6.1
		c-2.2,1.1-5.2,2.5-4.8,5.3c0.4,3,3.6,3.5,6.3,4.1c2.8,0.6,5.7,1.1,8.3,2.5c0.9,0.5,1.7,0.8,0.2,1.7c-1.6,1-3.5,2-4.4,3.6
		c-2,3.3-4.4,2.8-7.5,2.1C65.4,38.5,56.3,32.8,50.9,22c-0.6-1.2-1.5-2.3-2.3-3.2c-2.7-3.1-4.6-2.9-5.9,1c-2.7,8-4,16.2-2.3,24.8
		c2,10.1,7.7,17.7,15.9,23.6c0.5,0.4,1.8,0.6,1.2,1.6c-0.8,1.2-1.8,2.5-3,3.2c-12.9,6.8-22.2,17.7-32,28c-1.8,1.9-3.1,4.3-2.4,7
		c0.8,3.3-0.2,6.1-1.4,8.9c-1.1,2.7-2.5,5.4-3.7,8.1c-4,8.4-8.2,16.7-10.2,25.9c-0.5,2.3-0.5,4.7,1.3,6.4c3,2.7,3,6,2.5,9.5
		c-0.3,2.3-0.7,4.6-1.2,6.9c-1.8,8-4.1,16-1.4,24.2c1.9,5.9,5.6,10.4,11.9,12.1c1.1,0.3,2,0.6,2.6,1.5c1.2,1.6,2.8,2.6,4.5,3.4
		c8.5,4.3,17.4,5.7,26.7,3.6c2.1-0.5,2.7-0.2,2.6,2.1c-0.5,6.3-0.7,12.5-1,18.8c-0.3,5.8,2.2,8.6,8,8.7c4.2,0.1,8.5,0.3,12.7,0.2
		c2.4,0,2.6,0.9,1.8,2.7c-0.7,2.4-1.2,4.7-2,7.1c-1.8,5.6-0.9,7.3,5,8.1c7.9,1.1,15.8,1.8,23.7,2.9c11.7,1.6,23.4,0.6,35-0.5
		c4.9-0.5,7-3.4,6.5-8.3c-0.3-2.5-0.7-5-1.2-7.5c-0.2-1.3,0-2.5,1.4-2.4c1.3,0.1,3.4-1.3,3.8,1.4c0.4,2.2,1,4.3,1.3,6.4
		c1,6.7,2.6,8.5,9.3,9.8c1.7,0.3,3.4,0.5,5,0.5c14.5,0.5,28.8-1.6,43.3-2c2.6-0.1,5-0.8,7.3-1.9c4-1.9,4.6-4.1,2.4-8
		c-0.8-1.4-3-3.2-2.3-4.2c0.9-1.3,3.4-0.2,5.1-0.2c3.9-0.1,7.9,1.3,11.5-1.2c1.9-1.5,2.5-3.5,2.6-5.7c0-1.3,0.1-2.7,0.1-4
		c0-0.4,0.2-0.8,0.3-1.1c0.3,0.2,0.6,0.3,0.9,0.5c4.9,4,10.5,4.3,16.4,3c10.5-2.3,18.7-8.3,25.7-16.1c2.2-2.5,4.4-4.8,7.6-6.3
		C295.3,215.9,299.8,208,298,196.2z M78.3,133.3c-0.1,2.9-0.6,5.8-0.6,8.6c0,2.7-0.6,4.2-3.3,3.2c-5.3-0.3-6.8-1.9-5.9-6.8
		c1.1-6.4,2-12.8,4.7-18.8c0.4-1,0.8-2.5,2.1-2.4c1.3,0.1,1.9,1.5,2.3,2.7C79.1,124.3,78.4,128.8,78.3,133.3z M227.2,151
		c-1.7-0.2-3.4,0-5.1,0c-7.4-0.3-7.3-0.3-6.3-7.5c0.8-5.2,1.3-10.3,1.9-15.5c0-0.4,0.2-0.7,0.3-1.1c0.3,0.3,0.6,0.6,0.8,0.9
		c4,6.8,7.1,13.9,9.7,21.3C229.1,150.5,229,151.2,227.2,151z"/>
	<path class="st0" d="M230.9,250.7c-0.3,1.3,0.8,0.8,1.4,0.9c9.9,1.5,19.9,3,29.5,6.3c3.5,1.2,6.8,2.7,9.5,5.3
		c4.6,4.6,4,10.2-1.6,13.5c-6.6,3.9-14,5.3-21.4,7c-0.9,0.2-2.9-0.3-1.1,1.9c1.3,1.6-0.7,4.7-3,4.9c-12,1-24,2-35.9,3
		c-16.5,1.4-33,2.8-49.6,4.1c-10.9,0.9-21.9,1.6-32.8,2.6c-8.1,0.7-16.3,1.1-24.3,2.7c-2.6,0.5-4.3-1.2-5.9-3
		c-2.7-2.9-5.5-5.6-7.9-8.8c-2.3-3.1-5.3-3.8-8.9-4.2c-13.2-1.3-26.4-3.3-39.2-6.8c-4.7-1.3-9.6-2.6-13.4-6c-4.4-3.8-4-8.1,0.8-11.3
		c5.1-3.4,10.9-4.9,16.7-6.3c9.6-2.3,19.3-3.7,29.1-4.7c1.1-0.1,2.1-0.3,2.8-1.2c0.8,0.8,0.4,1.7,0.2,2.6c-0.6,2.3-1.4,4.4-1.9,6.7
		c-0.6,2.5,0,3.8,2.5,4.5c3.8,1.2,7.8,1.4,11.7,1.8c5.9,0.6,11.8,1.2,17.6,2c6.8,0.9,13.5,0.6,20.2,0c3.4-0.3,6.8-0.2,10.1-0.7
		c1.4-0.2,2.8-0.4,4-1.1c2.2-1.3,3.3-3.1,3.1-5.8c-0.2-2.6-0.6-5.2-1.1-7.7c-0.4-2.4,0.3-3.6,2.4-3.9c2.6-0.4,3.8,0.3,4.3,2.7
		c0.7,2.7,1.2,5.5,1.6,8.3c0.4,2.7,1.9,4.5,4.4,5.5c2,0.8,4.2,1.4,6.4,1.5c8.1,0.5,16.2,0,24.3-0.6c5.8-0.4,11.6-1.1,17.5-1.1
		c3.8,0,7.6-0.4,11.1-2.2c3.2-1.7,3.7-3.3,1.9-6.5c-0.5-0.9-1.1-1.8-1.7-2.7c-1.3-2.2-0.7-3.2,1.9-3.3c0.4,0,0.8,0,1.3,0
		c4.2,0.4,8.4,0.8,12.6-0.4C230.4,250.4,230.7,250.6,230.9,250.7z"/>
	<path class="st1" d="M228,74c0.6-0.3,1.2-0.6,1.8-0.9c1.5,1.6,3.5,2.5,5.5,2.9c6,1.2,10.5,4.7,14.8,8.9c1.2,1.2,2.4,2.3,3.7,3.5
		c-0.4,0.1-0.9-0.5-1.3,0.1c-1.1,0.1-1.8-0.6-2.6-1.2c-1-0.8-1.8-1.8-2.7-2.7c-2.9-2.8-5.9-5.1-9.9-6.1
		C233.9,77.6,230.8,76.2,228,74z"/>
	<path class="st2" d="M-27.7,295.1c-0.1,0-0.1,0.1-0.1,0.1c0-0.1-0.1-0.2-0.1-0.3c0,0,0.1-0.1,0.1-0.1
		C-27.8,294.9-27.7,295-27.7,295.1z"/>
	<path class="st3" d="M45.2,81.1c1-0.7,1.9-1.5,2.9-2.2c4.8-2.4,9.7-3.6,15.1-2c2.3,0.7,4.6,1.2,7,1.6c1.5,0.2,2.9,0.1,4.2-0.9
		c1.7-1.3,2.1-3,1.2-5.1c-0.3-0.8-1.1-1.5-0.8-2.5c7.9-2.3,14.1-7.1,18.8-13.8c1.8-2.5,3.4-5.2,2.4-8.6c-0.8-2.6-1.4-5.2-2.5-7.7
		c-0.6-1.4-0.3-3-0.4-4.5c-0.5-1.3-1.7-2-2.6-2.9c-3.1-2.6-6.7-4.2-10.3-6c-0.7-0.4-2.1-0.5-1.5-2c9.7-5.8,20.5-7.2,31.5-7.1
		c5.3,0,10.6,0.8,15.9,1.9c0.9,0.4,1.9,0.5,2.7,1c3.7,2.2,4.5,5.7,2,9.2c-2.3,3.2-5,6.1-8.5,8.1c-1.9,1.1-3.8,2.5-5.7,3.6
		c-0.8,0.5-1.7,1.1-2.3,1.8c-1.4,1.6-1.1,3.6,0.8,4.6c1.3,0.7,2.8,1,4.3,0.7c3.1-0.4,6.2-1.1,9-2.4c14.1-6.6,29.3-8.4,44.5-10.5
		c4.7-0.7,9.4-0.6,14.1,0c3.5,0.5,6.7,1.5,9.6,3.5c2.3,1.6,4.8,3.1,7.4,4.1c2.2,0.9,3.6,2,3.4,4.5c2.6,8.1,6.9,15.2,11.9,22
		c0.8,1.2,1.4,2.4,1.9,3.8c1.1,2.9,3.1,5.2,5.4,7.2c0.9,0.8,2,1.1,3.2,0.7c6.5-1.8,11.8,0.6,16.5,4.7c5.4,4.7,10.5,9.8,16.5,13.9
		c1.1,0.7,2,1.6,2.6,2.7c3.6,5.8,7.5,11.4,11.8,16.7c1.4,1.7,1.9,3.6,1,5.7c-0.7,1.7-0.7,3.4-0.3,5.2c0.8,4.2,2,8.2,3.8,12.1
		c3.5,7.6,5.9,15.4,6.7,23.7c0.5,5.5,2.1,10.9,2.6,16.5c0.6,7,1,14.1,0.1,21.1c-0.1,0.8-0.3,1.7-0.5,2.5c-0.8,3.4-1.4,3.9-4.8,3.9
		c-2.1,0-3.8,0.8-5.4,2.1c-1.7,1.5-2.9,3.3-3.9,5.2c-3.2,6.2-8.1,10.9-13.6,15.1c-2.4,1.9-3.5,1.4-4.1-1.7
		c-2.7-14.9-4.6-30-7.1-44.9c-1.3-7.3-2.3-14.6-3.4-21.9c-0.7-4.9-2-6.5-6.9-6.9c-3.7-0.3-5.1-2-6-5.4c-2.1-8.1-5.3-15.9-8.1-23.8
		c-2.1-5.7-3.6-11.4-4.2-17.4c-0.2-2.1,0.2-4,1.5-5.8c1.9-2.5,1.2-4.2-1.9-5.1c-1.2-0.3-2.3-0.5-3.5-0.6c-2.8-0.3-4.3,0.8-4.8,3.6
		c-0.2,1.5,0,2.9,0.2,4.4c0.7,5,1.5,10.1-0.2,15.1c-0.6,1.6-1.1,3.2-1.6,4.8c-1.3,4-2.3,8.1-3.1,12.3c-0.8,4.1-1.2,4.4-5.3,4.4
		c-11.2,0-22.4-0.7-33.6-0.4c-7.8,0.2-15.6,0.5-23.5,0.5c-13.1-0.1-26.2-0.5-39.3-0.6c-4.9,0-9.9-0.3-14.8-0.3
		c-3.1,0-3.6-0.5-3.6-3.6c-0.1-5.6,0.3-11.1-0.4-16.7c-1-7.1-3-13.7-8.5-18.9c-1.8-1.7-3.9-2.7-6.4-3c-2.6-0.3-3.8,1-3.1,3.5
		c0.6,2.2,1.5,4.3,2.3,6.4c0.9,2.3,0.8,2.7-1.4,3.9c-5.4,3.1-8,7.7-8.2,13.9c0,2.1-0.8,3.6-2.8,4.2c-3.5,1-6.3,3.4-9.8,4.5
		c-0.6,0.3-1.6-0.2-1.7,0.7c0,0.2,0.9,0.7,1.5,1c2.4,1.1,5,0.5,7.4,0.9c0.1,0.4,0,0.7-0.2,1c-2,2.3-2.5,5.1-2.5,8.1
		c0.1,2.9-0.3,3.3-3,4.4c-1.2,0.5-2.5,0.9-3.5,1.8l0,0c-1.2,1.8,0.2,2.8,1.3,3.7c2.6,2,5.3,4,8,5.9c1.2,0.9,2.3,1.9,3.2,3.1
		c3.6,4.9,7.4,9.8,9.6,15.6c1.4,3.7,1.5,7.4,0.5,11.2c-0.5,1.9-1.4,3.7-2.9,5.1c-0.3,0.3-0.7,0.6-0.9,0.9c-2.2,3.7-5.8,4.3-9.6,4.7
		c-6.2,0.6-12.5,1.5-18.7,2c-6.1,0.5-11.6-1-15.5-6.3c-1.2-1.6-2.6-3.2-3.9-4.8c-3-3.7-3.6-8.1-4-12.7c-0.6-6.2-0.3-12.4,1.1-18.5
		c0.5-2.1,0.4-4.4,0.1-6.5c-0.4-3-1.7-5.5-4.2-7.3c-1.2-0.8-1.6-1.9-1.3-3.3c1-4.8,1.9-9.5,3.6-14.1c0.2-0.5,0.4-1.1,0.7-1.5
		c3.6-4.8,5.9-10.2,8.9-15.3c1.8-3,3.2-6,1.5-9.5c-0.5-1-0.1-2,0.4-2.8c3.1-5.1,6-10.3,10.9-14.2C40.9,87.6,42.7,84,45.2,81.1z"/>
	<path class="st4" d="M64.6,161.5c-1.2-0.7-2.4-1.5-3.7-2.2c-1.3-0.4-1.7-1.2-1.6-2.5c0.1-2.1,0.4-4.2,0.7-6.2
		c0.1-0.8,0.6-1.4,1.4-0.6c2.5,2.5,5.7,4.2,7.8,7.1c1.6,2.8,4,4.9,6.1,7.2c5.2,5.8,10.4,11.5,15.6,17.2c4.3,4.7,8.9,9,13.4,13.5
		c0.7,0.7,1.6,1.4,2.1,2.4c0.4,1.2-0.3,2-1.1,2.8c-5.1,5.2-10.3,10.3-15.9,15.1c-2.7,2.4-5.1,5-7.7,7.5c-1.3,1.3-3,2.1-3.9,3.8
		c-0.9,1.3-2.3,2.1-3.5,3c-4.8,3.4-9.3,7.1-14.1,10.5c-0.5,0.3-1.4,0.8-1,1.3c0.3,0.4,1-0.4,1.5-0.8c8.2-5.9,16.3-12,24.5-18.1
		c8.2-6.1,16.4-12.2,24.6-18.3c0.8-0.6,1.7-1.3,2.8-1.4c1,0.1,1.6,0.7,2.4,1.3c3.7,2.9,7.2,5.9,11.2,8.4c5.3,3.3,11,5.4,17.2,6.1
		c4,0.4,7.6-1,11.2-2.5c6.4-2.5,12.2-6.2,17.6-10.4c0.8-0.6,1.5-1.3,2.6-1.2c1.8,0.4,2.9,1.9,4.2,3.1c15.2,12.8,30.1,25.9,45.4,38.5
		c0.5,0.4,1.3,1.3,1.5,0.9c0.4-0.7-0.5-1.1-1-1.5c-3.3-2.7-6.5-5.7-9.8-8.4c-0.6-0.5-1.1-1.1-1.6-1.7c-2.5-3.6-5.8-6.5-8.8-9.7
		c-7.6-8.1-14.9-16.5-22.9-24.3c-0.7-0.6-1.3-1.3-1.1-2.4c0.3-0.9,1-1.5,1.7-2.1c5.6-4.7,10.3-10.4,15.9-15.1c3.6-3,7.1-6.2,10.9-9
		c1.6-1.2,3.1-2.7,4.3-4.3c4.4-3.8,9.1-7.1,13.7-10.6c0.7-0.5,1.8-0.8,1.9-2c-1,0.1-1.5,0.9-2.2,1.4c-16.7,11.9-33,24.4-49.5,36.5
		c-5.5,4-10.9,8-16.3,12.1c-4.9,3.7-10.5,5.7-16.5,5.7c-5.9,0-11.5-2.1-16.2-5.9c-8.5-6.9-16.7-14.1-25-21.2
		C90.1,173.6,77,162.1,63.6,151c-0.4-0.3-0.8-0.6-1.2-0.9c-0.6-0.3-1.7-0.4-1.6-1.1c0.1-1,1-1.6,2-2c0.4-0.2,0.8-0.1,1.2-0.2
		c3.9,0.2,7.8,0.5,11.8,0.7c33.7,1.3,67.3,2.5,101,4c17.5,0.8,34.9,1.4,52.4,1.7c3.5,0.1,4.2,2.8,4.3,5.5c0.1,4.2-0.1,8.5-0.2,12.7
		c-0.5,19.6-1,39.2-1.6,58.7c-0.1,5-0.3,10-0.4,15c-0.1,3.3-2.2,5.3-5.4,5.1c-33.1-2-66.2-1.7-99.3-2.8c-22-0.7-44.1-1.1-66.2-1.6
		c-3.4-0.1-5.3-2.1-5.2-5.5c0.1-3.2,0.4-6.5,0.5-9.7c0.2-0.3,0.2-0.7,0.2-1c0.1-3.3,0.1-3.2,3.4-3.8c4.6-0.9,9.3-1.2,13.6-3.1
		c13.7-5.9,17.9-18.3,14.2-32c-1.7-6.5-5.4-11.9-9.8-16.8c-1.4-1.6-2.6-3.5-4.3-4.9C70.4,166.3,67.8,163.5,64.6,161.5z"/>
	<path class="st5" d="M51.1,136.9c2.9-2.5,6.4-4.1,10-5.3c1.4-0.5,1.9-1.3,1.8-2.7c-0.1-7.1,3-12.5,9.5-15.6c1.1-0.5,0.8-1,0.5-1.8
		c-1-2.5-2-5-2.8-7.5c-0.9-3,0.9-4.6,4-4.2c7.2,1.1,10.3,6.4,12.8,12.2c3.5,7.9,3.2,16.3,3.1,24.7c0,5.3,0,5.2,5.3,5.3
		c12.5,0.1,24.9,0,37.4,0.6c17.3,0.7,34.5-0.5,51.8-0.1c7.1,0.1,14.2,0.3,21.3,0.4c1,0,2.1,0.2,2.3-1.2c1.1-8.1,4.4-15.7,6-23.7
		c0.8-3.9-0.2-7.8-0.8-11.7c-0.7-4.5,0.7-7.8,3.9-8c2.6-0.2,5.2,0.2,7.5,1.6c1.8,1,2.2,3.1,0.9,4.3c-3.6,3.4-2.1,7.3-1.5,11.1
		c1.7,10,6.2,19.1,9.3,28.7c1.1,3.4,2.1,6.7,3.1,10.1c0.4,1.3,0.8,2,2.4,2c7.2,0.2,8.9,1.9,10,8.9c3.4,21.7,6.9,43.4,10.4,65.1
		c0.1,0.5,0.1,1,0.1,1.5c0.1,1.7,0.7,2.2,2.2,1c5.6-4.5,10.8-9.2,14.2-15.7c2.4-4.6,5.5-8.5,11.7-7.3c1.4,0.3,1.7-1.3,1.9-2.4
		c1.4-5.8,1.5-11.7,1.2-17.6c-0.5-10.9-2.9-21.6-4.6-32.3c-1-6.5-4.6-12.2-6.6-18.4c-1.7-5-4.2-10-1.5-15.5c0.5-1-0.2-1.9-0.8-2.7
		c-4.7-5.7-8.9-11.8-12.8-18.1c-0.7-1.1-1.9-1.9-3-2.6c-5.3-3.3-9.6-7.8-14.2-11.9c-5.2-4.6-10.6-8.1-17.9-5.7c-1.1,0.3-2.1,0-3-0.7
		c-3.7-3.2-6.3-7-7.1-11.9c0.5,0.2,0.9,0.4,1.4,0.6c0.9,0.3,2.8,2.2,3.6,3.6c1.3,1.3,2.6,0.9,4,0.1c0.5,0,1.1-0.2,1.4,0.1
		c3.2,2.8,7.3,3.4,11.1,4.8c3.5,1.3,5.8,4.1,8.5,6.5c1.1,1,2.3,2,3.5,3c9.9,9,17.7,19.9,27.4,29.1c1.9,1.8,1.8,4.2,0.8,6.1
		c-2.7,5.5-1.1,10.6,0.8,15.7c3.6,9.5,8.4,18.7,10,28.9c1.6,10.1,4.5,20,5.1,30.2c0.6,10.7-3.5,17.2-13.3,21.5
		c-2.5,1.1-4.4,2.8-6.1,4.7c-6.2,6.6-12.8,12.8-21.8,15.6c-4.7,1.5-9.4,2.7-14.3,1.4c-5.6-1.5-7.4-4-7.2-9.7
		c0.1-5.6,0.3-11.3,0.4-16.9c0-1.1,0-1.8,1.5-1.8c7.4-0.4,13-3.8,16.4-10.4c0.1-0.5,0-0.8-0.6-0.6c-3.1,3.5-6.1,7.1-10.8,8.5
		c-0.3,0.1-0.5,0.2-0.8,0.3c-4.6,1.8-5.7,1.2-5.6-3.6c0.3-11.1,0.6-22.3,0.9-33.4c0.1-3.6,2.8-5.8,4.5-8.6c0.3-0.5,0.8-0.8,1.2-1.2
		c1.2-1.3,2.9-2.1,3.2-4.1c-1.8,0.3-3.1,1.6-4.5,2.7c-1.6,1.2-2.7,2.7-3.4,4.5c-0.1,0.3-0.4,0.5-0.6,0.7c-0.1-0.3-0.2-0.6-0.2-0.9
		c0-3.1,0.1-6.2,0-9.3c-0.1-2.8-1.5-5-4-6.3c-0.7-0.3-0.8-0.8-1.1-1.4c-3-8.8-6.2-17.6-11.8-25.1c-0.4-0.5-0.5-1-0.4-1.6
		c0.7-5.7,0.9-11.5,3.7-16.8c0.4-0.7,1.1-1.8,0.2-2.3c-1.1-0.5-1.4,0.9-1.8,1.6c-2.9,4.8-3.1,10.3-3.8,15.7
		c-1.2,9.1-1.4,18.3-3,27.3c-0.2,1.3-0.6,1.8-1.9,1.7c-23.9-0.9-47.8-1.8-71.6-2.7c-16-0.6-32-1.3-48-1.9c-3.8-0.2-7.6-0.4-11.4-0.4
		c-1.5,0-1.8-0.5-1.6-1.9c0.4-4.6,0.7-9.3,1.1-13.9c0.4-3.9,0.1-7.8-1.5-11.4c-0.6-1.4-1.6-2.8-3.3-2.9c-1.8-0.1-2.5,1.4-3.2,2.6
		c-2,3.7-2.9,7.8-3.6,11.9c-0.6,3.2-1.2,6.3-1.8,9.5c-0.2,0.9-0.4,1.1-1.2,0.6C61,137.5,56,137.2,51.1,136.9z"/>
	<path class="st5" d="M45.2,81.1c-1.9,4.1-4.6,7.5-8,10.4c-4.5,3.8-7.2,8.9-10.1,13.9c-0.2,0.3-0.2,0.9-0.1,1.2
		c2.4,3.9,0.4,7.1-1.4,10.4c-5.4,9.8-12.2,19-13.2,30.7c-0.1,1-0.3,1.7,0.7,2.3c3.5,2.1,4.7,5.4,5,9.2c0.4,4.2-0.9,8.2-1.4,12.3
		c-0.7,6.3-0.4,12.7,1.3,18.8c2.4,8.4,12,16.3,19.5,15.8c8.2-0.5,16.3-1.6,24.5-2.7c4.1-0.6,8.7-7,9.4-12c0.8-6.4-2.3-11.3-5.3-16.5
		c-4-6.9-9.9-11.9-16.5-16.2c-1.5-1-2.9-2.3-0.7-4.1c-0.4,1.8,1.2,2,2.2,2.3c5.2,1.8,9.9,4.3,14.1,7.9c7.4,6.2,13.6,13.4,16,23.1
		c2.5,10.2-5.2,19.9-11.3,22.6c-11.2,4.9-22.7,8.3-35.1,5.6c-5-1.1-10.1-2.5-13.5-6.9c-0.3-0.4-0.8-0.6-1.2-0.8
		C9.8,204,6.5,198.6,6.9,187.1c0.2-6.3,2-12.4,2.8-18.6c0.6-4.6,1.3-9.2-2.4-13.2c-1.5-1.6-0.8-3.9-0.2-5.9
		c2.2-8.6,6.1-16.5,9.9-24.5c1.7-3.6,3.3-7.2,4.6-10.9c0.7-2.1,1.1-4.2,0.6-6.4c-0.5-2.3,0.7-4.2,2.1-5.8
		C30.7,94.4,37.8,87.6,45.2,81.1z"/>
	<path class="st4" d="M94.7,48.9c0.3,1.4-0.3,2.7-0.9,3.8c-4.7,7.9-11.1,13.7-20.2,16.1c-0.4,0.2-0.7,0-1-0.1
		c-6.2-3.4-12.7-6.3-17.9-11.3c-2.1-2-4.6-3.5-6.4-5.8c-3.1-3.9-5.7-8.2-6.4-13.3c-0.5-6.3,0.9-12.4,2.8-18.4
		c0.6-1.8,1.3-1.6,2.4-0.3c2.6,3.1,4,6.9,6.3,10.2c2.3,3.4,5.3,6,8.6,8.3c5.2,3.7,11.1,6,17.2,7.8c2.4,0.7,5,0.7,7.5,1
		C89.4,47.3,92.2,47.6,94.7,48.9z"/>
	<path class="st5" d="M109.4,249.8c9.9,0,19.7,0,29.6,0c1.5,0,1.8,0.5,1.8,1.9c0.2,2.7,0.7,5.4,1.1,8.1c0.6,4.1-0.9,6.2-5,6.6
		c-12.8,1.3-25.5,1.9-38.3-0.1c-6.4-1-12.9-1.5-19.3-2.4c-4.7-0.7-4.9-1.1-3.5-5.7c0.8-2.8,1.7-5.5,2.2-8.4c0.3-1.4,0.8-1.6,2.1-1.6
		c9.8,0,19.6,0,29.4,0C109.4,248.8,109.4,249.3,109.4,249.8z"/>
	<path class="st5" d="M207.2,47.7c-0.7-4.3-5.1-3.9-7.6-5.9c-9.8-7.5-21-6.6-32.3-4.7c-10.2,1.7-20.5,2.6-30.3,6.4
		c-5.8,2.3-11.5,5-17.8,5.8c-1.8,0.2-3.5-0.2-5.1-1c-2.1-1.2-2.4-4.1-0.6-5.5c2.4-1.9,5-3.6,7.7-5.2c3.6-2.1,6.5-5,8.9-8.3
		c2.2-3,1.8-5.6-1.2-7.8c-0.9-0.7-2-1.3-3-2c4.5,0.6,8.9,1.2,13.4,1.7c1.6,0.2,3.5,0.4,4.4-1.5c0.9-1.9,0.1-3.5-1.1-5
		c-1.2-1.4-2.4-2.9-3.6-4.4c0.4-0.3,0.8-0.3,1.2-0.1c3.9,2.4,7.4,5.9,5.9,11.2c-0.5,1.7-1.2,3.3-1.7,5c-1.2,3.7,0.1,5.9,3.9,6.5
		c7.4,1.1,14.6,0.1,21.6-2.4c2.6-0.9,4.5-2.8,5.9-5.2c1.2-2.2,1.2-3.2-0.4-5.2c-0.7-0.9-1.9-1.6-1.3-3.1c3.7,2.4,6.1,6.1,8.5,9.5
		c4.8,6.8,11.1,11.2,18.9,13.7C207.2,41.7,207.2,41.8,207.2,47.7z"/>
	<path d="M214,235.2c3.9,3.4,7.8,6.8,11.7,10.3c0.7,0.7,2.4,1.4,1.3,2.6c-0.9,1-1.9-0.4-2.6-1c-16.2-13.8-32.5-27.6-48.7-41.5
		c-0.2-0.2-0.5-0.3-0.7-0.5c-1-0.4-2-0.9-2.8-1.7c-1.2-1.2-2.4-1.1-3.7,0c-2.4,1.9-4.9,3.8-7.5,5.5c-5.5,3.6-11.7,5.7-18.2,5.1
		c-6.4-0.5-12.2-3.2-17.2-7.4c-2-1.7-4.1-3.4-6.1-5.2c-1.1-1-2-1.1-3.2-0.1c-1.1,0.9-2.3,1.8-3.8,2.2c-12.4,9.1-24.8,18.3-37.1,27.4
		c-5,3.7-9.9,7.4-14.9,11c-0.7,0.5-1.5,1.6-2.3,0.6c-0.8-1,0.4-1.6,1.1-2.1c6.1-4.6,12.2-9.2,18.3-13.9c6.9-6.2,14.6-11.4,22-17
		c3.5-2.6,6.9-5.3,10.5-7.8c1.3-0.9,2.5-2,3.8-2.9c1-0.7,1-1.3,0.2-2.2c-1.1-1.1-2.4-1.9-3.5-3c-12.2-10.3-24.2-20.7-36.3-31
		c-1.8-1.5-3.6-3.2-5.1-5c-2.6-2.4-5.2-4.7-7.8-7.1c-0.5-0.5-0.7-0.7-0.8,0.1c-0.3,2.4-0.6,4.9-0.8,7.3c-0.1,0.9,1.1,0.8,1.4,1.4
		c-0.7,0-1.3-0.2-1.6-0.8c-1.2-1.9,0.8-10.4,2.7-11.5c0.6-0.3,1.3-0.2,2-0.4c-0.2,0.1-0.4,0.2-0.6,0.2c-1.1,0.2-2,0.8-2.2,1.8
		c-0.2,0.9,1.1,0.2,1.6,0.7c2.6,2.3,5.3,4.5,7.9,6.7c19.2,16.4,38.3,33.1,57.8,49.1c9.8,8,20.7,8.4,30.8,1.2
		c23-16.4,45.6-33.6,68.3-50.4c0.8-0.6,1.8-1.9,2.6-0.9c1,1.2-0.6,1.9-1.4,2.5c-4.9,3.8-10,7.6-14.9,11.4
		c-7.9,6.9-16.6,12.7-24.9,19c-3.6,2.8-7.3,5.4-11,8.2c-1.1,0.8-2.1,1.6-3.2,2.3c-1.1,0.8-1.3,1.5-0.2,2.5c0.8,0.7,1.5,1.4,2.4,2
		c10.5,8.9,20.9,17.8,31.3,26.7C210.4,231.5,212.1,233.4,214,235.2z"/>
	<path class="st4" d="M246.2,34.5c2.7-3.8,4.7-8.1,6.8-12.3c0.4-0.8,0.6-2.1,1.8-2.1c1.1,0.1,1.5,1.2,1.9,2.1c0.4,0.9,0.7,2,1,3
		c0.5,3.5-0.3,6.7-1.7,9.8c-5.2,12.5-14.4,21.4-25.8,28.2c-2.7,1.6-5.6,3.1-8.4,4.4c-0.9,0.4-1.8,1.1-2.7,0
		c-4.1-5.8-7.8-11.8-10.1-18.7c-0.3-0.8-0.3-1.7-0.5-2.5c0.3-1.4,0.4-1.6,2.3-1.2c3.9,0.9,7.8,0.9,11.8,0.9c8.4,0,15.5-2.9,21.4-8.9
		C244.5,36.2,245.6,35.6,246.2,34.5z"/>
	<path class="st3" d="M174.3,16.7c0.2,0.4,0.4,0.9,0.7,1.3c3.5,4.7,3,8.1-2,11.5c-4.7,3.1-10.2,3.5-15.5,4.1c-3,0.3-6.2,0.2-9.2-0.3
		c-4-0.7-5.7-3.2-4.5-7.1c0.4-1.1,0.9-2.2,1.3-3.4c2.1-5.7,1.2-8.8-5.8-12.9c-1-0.7-2.2-1.7-1.9-2.8c0.3-1.1,1.9-0.9,3-0.9
		C152.7,5.9,164.3,8.9,174.3,16.7z"/>
	<path class="st5" d="M181,251.6c9.8,0,19.6,0,29.4,0c0.3,0,0.7,0,1,0.1c0.6,0.2,4.5,7.8,4.4,8.4c-0.1,1.1-1,1.5-1.7,2
		c-3.3,2.1-7,2.3-10.8,2.4c-12.8,0.2-25.6,2.1-38.4,1.6c-1.2,0-2.4,0-3.6-0.2c-8.5-1.4-9.9-2.8-10-9.1c0-1.6-0.6-3.2-1-4.7
		c-0.5-1.7,0-2.2,1.8-2.1c9.7,0.1,19.3,0,29,0C181,250.6,181,251.1,181,251.6z"/>
	<path class="st6" d="M73.1,168.3c8.9,8.3,15.8,17.7,16,30.4c0.2,14-8.8,24.2-22.7,26.2c-3.1,0.4-6.1,1.1-9.1,1.7
		c-2.3,0.5-0.4,2.8-1.6,3.8c0.2-4,0.4-8,0.5-12c0-1.4,1.1-1.3,1.9-1.5c5.9-1.8,11.8-3.7,17.1-7.2c7-4.7,10.7-16.2,7.8-24.1
		c-2.1-5.8-5.5-10.7-9.2-15.6c-0.1-0.2-0.2-0.4-0.4-0.5l0,0c-0.1-0.2-0.3-0.3-0.4-0.5l0,0C72.9,168.9,72.8,168.6,73.1,168.3z"/>
	<path class="st6" d="M219.1,67.6c0.4,0,0.9,0.2,1.2,0c15-7.1,28-16.3,34.9-32.2c1.4-3.3,2.3-6.6,2.5-10.2c1.6,6.7,0,13.1-2.5,19.3
		c-3.8,9.4-10.7,16.1-18.8,21.7c-4,2.8-8.2,5.2-12.3,7.8c-1.6-0.8-2.8-2-3.6-3.6C220,69.4,219.6,68.5,219.1,67.6z"/>
	<path class="st6" d="M41.8,38.3c1.7,4.3,3.3,8.8,6.5,12.2c5.3,5.7,11.2,10.7,18.2,14.2c2.5,1.2,4.9,2.5,7.1,4.1
		c-1,0.5-2.1,0.9-3.1,1.4c-1.4,1.7-3.2,1.9-5.1,1.2c-5.8-2.9-10.8-6.8-15.2-11.6C44.6,53.8,42.1,46.5,41.8,38.3z"/>
	<path class="st5" d="M65.3,71.5c1.7-0.4,3.4-0.8,5.1-1.2c1.5,0.6,2.9-0.3,4.3-0.2c1.6,2.1,3.1,4.2,1.3,6.8
		c-1.7,2.6-4.3,2.9-7.1,2.1c-1.8-0.5-3.7-0.7-5.5-1.3c-5.4-2-10.4,0.1-15.4,1.2c4.3-4.2,9.1-6.2,15-3.2c1.6,0.8,3.7,0.9,5.5,1.2
		c0.5,0.1,1.2,0.3,1.4-0.5c0-0.2-0.7-0.6-1.1-0.8c-3.4-1-6.7-1.9-10.1-2.9c-0.5-0.1-1.3,0.2-1.4-0.5c0-0.4,0.6-0.9,1-1.3
		c0.5-0.6,0.9-0.7,1.6-0.3c1.3,0.7,2.6,1.4,3.9,2C65,73.2,65.7,72.9,65.3,71.5z"/>
	<path class="st5" d="M49,154.8c0.1-1.4,1.2-1.9,2.3-2.1c3-0.6,3.9-2.2,3.6-5.2c-0.3-3.1,0.7-6,3.3-8c3.3,0.5,6.2,1.8,8.6,4.2
		c0.3,0.3,0.4,0.7,0.6,1c-0.3,0.1-0.6,0.2-1,0.2c-6.7,0.3-8.8,2.4-9,9.5c0,2.3-0.5,2.9-2.8,2C52.9,155.6,51,154.7,49,154.8z"/>
	<path class="st7" d="M244.4,37.1c-5,6.7-12.1,9.2-20,9.7c-4.8,0.3-9.6,0.2-14.3-0.9c-0.7-0.2-1.4-0.5-1.6,0.6
		c-0.7-1.5-0.5-2.2,1.5-2.2c7.7-0.1,15.4-0.9,23-2.4c3.5-0.7,6.7-2.1,9.7-4c0.3,0,0.4-0.2,0.6-0.4l0,0c0.2-0.1,0.3-0.3,0.5-0.4l0,0
		C243.9,36.8,244.2,36.8,244.4,37.1z"/>
	<path class="st7" d="M94.7,48.9c-14.7-1.5-29-4.2-39.5-16c-0.8-0.9-1.9-1.7-1.9-3.1c8.2,9.9,19.7,12.8,31.6,14.9
		c2.6,0.5,5.2,1.1,7.8,1.8C93.9,46.8,94.9,47.4,94.7,48.9z"/>
	<path class="st8" d="M93.1,35.4c0.5,4.2,3.4,7.8,2.9,12.3c-2.9-3.1-6.9-3.6-10.7-4.4c-1.4-0.3-1.9-0.7-0.7-1.8
		c1.8-1.7,3.8-3.2,5.4-5.1C90.9,35.2,92.6,37.5,93.1,35.4z"/>
	<path class="st9" d="M78.7,24.5c1.7,2,4.3,2.4,6.4,3.7c2,1.2,4.1,2.2,5.3,4.3c-3.4-1.6-7.1-2.4-10.8-3.1c-1.5-0.3-3.5-0.6-3.7-2.2
		C75.7,25.9,77.5,25.2,78.7,24.5z"/>
	<path class="st10" d="M192.8,29.9c-0.3,1.1-0.1,2.9-1.1,3.1c-1,0.3-1.8-1.3-2.6-2.1c-0.2-0.2-0.4-0.4-0.6-0.6
		c-2.5-2.8-2.5-2.9,1.3-4.2C190.6,27.6,191.5,28.9,192.8,29.9z"/>
	<path class="st11" d="M192.8,29.9c-2.2-0.3-3.1-1.7-2.9-3.8c1.9-0.7,3.7-1.5,5.8-1.5C194.8,26.3,193.8,28.1,192.8,29.9z"/>
	<path class="st12" d="M73.1,168.3c0,0.3,0,0.5,0,0.8c-2.8-2.5-5.7-5.1-8.5-7.6C68.1,163,70.4,165.9,73.1,168.3z"/>
	<path class="st13" d="M244.4,37.1c-0.2,0-0.5,0-0.7,0c0.8-0.9,1.7-1.7,2.5-2.6C246.2,35.7,245,36.2,244.4,37.1z"/>
	<path class="st14" d="M197,35.2c-0.2,0.5-0.3,0.8-0.7,0.7c-0.2-0.1-0.4-0.3-0.6-0.5c0.2-0.2,0.5-0.4,0.7-0.5
		C196.6,34.9,196.8,35.1,197,35.2z"/>
	<path class="st15" d="M251.6,202.1c0.3-0.5,0.9-1.3,1.1-1c0.5,0.5-0.1,1.1-0.5,1.6C252,202.4,251.8,202.3,251.6,202.1z"/>
	<path class="st12" d="M73.1,169.1c0.1,0.2,0.3,0.3,0.4,0.5C73.4,169.4,73.2,169.3,73.1,169.1z"/>
	<path class="st12" d="M73.5,169.6c0.1,0.2,0.3,0.3,0.4,0.5C73.8,169.9,73.6,169.7,73.5,169.6z"/>
	<path class="st13" d="M243.2,37.4c-0.2,0.1-0.4,0.3-0.6,0.4C242.9,37.7,243,37.6,243.2,37.4z"/>
	<path class="st13" d="M243.7,37.1c-0.2,0.1-0.3,0.3-0.5,0.4C243.4,37.3,243.5,37.2,243.7,37.1z"/>
	<path class="st16" d="M178,105.6c0.1-5,1.1-9.8,4.1-13.9c3.9-5.3,9.6-5,12.3,1c3.9,8.5,3,17-2.1,24.8c-3.3,5.1-8.6,4.7-11.7-0.6
		C178.6,113.5,178.1,109.6,178,105.6z"/>
	<path class="st16" d="M138.2,105.6c-0.2,4.4-0.8,8.3-3.3,11.6c-3,4-7.3,4.5-10.8,1.4c-6.9-6-7.4-21.2-0.9-27.6
		c2.7-2.7,6.8-2.6,9.8,0.5C137,95.5,137.9,100.7,138.2,105.6z"/>
	<path class="st17" d="M112.4,203.4c0-0.1,0.1-0.1,0.1-0.2c5.2-4.2,5.2-4.3,10.2,0.1c4.5,4,9.2,7.3,15.1,9
		c8.6,2.5,16.1,0.2,23.3-4.3c2.6-1.6,5-3.5,7.3-5.4c1.5-1.3,2.7-1.4,4,0.1c0.8,0.9,1.7,1.6,2.6,2.4c-1.7,0-2.5,1.4-3.7,2.3
		c-6.5,4.7-13.4,8.9-21.2,11.1c-8.4,2.5-15.9-0.7-23.1-4.6c-4.8-2.6-8.8-6.3-13.1-9.6C113.5,203.9,113,203.7,112.4,203.4z"/>
	<path class="st17" d="M68.9,157.6c8.8,7.5,17.7,14.9,26.5,22.4c5.1,4.4,10.2,8.8,15.3,13.2c0.6,0.8,0,1.4-0.5,2
		c-1,1.1-2,2.3-3.2,3.2c-0.8,0.2-0.7-0.6-1-0.9c-7-6.5-13.7-13.4-20.1-20.4c-4.9-5.4-9.8-10.8-14.7-16.3
		C70.4,159.8,69.4,158.9,68.9,157.6z"/>
	<path class="st18" d="M214,235.2c-7.2-6-14.3-12-21.5-18.1c-5.3-4.5-10.6-9.1-15.8-13.6c-0.3-1.6,1.1-2.1,2-3
		c0.5-0.6,1.1-1,1.8-1.4c0.2-0.1,0.4,0,0.6,0.1c0.3,0.5,0.4,1.1,0.8,1.4c8.1,7.9,15.6,16.4,23.3,24.7
		C208.2,228.5,211.5,231.5,214,235.2z"/>
	<path class="st18" d="M106.1,197.5c0.3,0.3,0.5,0.6,0.8,0.9c2.1,0.3,3.5,1.9,3.4,3.7c-11,8.1-22,16.2-32.9,24.3c4-4,8-8,12.1-11.9
		c5.4-5,10.8-10,15.9-15.3C105.9,198.7,106.2,198.1,106.1,197.5z"/>
	<path class="st19" d="M181.1,199.2c-0.1,0-0.3,0-0.4,0c-2-0.4-3-1.5-3-3.3c12.1-8.9,24.2-17.9,36.3-26.8c-3,4.2-7.4,6.9-11.3,10.1
		c-5,4.2-9.7,8.8-14.4,13.3C186,194.7,183.5,196.9,181.1,199.2z"/>
	<path class="st20" d="M204,162.1c0.1-0.1,0.1-0.3,0.2-0.4c0.1,0.1,0.3,0.2,0.4,0.4c0,0-0.1,0.2-0.1,0.3
		C204.3,162.4,204.1,162.3,204,162.1z"/>
	<path class="st20" d="M205.4,163.3c0,0-0.1,0-0.1,0c0,0,0-0.1,0.1-0.1c0,0,0.1,0,0.1,0C205.4,163.2,205.4,163.2,205.4,163.3z"/>
	<path class="st21" d="M89.6,259.3c13.7-0.4,27.3-1.5,41-2.5c0.8-0.1,1.5,0,2.3,0c1.2,0,1.2,1,1.4,1.7c0.3,1-0.5,1.1-1.2,1.2
		c-8.7,1.2-17.5,1.5-26.3,1c-4.4-0.2-8.8-0.4-13.3-0.6c-1.3-0.1-2.6-0.3-4-0.4c-0.2-0.1-0.2-0.2-0.2-0.3
		C89.5,259.3,89.6,259.3,89.6,259.3z"/>
	<path class="st22" d="M89.6,259.3c0,0.1,0,0.3,0,0.4c-0.8-0.1-1.6-0.1-2.5-0.2C88,259.4,88.8,259.3,89.6,259.3z"/>
	<path class="st23" d="M110.3,202c-0.6-1.7-2.1-2.6-3.4-3.7c0.5-2.3,3.3-2.9,3.8-5.1c0.1,0,0.2,0,0.2,0.1
		C116.7,197.8,116.7,197.8,110.3,202z"/>
	<path class="st23" d="M177.7,195.9c0.5,1.5,1.8,2.3,3,3.3c-1.3,1.5-2.6,2.9-3.9,4.4c-4.7-3.5-4.7-3.5-0.1-7
		C177,196.3,177.3,196.1,177.7,195.9z"/>
	<path class="st3" d="M179.9,261.4c-6.9-0.5-13.8-0.1-20.6-1.7c-1.7-0.4-3-1-2.8-3c0.2-2.1,2.1-1.6,3.3-1.6
		c14.8,0.3,29.5,0.8,44.3,1.2c0.5,0,1.2-0.2,1.2,0.5c0.1,0.8-0.8,1-1.3,1.1c-5.1,1.4-10.3,2.4-15.5,3.1
		C185.6,261.4,182.7,261.4,179.9,261.4z"/>
	<path class="st24" d="M180.6,101.3c0.2-3.3,1.4-6.3,3.5-8.9c2.7-3.3,5.9-3.1,8.2,0.5c1,1.5,1.7,3.2,1.9,5.1
		c0.5,1.8-0.1,3.3-1.3,4.6c-0.6,0.6-1.2,1-1.9,0.1c-0.6-1.3-1.1-2.1-2.2-0.4c-0.7,1.1-1.9,2-3.4,1.6c-1.7-0.5-2.7-1.7-3-3.4
		c-0.1-0.2,0.3-0.4,0.1-0.6c-0.1,0.1-0.1,0.3-0.1,0.4c0,0.3,0,0.7-0.1,1c-0.3,0.8-0.3,1.9-1.6,1.9
		C180.2,102.6,180.4,101.9,180.6,101.3z"/>
	<path class="st25" d="M191.2,102.2c2.1,0.4,2-1.6,2.8-2.7c0.3-0.4,0.1-1.1,0.2-1.6c1.3,5.3,0.8,10.5-1.3,15.4
		c-1.2,2.7-2.7,5.6-6.2,5.5c-3.6-0.1-4.6-3.2-5.6-6c0.3-0.2,0.6-0.3,0.9-0.3c0.8,0.2,1.2,0.9,1.7,1.5c1.8,2,3.9,1.9,5.3-0.5
		c1.6-2.7,1.9-5.8,1.9-8.9C190.9,103.8,190.5,102.9,191.2,102.2z"/>
	<path class="st18" d="M182,112.8c-0.3,0-0.6,0-0.9,0c-0.1-0.1-0.1-0.2-0.1-0.3c-0.2-0.3-0.1-0.7-0.3-0.9c0-0.2-0.1-0.5-0.1-0.7
		c-0.3-0.6,0-1.3-0.3-1.8c0-0.1,0-0.3,0-0.4c0.4-1.3,0.1-2.6,0.2-3.9c0-0.5-0.3-1.2,0.7-1.2c1.3,1.7,0.5,3.7,0.7,5.6
		c0,0.5-0.1,1,0,1.6c0.1,0.2,0.1,0.4,0.1,0.6c0.1,0.4,0.1,0.7,0.2,1.1C182.1,112.5,182.1,112.7,182,112.8z"/>
	<path class="st26" d="M181,103.5c-1,1.6,0.2,3.5-0.8,5.1c-0.3-2.4-0.4-4.9,0.3-7.3c0.2,0.6,0.3,1.2,0.5,1.8
		C181.1,103.2,181.1,103.4,181,103.5z"/>
	<path class="st27" d="M180.2,109c0.5,0.5,0.4,1.2,0.3,1.8C180.5,110.2,180.3,109.6,180.2,109z"/>
	<path class="st27" d="M180.7,111.6c0.1,0.3,0.2,0.6,0.3,0.9C180.9,112.2,180.8,111.9,180.7,111.6z"/>
	<path class="st24" d="M122.2,112c-2.5-5.8-2.7-11.7,0.3-17.3c2.6-4.8,7-4.9,10.2-0.5c1.2,1.6,2.2,3.4,2.5,5.5
		c-0.2,1.4,0.1,3-2.1,3.2c-1.1-0.5-0.8-1.9-1.6-2.6c-0.7,0.8-0.9,1.9-1.7,2.6c-1.7,1.8-3.9,1.4-5.6-1c-0.2-0.3-0.3-0.9-0.5-0.8
		c-0.5,0.1-0.4,0.7-0.4,1c-0.3,2.8-0.1,5.6,0.2,8.4C123.5,111.3,123.3,112.1,122.2,112z"/>
	<path class="st25" d="M122.2,112c0.9-0.3,0.7-1.1,0.9-1.7c1,0,1,0.9,1.3,1.4c0.4,0.8,0.8,1.5,1.4,2.1c1.8,1.8,4.2,1.6,5.5-0.6
		c1.4-2.5,1.8-5.3,1.7-8.2c0-0.8-0.4-1.7,0.4-2.4c1.4-0.5,1.2-2.1,2.1-2.9c1.5,4.8,1.4,9.6-0.6,14.2c-1,2.3-2.3,4.5-5.2,4.6
		c-2.8,0.1-4.5-1.6-5.9-3.7C123,113.9,122.7,112.9,122.2,112z"/>
	<path class="st28" d="M181,103.5c0-0.1,0-0.3,0-0.4c0.3-0.8,0.6-1.7,0.9-2.5c0.3-0.2,0.2-0.6,0.4-0.9l0,0c0.2-0.2,0.3-0.2,0.5,0.1
		c0.3,1.6,0.8,3.3,2.7,3.6c1.5,0.3,2.5-0.7,3.3-1.8c0.5-0.7,1-1.5,1.5-2.2c0.3,1,0.7,2,1,3c0.5,3.1,0.5,6.1-0.4,9.1
		c-0.7,2.2-1.5,4.4-4.1,4.9c-2.6,0.5-3.6-1.7-4.8-3.4c0-0.1-0.1-0.3-0.1-0.4c-0.2-0.3-0.2-0.7-0.4-1c0-0.1,0-0.2-0.1-0.3
		c-0.3-0.4-0.1-1-0.4-1.4C181.1,107.7,181,105.6,181,103.5z"/>
	<path class="st29" d="M182.2,99.6c-0.1,0.3-0.2,0.6-0.4,0.9C182,100.2,182.1,99.9,182.2,99.6z"/>
	<path class="st29" d="M182.7,99.7c-0.2,0-0.3,0-0.5-0.1c0.1-0.2,0.2-0.4,0.3-0.7C182.6,99.2,182.6,99.5,182.7,99.7z"/>
	<path class="st27" d="M181.1,109.7c0.1,0.5,0.2,0.9,0.4,1.4C181,110.7,181,110.3,181.1,109.7z"/>
	<path class="st27" d="M181.5,111.4c0.1,0.3,0.2,0.6,0.4,1C181.8,112.1,181.6,111.8,181.5,111.4z"/>
	<path class="st28" d="M133.3,102.6c0.4,3,0.5,6-0.5,8.9c-0.8,2.2-1.7,4.3-4.5,4.3c-2.7,0-3.7-2.2-4.6-4.2c-0.2-0.4-0.4-0.9-0.5-1.3
		c-0.7-3.4-0.9-6.8,0.1-10.2c0.1-0.4,0.4-0.7,0.5-1c0.2,0.3,0.4,0.6,0.5,0.9c0.6,1.8,1.2,3.7,3.5,3.5c2.2-0.2,2.7-2.2,3.3-3.9
		c0.1-0.4,0.3-0.8,0.4-1.2c0.3,0.4,0.6,0.7,0.8,1.2C132.6,100.5,132.9,101.6,133.3,102.6z"/>
	<path class="st30" d="M189.2,111.2c-0.1,0.2-0.3,0.5-0.6,0.6c-0.2,0-0.6-0.4-0.6-0.5c0-0.3,0.3-0.6,0.5-0.7
		C188.9,110.3,189.1,110.6,189.2,111.2z"/>
	<path class="st31" d="M130.7,110.3c0.1-0.5,0.3-0.6,0.7-0.3c0.3,0.3,0.2,0.6-0.2,0.8C130.9,110.7,130.9,110.5,130.7,110.3z"/>
	<path class="st32" d="M130.7,110.3c0.1,0.2,0.3,0.3,0.4,0.5c-0.1,0-0.2,0.1-0.4,0.1C130.8,110.7,130.7,110.5,130.7,110.3z"/>
</g>
</svg>
