<?xml version="1.0" encoding="utf-8"?>
<!-- Generator: Adobe Illustrator 23.0.6, SVG Export Plug-In . SVG Version: 6.00 Build 0)  -->
<svg version="1.1" id="Calque_1" xmlns="http://www.w3.org/2000/svg" xmlns:xlink="http://www.w3.org/1999/xlink" x="0px" y="0px"
	 viewBox="0 0 202 56.4" style="enable-background:new 0 0 202 56.4;" xml:space="preserve">
<style type="text/css">
	.st0{fill:#FFFFFF;}
</style>
<g>
	<g>
		<path class="st0" d="M28.8,9.2c-2.1,0-3.8,1.7-3.8,3.9v7.5c-2.2-1-4.4-1.4-6.7-1.4c-7.3,0-11.8,4.4-12.4,11.6
			c-0.2,2.7-0.2,5.3,0,7.8c0.3,3.5,1.6,6.4,4,8.6c2.4,2.2,5.6,3.2,9.4,3.2c5.1,0,9.7-1.9,11.9-3.5c0.9-0.6,1.4-1.5,1.4-2.7V13.1
			C32.6,10.9,30.9,9.2,28.8,9.2L28.8,9.2z M19.5,43.2c-3.8,0-5.8-1.9-6-5.7c-0.2-2-0.2-3.8,0-5.5c0.2-3.7,2.1-5.5,5.6-5.5
			c2.4,0,4.4,0.5,6,1.5v13.4C24,42.3,21.4,43.2,19.5,43.2L19.5,43.2z"/>
	</g>
	<g>
		<path class="st0" d="M50.6,19.2c-3.4,0-6.1,0.5-8.3,1.4c-1.6,0.7-2.5,1.8-2.5,3.5c0,1.9,1.3,3.3,3.4,3.3c0.6,0,1.2-0.1,1.8-0.3
			c2-0.6,3.8-1,5.5-1c3.9,0,5.4,1.4,5.4,4.4V32c-2.4-0.6-4.5-0.9-6.3-0.9c-7.9,0-11.7,4-11.7,9.3c0,5.7,4.2,10,12,10
			c4.9,0,8.9-1,12-3.1c0.9-0.6,1.4-1.5,1.4-2.7V30.7C63.1,23.1,58.9,19.2,50.6,19.2L50.6,19.2z M50.3,44c-3.2,0-5.1-1.4-5.1-3.8
			c0-2.2,1.9-3.7,4.9-3.7c1.8,0,3.6,0.3,5.7,0.9v5.1C54.3,43.5,52.4,44,50.3,44L50.3,44z"/>
	</g>
	<g>
		<path class="st0" d="M72.5,14.1c-1.3,0-2.3,1-2.3,2.3v24.7c0,5.6,2.9,9.4,8.7,9.4c2.2,0,4.2-0.3,5.9-1c1.2-0.4,1.9-1.1,1.9-2.2
			c0-1.3-0.8-2.2-2.1-2.2c-0.3,0-0.5,0-0.8,0.1c-2.3,0.7-3.9,1-4.5,1c-3,0-4.4-1.9-4.4-4.9v-16h8.6c1.1,0,2.2-1,2.2-2.1
			s-1-2.1-2.2-2.1h-8.6v-4.7C74.9,15.2,73.8,14.1,72.5,14.1L72.5,14.1z"/>
	</g>
	<g>
		<path class="st0" d="M103.8,19.8c-7,0-11.9,4.5-12.6,11.8c-0.2,1.9-0.2,4.1-0.1,6.8c0.4,7.4,5.2,12.2,12.9,12.2
			c3.4,0,7.2-0.7,9-1.8c0.9-0.5,1.2-1.2,1.2-2c0-1.1-0.9-2-2.1-2c-0.4,0-0.7,0.1-1.1,0.2c-2.8,1-5.1,1.5-6.9,1.5
			c-5.1,0-8.5-3.1-8.5-8.3v-0.9h17c2.2,0,3.4-1.1,3.4-3.3v-1.7c0-3.6-1.1-6.6-3.4-8.9C110.5,20.9,107.5,19.8,103.8,19.8L103.8,19.8z
			 M95.7,33.2c-0.2-5.7,2.7-9.3,8.2-9.3c4.9,0,8,3.5,7.7,8.6c-0.1,0.5-0.3,0.7-0.7,0.7H95.7L95.7,33.2z"/>
	</g>
	<g>
		<path class="st0" d="M134.1,19.8c-3.5,0-6.5,0.6-9,1.8c-1,0.5-1.5,1.2-1.5,2.2c0,1.2,0.9,2,2.1,2c0.4,0,0.8-0.1,1.2-0.2
			c2.6-1,4.9-1.5,6.8-1.5c4.8,0,7.1,2,7.1,6.5v2.3c-3-0.8-5.6-1.2-8-1.2c-7.3,0-11.4,3.9-11.4,9.2c0,5.8,4.1,9.7,11.4,9.7
			c2.4,0,4.8-0.3,6.9-1c2.2-0.7,3.7-1.4,4.7-2.2c0.6-0.4,1-1,1-1.9V30.4C145.2,23.2,141.1,19.8,134.1,19.8L134.1,19.8z M133.2,46.4
			c-4.8,0-7.3-1.9-7.3-5.6c0-3.2,2.8-5.2,6.9-5.2c2,0,4.7,0.4,7.9,1.2v7.4C139.8,45.2,137.2,46.4,133.2,46.4L133.2,46.4z"/>
	</g>
	<g>
		<path class="st0" d="M182.3,19.8c-3.2,0-6.2,1.1-9,3.5c-1.8-2.3-4.7-3.5-8.7-3.5s-7.3,1-9.8,3c-0.8,0.6-1.2,1.4-1.2,2.2v22.9
			c0,1.4,1,2.4,2.3,2.4s2.3-1,2.3-2.4V26c1.9-1.2,4-1.9,6.5-1.9c4.3,0,6.5,2.3,6.5,7v16.8c0,1.4,1,2.4,2.3,2.4s2.3-1,2.3-2.4V27.2
			c1.4-2,3.6-3,6.5-3c4.3,0,6.5,2.5,6.5,7.5v16.2c0,1.4,1,2.4,2.3,2.4s2.3-1,2.3-2.4V31.4C193.3,23.7,189.9,19.8,182.3,19.8
			L182.3,19.8z"/>
	</g>
</g>
</svg>
