<?xml version="1.0" encoding="utf-8"?>
<!-- Generator: Adobe Illustrator 23.0.6, SVG Export Plug-In . SVG Version: 6.00 Build 0)  -->
<svg version="1.1" id="Calque_1" xmlns="http://www.w3.org/2000/svg" xmlns:xlink="http://www.w3.org/1999/xlink" x="0px" y="0px"
	 viewBox="0 0 142.1 125.8" style="enable-background:new 0 0 142.1 125.8;" xml:space="preserve">
<style type="text/css">
	.st0{fill:#010101;}
	.st1{fill:#6CFF3D;}
	.st2{fill:#58BE35;}
	.st3{fill:#5CFF3C;}
	.st4{fill:#FFFFFF;}
	.st5{fill:#BEBEBE;}
	.st6{fill:#BDBEBE;}
	.st7{fill:#CED1D1;}
	.st8{fill:#CBCCCC;}
	.st9{fill:#202A34;}
	.st10{fill:#57B545;}
	.st11{fill:#AEB3B3;}
	.st12{fill:#7D98AD;}
	.st13{fill:#707172;}
	.st14{fill:#747676;}
	.st15{fill:#123958;}
	.st16{fill:#60809B;}
	.st17{fill:#1D3E25;}
	.st18{fill:#59FE4A;}
	.st19{fill:#43BD7A;}
	.st20{fill:#3AB897;}
	.st21{fill:#111E1A;}
	.st22{fill:#63F24F;}
	.st23{fill:#197134;}
	.st24{fill:#010202;}
	.st25{fill:#020706;}
	.st26{fill:#050C08;}
	.st27{fill:#0C2728;}
	.st28{fill:#18301A;}
	.st29{fill:#0A1E2E;}
	.st30{fill:#50925E;}
	.st31{fill:#61707D;}
	.st32{fill:#287225;}
	.st33{fill:#3E353A;}
	.st34{fill:#7F8289;}
	.st35{fill:#3F444D;}
	.st36{fill:#0E1713;}
	.st37{fill:#FEFEFE;}
	.st38{fill:#BDBDBD;}
	.st39{fill:#E3E4E4;}
	.st40{fill:#EAEBEB;}
</style>
<g>
	<path d="M40.4,93.6c0.5,2.7,0.7,5.4-0.4,8c-0.5,1.3-1.1,2.6-2.8,2.7c-0.6,0-0.3,0.5-0.3,0.8c0,1.5,0.1,3-0.6,4.4
		c-1.3,2.9-3.6,3.9-7.7,3.5c-3.6-0.4-6.8-1.7-9.5-4.1c-2.6-2.2-4.9-4.7-6.6-7.7c-0.6-1.1-1.7-1.3-2.8-1.1c-2.4,0.3-3.8-0.5-4.7-2.7
		c-1.3-3.5-1.1-7.1-0.7-10.8c0.4-3.7,1.2-7.4,2.2-11.1c0.4-1.6,0.6-3.2-0.5-4.7c-0.8-1-0.7-2.2-0.1-3.5c2.5-5.5,5.3-10.8,8.9-15.6
		c0.1-0.2,0.3-0.3,0.3-0.5c0.4-3.8,2.5-6.7,4.9-9.4c3-3.3,6.2-6.3,10.5-7.7c0.8-0.3,0.2-0.5,0-0.7c-5.1-4.8-7-10.9-6.8-17.7
		c0-1.7,0.6-3.1,1.6-4.4c0.7-0.8,1.3-0.8,1.8,0.1c0.3,0.5,0.6,1.1,0.9,1.7c1.9,4.5,5.7,7.1,9.7,9.4c0.4,0.2,0.9,0.3,1.3,0.4
		c1.4,0.3,2.6,0.6,3.5-1.3c0.5-1.2,1.6-2.1,2.5-3c0.9-0.8,0.6-1.2-0.2-1.6c-1.3-0.7-2.7-1.3-4.1-2c-0.7-0.3-1.6-0.6-1.6-1.6
		c0-0.9,0.8-1.3,1.5-1.6c7.9-3.3,16-3.8,24.3-2.1c0.6,0.1,1.2,0.4,1.8,0.6c0.1,0.2,0,0.3-0.2,0.4c-0.5,0.2-1,0-1.4-0.1
		c-2.1-0.5-4.2-0.8-6.3-0.9c-3.3,0-6.7,0-10,0.6c-2.9,0.5-5.8,1.2-8.4,2.7c-0.6,0.6,0,0.8,0.4,0.9c1.4,0.6,2.9,1.2,4.3,2.1
		c0.2,0.1,0.4,0.2,0.6,0.4c1.1,0.8,1.2,1.6,0.4,2.6c-0.7,0.9-1.6,1.7-2.3,2.6c-0.5,0.7-0.8,1.2,0.1,1.7c0.2,0.1,0.3,0.3,0.4,0.5
		c1.3,2.4,0.9,4.7-0.2,7c-0.1,0.3-0.4,0.6-0.7,0.6c-0.2,0-0.3-0.1-0.4-0.3c-0.2-0.6,0.1-1.1,0.3-1.6c0.6-1.7,0.7-3.4,0-5.1
		c-0.3-0.7-0.9-0.6-1.5-0.6c-2.1,0.3-4.1-0.1-5.9-1.4c-0.4-0.2-0.7-0.5-1.1-0.7c-0.1,0-0.1-0.1-0.2-0.1c-0.1,0-0.1-0.1-0.2-0.1
		c0,0-0.1,0-0.1-0.1c-0.1-0.1-0.2-0.1-0.3-0.2c-0.1,0-0.1-0.1-0.2-0.1c-0.1,0-0.1-0.1-0.2-0.1c0,0-0.1,0-0.1-0.1
		c-0.1,0-0.1-0.1-0.2-0.1c-0.1,0-0.1-0.1-0.2-0.1c-0.1,0-0.1-0.1-0.2-0.1c0,0-0.1,0-0.1-0.1c-0.1,0-0.1-0.1-0.2-0.1
		c0,0-0.1,0-0.1-0.1c-0.1-0.1-0.3-0.2-0.4-0.3c-0.8-0.7-1.6-1.3-2.3-2.1c-1.2-1.3-2.3-2.8-2.9-4.4c-0.1-0.3-0.3-0.6-0.4-0.9
		c-0.5-0.9-0.6-0.9-1.1,0c-0.3,0.5-0.5,1.1-0.7,1.6c-0.2,2.4-0.1,4.8,0.3,7.3c0.8,4.5,3,8.3,6.3,11.3c1.2,1.1,2.5,1.9,4.2,2.1
		c0.5,0.1,1.1,0.1,1.2,0.8c-0.1,0.3-0.3,0.4-0.5,0.4c-0.1,0-0.1,0-0.2,0c-0.1,0-0.2,0-0.3,0.1c0.1,0,0.2-0.1,0.4-0.1
		c0.3,0,0.5-0.1,0.7-0.3c0.6-0.4,1.3-0.6,1.9-0.8c0.1,0,0.2-0.1,0.4-0.1c0.1,0,0.1-0.1,0.2-0.1c0.1,0,0.2-0.1,0.3-0.1
		c0.1,0,0.2,0,0.2,0c0.1,0,0.1,0.1,0.2,0.2c0,0,0,0.1,0,0.1c0,0,0,0.1,0,0.1c0,0.1-0.1,0.2-0.1,0.2c0,0-0.1,0.1-0.1,0.1
		c-0.1,0.1-0.1,0.1-0.2,0.2c-0.2,0.2-0.3,0.3-0.5,0.4c-1,0.5-1.9,1-3,1.2c-1,0.1-1.7-0.1-2.3-1c-0.8-1.2-2.4-1.7-3.8-1.2
		c-1.9,0.7-3.4,2.1-5,3.3c-3.4,2.7-6.3,5.9-8.2,9.8c-0.2,0.4-0.5,0.8-0.5,1.3c-0.1,1.5-0.9,2.6-1.7,3.8c-1.7,2.5-3.2,5-4.6,7.6
		c-0.2,0.4-0.5,0.9-0.6,1.3c-0.5,1-1,1.9-1.5,2.9c-0.3,0.7-0.6,1.5-1,2.2c-0.6,1-0.5,2,0.1,2.9c1.1,1.5,1,3.2,0.6,4.8
		c-0.9,3.6-1.7,7.1-2.2,10.8c-0.4,3.2-0.6,6.3,0,9.5c0.1,0.5,0.3,1,0.4,1.4c0.6,1.8,1.6,2.3,3.5,2.1c1.9-0.2,3.3,0.3,4.4,2.1
		c2.7,4.4,6.1,8,11.1,9.9c2.1,0.8,4.3,1.1,6.5,0.9c2.4-0.2,3.8-1.6,4.3-4c0.1-0.3,0.1-0.7,0.2-1c0.2-1.7,0-3.1-1.9-3.9
		c-1.4-0.6-2.7-1.6-3.7-2.9c-0.3-0.4-0.9-0.9,0-1.3c0.7,0.1,1.1,0.6,1.6,1c1.4,1.3,3,2.1,4.7,2.9c1.1,0.5,1.6,0.3,2.2-0.8
		c1.6-3.1,1.4-6.3,0.2-9.5c-0.3-0.7-0.7-1.4-1.2-2.1c-1.3-1.7-2.3-3.6-2.7-5.8c-0.2-1.3-1-2.4-1.8-3.5c-0.5-0.6-0.9-1.2-1.1-2
		c-0.2-0.8,0-1,0.7-0.7c0.5,0.2,0.6,0,0.6-0.4c0-0.7-0.1-1.4-0.2-2.1c-0.6-3.2-0.3-6.3,0.4-9.4c1.1-4.6,2.5-9,5.4-12.9
		c0.3-0.5,0.3-0.7-0.2-1c-0.5-0.3-1-0.7-1.2-1.3c-0.1-0.3-0.2-0.6,0.1-0.8c0.2-0.2,0.5-0.1,0.7,0.1c0.6,0.5,1.4,0.9,2.1,1.3
		c0.7,0.4,1,1.1,1.2,1.9c0.5,1.9,0.6,3.9,0.6,5.8c0.1,3.6,0.1,7.3,0,10.9c-0.2,3.6-0.1,7.2-0.2,10.8c0,0.3,0,0.7,0,1
		c0,0.6,0,1.1,0,1.7c0,7.2,0.4,14.4,0.2,21.6c-0.1,4-0.4,7.9-2.3,11.6c-0.6,1.3-0.5,1.6,0.8,2.3c1.4,0.7,2.9,1,4.5,1.2
		c2.8,0.4,5.7,0.4,8.5,0.7c2.7,0.3,5.5-0.1,8.2,0c0.9,0,1.8-0.1,2.6-0.4c0.7-0.2,1.1-0.7,1.2-1.5c0.1-1.5,0.5-3,1-4.4
		c0.4-1.2,1.2-1.7,2.5-1.8c1.5,0,3,0,4.4,0.2c1.2,0.2,1.9,0.8,2.3,1.9c0.5,1.4,0.9,2.8,1,4.3c0.1,0.9,0.6,1.4,1.4,1.6
		c1,0.3,2,0.4,3,0.4c5.4,0.2,10.8-0.2,16.2-0.8c1.5-0.2,3-0.4,4.4-1.2c1.2-0.7,1.3-0.9,0.8-2.2c-0.1-0.2-0.2-0.4-0.3-0.6
		c-1.1-2.2-1.6-4.5-1.8-6.9c-0.3-3-0.1-5.9-0.3-8.9c-0.2-3.1,0-6.1,0.1-9.2c0.2-4.7,0.2-9.5,0.1-14.2c-0.1-4.6-0.2-9.2-0.3-13.7
		c-0.1-2.2,0.1-4.4,0.3-6.6c0.2-0.7,0.1-1.5,0.3-2.2c0.2-1.5,0.7-2.8,2.3-3.4c0.5-0.2,0.8-0.6,1.2-0.9c0.3-0.1,0.6-0.2,0.8,0
		c0.2,0.2,0.1,0.5,0,0.7c-0.3,0.5-0.6,0.9-1.1,1.2c-0.5,0.3-0.5,0.6-0.2,1.1c3.4,4.8,5,10.2,5.9,15.9c0.3,2.1,0.2,4.1-0.1,6.2
		c-0.1,0.7-0.2,1.4-0.2,2.2c0,0.9,0.3,0.6,0.8,0.3c0.1,0,0.2,0,0.3,0c0.6,0.3,0.3,0.8,0.1,1.2c-0.3,0.6-0.7,1.2-1.1,1.7
		c-1.1,1.4-1.8,2.9-2.1,4.6c-0.3,1.4-0.8,2.6-1.7,3.6c-1.7,2.2-2.8,4.7-2.8,7.6c0,1.7,0.2,3.4,1.1,4.9c0.7,1.2,1.2,1.4,2.4,0.8
		c2-0.9,3.8-2.2,5.5-3.6c0.2-0.1,0.3-0.3,0.5-0.3c0.2,0,0.3,0,0.4,0.1c0.3,0.7-0.2,1.1-0.5,1.5c-1.2,1.4-2.8,2.4-4.4,3.2
		c-0.9,0.5-1.2,1.1-1.2,2c0.1,0.9,0,1.9,0.2,2.8c0.5,1.8,1.6,3.1,3.5,3.5c2,0.4,3.9,0.2,5.9-0.3c4.7-1.3,8-4.4,10.9-8.1
		c0.6-0.7,1.2-1.5,1.6-2.3c0.7-1.6,2-2.1,3.6-2.1c3.2,0.1,3.9-0.5,4.6-3.7c0.5-2.2,0.5-4.4,0.3-6.6c-0.3-4.3-1.2-8.6-2.3-12.8
		c-0.2-0.9-0.4-1.7-0.4-2.6c0-1,0.1-1.8,0.7-2.6c0.8-1.1,0.7-2.1,0.1-3.3c-2.4-5.4-5.4-10.5-8.7-15.4c-0.2-0.3-0.4-0.6-0.4-0.9
		c-0.8-3.7-2.9-6.6-5.5-9.2c-2-2.1-4.2-4-6.7-5.6c-1.2-0.8-2.5-1.4-4-1.3c-0.1,0-0.3-0.1-0.4-0.2c-0.6-0.8-1.3-0.2-1.6,0.1
		c-1.8,2-3.5,1.1-5.3,0c-0.1,0-0.1-0.1-0.2-0.1c-1.7-1.2-3.1-2.7-4.2-4.4c-0.3-0.5-0.6-1-0.1-1.5c0.7-0.1,0.9,0.5,1.1,0.9
		c1,1.6,2.3,2.9,3.8,4.1c0.9,0.6,1.8,1.1,2.9,1.1c0.2-0.1,0-0.2,0.1-0.3c0.2-0.6,0.8-0.8,1.3-0.9c3.5-1.2,6.3-3.4,8.4-6.3
		c2.3-3.2,3.2-6.8,2.7-10.8c-0.2-1.6-0.3-3.2-0.7-4.7c-0.1-0.2,0-0.4,0-0.6c0.1-0.1,0.2-0.3,0.4-0.2c2.4,6.3,1.8,13.9-3.9,19.2
		c-1.1,1-2.2,1.9-3.4,2.6c-0.2,0.1-0.6,0.2-0.5,0.5c0.1,0.2,0.4,0.3,0.6,0.4c6.6,2.4,11.7,6.8,14.5,13c2.2,4.7,5,9,7.4,13.6
		c1.2,2.3,2.3,4.7,3.5,7c0.6,1.1,0.6,2.3-0.1,3.3c-1.3,1.6-1,3.2-0.5,5c1.2,4.5,2.1,9,2.4,13.6c0.2,2.6,0.1,5.2-0.8,7.7
		c-0.9,2.5-2.2,3.3-4.8,3c-1.4-0.1-2.3,0.3-3.1,1.5c-3.4,5.2-7.5,9.5-13.8,11c-1.7,0.4-3.4,0.5-5.1,0.3c-3.7-0.4-5.7-3.5-5.2-7.8
		c0.1-0.6,0-0.9-0.7-0.9c-0.8,0-1.3-0.6-1.7-1.2c-1.4-2.2-1.7-4.6-1.4-7.1c0.1-0.5,0.1-1,0.2-1.6c-0.1-0.9,0.1-1.6,0.5-2.4
		c0.6-1.3,1.4-2.6,2.2-3.7c0.8-1.1,1.4-2.3,1.5-3.6c0.2-1.2,0.7-2.3,1.4-3.3c0.4-0.6,0.6-1.2,0.5-1.9c-0.1-1.3-0.1-2.6,0.1-3.8
		c0.6-3.4,0.1-6.8-0.8-10.1c-0.9-3.4-2-6.6-3.8-9.6c-0.1-0.2-0.3-0.5-0.4-0.7c-0.7-1-0.7-1-1.4-0.1c-0.6,2.2-0.5,4.5-0.5,6.8
		c0,7.8,0.2,15.5,0.2,23.3c0,6-0.4,12-0.3,18c0,4.7,0,9.5,2.4,13.8c0.9,1.7,0.6,2.3-0.9,3.2c-2,1.3-4.3,1.7-6.7,1.9
		c-5.4,0.4-10.7,0.9-16.1,0.5c-0.8-0.1-1.6-0.2-2.3-0.4c-1.2-0.4-1.9-1.1-1.9-2.5c0-1.5-0.4-2.9-0.9-4.3c-0.1-0.4-0.3-0.8-0.8-0.7
		c-1.6,0.2-3.2-0.3-4.8-0.3c-0.8,0-1.2,0.2-1.4,1c-0.4,1.4-0.8,2.9-0.9,4.4c0,1-0.5,1.6-1.3,2c-0.8,0.4-1.8,0.6-2.7,0.7
		c-6.6,0.4-13.3,0.1-19.8-1c-1.4-0.2-2.6-0.8-3.8-1.6c-0.7-0.5-1-1.3-0.7-2c3.8-7.7,2.7-16,2.5-24.1c-0.2-8.9-0.2-17.8,0.1-26.6
		c0.1-3.6,0-7.2-0.3-10.8c0-0.3-0.1-0.6-0.2-1c0,0-0.1,0-0.1-0.1c-0.7-1.1-0.7-1.1-1.5,0.1c-2.3,3.6-3.5,7.6-4.5,11.8
		c-0.7,3.1-0.9,6.2-0.3,9.3c0.2,1,0.2,2,0,3c-0.1,0.7,0,1.2,0.4,1.8c0.8,1.2,1.4,2.4,1.6,3.9c0.2,1.3,0.8,2.3,1.6,3.4
		c0.8,1.2,1.6,2.4,2.2,3.7C40.3,92.5,40.6,93,40.4,93.6z"/>
	<path class="st0" d="M66.3,10.5c0.1-0.1,0.2-0.2,0.2-0.3c0.6-0.1,1.3,0.9,1.6,0.3c0.3-0.6-0.7-1-1.1-1.5C66.3,8,65.3,7,64.5,5.9
		C63.8,5,64,4.3,65.1,4.2c8.5-0.6,16.3,0.9,22,8.1c0.7,0.9,1.3,2.3,2.2,2.5c1,0.3,1.6-1.3,2.5-1.9c1.2-0.8,2.3-1.5,3.6-2
		c0.5-0.2,1.1-0.2,1.5,0.3c0.4,0.4,0,0.9-0.1,1.3c-0.7,1.6-1.4,3.3-2,4.9c-0.1,0.3-0.5,0.8-0.1,1.1c0.4,0.3,1,0.5,1.6,0.3
		c0.7-0.3,1.5-0.5,2.3-0.7c0.8-0.2,1.2,0.2,1.4,1c0.6,3.2,0.7,3.3,3.9,2.5c4.7-1.1,8.3-3.7,10.9-7.8c0.6-0.9,1.1-1.9,1.8-2.7
		c0.7-0.8,1.4-0.8,1.9,0.3c-0.1,0.1-0.2,0.2-0.2,0.2c-0.2,0.1-0.4-0.1-0.6-0.1c-0.7,0.2-0.9,0.9-1.2,1.4c-1.3,2-2.5,4-4.4,5.5
		c-2.1,1.9-4.5,3.1-7.2,3.9c-2.1,0.6-4.2,0.6-6.3,0.3c-0.8-0.1-1.4-0.2-1.9,0.5c-0.6-0.2-0.4-0.6-0.4-1c0.3-1,0.6-1.1,1.8-0.8
		c0.1,0,0.3,0.1,0.3,0.1c0.1-0.1-0.1-0.2-0.2-0.3c-0.9-0.7-2-1.2-3.1-1.5c-3.3-0.9-5.8-2.9-7.8-5.6c-1.8-2.4-3.8-4.5-6.4-6
		c-1.2-0.7-2.4-1.2-3.7-1.5C73.6,5.2,69.9,5,66.2,5.1c-0.3,0-0.6-0.1-0.7,0.2c-0.2,0.3,0.1,0.6,0.3,0.8c0.9,1.1,2,2,2.9,3.1
		c0.8,0.8,0.8,1.2,0.2,2.2c-0.1,0.1-0.2,0.2-0.4,0.3c-0.5,0.3-1.1,0.4-1.7,0.2C66.1,11.7,66.7,10.9,66.3,10.5z"/>
	<path class="st1" d="M39.2,35.9c0.1-0.1,0.3-0.3,0.4-0.4c0.1,0,0.1-0.1,0.2-0.2l0,0c0.1,0,0.1-0.1,0.2-0.2l0,0
		c0.1-0.1,0.1-0.2,0.2-0.3c0.1-0.1,0.1-0.2,0.2-0.3c0.2-0.2,0.3-0.4,0.4-0.6c0.3-0.3,0.5-0.7,0.8-1c0.1-0.1,0.2-0.2,0.3-0.3
		c0.1-0.1,0.2-0.2,0.3-0.3c0.4-0.3,0.6-0.8,1.1-1c1.6-2.4,2-4.9,0.6-7.5c-0.3-1.2,0.2-2,1.5-2.3c0.5,0.5,1.1,1,1.9,0.4
		c0.1-0.1,0.2,0,0.3,0c0.3,0,0.7,0.6,0.9,0.2c0.3-0.6,0.8-1.2,0.8-2c-0.1-1,0.1-1.1,1-1.1c0.2,0,0.4,0,0.6,0c1.3,0.7,2.6,1.4,4,1.8
		c0,0,0,0.1,0,0.2c-0.7,1-1.9,1.4-3,1.8C51.4,23,51,23,50.8,23.4c0.4,0.1,0.7,0,1-0.1c0.8-0.2,1.6-0.1,2.3,0.3
		c0.9,0.6,1.9,0.5,2.9,0.3c1.8-0.5,3.7-1,5.5-1.5c3.7-1,7.5-1.6,11.4-1.7c6.5-0.3,12.9,0.8,19.2,2.3c1.1,0.3,2,0.7,2.6,1.6
		c0.2,0.3,0.4,0.5,0.8,0.6c0.1,0.1,0.2,0.1,0.2,0.2c0.2,0.2,0.3,0.5,0.4,0.8c0.1,0.3,0.2,0.5,0.4,0.7c0.3,0.7,1.1,1.2,0.9,2.1
		c-0.2,0.5,0,0.9,0.2,1.3c1.1,1.7,2.5,3.2,4.2,4.4c0.7,1,1.9,1.2,2.9,1.4c0.8,0.1,1.5,0.4,2.2,0.8c1.5,1,3.1,1.7,4.9,2.1
		c1.2,0.3,2.2,0.8,3.4,1.2c3.7,1.4,5.5,4.6,7,7.9c0.8,1.6,1.1,3.5,2.2,5c1,1.4,2,2.8,3,4.3c2,3,3.6,6.2,5,9.6c0.4,1,0.5,2.1,0.1,3.2
		c-0.4,0.9-0.2,1.9,0.1,2.8c0.8,2.3,1.8,4.5,2.3,6.9c0.8,4,1.5,8,1.3,12.1c-0.1,1.7-0.6,3.2-1.5,4.6c-0.5,0.9-1.2,0.9-1.9,0.1
		c-0.8-0.9-1.4-0.9-2.3-0.1c-1,0.9-1.8,2.1-2.6,3.1c-1.6,1.9-3.4,3.6-5.5,5c-1.5,1-2.8,2.3-4.3,3.4c-1.4,1-2.8,1.9-4.3,2.6
		c-1,0.5-2.1,0.6-3.2,0.3c-1.4-0.4-2.1-1.4-1.9-2.9c0.2-1.4,0.8-2.6,1.5-3.8c0.9-1.5,1.3-3.1,1.6-4.8c0-0.1,0-0.2-0.1-0.2
		c-0.1,0-0.2,0-0.3,0c-1.8,1.1-3.8,1.2-5.8,1.1c-1.2-0.1-1.9-0.9-2-2.1c-0.2-1.5,0.2-2.8,0.7-4.1c1-2.5,2.2-4.9,3-7.4
		c0.1-0.4,0.3-0.7,0.4-1.1c0.6-2.1,1-4.2,2.2-6.1c0.3-0.5,0.1-0.7-0.4-0.6c-0.1,0-0.1,0-0.2,0.1c-0.5-0.3-0.4-0.8-0.4-1.3
		c0-1.7,0.2-3.5,0.2-5.2c0.1-4-0.9-7.9-1.7-11.7c-0.7-3-1.6-5.9-2.8-8.6c-0.3-0.7-0.6-1.5,0.1-2.2c0.3-0.3,0.2-0.6-0.2-0.7
		c-1.3-0.5-2.7-0.9-4.1-1.1c-0.8-0.1-1.3,0.2-1.5,1c-1.5,4.3-2.7,8.8-3.2,13.3c-0.7,6.4-0.4,12.7,0.3,19c0.3,2.9,0.6,5.8,0.6,8.7
		c0,3.6-0.3,7.2-0.5,10.9c-0.1,2.2-0.3,4.4-0.1,6.6c0.1,0.6,0,1.1,0,1.7c-0.1,1.1-0.5,1.6-1.5,1.8c-0.6,0.1-1.2,0.2-1.8,0.2
		c-2.6,0-5.1,0.7-7.6,1.1c-0.4,0.1-0.7,0.2-1,0.4c-0.9,0.7-2,0.8-3,1.2c-0.1,0-0.1,0.1-0.2,0.1c0,0,0,0,0,0s0,0,0.1,0
		c0.2-0.1,0.3-0.2,0.5-0.2c1.7-0.5,3.4-1.1,5.2-1c2.4,0,4.7,0.3,7.1,0.6c1.6,0.2,3.2,2.4,3.1,4c-0.1,1.1-0.6,1.8-1.9,2.2
		c-1.7,0.5-3.4,0.6-5.1,0.6c-3.4,0.1-6.8,0.1-10.2-0.2c-0.9-0.1-1.7-0.2-2.5-0.5c-1-0.5-1.7-1.4-1.8-2.5c-0.4-2.6-2.1-3.5-4.4-3.9
		c-2.3-0.4-4.5-0.3-6.7,0.7c-1.2,0.6-1.4,0.9-1.1,2.2c0.7,2.6-0.9,4.7-3.6,4.4c-1.5-0.1-2.9-0.1-4.3-0.1c-3.7,0-7.3-0.3-11-0.4
		c-0.4,0-0.8-0.1-1.2-0.2c-1.6-0.4-2-1.9-1-3.1c1.7-2,3.8-3.2,6.3-3.8c0.1,0,0.3-0.1,0.4-0.1c0.3-0.1,0.6-0.1,0.9-0.2
		c3.1-0.4,6.1-0.3,9,0.9c0.1,0,0.2,0.1,0.3,0.1c0,0,0.1,0,0.1,0c0.1,0,0.1,0,0,0c-0.1,0-0.2-0.1-0.3-0.1c-0.9-0.4-2-0.5-2.9-1
		c-1.3-0.8-2.7-0.6-4-0.7c-1.8-0.1-3.6,0.2-5.4,0.3c-0.8,0.1-1.6,0.1-2.5-0.1c-1.1-0.3-1.4-0.6-1.5-1.8c0-0.1,0-0.2,0-0.3
		c0.3-4.8-0.2-9.6,0-14.4c0.3-6.7,0.3-13.5,0.4-20.2c0.1-3.5,0.1-7.1,0.1-10.6c0-3.2-0.3-6.4-1.5-9.4c-1-2.6-2.7-4.6-4.8-6.3
		c-0.8-0.7-1.7-0.5-2.4,0.4c-0.4,0.5-0.7,1.1-1,1.7c-0.8,1.8-1.8,3.6-2.6,5.5c-0.5,1-1.2,1.9-1.9,2.8c-1.4,1.8-2.6,3.7-3.4,5.8
		c-0.8,2.1-0.9,4.2-0.2,6.4c1,3,2.1,5.8,3.8,8.4c0.9,1.3,1.4,2.8,1.9,4.2c1.5,4.6,3.4,9.1,4.3,13.9c0.1,0.8,0.2,1.5,0.1,2.3
		c-0.1,1.1-0.8,1.7-2,1.6c-1.2-0.1-2.1-0.8-3.1-1.4c-0.4-0.3-0.8-0.7-1.2-1c-0.9-0.1-0.4,0.6-0.3,0.8c0.5,1.2,0.8,2.4,1.2,3.6
		c0.3,0.9,0.4,1.7,0.3,2.6c-0.2,2.5-2.1,3.9-4.5,3.3c-2.7-0.7-5.2-1.8-7.6-3c-1.6-0.8-2.5-2.1-2.9-3.8c-0.4-1.6-1.1-3-2.4-4
		c-0.5-0.4-1-0.7-1.6-1c-0.8-0.3-1.6-0.2-2.3,0.4c-2,1.5-3.1,1.2-4.1-1.2c-0.3-0.9-0.4-1.7-0.3-2.6C6.2,88.7,7,83.5,9,78.5
		c0.8-2,1.1-4.2,0.7-6.4c-0.2-0.9-0.4-1.8-1.1-2.4c-1.7-1.3-1.9-2.9-0.9-4.7c0.3-1,0.8-1.9,1.4-2.8c0.8-1.3,1.8-2.4,2.8-3.6
		c0.9-1.1,1.8-2.2,2.5-3.4c0.4-0.8,1-1.5,1.5-2.2c1.3-1.6,2.3-3.4,1.8-5.6c-0.1-0.5,0.1-1,0.4-1.4c3-3.8,6.6-6.8,11-8.6
		c1.7-0.7,3.4-1,5.2-0.2c1.4,0.6,2.6,0.1,3.7-0.6C38.5,36.4,38.9,36.2,39.2,35.9z"/>
	<path class="st2" d="M49.7,112.4c-2.5,0.8-4.8,1.9-6.6,3.9c-0.5,0.5-0.6,1.1-0.4,1.7c0.2,0.6,0.7,0.8,1.3,0.9c4,0.4,8,0.6,12,0.6
		c1.4,0,2.9,0,4.3,0.1c2.6,0.3,4.2-1.8,3.2-4.2c-0.5-1.2-0.1-1.7,0.9-2.2c3.1-1.5,6.2-1.5,9.4-0.4c1.2,0.4,2,1.4,2.3,2.7
		c0.7,2.8,1.7,3.6,4.5,3.7c3.4,0.2,6.8,0.2,10.2,0.2c1.6,0,3.3-0.2,4.9-0.6c1.3-0.3,1.8-1.2,1.5-2.5c-0.4-2-1.7-3-3.9-3.2
		c-2-0.1-3.9-0.3-5.9-0.4c0.1-0.4,0.4-0.4,0.8-0.5c2.3-0.1,4.7-0.1,6.9,0.6c0.1,0,0.2,0.1,0.3,0.1c-0.1-0.1-0.2-0.1-0.3-0.1
		c-3-0.9-6.1-0.9-9.2-0.3c-0.4,0.1-0.8,0.2-1.2-0.1c0.5-0.7,1.3-0.6,2.1-0.8c2.8-0.6,5.7-1.1,8.6-1.2c0.8,0,1.3-0.5,1.3-1.3
		c-0.2-3.6,0-7.1,0.2-10.6c0.2-2.4,0.4-4.7,0.4-7.1c0-3.4-0.3-6.8-0.7-10.1c-0.7-6.7-1.1-13.3-0.2-20c0.6-4.4,1.8-8.6,3.2-12.8
		c0.3-0.8,0.5-1.3,1.6-1.1c1.8,0.2,3.4,0.9,5.1,1.4c0.6,0.2,0.5,0.5,0,0.8c-0.9,0.5-0.9,1.1-0.4,2.1c1.8,3.9,2.7,8.1,3.7,12.3
		c1.1,4.6,1,9.3,0.6,13.9c0,0.3,0.1,0.6,0.1,0.9c-0.4,0.3-0.7,0.7-1.1,1c0-0.5-0.2-1-0.1-1.5c0.1-1.2,0.4-2.5,0.4-3.7
		c0.2-7.7-1.9-14.6-6.4-20.8c-0.4-0.5-0.2-0.6,0.2-0.7c0.7-0.3,1.3-0.8,1.7-1.5c0.1-0.1,0-0.3,0.1-0.4c-0.1,0-0.3,0-0.4,0
		c-1.3,1.3-3.6,1.7-3.5,4.1c-0.4,0.7-0.2,1.4-0.3,2.1c-0.5,9.3,0.3,18.7,0.1,28c-0.1,5.6-0.3,11.2-0.3,16.7c0.1,5-0.2,10.1,2.1,14.9
		c0.1,0.2,0.1,0.3,0.2,0.5c0.7,1.1,0.6,1.9-0.6,2.6c-1.7,0.9-3.6,1.3-5.5,1.5c-5.7,0.6-11.5,1-17.3,0.6c-2.4-0.2-2.8-0.6-3.2-3
		c-1-5.5-0.7-5.2-6-5.4c-2.8-0.1-3,0-3.7,2.7c-0.3,1-0.5,2.1-0.5,3.2c0,0.9-0.4,1.4-1.2,1.7c-0.6,0.2-1.3,0.4-1.9,0.4
		c-6.5,0.3-13.1,0.1-19.5-0.9c-1.3-0.2-2.6-0.7-3.7-1.5c-0.5-0.4-0.8-0.8-0.5-1.3c3.6-7,2.5-14.6,2.6-22c0-4.5-0.3-9.1-0.1-13.7
		c0.1-0.3,0.1-0.7,0-1c0.1-6.7,0.2-13.5,0.2-20.2c0-2.2,0-4.5-0.5-6.7c-0.3-1.2-0.7-2.2-2-2.5c-0.3-0.1-0.6-0.4-0.9-0.6
		c-0.3-0.2-0.5-0.8-0.8-0.5c-0.4,0.3,0.2,0.7,0.4,1c0.1,0.2,0.3,0.4,0.5,0.5c1.8,0.6,0.8,1.3,0.2,2.2c-4.2,6.8-6.6,14.1-5.3,22.3
		c0.1,0.5,0.1,0.9,0.1,1.4c0,0.4,0.1,1.1-0.2,1.3c-0.3,0.2-0.5-0.5-0.8-0.7c-0.1-0.1-0.3-0.1-0.4-0.2c0,0.2-0.1,0.4,0,0.4
		c2.5,2.9,3,6.8,4.8,9.9c1.2,2.1,2.6,3.9,2.9,6.4c0.3,2.5,0.1,4.9-1.2,7.2c-0.5,0.9-1.3,1.2-2.2,0.7c-1.8-0.9-3.6-1.8-5-3.2
		c1,0.3,1.9,0.9,3.1,1.1c1.1,0.1,1.7-0.3,1.7-1.4c0-1.9-0.4-3.7-0.9-5.4c-1.3-4.1-2.8-8.2-4.2-12.4c-0.2-0.7-0.6-1.4-1-2
		c-2.1-3-3.5-6.4-4.4-10c-0.7-2.9,0.3-5.6,1.8-8.1c0.8-1.3,1.6-2.5,2.6-3.7c1.8-2.2,2.6-4.9,3.8-7.4c1.4-3,2.5-4.3,5.5-1.2
		c3.1,3.1,4.4,6.9,4.8,11.1c0.4,3.9,0.3,7.9,0.2,11.9C44.1,79,44,85.7,43.7,92.4c-0.2,3.9-0.1,7.8-0.1,11.7c0,1.9,0.1,3.7-0.1,5.6
		c-0.1,0.8,0.3,1.1,1.1,1.3c1.7,0.4,3.4,0.1,5.1-0.1c2.1-0.2,4.1,0,6.2,0.3c0.4,0,0.7,0.2,0.9,0.5c-0.2,0.3-0.5,0.2-0.8,0.1
		c-2.2-0.3-4.3-0.1-6.5,0.3c-0.1,0,0,0-0.1,0c-0.3,0-0.6,0-0.9,0.1c0.3-0.1,0.5-0.2,0.8-0.1C49.6,112.2,49.7,112.3,49.7,112.4z"/>
	<path class="st2" d="M96.7,25.6c-0.6-0.2-1.1-0.6-1.5-1.2c-0.9-1.1-2.3-1.2-3.5-1.5c-5.3-1.2-10.6-2.1-16-2.1
		c-6.3,0-12.4,1.5-18.5,3.3c-1.2,0.4-2.4,0.4-3.5-0.4c-0.9-0.7-1.8,0-2.8,0.1c-0.3,0-0.8,0.4-1-0.2c-0.1-0.5,0.4-0.5,0.7-0.7
		c1.4-0.6,2.8-1.1,4-2.1c0.1-0.5,0.6-0.7,1-0.9c2.2-1.4,4.4-2.7,6.2-4.5c0.2-0.2,0.5-0.4,0.7-0.6c1.1-1.2,1.1-2.2-0.1-3.3
		c-0.9-0.8-1.9-1.4-3.1-1.7c-0.3-0.1-0.7,0-0.7-0.5c2.6,0,5.2,0.4,7.7,1.2c-0.2,0.4,1.7-0.1,0.4,0.9c-0.2,0.2,0.1,0.3,0.3,0.3
		c0.6,0.1,1.2-0.1,1.7-0.5c0.9,1,0.7,2.1,0.4,3.2c-0.5,1.8-0.2,1.7,1.5,1.7c3.8,0,7.5-0.2,11.2-1.1c2-0.4,2.3-1,1.3-2.8
		c-1.1-2.1-3-3.6-4.9-4.9c-0.4-0.3-1-0.5-0.9-1.1c4,0.9,7,3.4,9.4,6.6c2.4,3.1,5.1,5.7,9,6.7c0.9,0.2,1.7,0.7,2.5,1.2
		c0.4,0.2,1.1,0.6,0.9,1c-0.1,0.3-0.9,0-1.3-0.2c-0.5-0.2-1-0.3-1.3,0.3c-0.3,0.8,0.1,1.5,0.2,2.3C96.7,24.6,97,25.1,96.7,25.6z"/>
	<path class="st2" d="M112.7,99.1c0.8,1.9-0.4,3.4-1.1,4.9c-0.5,1-1.1,1.9-1.4,3c-0.2,1-0.6,2,0.3,2.8c1,0.9,2.2,1,3.3,0.6
		c2.3-0.8,4.3-2.1,6.1-3.6c2.6-2.2,5.5-3.9,7.8-6.5c1.2-1.4,2.3-2.8,3.6-4.1c1.1-1.1,1.9-1,2.8,0.2c0.5,0.7,1,0.5,1.3-0.1
		c0.8-1.4,1.4-2.8,1.5-4.5c0.1-5.1-0.8-10.1-2.1-15c-0.4-1.5-1.1-2.9-1.7-4.3c-0.3-1-0.4-1.9,0.1-2.9c0.7-1.5-0.1-2.8-0.7-4
		c-1.8-4.1-4-7.9-6.7-11.5c-1.3-1.7-2-3.8-2.7-5.8c-1.8-4.9-5.2-8.1-10.5-9.2c-1.5-0.3-3-0.9-4.3-1.8c-1.1-0.8-2.4-1.2-3.7-1.4
		c-0.8-0.1-1.5-0.4-1.8-1.4c0.8,0.4,1.7,1,2.6,1.1c0.9,0.2,1.6,0,2.2-0.8c0.5-0.7,1.5-0.9,2.3-1c0.5-0.1-0.2,0.5,0,0.7
		c-0.1,0.3,0,0.3,0.3,0.3c0.3-0.3,0.7-0.3,1.2-0.2c1.7,0.5,3.1,1.3,4.4,2.4c3.8,2.9,7.6,5.8,9.4,10.3c2.1,5.5,5.8,10,8.3,15.2
		c0.8,1.7,1.6,3.4,2.5,5.1c0.5,1,0.6,2-0.1,2.9c-1.2,1.7-1,3.4-0.5,5.2c1.4,5.5,2.6,11.1,2.4,16.8c0,1.7-0.3,3.3-0.9,4.8
		c-0.8,1.8-1.8,2.4-3.8,2.1c-1.8-0.3-3,0.4-3.8,1.7c-3.6,5.6-8,10.2-15,11.2c-1,0.2-2,0.1-3.1,0c-2.9-0.4-4.3-1.9-4.6-4.8
		c0-0.2,0-0.5-0.1-0.7c-0.3-1.8,0-3.1,2-3.9c1.4-0.5,2.5-1.5,3.6-2.6C112.3,100.1,112.7,99.7,112.7,99.1z"/>
	<path class="st2" d="M7.7,65C7,67,7.6,68.4,9.1,69.8c1.3,1.2,1.2,3.1,1.1,4.9c-0.2,2.9-1.6,5.4-2.3,8.1c-1.1,4-1.8,8-2.2,12.1
		c-0.1,0.9,0.2,1.7,0.7,2.5c0.8,1.3,1.6,1.4,2.8,0.4c1.5-1.3,2.4-1.3,4-0.2c1.3,0.9,2.5,2,2.8,3.6c0.6,3.2,2.7,4.8,5.5,5.8
		c1.5,0.6,3.1,1.2,4.6,1.7c3.7,1.4,5.2-2,4.6-4.6c-0.4-1.6-0.9-3.2-1.3-4.8c-0.2-0.7,0.1-0.8,0.6-0.4c-0.9,0.4-0.1,0.8,0.1,0.9
		c1.3,1.5,3.1,2.6,4.9,3.5c0.7,0.3,1,0.8,1,1.5c0,1.3,0,2.6-0.3,3.8c-0.7,2.2-2.2,3.3-4.6,3.5c-3.7,0.3-7-0.8-10-2.8
		c-3.4-2.3-6-5.3-8-8.9c-0.7-1.3-2.1-1.5-3.4-1.3c-2.4,0.3-3.4-0.3-4.2-2.6C4.3,93.1,4.6,89.5,5,86c0.4-3.6,1.2-7.1,2.1-10.7
		c0.4-1.7,0.6-3.4-0.6-5c-0.7-0.9-0.7-2-0.1-3C7,66.6,7.3,65.8,7.7,65z"/>
	<path class="st3" d="M58.6,9.4c1.5,0.2,2.8,0.8,3.9,1.8c1.6,1.4,1.6,2.6,0,4.1c-2.3,2.3-5.1,3.9-7.9,5.6c-1.2,0-2.3-0.4-3.2-1.2
		c-0.4-0.3-0.7-0.4-1.2-0.4c-0.6,0-1.2-0.2-0.9,0.9c0.2,0.8-0.6,1.7-0.9,2.6c0,0.1-0.2,0.1-0.2,0.1c-0.6-0.9-1.2-0.5-2-0.3
		c-0.3,0.1-1.1-0.2-0.9-1c-0.1-0.2,0.1-0.4,0.3-0.5c0.2-0.2,0.5-0.3,0.8-0.5c2-1.3,1.8-3.4-0.3-4.5c-1-0.5-2.1-0.8-3.2-1.3
		c-0.8-0.4-1.6-0.7-2.4-1.1c-0.4-0.2-0.8-0.3-0.6-0.9c2.3-1.6,5-2.1,7.6-2.7C51.1,9.4,54.9,9.2,58.6,9.4z"/>
	<path class="st4" d="M41.8,33c-0.3,0.3-0.5,0.7-0.8,1c-0.1,0.2-0.3,0.3-0.4,0.4c-0.1,0.1-0.2,0.2-0.3,0.2c-0.1,0.1-0.1,0.1-0.2,0.1
		c-0.1,0-0.2,0-0.3,0.1c-0.1,0-0.1,0-0.2,0.1c-0.1,0-0.2,0-0.3,0c-1.5-2.3-3.9-3.4-6.1-4.8c-3.1-1.9-5.3-4.5-6.6-7.8
		c-1-2.5-2.3-4.9-2.1-7.7c0-0.2,0-0.3,0.1-0.5c0.1-0.9,0.7-1.7,1.2-2.3c0.6-0.7,0.8,0.2,0.9,0.4c0.9,2,1.9,4,3.5,5.7
		c1.3,1.6,2.7,3.2,4.5,4.4c0.8,0.5,1.5,1.2,2.3,1.7c1.4,1.1,2.9,1.1,4.6,0.7c0.6-0.2,1.2-0.6,1.9-0.4c1.1,1.9,0.8,3.8,0,5.8
		c-0.1,0.4-0.3,0.7-0.4,1.1c0,0.5-0.4,0.9-0.6,1.2c-0.1,0.1-0.2,0.2-0.3,0.3C41.9,32.7,41.9,32.9,41.8,33z"/>
	<path class="st4" d="M98.5,29c-0.4-0.7-0.8-1.4-1.2-2c-0.2-0.2-0.2-0.5-0.2-0.7c0-0.3-0.1-0.5-0.1-0.7c0-0.1,0.1-0.2,0.2-0.2
		c1-0.4,2-0.4,3-0.6c3.3-0.6,6.3-1.7,9.1-3.5c1.2-0.8,2.1-2,2.9-3.2c1.9-1.8,3.3-3.9,4.6-6.1c0.3-0.4,0.4-1.1,1.2-0.8
		c0.8,2.8,0.1,5.4-1,8c-1.9,4.6-5.2,8.3-9.1,11.4c-1.2,1-2.5,1.9-3.6,3.1c-0.2,0.3-0.5,0.6-1,0.5c-1.9-1.1-3.1-2.9-4.3-4.7
		C98.8,29.3,98.6,29.2,98.5,29z"/>
	<path class="st5" d="M103.2,34.1c3.6-3.6,8-6.3,10.9-10.6c2.5-3.7,4.1-7.7,3.7-12.3c0.1,0.1,0.3,0.3,0.4,0.4c1,3.6,1.5,7.3,0.5,11
		c-1.6,6-5.7,9.7-11.4,11.7c-0.5,0.2-0.5,0.2-0.8,0.6c0.1,0.1,0.1,0.2,0,0.4C105.3,35.5,104.2,34.9,103.2,34.1z"/>
	<path class="st5" d="M24.5,14.1c0.4,4.8,2.4,8.9,5,12.7c1.4,2,4,3,6,4.5c0.9,0.6,1.7,1.2,2.6,1.8c0.7,0.5,1.1,1.1,1.3,1.9
		c0,0,0.1,0.1,0,0.1c0,0,0,0-0.1,0c-0.1,0-0.1,0-0.2,0.1c-0.1,0-0.2,0.1-0.2,0.1c-0.7,0.3-1.4,0.6-2.1,0.9c-0.2,0-0.3,0-0.2-0.2
		c0-0.6-0.5-0.5-0.9-0.6c-1.7-0.2-3.1-0.9-4.4-2.1c-5.1-4.5-7.1-10.2-7.1-16.8C24.3,15.7,24.1,14.8,24.5,14.1z"/>
	<path class="st2" d="M110.4,78.7c0.4-0.2,0.8-0.4,1.3-0.6c0.1,0.5-0.3,0.9-0.5,1.3c-1.7,3.1-2,6.7-3.5,9.9
		c-0.9,1.9-1.7,3.8-2.4,5.8c-1.4,4,0.1,5.6,4.2,4.7c1-0.2,2-0.4,3-0.7c-1.7,1.8-3.8,3.1-6,4.2c-1.3,0.7-2.2,0.3-2.8-1
		c-1.5-3.2-1.4-6.5-0.1-9.8c0.4-0.9,0.9-1.8,1.5-2.5c1.1-1.5,1.9-3,2.2-4.8c0.3-1.7,1.3-3.1,2.3-4.5
		C109.9,80.1,110.7,79.6,110.4,78.7z"/>
	<path class="st2" d="M39.2,35.9c-1.3,1.8-3.2,2.4-5.2,1.6c-1.6-0.7-3.2-0.3-4.6,0.3c-4.6,1.8-8.2,4.9-11.2,8.8
		C18,46.8,17.9,47,18,47.3c0.6,2.2-0.4,4-1.7,5.6c-1.8,2.3-3,4.9-5.1,6.9c-0.8,0.8-1.5,1.6-2.2,2.4c1.7-3.8,4.1-7.2,6.3-10.7
		c0.5-0.8,0.3-1.6,0.7-2.3c3.1-6.6,8-11.5,14.6-14.6c0.7-0.3,3.1,0.7,3.3,1.4c0.3,1,1.1,1.1,2,1C37.1,36.9,38.1,36.3,39.2,35.9z"/>
	<path class="st2" d="M39.8,12.9c0.8,1.1,2.1,1.2,3.2,1.7c1,0.5,2.2,0.8,3.3,1.3c2.3,1.2,2.4,3.5,0.2,5c-0.4,0.2-0.8,0.4-1.2,0.7
		c-1,0.4-1.5,1.1-1.6,2.2C42,22.9,42.7,22,43.7,21c0.7-0.7,1.4-1.5,2-2.3c0.6-0.7,0.7-1.3-0.2-2c-1.5-1-3.2-1.7-4.9-2.5
		C40.1,14,39.2,13.8,39.8,12.9z"/>
	<path class="st6" d="M43.3,24.2c-2.8,1.4-5.2,1.3-6.7-0.2c-0.4-0.6-1.4-0.9-1-1.9c2,1.2,4.2,1.9,6.6,1.3
		C42.8,23.3,43.1,23.8,43.3,24.2z"/>
	<path class="st7" d="M34.5,22.4c-1.9-1.1-3.4-2.6-4.4-4.6c0.8,0.7,1.6,1.4,2.4,2.1c0,0.2,0.3,0.2,0.4,0.3l0,0
		c0.1,0.1,0.1,0.1,0.2,0.2l0,0c0.1,0.1,0.1,0.2,0.2,0.2l0,0c0,0.2,0.3,0.1,0.4,0.3l0,0c0.1,0.1,0.1,0.1,0.2,0.2l0,0
		c0.1,0.2,0.3,0.1,0.4,0.2l0,0c0.1,0.1,0.1,0.1,0.2,0.2l0,0C34.1,21.7,34.6,22.1,34.5,22.4z"/>
	<path class="st8" d="M34.5,22.4c-0.1-0.3-0.8-0.7,0-1c0.4,0.3,0.8,0.5,1.2,0.8c0.1,0.7,0.6,1.3,1,1.9C35.9,23.5,35.2,23,34.5,22.4z
		"/>
	<path class="st9" d="M42.2,32.3c0.3-0.4,0.5-0.8,0.8-1.2c0.1,0.1,0.2,0.2,0.3,0.3c-0.2,0.5-0.5,0.9-1,1.2
		C42.1,32.5,42.1,32.4,42.2,32.3z"/>
	<path class="st10" d="M100.7,57.3c-0.1-0.7-0.2-1.5,0.3-2.1C100.9,55.8,100.8,56.6,100.7,57.3z"/>
	<path class="st11" d="M36.1,36.3c-0.4,0.1-1,0.3-1.2-0.2c-0.2-0.4,0.3-0.1,0.5-0.1c0.2,0,0.4,0.1,0.7,0.1
		C36.1,36.2,36.1,36.2,36.1,36.3C36.1,36.3,36.1,36.3,36.1,36.3z"/>
	<path class="st12" d="M41.6,81.3c0.2,0.3,0.2,0.7,0,1C41.6,81.9,41.6,81.6,41.6,81.3z"/>
	<path class="st13" d="M106.6,35.3c0-0.1,0-0.2,0-0.4c0.2,0,0.4-0.1,0.5,0.1C107.1,35.1,106.7,35.2,106.6,35.3z"/>
	<path class="st14" d="M36.1,36.3c0-0.1,0-0.1,0-0.2c0.2-0.1,0.4-0.1,0.6-0.2c0.1,0.1,0.2,0.2,0.2,0.2
		C36.6,36.4,36.3,36.3,36.1,36.3z"/>
	<path class="st15" d="M110.2,35c-0.1,0.1-0.2,0.3-0.4,0.1c0,0,0.1-0.3,0.1-0.4C110,34.8,110.1,34.9,110.2,35z"/>
	<path class="st8" d="M34.3,21.2c-0.1-0.1-0.2-0.2-0.4-0.2C34,21.1,34.1,21.2,34.3,21.2z"/>
	<path class="st8" d="M33.7,20.8c-0.1-0.1-0.2-0.2-0.4-0.3C33.4,20.7,33.5,20.8,33.7,20.8z"/>
	<path class="st8" d="M32.9,20.2c-0.1-0.1-0.2-0.2-0.4-0.3C32.6,20.1,32.7,20.2,32.9,20.2z"/>
	<path class="st16" d="M102.8,117.3c-0.1-0.2-0.1-0.3-0.2-0.5C102.7,117,102.8,117.2,102.8,117.3z"/>
	<path class="st17" d="M40,35.1c-0.1,0.1-0.1,0.1-0.2,0.2C39.9,35.2,39.9,35.2,40,35.1z"/>
	<path class="st17" d="M39,35.3c0.1,0,0.1-0.1,0.2-0.1C39.2,35.2,39.1,35.2,39,35.3z"/>
	<path class="st17" d="M40.2,34.9C40.1,35,40.1,35,40,35.1c0,0,0-0.1,0-0.1c0,0,0-0.1,0-0.1c0,0,0.1,0,0.1,0
		C40.1,34.8,40.2,34.9,40.2,34.9z"/>
	<path class="st17" d="M39.4,35.1c0-0.1,0-0.1,0-0.2c0.1,0,0.1,0,0.2,0C39.5,35,39.5,35.1,39.4,35.1z"/>
	<path class="st17" d="M39.8,35.3c-0.1,0.1-0.1,0.1-0.2,0.2C39.7,35.4,39.7,35.3,39.8,35.3z"/>
	<path class="st17" d="M39.8,34.9c0.1,0,0.1-0.1,0.2-0.1c0.1,0,0.1,0,0.1,0.1c0,0,0,0.1,0,0.1c0,0,0,0.1-0.1,0.1
		C39.9,35,39.8,34.9,39.8,34.9z"/>
	<path class="st8" d="M34.5,21.4c-0.1-0.1-0.2-0.1-0.2-0.2C34.3,21.3,34.4,21.4,34.5,21.4z"/>
	<path class="st8" d="M33.9,21c-0.1-0.1-0.2-0.1-0.2-0.2C33.8,20.9,33.8,21,33.9,21z"/>
	<path class="st8" d="M33.3,20.6c-0.1-0.1-0.2-0.1-0.2-0.2C33.2,20.5,33.3,20.5,33.3,20.6z"/>
	<path class="st8" d="M33.1,20.4c-0.1-0.1-0.1-0.1-0.2-0.2C33,20.3,33,20.4,33.1,20.4z"/>
	<path class="st3" d="M77.3,6.2c1.1,0.9,2.3,1.8,3.4,2.7c1.4,1.1,2.4,2.4,3.1,4c0.6,1.3,0.2,2.1-1.1,2.4c-4.4,1-8.8,1.3-13.3,1.2
		c-0.7,0-1.1-0.2-0.8-1c0.6-1.4,0.5-2.8,0.2-4.2c0.6-0.8,0.4-1.4-0.3-2c-1.2-1-2.3-2.2-3.3-3.5c-0.4-0.5-0.5-0.9,0.3-0.9
		C69.4,4.6,73.4,4.8,77.3,6.2z"/>
	<path class="st5" d="M112.1,18c-0.2,1.6-1.4,2.5-2.5,3.3c-3.7,2.6-8,3.7-12.5,4.1c-0.2-0.1-0.3-0.3-0.4-0.5c0.1-0.6-0.5-1.2,0-1.9
		c0-1.1,0.4-1.2,1.5-0.9c4.1,1.1,7.9-0.1,11.4-2.2C110.5,19.3,111.3,18.6,112.1,18z"/>
	<path class="st18" d="M91.5,14.3c1.1-1.2,2.5-2,4-2.6c0.3-0.1,0.6-0.3,0.8-0.1c0.3,0.3,0,0.6-0.1,0.8c-0.5,1.2-1,2.4-1.6,3.6
		c-0.1,0.1-0.2,0.3-0.4,0.3C93.3,16.5,91.7,15.4,91.5,14.3z"/>
	<path class="st19" d="M91.5,14.3c0.8,1,1.7,2,3.2,1.8c-0.6,2.4-0.6,2.4-2.7,1.1c-0.1-0.1-0.2-0.1-0.3-0.2
		C89.8,15.8,89.8,15.7,91.5,14.3z"/>
	<path class="st20" d="M99.3,19c0.1,0.6,0.3,1.2,0.4,1.8c0,0.2,0,0.3-0.2,0.2c-0.5-0.7-1.2-1.1-2-1.4c-0.2-0.1-0.4-0.3-0.6-0.4
		c0.2-0.1,0.4-0.3,0.7-0.3c0.3-0.1,0.6-0.1,1-0.2C98.7,18.9,99,18.9,99.3,19z"/>
	<path class="st21" d="M96.7,23c0.1,0.6,0.2,1.3,0.2,1.9c0,0.2,0.3,0.5-0.2,0.6c0,0,0,0,0,0c-0.2-1.3-0.7-2.5-0.2-3.8
		C96.6,22.2,96.3,22.7,96.7,23z"/>
	<path class="st22" d="M99.3,19c-0.4,0.2-0.8,0.4-0.8-0.3C98.8,18.6,99.2,18.4,99.3,19z"/>
	<path class="st23" d="M99.5,21c0.1-0.1,0.2-0.2,0.2-0.2c0.1,0.2,0.2,0.3,0.1,0.5C99.7,21.2,99.6,21.1,99.5,21z"/>
	<path class="st24" d="M88.9,50.2c0,2-0.3,3.9-1.3,5.6c-1.4,2.3-3.8,2.4-5.2,0.1c-2.1-3.7-2.2-7.6-0.3-11.4c1.3-2.5,3.6-2.5,5.2-0.1
		C88.3,45.7,88.8,47.9,88.9,50.2z"/>
	<path class="st24" d="M61.9,50.4c0,1.5-0.4,3.4-1.5,5.2c-1.5,2.4-3.9,2.4-5.2,0c-2-3.8-1.9-7.7,0.2-11.4c1.4-2.4,3.8-2.3,5.2,0.2
		C61.6,46,61.9,47.9,61.9,50.4z"/>
	<path class="st25" d="M84.6,112.4c3.5-0.6,6.9-0.9,10.4,0.2c0.5,0.2,1.6,0.4,1.4,0.7c-0.2,0.5-1-0.1-1.5-0.2
		c-2.5-0.6-5-0.8-7.5-0.3c-1.8,0-3.5,0.7-5.3,1.1c-0.3,0.1-0.5,0.1-0.5-0.3C82.6,113.2,83.6,112.8,84.6,112.4z"/>
	<path class="st26" d="M49.3,112c2.5-0.6,5-0.7,7.5-0.3c1.3,0.4,2.7,0.7,4,1.5c0.2,0.1,0.4,0.3,0.3,0.4c-0.1,0.3-0.3,0.1-0.5,0
		c-3.2-1.7-6.6-1.8-10.1-1.5C50.2,112.2,49.7,112.6,49.3,112z"/>
	<path class="st27" d="M49.3,112c0.4,0.3,0.8,0.1,1.3,0.2c-0.3,0.1-0.6,0.1-0.9,0.2c-0.1,0-0.3,0-0.4,0c-0.3,0-0.6,0-1,0
		C48.6,112.1,49,112.1,49.3,112z"/>
	<path class="st28" d="M96.7,25.6c0.1-0.2,0.1-0.4,0.2-0.6c0.1,0.2,0.1,0.3,0.2,0.5c0,0.1,0,0.1,0,0.2c0.1,0.2,0.1,0.4,0.1,0.6
		c0,0.2-0.1,0.3-0.3,0.3C96.9,26.1,96.8,25.9,96.7,25.6z"/>
	<path class="st29" d="M81.6,113.5c0.2,0.1,0.3,0.2,0.5,0.3c-0.2,0.1-0.4,0.1-0.6,0.2c-0.2,0-0.4,0.2-0.4-0.2
		C81.2,113.7,81.4,113.6,81.6,113.5z"/>
	<path class="st30" d="M40.4,34.5c0.2-0.1,0.4-0.3,0.6-0.4c-0.2,0.2-0.4,0.4-0.6,0.7C40.3,34.6,40.3,34.6,40.4,34.5z"/>
	<path class="st31" d="M96.9,26.4c0.1-0.1,0.1-0.2,0.2-0.3c0.1-0.1,0.1,0,0.1,0c0,0.2,0,0.5,0,0.7C97.2,26.8,97,26.6,96.9,26.4z"/>
	<path class="st32" d="M81,113.8c0.1,0.1,0.3,0.2,0.4,0.2c-0.2,0.1-0.5,0.2-0.7,0.1C80.8,114,80.9,113.9,81,113.8z"/>
	<path class="st33" d="M40.4,34.5c0,0.1,0,0.2,0.1,0.2c-0.1,0.1-0.2,0.1-0.2,0.2c0,0-0.1,0-0.1,0c0-0.1,0-0.1,0-0.2
		C40.3,34.6,40.3,34.5,40.4,34.5z"/>
	<path class="st34" d="M41.8,33c0.1-0.2,0.1-0.3,0.2-0.5c0.1,0.1,0.1,0.2,0,0.3C41.9,32.8,41.9,32.9,41.8,33z"/>
	<path class="st35" d="M42,32.8c0-0.1,0-0.2,0-0.3c0.1-0.1,0.1-0.2,0.2-0.2c0,0.1,0,0.2,0,0.3C42.1,32.6,42.1,32.7,42,32.8z"/>
	<path class="st36" d="M40.2,34.6c0,0.1,0,0.1,0,0.2c0,0-0.1,0-0.1,0c0,0,0-0.1,0-0.1C40.1,34.7,40.1,34.7,40.2,34.6z"/>
	<path class="st5" d="M97.3,26.2c0,0-0.1,0-0.1,0c0-0.2,0-0.4,0-0.6C97.2,25.8,97.2,26,97.3,26.2z"/>
	<path class="st37" d="M82,53.3c-0.7-2.7-0.7-5.3,0.4-7.9c0.4-1,1-1.9,2.2-1.9c1.2-0.1,1.8,0.9,2.3,1.8c0.5,0.9,0.8,1.9,0.9,2.9
		c0.2,0.7,0.1,1.4,0.1,2.2c0,0.4-0.1,0.9-0.6,0.9c-0.6,0-0.5-0.5-0.6-0.9c0-0.1-0.1-0.2-0.1-0.3c-0.1-0.6-0.3-1.2-0.4-1.7
		c-0.1-0.3-0.2-0.5-0.5-0.2c-1.2,1-1.2,1-2.4,0.1c-0.4-0.3-0.3,0.1-0.3,0.2c-0.5,1.5-0.3,3,0.2,4.4c0.1,0.2,0.1,0.4,0.1,0.6
		c0,0.1,0,0.2,0,0.3c-0.3,0.5-0.6,0.3-0.9,0l0,0C82.1,53.6,82.1,53.5,82,53.3z"/>
	<path class="st38" d="M82.2,53.8c0.2-0.2,0.7,0.3,0.8-0.2c0.4-0.1,0.5,0.2,0.8,0.4c0.8,0.5,1.4,0.4,1.9-0.3
		c0.5-0.7,0.7-1.5,0.7-2.4c0-0.5-0.1-1,0.3-1.4c0,0.1,0.1,0.1,0.1,0.2c0.3,0.3-0.2,1.1,0.4,1c0.5-0.1,0.5-0.8,0.5-1.3
		c0-0.5,0-1,0-1.5c0.5,2.3,0.3,4.5-0.7,6.6c-0.4,1-1,1.9-2.3,1.9c-1.2,0-1.7-1-2.2-1.8C82.4,54.6,82.3,54.1,82.2,53.8z"/>
	<path class="st38" d="M82,53.3c0.1,0.1,0.1,0.3,0.2,0.4C82.1,53.6,82.1,53.5,82,53.3z"/>
	<path class="st37" d="M55.2,53.6c-0.9-2.9-0.7-5.8,0.6-8.5c0.4-0.9,1-1.8,2.2-1.8c1.2,0,1.7,0.9,2.2,1.9c0.3,0.6,0.6,1.2,0.6,1.9
		c0,0.5,0.2,1.1-0.5,1.3c-0.5-0.1-0.5-0.5-0.7-0.9c-0.1-0.2-0.1-0.4-0.4-0.4c-0.2,0-0.2,0.2-0.2,0.4c-0.1,0.5-0.3,0.9-0.6,1.3
		c-0.4,0.4-0.9,0.8-1.5,0.4c-0.5-0.3-0.6,0-0.6,0.4c-0.2,1.2,0.1,2.4,0.5,3.6c0,0.1,0.1,0.2,0.1,0.3c0,0,0,0.1,0,0.1
		c0,0.1,0,0.2,0,0.3c0,0.1-0.1,0.2-0.2,0.2C56.2,54.1,55.7,53.9,55.2,53.6z"/>
	<path class="st38" d="M55.2,53.6c0.6-0.2,1.1,0.4,1.7,0.4c0,0,0.1,0,0.1,0c0.7-0.1,1.5,0.3,2-0.4c0.7-0.9,1-1.9,1.1-3
		c0.1-0.8-0.3-1.6,0.1-2.3c0.6-0.2,0.3-0.8,0.6-1.2c0.7,2.4,0.4,4.8-0.5,7c-0.5,1.2-1,2.6-2.6,2.4C56.1,56.3,55.6,54.9,55.2,53.6z"
		/>
	<path class="st0" d="M86.8,49.8c-0.1,1,0.1,2.1-0.3,3.1c-0.3,0.8-0.7,1.6-1.6,1.7c-0.9,0.2-1.3-0.5-1.8-1.1c0,0,0,0,0,0
		c-0.1-0.1-0.1-0.3-0.2-0.4c-0.7-1.7-0.8-3.5-0.2-5.3c0.1-0.2,0.2-0.4,0.4-0.5c0.1,0.2,0.1,0.3,0.2,0.5c0.2,0.4,0.4,1,1,1
		c0.7,0,0.9-0.5,1.2-1c0.1-0.2,0.3-0.4,0.4-0.7c0.2,0.2,0.4,0.4,0.5,0.7C86.5,48.5,86.6,49.1,86.8,49.8z"/>
	<path class="st38" d="M82.8,53.1c0.1,0.1,0.1,0.3,0.2,0.4C83,53.4,82.9,53.3,82.8,53.1z"/>
	<path class="st0" d="M60.2,48.2c0.3,1.8,0.3,3.5-0.6,5.1c-0.7,1.2-1.6,1.4-2.7,0.6c0-0.1-0.1-0.1-0.1-0.2c0-0.1-0.1-0.1-0.2-0.2
		l0,0c-0.1-0.1-0.1-0.1-0.2-0.2c-0.7-1.5-0.8-3-0.4-4.6c0-0.1,0.1-0.3,0.2-0.4c0.1,0.1,0.2,0.2,0.2,0.3c0.7,1,1.3,0.6,1.8-0.2
		c0.1-0.2,0.2-0.5,0.3-0.7c0.1-0.4,0.3-0.9,0.4-1.3c0.6,0.3,0.8,0.9,1.1,1.5C60.1,47.9,60.2,48,60.2,48.2z"/>
	<path class="st38" d="M56.5,53.3c0.1,0.1,0.1,0.2,0.2,0.2C56.6,53.5,56.5,53.4,56.5,53.3z"/>
	<path class="st38" d="M56.7,53.5c0.1,0.1,0.1,0.1,0.2,0.2C56.8,53.7,56.7,53.6,56.7,53.5z"/>
	<path class="st39" d="M86.2,51.7c-0.1,0.4-0.2,0.8-0.6,0.9c-0.4,0.1-0.4-0.3-0.4-0.5c0-0.4,0.2-0.8,0.6-0.9
		C86.1,51.2,86.2,51.4,86.2,51.7z"/>
	<path class="st40" d="M59,51.3c0.1-0.4-0.1-1,0.5-1.1c0.3,0,0.3,0.3,0.3,0.6c-0.1,0.4-0.1,1-0.6,1.1C58.8,52,59.1,51.5,59,51.3z"/>
</g>
</svg>
