<svg xmlns="http://www.w3.org/2000/svg" viewBox="0 0 207.9 199.83" preserveAspectRatio="xMidYMid meet"><defs><style>.cls-1{fill:#fff;}</style></defs><title>logo_white</title><g id="Calque_2" data-name="Calque 2"><path class="cls-1" d="M193.25,109.77c7.27,2.35-4.62-14.68-27.7-28.7,17-5.39,15.26-23.69,15.07-28.52a.61.61,0,0,0,0-.14c0-.17,0-.32,0-.45a6.57,6.57,0,0,0,0-.78c-.38-3.69-3.51-4.59-4.81,1-.91,4-4.49,7.62-9.4,10V43.52a15.68,15.68,0,0,0,10.07-7.93.63.63,0,0,0,.33.09.79.79,0,0,0,.29-.06.67.67,0,0,0,.31-.89,2.34,2.34,0,0,1-.23-.67l.12-.33a6.17,6.17,0,0,1,1.76-.35c1.82-.2,4.31-.48,5.19-3a3.25,3.25,0,0,0-.31-3c-1.13-1.67-3.86-2.46-5.8-2.78a13.44,13.44,0,0,0-1.62-4.85A19.48,19.48,0,0,0,164.33,8.68c-3.35-1.12-6.46-1.09-3.55,3.86a17.9,17.9,0,0,0-9.1-2.44c-2.7.1.75,2.23,3.6,3.78a15.29,15.29,0,0,0-8.82,14c0,.25,0,.48,0,.72a18.83,18.83,0,0,1-2.32,3.48c-.54.65-1,1-1.36,1-.54,0-1.14-.93-1.72-1.8-.84-1.26-1.79-2.68-3.32-2.75a.71.71,0,0,0-.7.64.66.66,0,0,0,.64.69c.86,0,1.57,1.12,2.27,2.16s1.55,2.33,2.76,2.39h.1a3.28,3.28,0,0,0,2.36-1.45,22.82,22.82,0,0,0,1.53-2.08A15.85,15.85,0,0,0,159,43.58v20.5h-1.9a.66.66,0,0,0-.67.66c-.55,0-1.11.06-1.67.06l-4.84,0a15.3,15.3,0,0,0-1.86-2c1.22-.3,4.84-2.42,4.59-3.83s-2.14-2.66-8,2.06c0,0,5.51-13.27,3.06-13.56s-8.59,4.58-10.73,9.3c-6.12-16.22-26-18.15-33-18.74s-7.35,1.48-5.51,2.66,4,3.53,4.89,8c-20.81-9.73-42.84,1.18-42.54,2.94s2.45,3.84,8.57,6.49a14.54,14.54,0,0,0-4.88,6.71H63c-10.37,0-19.51-5.92-21-12.58-1.3-5.63-4.43-4.73-4.81-1a6.57,6.57,0,0,0,0,.78c0,.13,0,.28,0,.44s0,.1,0,.14c0,.8-.1,2-.13,3.42v.95a41.27,41.27,0,0,0,.25,4.64v0c.58,5.09,2.35,11,7.26,15.3l.09.08c.32.27.64.53,1,.78l.06.05a20.35,20.35,0,0,0,3.61,2.14C30.69,91.59,23,105,27.82,103.68c-7.46,5.6-14.67,21.07-16.8,24.8s-1.87,6.93,1.07,6.13c-2.67,4.54-7.75,28.77-8,34.37s2.13,13.61,6.67,13.34a7.55,7.55,0,0,0,2.22-.61c.24.51.5,1,.78,1.6l.1.18c.25.49.53,1,.82,1.53.06.12.13.23.2.35.27.5.58,1,.89,1.55.09.14.17.29.26.44l1.3,2.1c.25.38.53.78.84,1.18a42.83,42.83,0,0,0,9.85,8.6c4.48,2.93,9.19,5,12,4.66a6,6,0,0,0,2.87-1.35,20.11,20.11,0,0,0,5.27-7.2c6.34,1.71,6-3.62,6.57-8a10,10,0,0,0,.09-1.45,13.65,13.65,0,0,0-.39-3,29.87,29.87,0,0,0-3.82-8.5,45.66,45.66,0,0,0-3.4-4.75l-.17-.17h0c.91-.52,1.36-1.45,1-3-1.1-4.43,1.56-51.58,15.51-61.5,0,28.44,2.38,97.78,2.38,97.78s-5,1.34-4.48,5.16h41.34s-.8-6.67-.8-12a19,19,0,0,0,10.4.21l-.27,11.79h44s0-2.75-3.74-5.42c0,0-.14-67-.19-92.46.23-1.44.43-2.94.61-4.49,11.32,10.49,21.47,41.06,13.69,63.34-.88,2.53-.31,4.3.77,5.11h0c-.15.22-.29.45-.44.69s-.12.21-.19.31l-.57,1-.38.69c-.11.19-.21.39-.32.59l-.45.91-.18.38c-.18.39-.35.78-.51,1.18a3.05,3.05,0,0,0-.13.32c-.17.42-.32.85-.47,1.28,0,.06,0,.12-.05.18-.14.43-.26.85-.36,1.28a.83.83,0,0,0,0,.15,12.92,12.92,0,0,0-.25,1.33l0,.25a11.38,11.38,0,0,0-.1,1.29V186a9.74,9.74,0,0,0,.08,1.32c.62,4.36.24,9.69,6.58,8a5.7,5.7,0,0,0,.3.72,22.19,22.19,0,0,0,3.64,5.26c.21.22.43.43.65.64a6.73,6.73,0,0,0,3.54,1.93,6.23,6.23,0,0,0,1.15,0,9.07,9.07,0,0,0,1.3-.19,24,24,0,0,0,6.22-2.48q.84-.45,1.68-1c5.07-3,10.19-7.38,12.38-10.83h0c.37-.58.71-1.14,1-1.68.11-.17.21-.35.31-.52.23-.37.44-.73.64-1.08l.32-.54c.25-.44.49-.87.71-1.28l.37-.71c.1-.19.19-.38.29-.56s.26-.52.38-.78l.14-.28c.28-.6.53-1.17.76-1.71a4.38,4.38,0,0,0,1.66-.71C220,170,204.74,123,193.25,109.77Zm-36.6-86.93c-.34,2.82-1.85,5-3.39,4.78s-2.52-2.61-2.19-5.44,1.85-5,3.39-4.78S157,20,156.65,22.84Zm-66.83,92c-3.06.35-6.06-3.91-6.71-9.52s1.31-10.45,4.37-10.81,6.07,3.92,6.72,9.53S92.88,114.49,89.82,114.84Zm42.61-9.54c-.63,5.62-3.63,9.89-6.69,9.54s-5-5.17-4.4-10.79S125,94.17,128,94.51,133.06,99.69,132.43,105.3ZM165,22.77c.36-3.13,2-5.51,3.73-5.32s2.81,2.89,2.46,6-2,5.51-3.73,5.32S164.69,25.9,165,22.77Zm-4.75,21.05a17.69,17.69,0,0,0,2.31.18,15.88,15.88,0,0,0,2.41-.21v19a27,27,0,0,1-4.72,1.45Z" transform="translate(-4.05 -8.08)"/></g></svg>