<?xml version="1.0" encoding="utf-8"?>
<!-- Generator: Adobe Illustrator 23.0.6, SVG Export Plug-In . SVG Version: 6.00 Build 0)  -->
<svg version="1.1" id="Calque_1" xmlns="http://www.w3.org/2000/svg" xmlns:xlink="http://www.w3.org/1999/xlink" x="0px" y="0px"
	 viewBox="0 0 202 223" style="enable-background:new 0 0 202 223;" xml:space="preserve">
<style type="text/css">
	.st0{fill:#FFFFFF;}
</style>
<g>
	<g>
		<path class="st0" d="M28.8,175.8c-2.1,0-3.8,1.7-3.8,3.9v7.5c-2.2-1-4.4-1.4-6.7-1.4c-7.3,0-11.8,4.4-12.4,11.6
			c-0.2,2.7-0.2,5.3,0,7.8c0.3,3.5,1.6,6.4,4,8.6c2.4,2.2,5.6,3.2,9.4,3.2c5.1,0,9.7-1.9,11.9-3.5c0.9-0.6,1.4-1.5,1.4-2.7v-31.1
			C32.6,177.5,30.9,175.8,28.8,175.8L28.8,175.8z M19.5,209.8c-3.8,0-5.8-1.9-6-5.7c-0.2-2-0.2-3.8,0-5.5c0.2-3.7,2.1-5.5,5.6-5.5
			c2.4,0,4.4,0.5,6,1.5V208C24,208.9,21.4,209.8,19.5,209.8L19.5,209.8z"/>
	</g>
	<g>
		<path class="st0" d="M50.6,185.8c-3.4,0-6.1,0.5-8.3,1.4c-1.6,0.7-2.5,1.8-2.5,3.5c0,1.9,1.3,3.3,3.4,3.3c0.6,0,1.2-0.1,1.8-0.3
			c2-0.6,3.8-1,5.5-1c3.9,0,5.4,1.4,5.4,4.4v1.5c-2.4-0.6-4.5-0.9-6.3-0.9c-7.9,0-11.7,4-11.7,9.3c0,5.7,4.2,10,12,10
			c4.9,0,8.9-1,12-3.1c0.9-0.6,1.4-1.5,1.4-2.7v-13.9C63.1,189.7,58.9,185.8,50.6,185.8L50.6,185.8z M50.3,210.6
			c-3.2,0-5.1-1.4-5.1-3.8c0-2.2,1.9-3.7,4.9-3.7c1.8,0,3.6,0.3,5.7,0.9v5.1C54.3,210.1,52.4,210.6,50.3,210.6L50.3,210.6z"/>
	</g>
	<g>
		<path class="st0" d="M72.5,180.7c-1.3,0-2.3,1-2.3,2.3v24.7c0,5.6,2.9,9.4,8.7,9.4c2.2,0,4.2-0.3,5.9-1c1.2-0.4,1.9-1.1,1.9-2.2
			c0-1.3-0.8-2.2-2.1-2.2c-0.3,0-0.5,0-0.8,0.1c-2.3,0.7-3.9,1-4.5,1c-3,0-4.4-1.9-4.4-4.9v-16h8.6c1.1,0,2.2-1,2.2-2.1
			s-1-2.1-2.2-2.1h-8.6V183C74.9,181.8,73.8,180.7,72.5,180.7L72.5,180.7z"/>
	</g>
	<g>
		<path class="st0" d="M103.8,186.4c-7,0-11.9,4.5-12.6,11.8c-0.2,1.9-0.2,4.1-0.1,6.8c0.4,7.4,5.2,12.2,12.9,12.2
			c3.4,0,7.2-0.7,9-1.8c0.9-0.5,1.2-1.2,1.2-2c0-1.1-0.9-2-2.1-2c-0.4,0-0.7,0.1-1.1,0.2c-2.8,1-5.1,1.5-6.9,1.5
			c-5.1,0-8.5-3.1-8.5-8.3v-0.9h17c2.2,0,3.4-1.1,3.4-3.3v-1.7c0-3.6-1.1-6.6-3.4-8.9C110.5,187.5,107.5,186.4,103.8,186.4
			L103.8,186.4z M95.7,199.8c-0.2-5.7,2.7-9.3,8.2-9.3c4.9,0,8,3.5,7.7,8.6c-0.1,0.5-0.3,0.7-0.7,0.7H95.7L95.7,199.8z"/>
	</g>
	<g>
		<path class="st0" d="M134.1,186.4c-3.5,0-6.5,0.6-9,1.8c-1,0.5-1.5,1.2-1.5,2.2c0,1.2,0.9,2,2.1,2c0.4,0,0.8-0.1,1.2-0.2
			c2.6-1,4.9-1.5,6.8-1.5c4.8,0,7.1,2,7.1,6.5v2.3c-3-0.8-5.6-1.2-8-1.2c-7.3,0-11.4,3.9-11.4,9.2c0,5.8,4.1,9.7,11.4,9.7
			c2.4,0,4.8-0.3,6.9-1c2.2-0.7,3.7-1.4,4.7-2.2c0.6-0.4,1-1,1-1.9V197C145.2,189.8,141.1,186.4,134.1,186.4L134.1,186.4z
			 M133.2,213c-4.8,0-7.3-1.9-7.3-5.6c0-3.2,2.8-5.2,6.9-5.2c2,0,4.7,0.4,7.9,1.2v7.4C139.8,211.8,137.2,213,133.2,213L133.2,213z"
			/>
	</g>
	<g>
		<path class="st0" d="M182.3,186.4c-3.2,0-6.2,1.1-9,3.5c-1.8-2.3-4.7-3.5-8.7-3.5s-7.3,1-9.8,3c-0.8,0.6-1.2,1.4-1.2,2.2v22.9
			c0,1.4,1,2.4,2.3,2.4s2.3-1,2.3-2.4v-21.9c1.9-1.2,4-1.9,6.5-1.9c4.3,0,6.5,2.3,6.5,7v16.8c0,1.4,1,2.4,2.3,2.4s2.3-1,2.3-2.4
			v-20.7c1.4-2,3.6-3,6.5-3c4.3,0,6.5,2.5,6.5,7.5v16.2c0,1.4,1,2.4,2.3,2.4s2.3-1,2.3-2.4V198C193.3,190.3,189.9,186.4,182.3,186.4
			L182.3,186.4z"/>
	</g>
	<g>
		<path class="st0" d="M132.4,47.7c0.2,0,0.2,0,0.3,0.1c-0.2,0.5-2,1.7-2.8,1.9l-1.8,0.4l0,0C130.8,47.9,132,47.7,132.4,47.7
			 M140.4,8.5c-1.4,0-2,0.8-0.5,3.4c-1.8-1.1-4.6-1.9-6.7-1.9c-0.1,0-0.2,0-0.3,0c-2.1,0.1,0.6,1.7,2.8,2.9c-3.9,1.7-6.8,6-6.8,10.8
			c0,0.2,0,0.4,0,0.6c-0.5,0.9-1.1,1.9-1.8,2.7c-0.4,0.5-0.7,0.8-1,0.8c0,0,0,0-0.1,0c-0.4,0-0.9-0.7-1.3-1.4
			c-0.6-1-1.4-2.1-2.6-2.1c-0.3,0-0.5,0.2-0.5,0.5s0.2,0.5,0.5,0.5c0.7,0,1.2,0.9,1.7,1.7c0.6,0.9,1.2,1.8,2.1,1.8h0.1
			c0.6,0,1.2-0.4,1.8-1.1c0.3-0.4,0.7-0.9,1.2-1.6c0.9,5,4.6,8.7,9.4,9.8v15.8h-1.5c-0.3,0-0.5,0.2-0.5,0.5c-0.4,0-0.9,0-1.3,0h-3.7
			c-0.4-0.5-0.9-1.1-1.4-1.6c0.9-0.2,3.7-1.9,3.5-2.9c-0.1-0.5-0.5-1-1.3-1c-0.9,0-2.5,0.6-4.9,2.6c0,0,4.2-10.2,2.4-10.4
			c-0.1,0-0.1,0-0.2,0c-2,0-6.5,3.6-8.1,7.2c-4.7-12.5-20-14-25.4-14.4c-0.7-0.1-1.2-0.1-1.7-0.1c-3.7,0-3.7,1.3-2.5,2.1
			c1.4,0.9,3.1,2.7,3.8,6.1c-4.8-2.3-9.7-3.1-14.2-3.1C71.1,36.7,62.9,41,63,42c0.2,1.4,1.9,2.9,6.6,5c-1.7,1.2-2.9,3-3.8,5.2h-1.2
			c-8,0-15-4.6-16.2-9.7c-0.5-2.2-1.4-3.1-2.1-3.1c-0.9,0-1.6,1.1-1.6,2.9c0,0.1,0,0.2,0,0.3v0.1c0,0.6-0.1,1.5-0.1,2.6
			c0,0,0,0,0,0.1c0,0.2,0,0.4,0,0.6v0.1c0,1.1,0,2.3,0.2,3.6l0,0c0.4,3.9,1.8,8.5,5.6,11.8c0,0,0,0,0.1,0.1c0.2,0.2,0.5,0.4,0.7,0.6
			l0,0c0.8,0.6,1.7,1.2,2.8,1.6l0,0c-13.5,8.5-19.6,18.3-16.9,18.3c0.1,0,0.3,0,0.5-0.1c-5.7,4.3-11.3,16.2-12.9,19.1
			c-1.5,2.6-1.5,4.8,0.2,4.8c0.2,0,0.4,0,0.6-0.1c-2.1,3.5-6,22.1-6.2,26.4c-0.2,4.2,1.6,10.3,5,10.3c0.1,0,0.1,0,0.2,0
			c0.5,0,1.1-0.2,1.7-0.5c0.2,0.4,0.4,0.8,0.6,1.2l0.1,0.1c0.2,0.4,0.4,0.8,0.6,1.2c0.1,0.1,0.1,0.2,0.2,0.3
			c0.2,0.4,0.4,0.8,0.7,1.2c0.1,0.1,0.1,0.2,0.2,0.3c0.3,0.5,0.6,1.1,1,1.6c2.3,3.5,8.5,8.3,13.3,10.3c0.4,0.2,0.8,0.3,1.2,0.4
			c0.8,0.2,1.5,0.4,2.1,0.4c0.1,0,0.3,0,0.4,0c0.2,0,0.3,0,0.5,0c3-0.4,6-5.6,6.3-6.6c0.6,0.2,1.2,0.3,1.7,0.3c3.1,0,3-3.5,3.4-6.4
			c0.8-5.8-5.8-13.6-5.8-13.6l-0.1-0.1l0,0c0.7-0.4,1-1.1,0.7-2.3c-0.9-3.4,1.2-39.7,11.9-47.3c0,21.9,1.8,75.2,1.8,75.2
			s-3.9,1-3.4,4h31.8c0,0-0.6-5.1-0.6-9.2c1,0.4,2.3,0.6,4,0.6c1.2,0,2.5-0.1,4-0.5l-0.2,9.1h33.9c0,0,0-2.1-2.9-4.2
			c0,0-0.1-51.6-0.2-71.1c0.2-1.1,0.3-2.3,0.5-3.5c8.7,8.1,16.5,31.6,10.5,48.7c-0.7,2-0.2,3.3,0.6,3.9l0,0
			c-0.1,0.2-0.2,0.4-0.3,0.5c0,0.1-0.1,0.1-0.1,0.2c-0.2,0.3-0.3,0.5-0.5,0.8c-0.1,0.2-0.2,0.3-0.3,0.5s-0.2,0.3-0.2,0.5
			c-0.1,0.2-0.2,0.5-0.3,0.7c0,0.1-0.1,0.2-0.1,0.3c-0.1,0.3-0.3,0.6-0.4,0.9c0,0.1-0.1,0.2-0.1,0.2c-0.1,0.3-0.2,0.7-0.4,1v0.1
			c-0.1,0.3-0.2,0.7-0.3,1v0.1c-0.1,0.3-0.1,0.7-0.2,1c0,0.1,0,0.1,0,0.2c0,0.3-0.1,0.7-0.1,1c0,0.1,0,0.1,0,0.2c0,0.3,0,0.7,0.1,1
			c0.4,2.9,0.2,6.4,3.4,6.4c0.5,0,1-0.1,1.7-0.3c0,0.1,0.1,0.3,0.2,0.6c0.3,0.7,1,1.9,1.9,3c0.4,0.6,0.9,1.1,1.4,1.6
			c0.3,0.3,0.7,0.6,1.1,0.8c0.5,0.3,1.1,0.6,1.7,0.7c0.2,0,0.3,0,0.5,0c1.3,0,3-0.5,4.9-1.4c0.8-0.4,1.7-0.9,2.6-1.4
			c2.2-1.3,4.3-2.9,6.1-4.5c0.7-0.7,1.4-1.3,1.9-1.9c0.3-0.3,0.6-0.6,0.8-0.9s0.5-0.6,0.6-0.9c0.3-0.5,0.6-0.9,0.8-1.3
			c0.1-0.1,0.2-0.3,0.2-0.4c0.2-0.3,0.3-0.6,0.5-0.8c0.1-0.1,0.2-0.3,0.2-0.4c0.2-0.3,0.4-0.7,0.5-1c0.1-0.2,0.2-0.4,0.3-0.5
			s0.1-0.3,0.2-0.4c0.1-0.2,0.2-0.4,0.3-0.6c0-0.1,0.1-0.1,0.1-0.2c0.2-0.5,0.4-0.9,0.6-1.3l0,0c0.5-0.1,0.9-0.3,1.3-0.5
			c10-7.4-1.7-43.6-10.5-53.7c0.4,0.1,0.6,0.2,0.9,0.2c3.5,0-5.6-12.1-22.2-22.2c13.1-4.1,11.7-18.2,11.6-22v-0.1c0-0.1,0-0.2,0-0.3
			c0-1.8-0.7-2.9-1.6-2.9c-0.8,0-1.6,0.9-2.1,3.1c-0.7,3-3.5,5.9-7.2,7.7V35.8c3.4-0.8,6.2-3.1,7.8-6.1c0.1,0,0.2,0.1,0.3,0.1
			s0.2,0,0.2-0.1c0.3-0.1,0.4-0.4,0.2-0.7c-0.1-0.2-0.2-0.4-0.2-0.5s0.1-0.2,0.1-0.2c0.2-0.1,0.9-0.2,1.4-0.3c1.4-0.2,3.3-0.4,4-2.3
			c0.3-0.8,0.2-1.6-0.2-2.3c-0.9-1.3-3-1.9-4.5-2.1c-0.2-1.3-0.6-2.6-1.2-3.7c-2.7-5.9-6.8-7.7-9.3-8.5
			C141.9,8.7,141.1,8.5,140.4,8.5L140.4,8.5z M134.3,23.5h-0.1c-1.2-0.1-1.9-2-1.7-4.2c0.2-2.1,1.3-3.7,2.5-3.7h0.1
			c1.2,0.1,1.9,2,1.7,4.2C136.5,21.9,135.4,23.5,134.3,23.5L134.3,23.5z M145.3,24.4h-0.1c-1.3-0.1-2.2-2.2-1.9-4.6
			c0.3-2.3,1.5-4.1,2.7-4.1h0.1c1.3,0.1,2.2,2.2,1.9,4.6S146.5,24.4,145.3,24.4L145.3,24.4z M141.4,36.1c0.6,0,1.2-0.1,1.9-0.2v14.6
			c-1.1,0.5-2.4,0.8-3.6,1.1V36C140.2,36.1,140.8,36.1,141.4,36.1L141.4,36.1z M85.1,90.7c-2.3,0-4.4-3.2-4.9-7.3
			c-0.5-4.3,1-8,3.4-8.3c0.1,0,0.2,0,0.3,0c2.3,0,4.4,3.2,4.9,7.3c0.5,4.3-1,8-3.4,8.3C85.3,90.6,85.2,90.7,85.1,90.7L85.1,90.7z
			 M113.3,90.7c-0.1,0-0.2,0-0.3,0c-2.4-0.3-3.9-4-3.4-8.3c0.5-4.2,2.6-7.4,4.9-7.4c0.1,0,0.2,0,0.3,0c2.4,0.3,3.9,4,3.4,8.3
			C117.7,87.5,115.5,90.7,113.3,90.7L113.3,90.7z"/>
	</g>
</g>
</svg>
